<svg width="103" height="97" viewBox="0 0 103 97" fill="none" xmlns="http://www.w3.org/2000/svg">
<rect width="103" height="97" rx="16" fill="#FCFCFE"/>
<path d="M8.524 14.084C8.38 14.084 8.268 14.044 8.188 13.964C8.108 13.876 8.068 13.756 8.068 13.604V5.936C8.068 5.776 8.108 5.656 8.188 5.576C8.268 5.496 8.38 5.456 8.524 5.456C8.652 5.456 8.752 5.484 8.824 5.54C8.904 5.588 8.976 5.672 9.04 5.792L12.328 11.984H11.968L15.244 5.792C15.308 5.672 15.376 5.588 15.448 5.54C15.52 5.484 15.624 5.456 15.76 5.456C15.896 5.456 16.004 5.496 16.084 5.576C16.164 5.656 16.204 5.776 16.204 5.936V13.604C16.204 13.756 16.164 13.876 16.084 13.964C16.012 14.044 15.9 14.084 15.748 14.084C15.604 14.084 15.492 14.044 15.412 13.964C15.332 13.876 15.292 13.756 15.292 13.604V6.86H15.58L12.58 12.488C12.524 12.592 12.464 12.668 12.4 12.716C12.344 12.756 12.26 12.776 12.148 12.776C12.036 12.776 11.948 12.752 11.884 12.704C11.82 12.656 11.764 12.584 11.716 12.488L8.68 6.848H8.968V13.604C8.968 13.756 8.928 13.876 8.848 13.964C8.776 14.044 8.668 14.084 8.524 14.084ZM20.6016 14.108C20.0336 14.108 19.5416 13.984 19.1256 13.736C18.7096 13.488 18.3856 13.14 18.1536 12.692C17.9296 12.236 17.8176 11.7 17.8176 11.084C17.8176 10.62 17.8816 10.204 18.0096 9.836C18.1376 9.46 18.3256 9.14 18.5736 8.876C18.8216 8.612 19.1136 8.412 19.4496 8.276C19.7936 8.132 20.1776 8.06 20.6016 8.06C21.1696 8.06 21.6616 8.184 22.0776 8.432C22.4936 8.68 22.8136 9.032 23.0376 9.488C23.2696 9.936 23.3856 10.468 23.3856 11.084C23.3856 11.548 23.3216 11.964 23.1936 12.332C23.0656 12.7 22.8776 13.02 22.6296 13.292C22.3816 13.556 22.0856 13.76 21.7416 13.904C21.4056 14.04 21.0256 14.108 20.6016 14.108ZM20.6016 13.328C20.9616 13.328 21.2776 13.24 21.5496 13.064C21.8216 12.888 22.0296 12.632 22.1736 12.296C22.3256 11.96 22.4016 11.556 22.4016 11.084C22.4016 10.356 22.2376 9.8 21.9096 9.416C21.5896 9.032 21.1536 8.84 20.6016 8.84C20.2336 8.84 19.9136 8.928 19.6416 9.104C19.3776 9.272 19.1696 9.524 19.0176 9.86C18.8736 10.188 18.8016 10.596 18.8016 11.084C18.8016 11.804 18.9656 12.36 19.2936 12.752C19.6216 13.136 20.0576 13.328 20.6016 13.328ZM25.3256 14.084C25.1656 14.084 25.0456 14.04 24.9656 13.952C24.8856 13.864 24.8456 13.74 24.8456 13.58V8.576C24.8456 8.416 24.8856 8.296 24.9656 8.216C25.0456 8.128 25.1616 8.084 25.3136 8.084C25.4656 8.084 25.5816 8.128 25.6616 8.216C25.7496 8.296 25.7936 8.416 25.7936 8.576V9.608L25.6616 9.464C25.8296 9 26.1016 8.652 26.4776 8.42C26.8616 8.18 27.3016 8.06 27.7976 8.06C28.2616 8.06 28.6456 8.144 28.9496 8.312C29.2616 8.48 29.4936 8.736 29.6456 9.08C29.7976 9.416 29.8736 9.844 29.8736 10.364V13.58C29.8736 13.74 29.8296 13.864 29.7416 13.952C29.6616 14.04 29.5456 14.084 29.3936 14.084C29.2336 14.084 29.1096 14.04 29.0216 13.952C28.9416 13.864 28.9016 13.74 28.9016 13.58V10.424C28.9016 9.88 28.7936 9.484 28.5776 9.236C28.3696 8.98 28.0336 8.852 27.5696 8.852C27.0336 8.852 26.6056 9.02 26.2856 9.356C25.9736 9.684 25.8176 10.124 25.8176 10.676V13.58C25.8176 13.916 25.6536 14.084 25.3256 14.084ZM34.2939 14.108C33.6779 14.108 33.1459 13.988 32.6979 13.748C32.2579 13.5 31.9139 13.152 31.6659 12.704C31.4259 12.256 31.3059 11.72 31.3059 11.096C31.3059 10.488 31.4259 9.96 31.6659 9.512C31.9059 9.056 32.2339 8.7 32.6499 8.444C33.0739 8.188 33.5619 8.06 34.1139 8.06C34.5059 8.06 34.8579 8.128 35.1699 8.264C35.4819 8.392 35.7459 8.58 35.9619 8.828C36.1859 9.076 36.3539 9.376 36.4659 9.728C36.5859 10.08 36.6459 10.476 36.6459 10.916C36.6459 11.044 36.6099 11.14 36.5379 11.204C36.4659 11.26 36.3619 11.288 36.2259 11.288H32.0499V10.652H35.9979L35.8059 10.808C35.8059 10.376 35.7419 10.012 35.6139 9.716C35.4859 9.412 35.2979 9.18 35.0499 9.02C34.8099 8.86 34.5059 8.78 34.1379 8.78C33.7299 8.78 33.3819 8.876 33.0939 9.068C32.8139 9.252 32.6019 9.512 32.4579 9.848C32.3139 10.176 32.2419 10.56 32.2419 11V11.072C32.2419 11.808 32.4179 12.368 32.7699 12.752C33.1299 13.136 33.6379 13.328 34.2939 13.328C34.5659 13.328 34.8339 13.292 35.0979 13.22C35.3699 13.148 35.6339 13.028 35.8899 12.86C36.0019 12.788 36.1019 12.756 36.1899 12.764C36.2859 12.764 36.3619 12.792 36.4179 12.848C36.4739 12.896 36.5099 12.96 36.5259 13.04C36.5499 13.112 36.5419 13.192 36.5019 13.28C36.4699 13.368 36.4019 13.444 36.2979 13.508C36.0339 13.7 35.7219 13.848 35.3619 13.952C35.0019 14.056 34.6459 14.108 34.2939 14.108ZM39.2783 16.244C39.1583 16.244 39.0623 16.212 38.9903 16.148C38.9183 16.084 38.8743 15.996 38.8583 15.884C38.8503 15.78 38.8703 15.672 38.9183 15.56L39.7463 13.7V14.12L37.4423 8.768C37.3943 8.648 37.3783 8.536 37.3943 8.432C37.4103 8.328 37.4583 8.244 37.5383 8.18C37.6183 8.116 37.7303 8.084 37.8743 8.084C38.0023 8.084 38.1023 8.112 38.1743 8.168C38.2463 8.224 38.3103 8.324 38.3663 8.468L40.3343 13.292H40.0103L42.0023 8.468C42.0663 8.324 42.1343 8.224 42.2063 8.168C42.2783 8.112 42.3823 8.084 42.5183 8.084C42.6463 8.084 42.7423 8.116 42.8063 8.18C42.8783 8.244 42.9183 8.328 42.9263 8.432C42.9423 8.528 42.9263 8.636 42.8783 8.756L39.8063 15.86C39.7423 16.004 39.6703 16.104 39.5903 16.16C39.5183 16.216 39.4143 16.244 39.2783 16.244ZM48.5361 16.244C48.4161 16.244 48.3201 16.212 48.2481 16.148C48.1761 16.084 48.1321 15.996 48.1161 15.884C48.1081 15.78 48.1281 15.672 48.1761 15.56L49.0041 13.7V14.12L46.7001 8.768C46.6521 8.648 46.6361 8.536 46.6521 8.432C46.6681 8.328 46.7161 8.244 46.7961 8.18C46.8761 8.116 46.9881 8.084 47.1321 8.084C47.2601 8.084 47.3601 8.112 47.4321 8.168C47.5041 8.224 47.5681 8.324 47.6241 8.468L49.5921 13.292H49.2681L51.2601 8.468C51.3241 8.324 51.3921 8.224 51.4641 8.168C51.5361 8.112 51.6401 8.084 51.7761 8.084C51.9041 8.084 52.0001 8.116 52.0641 8.18C52.1361 8.244 52.1761 8.328 52.1841 8.432C52.2001 8.528 52.1841 8.636 52.1361 8.756L49.0641 15.86C49.0001 16.004 48.9281 16.104 48.8481 16.16C48.7761 16.216 48.6721 16.244 48.5361 16.244ZM55.7462 14.108C55.1782 14.108 54.6862 13.984 54.2702 13.736C53.8542 13.488 53.5302 13.14 53.2982 12.692C53.0742 12.236 52.9622 11.7 52.9622 11.084C52.9622 10.62 53.0262 10.204 53.1542 9.836C53.2822 9.46 53.4702 9.14 53.7182 8.876C53.9662 8.612 54.2582 8.412 54.5942 8.276C54.9382 8.132 55.3222 8.06 55.7462 8.06C56.3142 8.06 56.8062 8.184 57.2222 8.432C57.6382 8.68 57.9582 9.032 58.1822 9.488C58.4142 9.936 58.5302 10.468 58.5302 11.084C58.5302 11.548 58.4662 11.964 58.3382 12.332C58.2102 12.7 58.0222 13.02 57.7742 13.292C57.5262 13.556 57.2302 13.76 56.8862 13.904C56.5502 14.04 56.1702 14.108 55.7462 14.108ZM55.7462 13.328C56.1062 13.328 56.4222 13.24 56.6942 13.064C56.9662 12.888 57.1742 12.632 57.3182 12.296C57.4702 11.96 57.5462 11.556 57.5462 11.084C57.5462 10.356 57.3822 9.8 57.0542 9.416C56.7342 9.032 56.2982 8.84 55.7462 8.84C55.3782 8.84 55.0582 8.928 54.7862 9.104C54.5222 9.272 54.3142 9.524 54.1622 9.86C54.0182 10.188 53.9462 10.596 53.9462 11.084C53.9462 11.804 54.1102 12.36 54.4382 12.752C54.7662 13.136 55.2022 13.328 55.7462 13.328ZM62.0541 14.108C61.5821 14.108 61.1901 14.024 60.8781 13.856C60.5741 13.68 60.3421 13.42 60.1821 13.076C60.0301 12.732 59.9541 12.304 59.9541 11.792V8.576C59.9541 8.408 59.9941 8.284 60.0741 8.204C60.1621 8.124 60.2821 8.084 60.4341 8.084C60.5941 8.084 60.7141 8.124 60.7941 8.204C60.8821 8.284 60.9261 8.408 60.9261 8.576V11.78C60.9261 12.292 61.0301 12.676 61.2381 12.932C61.4541 13.18 61.7901 13.304 62.2461 13.304C62.7421 13.304 63.1461 13.136 63.4581 12.8C63.7701 12.464 63.9261 12.024 63.9261 11.48V8.576C63.9261 8.408 63.9661 8.284 64.0461 8.204C64.1341 8.124 64.2581 8.084 64.4181 8.084C64.5701 8.084 64.6861 8.124 64.7661 8.204C64.8541 8.284 64.8981 8.408 64.8981 8.576V13.58C64.8981 13.916 64.7421 14.084 64.4301 14.084C64.2781 14.084 64.1581 14.04 64.0701 13.952C63.9901 13.864 63.9501 13.74 63.9501 13.58V12.488L64.1061 12.656C63.9461 13.128 63.6821 13.488 63.3141 13.736C62.9541 13.984 62.5341 14.108 62.0541 14.108ZM72.2344 14.108C71.6664 14.108 71.1744 13.984 70.7584 13.736C70.3424 13.488 70.0184 13.14 69.7864 12.692C69.5624 12.236 69.4504 11.7 69.4504 11.084C69.4504 10.62 69.5144 10.204 69.6424 9.836C69.7704 9.46 69.9584 9.14 70.2064 8.876C70.4544 8.612 70.7464 8.412 71.0824 8.276C71.4264 8.132 71.8104 8.06 72.2344 8.06C72.8024 8.06 73.2944 8.184 73.7104 8.432C74.1264 8.68 74.4464 9.032 74.6704 9.488C74.9024 9.936 75.0184 10.468 75.0184 11.084C75.0184 11.548 74.9544 11.964 74.8264 12.332C74.6984 12.7 74.5104 13.02 74.2624 13.292C74.0144 13.556 73.7184 13.76 73.3744 13.904C73.0384 14.04 72.6584 14.108 72.2344 14.108ZM72.2344 13.328C72.5944 13.328 72.9104 13.24 73.1824 13.064C73.4544 12.888 73.6624 12.632 73.8064 12.296C73.9584 11.96 74.0344 11.556 74.0344 11.084C74.0344 10.356 73.8704 9.8 73.5424 9.416C73.2224 9.032 72.7864 8.84 72.2344 8.84C71.8664 8.84 71.5464 8.928 71.2744 9.104C71.0104 9.272 70.8024 9.524 70.6504 9.86C70.5064 10.188 70.4344 10.596 70.4344 11.084C70.4344 11.804 70.5984 12.36 70.9264 12.752C71.2544 13.136 71.6904 13.328 72.2344 13.328ZM78.4124 14.084C78.2764 14.084 78.1564 14.048 78.0524 13.976C77.9484 13.904 77.8644 13.788 77.8004 13.628L76.0124 8.768C75.9644 8.632 75.9484 8.512 75.9644 8.408C75.9884 8.304 76.0404 8.224 76.1204 8.168C76.2004 8.112 76.3004 8.084 76.4204 8.084C76.5404 8.084 76.6364 8.112 76.7084 8.168C76.7884 8.224 76.8524 8.328 76.9004 8.48L78.5804 13.28H78.2924L80.0204 8.48C80.0764 8.336 80.1444 8.236 80.2244 8.18C80.3124 8.116 80.4244 8.084 80.5604 8.084C80.6884 8.084 80.7964 8.116 80.8844 8.18C80.9724 8.244 81.0404 8.344 81.0884 8.48L82.7804 13.28H82.5044L84.2084 8.456C84.2644 8.312 84.3324 8.216 84.4124 8.168C84.4924 8.112 84.5884 8.084 84.7004 8.084C84.8284 8.084 84.9244 8.116 84.9884 8.18C85.0604 8.244 85.1004 8.328 85.1084 8.432C85.1164 8.536 85.0964 8.648 85.0484 8.768L83.2604 13.628C83.2044 13.78 83.1204 13.896 83.0084 13.976C82.9044 14.048 82.7844 14.084 82.6484 14.084C82.5124 14.084 82.3924 14.048 82.2884 13.976C82.1844 13.896 82.1044 13.78 82.0484 13.628L80.2724 8.756H80.7884L79.0244 13.628C78.9684 13.78 78.8884 13.896 78.7844 13.976C78.6804 14.048 78.5564 14.084 78.4124 14.084ZM89.0322 14.108C88.4162 14.108 87.8842 13.988 87.4362 13.748C86.9962 13.5 86.6522 13.152 86.4042 12.704C86.1642 12.256 86.0442 11.72 86.0442 11.096C86.0442 10.488 86.1642 9.96 86.4042 9.512C86.6442 9.056 86.9722 8.7 87.3882 8.444C87.8122 8.188 88.3002 8.06 88.8522 8.06C89.2442 8.06 89.5962 8.128 89.9082 8.264C90.2202 8.392 90.4842 8.58 90.7002 8.828C90.9242 9.076 91.0922 9.376 91.2042 9.728C91.3242 10.08 91.3842 10.476 91.3842 10.916C91.3842 11.044 91.3482 11.14 91.2762 11.204C91.2042 11.26 91.1002 11.288 90.9642 11.288H86.7882V10.652H90.7362L90.5442 10.808C90.5442 10.376 90.4802 10.012 90.3522 9.716C90.2242 9.412 90.0362 9.18 89.7882 9.02C89.5482 8.86 89.2442 8.78 88.8762 8.78C88.4682 8.78 88.1202 8.876 87.8322 9.068C87.5522 9.252 87.3402 9.512 87.1962 9.848C87.0522 10.176 86.9802 10.56 86.9802 11V11.072C86.9802 11.808 87.1562 12.368 87.5082 12.752C87.8682 13.136 88.3762 13.328 89.0322 13.328C89.3042 13.328 89.5722 13.292 89.8362 13.22C90.1082 13.148 90.3722 13.028 90.6282 12.86C90.7402 12.788 90.8402 12.756 90.9282 12.764C91.0242 12.764 91.1002 12.792 91.1562 12.848C91.2122 12.896 91.2482 12.96 91.2642 13.04C91.2882 13.112 91.2802 13.192 91.2402 13.28C91.2082 13.368 91.1402 13.444 91.0362 13.508C90.7722 13.7 90.4602 13.848 90.1002 13.952C89.7402 14.056 89.3842 14.108 89.0322 14.108ZM10.252 30.108C9.796 30.108 9.412 30.028 9.1 29.868C8.796 29.7 8.568 29.46 8.416 29.148C8.264 28.828 8.188 28.44 8.188 27.984V24.924H7.384C7.248 24.924 7.144 24.892 7.072 24.828C7 24.756 6.964 24.66 6.964 24.54C6.964 24.42 7 24.328 7.072 24.264C7.144 24.2 7.248 24.168 7.384 24.168H8.188V22.788C8.188 22.628 8.232 22.508 8.32 22.428C8.408 22.34 8.528 22.296 8.68 22.296C8.832 22.296 8.948 22.34 9.028 22.428C9.116 22.508 9.16 22.628 9.16 22.788V24.168H10.672C10.808 24.168 10.912 24.2 10.984 24.264C11.056 24.328 11.092 24.42 11.092 24.54C11.092 24.66 11.056 24.756 10.984 24.828C10.912 24.892 10.808 24.924 10.672 24.924H9.16V27.888C9.16 28.344 9.256 28.692 9.448 28.932C9.64 29.164 9.952 29.28 10.384 29.28C10.536 29.28 10.664 29.264 10.768 29.232C10.88 29.2 10.972 29.184 11.044 29.184C11.116 29.176 11.176 29.2 11.224 29.256C11.272 29.312 11.296 29.408 11.296 29.544C11.296 29.64 11.276 29.728 11.236 29.808C11.204 29.888 11.144 29.944 11.056 29.976C10.96 30.008 10.832 30.036 10.672 30.06C10.52 30.092 10.38 30.108 10.252 30.108ZM14.4727 30.108C13.9047 30.108 13.4127 29.984 12.9967 29.736C12.5807 29.488 12.2567 29.14 12.0247 28.692C11.8007 28.236 11.6887 27.7 11.6887 27.084C11.6887 26.62 11.7527 26.204 11.8807 25.836C12.0087 25.46 12.1967 25.14 12.4447 24.876C12.6927 24.612 12.9847 24.412 13.3207 24.276C13.6647 24.132 14.0487 24.06 14.4727 24.06C15.0407 24.06 15.5327 24.184 15.9487 24.432C16.3647 24.68 16.6847 25.032 16.9087 25.488C17.1407 25.936 17.2567 26.468 17.2567 27.084C17.2567 27.548 17.1927 27.964 17.0647 28.332C16.9367 28.7 16.7487 29.02 16.5007 29.292C16.2527 29.556 15.9567 29.76 15.6127 29.904C15.2767 30.04 14.8967 30.108 14.4727 30.108ZM14.4727 29.328C14.8327 29.328 15.1487 29.24 15.4207 29.064C15.6927 28.888 15.9007 28.632 16.0447 28.296C16.1967 27.96 16.2727 27.556 16.2727 27.084C16.2727 26.356 16.1087 25.8 15.7807 25.416C15.4607 25.032 15.0247 24.84 14.4727 24.84C14.1047 24.84 13.7847 24.928 13.5127 25.104C13.2487 25.272 13.0407 25.524 12.8887 25.86C12.7447 26.188 12.6727 26.596 12.6727 27.084C12.6727 27.804 12.8367 28.36 13.1647 28.752C13.4927 29.136 13.9287 29.328 14.4727 29.328ZM23.7784 30.108C23.4184 30.108 23.0544 30.064 22.6864 29.976C22.3264 29.888 21.9904 29.736 21.6784 29.52C21.5984 29.464 21.5424 29.4 21.5104 29.328C21.4784 29.248 21.4664 29.172 21.4744 29.1C21.4904 29.02 21.5224 28.952 21.5704 28.896C21.6264 28.84 21.6904 28.808 21.7624 28.8C21.8424 28.784 21.9304 28.8 22.0264 28.848C22.3384 29.04 22.6384 29.176 22.9264 29.256C23.2224 29.328 23.5144 29.364 23.8024 29.364C24.2584 29.364 24.6024 29.28 24.8344 29.112C25.0664 28.944 25.1824 28.716 25.1824 28.428C25.1824 28.204 25.1064 28.028 24.9544 27.9C24.8024 27.764 24.5624 27.66 24.2344 27.588L23.1424 27.348C22.6384 27.244 22.2624 27.064 22.0144 26.808C21.7744 26.552 21.6544 26.22 21.6544 25.812C21.6544 25.452 21.7464 25.144 21.9304 24.888C22.1224 24.624 22.3904 24.42 22.7344 24.276C23.0784 24.132 23.4784 24.06 23.9344 24.06C24.2864 24.06 24.6184 24.108 24.9304 24.204C25.2504 24.292 25.5384 24.436 25.7944 24.636C25.8744 24.692 25.9264 24.76 25.9504 24.84C25.9824 24.912 25.9864 24.988 25.9624 25.068C25.9464 25.14 25.9104 25.204 25.8544 25.26C25.7984 25.308 25.7304 25.336 25.6504 25.344C25.5704 25.352 25.4864 25.328 25.3984 25.272C25.1584 25.112 24.9144 24.996 24.6664 24.924C24.4184 24.844 24.1744 24.804 23.9344 24.804C23.4864 24.804 23.1464 24.892 22.9144 25.068C22.6824 25.244 22.5664 25.476 22.5664 25.764C22.5664 25.988 22.6384 26.172 22.7824 26.316C22.9264 26.46 23.1504 26.564 23.4544 26.628L24.5464 26.856C25.0664 26.968 25.4544 27.148 25.7104 27.396C25.9744 27.636 26.1064 27.964 26.1064 28.38C26.1064 28.908 25.8944 29.328 25.4704 29.64C25.0464 29.952 24.4824 30.108 23.7784 30.108ZM30.0118 30.108C29.4438 30.108 28.9518 29.984 28.5358 29.736C28.1198 29.488 27.7958 29.14 27.5638 28.692C27.3398 28.236 27.2278 27.7 27.2278 27.084C27.2278 26.62 27.2918 26.204 27.4198 25.836C27.5478 25.46 27.7358 25.14 27.9838 24.876C28.2318 24.612 28.5238 24.412 28.8598 24.276C29.2038 24.132 29.5878 24.06 30.0118 24.06C30.5798 24.06 31.0718 24.184 31.4878 24.432C31.9038 24.68 32.2238 25.032 32.4478 25.488C32.6798 25.936 32.7958 26.468 32.7958 27.084C32.7958 27.548 32.7318 27.964 32.6038 28.332C32.4758 28.7 32.2878 29.02 32.0398 29.292C31.7918 29.556 31.4958 29.76 31.1518 29.904C30.8158 30.04 30.4358 30.108 30.0118 30.108ZM30.0118 29.328C30.3718 29.328 30.6878 29.24 30.9598 29.064C31.2318 28.888 31.4398 28.632 31.5838 28.296C31.7358 27.96 31.8118 27.556 31.8118 27.084C31.8118 26.356 31.6478 25.8 31.3198 25.416C30.9998 25.032 30.5638 24.84 30.0118 24.84C29.6438 24.84 29.3238 24.928 29.0518 25.104C28.7878 25.272 28.5798 25.524 28.4278 25.86C28.2838 26.188 28.2118 26.596 28.2118 27.084C28.2118 27.804 28.3758 28.36 28.7038 28.752C29.0318 29.136 29.4678 29.328 30.0118 29.328ZM34.7598 30.084C34.5998 30.084 34.4798 30.04 34.3998 29.952C34.3198 29.864 34.2798 29.74 34.2798 29.58V24.576C34.2798 24.416 34.3198 24.296 34.3998 24.216C34.4798 24.128 34.5958 24.084 34.7478 24.084C34.8998 24.084 35.0158 24.128 35.0958 24.216C35.1838 24.296 35.2278 24.416 35.2278 24.576V25.632L35.0958 25.464C35.2478 25.016 35.4918 24.672 35.8278 24.432C36.1718 24.184 36.5798 24.06 37.0518 24.06C37.5478 24.06 37.9478 24.18 38.2518 24.42C38.5638 24.652 38.7718 25.016 38.8758 25.512H38.6958C38.8398 25.064 39.0958 24.712 39.4638 24.456C39.8398 24.192 40.2758 24.06 40.7718 24.06C41.2118 24.06 41.5718 24.144 41.8518 24.312C42.1398 24.48 42.3558 24.736 42.4998 25.08C42.6438 25.416 42.7158 25.844 42.7158 26.364V29.58C42.7158 29.74 42.6718 29.864 42.5838 29.952C42.5038 30.04 42.3838 30.084 42.2238 30.084C42.0718 30.084 41.9518 30.04 41.8638 29.952C41.7838 29.864 41.7438 29.74 41.7438 29.58V26.412C41.7438 25.876 41.6518 25.484 41.4678 25.236C41.2838 24.98 40.9718 24.852 40.5318 24.852C40.0518 24.852 39.6718 25.02 39.3918 25.356C39.1198 25.684 38.9838 26.132 38.9838 26.7V29.58C38.9838 29.74 38.9398 29.864 38.8518 29.952C38.7718 30.04 38.6518 30.084 38.4918 30.084C38.3398 30.084 38.2198 30.04 38.1318 29.952C38.0518 29.864 38.0118 29.74 38.0118 29.58V26.412C38.0118 25.876 37.9158 25.484 37.7238 25.236C37.5398 24.98 37.2318 24.852 36.7998 24.852C36.3198 24.852 35.9398 25.02 35.6598 25.356C35.3878 25.684 35.2518 26.132 35.2518 26.7V29.58C35.2518 29.916 35.0878 30.084 34.7598 30.084ZM47.1611 30.108C46.5451 30.108 46.0131 29.988 45.5651 29.748C45.1251 29.5 44.7811 29.152 44.5331 28.704C44.2931 28.256 44.1731 27.72 44.1731 27.096C44.1731 26.488 44.2931 25.96 44.5331 25.512C44.7731 25.056 45.1011 24.7 45.5171 24.444C45.9411 24.188 46.4291 24.06 46.9811 24.06C47.3731 24.06 47.7251 24.128 48.0371 24.264C48.3491 24.392 48.6131 24.58 48.8291 24.828C49.0531 25.076 49.2211 25.376 49.3331 25.728C49.4531 26.08 49.5131 26.476 49.5131 26.916C49.5131 27.044 49.4771 27.14 49.4051 27.204C49.3331 27.26 49.2291 27.288 49.0931 27.288H44.9171V26.652H48.8651L48.6731 26.808C48.6731 26.376 48.6091 26.012 48.4811 25.716C48.3531 25.412 48.1651 25.18 47.9171 25.02C47.6771 24.86 47.3731 24.78 47.0051 24.78C46.5971 24.78 46.2491 24.876 45.9611 25.068C45.6811 25.252 45.4691 25.512 45.3251 25.848C45.1811 26.176 45.1091 26.56 45.1091 27V27.072C45.1091 27.808 45.2851 28.368 45.6371 28.752C45.9971 29.136 46.5051 29.328 47.1611 29.328C47.4331 29.328 47.7011 29.292 47.9651 29.22C48.2371 29.148 48.5011 29.028 48.7571 28.86C48.8691 28.788 48.9691 28.756 49.0571 28.764C49.1531 28.764 49.2291 28.792 49.2851 28.848C49.3411 28.896 49.3771 28.96 49.3931 29.04C49.4171 29.112 49.4091 29.192 49.3691 29.28C49.3371 29.368 49.2691 29.444 49.1651 29.508C48.9011 29.7 48.5891 29.848 48.2291 29.952C47.8691 30.056 47.5131 30.108 47.1611 30.108ZM53.3438 30.108C52.7758 30.108 52.2838 29.984 51.8678 29.736C51.4518 29.488 51.1278 29.14 50.8958 28.692C50.6718 28.236 50.5598 27.7 50.5598 27.084C50.5598 26.62 50.6238 26.204 50.7518 25.836C50.8798 25.46 51.0678 25.14 51.3158 24.876C51.5638 24.612 51.8558 24.412 52.1918 24.276C52.5358 24.132 52.9198 24.06 53.3438 24.06C53.9118 24.06 54.4038 24.184 54.8198 24.432C55.2358 24.68 55.5558 25.032 55.7798 25.488C56.0118 25.936 56.1278 26.468 56.1278 27.084C56.1278 27.548 56.0638 27.964 55.9358 28.332C55.8078 28.7 55.6198 29.02 55.3718 29.292C55.1238 29.556 54.8278 29.76 54.4838 29.904C54.1478 30.04 53.7678 30.108 53.3438 30.108ZM53.3438 29.328C53.7038 29.328 54.0198 29.24 54.2918 29.064C54.5638 28.888 54.7718 28.632 54.9158 28.296C55.0678 27.96 55.1438 27.556 55.1438 27.084C55.1438 26.356 54.9798 25.8 54.6518 25.416C54.3318 25.032 53.8958 24.84 53.3438 24.84C52.9758 24.84 52.6558 24.928 52.3838 25.104C52.1198 25.272 51.9118 25.524 51.7598 25.86C51.6158 26.188 51.5438 26.596 51.5438 27.084C51.5438 27.804 51.7078 28.36 52.0358 28.752C52.3638 29.136 52.7998 29.328 53.3438 29.328ZM58.0678 30.084C57.9078 30.084 57.7878 30.04 57.7078 29.952C57.6278 29.864 57.5878 29.74 57.5878 29.58V24.576C57.5878 24.416 57.6278 24.296 57.7078 24.216C57.7878 24.128 57.9038 24.084 58.0558 24.084C58.2078 24.084 58.3238 24.128 58.4038 24.216C58.4918 24.296 58.5358 24.416 58.5358 24.576V25.608L58.4038 25.464C58.5718 25 58.8438 24.652 59.2198 24.42C59.6038 24.18 60.0438 24.06 60.5398 24.06C61.0038 24.06 61.3878 24.144 61.6918 24.312C62.0038 24.48 62.2358 24.736 62.3878 25.08C62.5398 25.416 62.6158 25.844 62.6158 26.364V29.58C62.6158 29.74 62.5718 29.864 62.4838 29.952C62.4038 30.04 62.2878 30.084 62.1358 30.084C61.9758 30.084 61.8518 30.04 61.7638 29.952C61.6838 29.864 61.6438 29.74 61.6438 29.58V26.424C61.6438 25.88 61.5358 25.484 61.3198 25.236C61.1118 24.98 60.7758 24.852 60.3118 24.852C59.7758 24.852 59.3478 25.02 59.0278 25.356C58.7158 25.684 58.5598 26.124 58.5598 26.676V29.58C58.5598 29.916 58.3958 30.084 58.0678 30.084ZM67.0361 30.108C66.4201 30.108 65.8881 29.988 65.4401 29.748C65.0001 29.5 64.6561 29.152 64.4081 28.704C64.1681 28.256 64.0481 27.72 64.0481 27.096C64.0481 26.488 64.1681 25.96 64.4081 25.512C64.6481 25.056 64.9761 24.7 65.3921 24.444C65.8161 24.188 66.3041 24.06 66.8561 24.06C67.2481 24.06 67.6001 24.128 67.9121 24.264C68.2241 24.392 68.4881 24.58 68.7041 24.828C68.9281 25.076 69.0961 25.376 69.2081 25.728C69.3281 26.08 69.3881 26.476 69.3881 26.916C69.3881 27.044 69.3521 27.14 69.2801 27.204C69.2081 27.26 69.1041 27.288 68.9681 27.288H64.7921V26.652H68.7401L68.5481 26.808C68.5481 26.376 68.4841 26.012 68.3561 25.716C68.2281 25.412 68.0401 25.18 67.7921 25.02C67.5521 24.86 67.2481 24.78 66.8801 24.78C66.4721 24.78 66.1241 24.876 65.8361 25.068C65.5561 25.252 65.3441 25.512 65.2001 25.848C65.0561 26.176 64.9841 26.56 64.9841 27V27.072C64.9841 27.808 65.1601 28.368 65.5121 28.752C65.8721 29.136 66.3801 29.328 67.0361 29.328C67.3081 29.328 67.5761 29.292 67.8401 29.22C68.1121 29.148 68.3761 29.028 68.6321 28.86C68.7441 28.788 68.8441 28.756 68.9321 28.764C69.0281 28.764 69.1041 28.792 69.1601 28.848C69.2161 28.896 69.2521 28.96 69.2681 29.04C69.2921 29.112 69.2841 29.192 69.2441 29.28C69.2121 29.368 69.1441 29.444 69.0401 29.508C68.7761 29.7 68.4641 29.848 68.1041 29.952C67.7441 30.056 67.3881 30.108 67.0361 30.108ZM71.3708 31.14C71.2908 31.244 71.2068 31.304 71.1188 31.32C71.0308 31.336 70.9548 31.32 70.8908 31.272C70.8268 31.224 70.7908 31.156 70.7828 31.068C70.7828 30.98 70.8228 30.884 70.9028 30.78C71.0308 30.612 71.1188 30.44 71.1668 30.264C71.2148 30.096 71.2388 29.94 71.2388 29.796L71.2868 30.048C71.0788 30.048 70.9108 29.988 70.7828 29.868C70.6628 29.74 70.6028 29.58 70.6028 29.388C70.6028 29.196 70.6588 29.04 70.7708 28.92C70.8908 28.792 71.0468 28.728 71.2388 28.728C71.4468 28.728 71.6108 28.8 71.7308 28.944C71.8508 29.08 71.9108 29.28 71.9108 29.544C71.9108 29.712 71.8948 29.884 71.8628 30.06C71.8308 30.244 71.7748 30.428 71.6948 30.612C71.6148 30.796 71.5068 30.972 71.3708 31.14ZM9.976 46.108C9.504 46.108 9.112 46.024 8.8 45.856C8.496 45.68 8.264 45.42 8.104 45.076C7.952 44.732 7.876 44.304 7.876 43.792V40.576C7.876 40.408 7.916 40.284 7.996 40.204C8.084 40.124 8.204 40.084 8.356 40.084C8.516 40.084 8.636 40.124 8.716 40.204C8.804 40.284 8.848 40.408 8.848 40.576V43.78C8.848 44.292 8.952 44.676 9.16 44.932C9.376 45.18 9.712 45.304 10.168 45.304C10.664 45.304 11.068 45.136 11.38 44.8C11.692 44.464 11.848 44.024 11.848 43.48V40.576C11.848 40.408 11.888 40.284 11.968 40.204C12.056 40.124 12.18 40.084 12.34 40.084C12.492 40.084 12.608 40.124 12.688 40.204C12.776 40.284 12.82 40.408 12.82 40.576V45.58C12.82 45.916 12.664 46.084 12.352 46.084C12.2 46.084 12.08 46.04 11.992 45.952C11.912 45.864 11.872 45.74 11.872 45.58V44.488L12.028 44.656C11.868 45.128 11.604 45.488 11.236 45.736C10.876 45.984 10.456 46.108 9.976 46.108ZM16.6066 46.108C16.2466 46.108 15.8826 46.064 15.5146 45.976C15.1546 45.888 14.8186 45.736 14.5066 45.52C14.4266 45.464 14.3706 45.4 14.3386 45.328C14.3066 45.248 14.2946 45.172 14.3026 45.1C14.3186 45.02 14.3506 44.952 14.3986 44.896C14.4546 44.84 14.5186 44.808 14.5906 44.8C14.6706 44.784 14.7586 44.8 14.8546 44.848C15.1666 45.04 15.4666 45.176 15.7546 45.256C16.0506 45.328 16.3426 45.364 16.6306 45.364C17.0866 45.364 17.4306 45.28 17.6626 45.112C17.8946 44.944 18.0106 44.716 18.0106 44.428C18.0106 44.204 17.9346 44.028 17.7826 43.9C17.6306 43.764 17.3906 43.66 17.0626 43.588L15.9706 43.348C15.4666 43.244 15.0906 43.064 14.8426 42.808C14.6026 42.552 14.4826 42.22 14.4826 41.812C14.4826 41.452 14.5746 41.144 14.7586 40.888C14.9506 40.624 15.2186 40.42 15.5626 40.276C15.9066 40.132 16.3066 40.06 16.7626 40.06C17.1146 40.06 17.4466 40.108 17.7586 40.204C18.0786 40.292 18.3666 40.436 18.6226 40.636C18.7026 40.692 18.7546 40.76 18.7786 40.84C18.8106 40.912 18.8146 40.988 18.7906 41.068C18.7746 41.14 18.7386 41.204 18.6826 41.26C18.6266 41.308 18.5586 41.336 18.4786 41.344C18.3986 41.352 18.3146 41.328 18.2266 41.272C17.9866 41.112 17.7426 40.996 17.4946 40.924C17.2466 40.844 17.0026 40.804 16.7626 40.804C16.3146 40.804 15.9746 40.892 15.7426 41.068C15.5106 41.244 15.3946 41.476 15.3946 41.764C15.3946 41.988 15.4666 42.172 15.6106 42.316C15.7546 42.46 15.9786 42.564 16.2826 42.628L17.3746 42.856C17.8946 42.968 18.2826 43.148 18.5386 43.396C18.8026 43.636 18.9346 43.964 18.9346 44.38C18.9346 44.908 18.7226 45.328 18.2986 45.64C17.8746 45.952 17.3106 46.108 16.6066 46.108ZM22.4799 46.108C22.0079 46.108 21.6159 46.024 21.3039 45.856C20.9999 45.68 20.7679 45.42 20.6079 45.076C20.4559 44.732 20.3799 44.304 20.3799 43.792V40.576C20.3799 40.408 20.4199 40.284 20.4999 40.204C20.5879 40.124 20.7079 40.084 20.8599 40.084C21.0199 40.084 21.1399 40.124 21.2199 40.204C21.3079 40.284 21.3519 40.408 21.3519 40.576V43.78C21.3519 44.292 21.4559 44.676 21.6639 44.932C21.8799 45.18 22.2159 45.304 22.6719 45.304C23.1679 45.304 23.5719 45.136 23.8839 44.8C24.1959 44.464 24.3519 44.024 24.3519 43.48V40.576C24.3519 40.408 24.3919 40.284 24.4719 40.204C24.5599 40.124 24.6839 40.084 24.8439 40.084C24.9959 40.084 25.1119 40.124 25.1919 40.204C25.2799 40.284 25.3239 40.408 25.3239 40.576V45.58C25.3239 45.916 25.1679 46.084 24.8559 46.084C24.7039 46.084 24.5839 46.04 24.4959 45.952C24.4159 45.864 24.3759 45.74 24.3759 45.58V44.488L24.5319 44.656C24.3719 45.128 24.1079 45.488 23.7399 45.736C23.3799 45.984 22.9599 46.108 22.4799 46.108ZM28.9785 46.108C28.5785 46.108 28.2185 46.032 27.8985 45.88C27.5865 45.72 27.3385 45.504 27.1545 45.232C26.9705 44.96 26.8785 44.656 26.8785 44.32C26.8785 43.888 26.9865 43.548 27.2025 43.3C27.4265 43.052 27.7905 42.876 28.2945 42.772C28.8065 42.668 29.5025 42.616 30.3825 42.616H30.9225V43.252H30.3945C29.7465 43.252 29.2345 43.284 28.8585 43.348C28.4905 43.404 28.2305 43.504 28.0785 43.648C27.9345 43.792 27.8625 43.996 27.8625 44.26C27.8625 44.588 27.9745 44.856 28.1985 45.064C28.4305 45.272 28.7425 45.376 29.1345 45.376C29.4545 45.376 29.7345 45.3 29.9745 45.148C30.2225 44.996 30.4145 44.788 30.5505 44.524C30.6945 44.26 30.7665 43.956 30.7665 43.612V42.244C30.7665 41.748 30.6665 41.392 30.4665 41.176C30.2665 40.952 29.9385 40.84 29.4825 40.84C29.2025 40.84 28.9225 40.876 28.6425 40.948C28.3625 41.02 28.0665 41.136 27.7545 41.296C27.6425 41.352 27.5465 41.372 27.4665 41.356C27.3865 41.332 27.3225 41.288 27.2745 41.224C27.2265 41.16 27.1985 41.088 27.1905 41.008C27.1825 40.92 27.1985 40.836 27.2385 40.756C27.2865 40.676 27.3585 40.612 27.4545 40.564C27.8065 40.388 28.1545 40.26 28.4985 40.18C28.8425 40.1 29.1705 40.06 29.4825 40.06C29.9865 40.06 30.4025 40.144 30.7305 40.312C31.0585 40.472 31.3025 40.72 31.4625 41.056C31.6225 41.384 31.7025 41.808 31.7025 42.328V45.58C31.7025 45.74 31.6625 45.864 31.5825 45.952C31.5105 46.04 31.4025 46.084 31.2585 46.084C31.1065 46.084 30.9905 46.04 30.9105 45.952C30.8305 45.864 30.7905 45.74 30.7905 45.58V44.644H30.8985C30.8345 44.948 30.7105 45.208 30.5265 45.424C30.3505 45.64 30.1305 45.808 29.8665 45.928C29.6025 46.048 29.3065 46.108 28.9785 46.108ZM35.2818 46.108C34.7058 46.108 34.2658 45.932 33.9618 45.58C33.6578 45.228 33.5058 44.724 33.5058 44.068V37.948C33.5058 37.788 33.5458 37.668 33.6258 37.588C33.7058 37.5 33.8258 37.456 33.9858 37.456C34.1378 37.456 34.2578 37.5 34.3458 37.588C34.4338 37.668 34.4778 37.788 34.4778 37.948V43.996C34.4778 44.428 34.5618 44.752 34.7298 44.968C34.9058 45.176 35.1618 45.28 35.4978 45.28C35.5698 45.28 35.6338 45.276 35.6898 45.268C35.7458 45.26 35.8018 45.256 35.8578 45.256C35.9458 45.248 36.0058 45.268 36.0378 45.316C36.0778 45.364 36.0978 45.46 36.0978 45.604C36.0978 45.748 36.0658 45.856 36.0018 45.928C35.9378 46 35.8338 46.048 35.6898 46.072C35.6258 46.08 35.5578 46.088 35.4858 46.096C35.4138 46.104 35.3458 46.108 35.2818 46.108ZM38.8325 46.108C38.2565 46.108 37.8165 45.932 37.5125 45.58C37.2085 45.228 37.0565 44.724 37.0565 44.068V37.948C37.0565 37.788 37.0965 37.668 37.1765 37.588C37.2565 37.5 37.3765 37.456 37.5365 37.456C37.6885 37.456 37.8085 37.5 37.8965 37.588C37.9845 37.668 38.0285 37.788 38.0285 37.948V43.996C38.0285 44.428 38.1125 44.752 38.2805 44.968C38.4565 45.176 38.7125 45.28 39.0485 45.28C39.1205 45.28 39.1845 45.276 39.2405 45.268C39.2965 45.26 39.3525 45.256 39.4085 45.256C39.4965 45.248 39.5565 45.268 39.5885 45.316C39.6285 45.364 39.6485 45.46 39.6485 45.604C39.6485 45.748 39.6165 45.856 39.5525 45.928C39.4885 46 39.3845 46.048 39.2405 46.072C39.1765 46.08 39.1085 46.088 39.0365 46.096C38.9645 46.104 38.8965 46.108 38.8325 46.108ZM41.7744 48.244C41.6544 48.244 41.5584 48.212 41.4864 48.148C41.4144 48.084 41.3704 47.996 41.3544 47.884C41.3464 47.78 41.3664 47.672 41.4144 47.56L42.2424 45.7V46.12L39.9384 40.768C39.8904 40.648 39.8744 40.536 39.8904 40.432C39.9064 40.328 39.9544 40.244 40.0344 40.18C40.1144 40.116 40.2264 40.084 40.3704 40.084C40.4984 40.084 40.5984 40.112 40.6704 40.168C40.7424 40.224 40.8064 40.324 40.8624 40.468L42.8304 45.292H42.5064L44.4984 40.468C44.5624 40.324 44.6304 40.224 44.7024 40.168C44.7744 40.112 44.8784 40.084 45.0144 40.084C45.1424 40.084 45.2384 40.116 45.3024 40.18C45.3744 40.244 45.4144 40.328 45.4224 40.432C45.4384 40.528 45.4224 40.636 45.3744 40.756L42.3024 47.86C42.2384 48.004 42.1664 48.104 42.0864 48.16C42.0144 48.216 41.9104 48.244 41.7744 48.244ZM52.6882 46.108C52.1602 46.108 51.7042 45.972 51.3202 45.7C50.9442 45.428 50.6922 45.064 50.5642 44.608L50.6962 44.476V45.58C50.6962 45.74 50.6522 45.864 50.5642 45.952C50.4842 46.04 50.3682 46.084 50.2162 46.084C50.0562 46.084 49.9362 46.04 49.8562 45.952C49.7762 45.864 49.7362 45.74 49.7362 45.58V37.948C49.7362 37.788 49.7762 37.668 49.8562 37.588C49.9362 37.5 50.0562 37.456 50.2162 37.456C50.3682 37.456 50.4882 37.5 50.5762 37.588C50.6642 37.668 50.7082 37.788 50.7082 37.948V41.524H50.5642C50.7002 41.076 50.9562 40.72 51.3322 40.456C51.7082 40.192 52.1602 40.06 52.6882 40.06C53.2162 40.06 53.6722 40.184 54.0562 40.432C54.4402 40.672 54.7362 41.02 54.9442 41.476C55.1602 41.924 55.2682 42.46 55.2682 43.084C55.2682 43.7 55.1602 44.236 54.9442 44.692C54.7362 45.14 54.4362 45.488 54.0442 45.736C53.6602 45.984 53.2082 46.108 52.6882 46.108ZM52.4842 45.328C52.8522 45.328 53.1682 45.24 53.4322 45.064C53.7042 44.888 53.9122 44.632 54.0562 44.296C54.2082 43.96 54.2842 43.556 54.2842 43.084C54.2842 42.356 54.1202 41.8 53.7922 41.416C53.4722 41.032 53.0362 40.84 52.4842 40.84C52.1242 40.84 51.8082 40.928 51.5362 41.104C51.2642 41.272 51.0522 41.524 50.9002 41.86C50.7562 42.188 50.6842 42.596 50.6842 43.084C50.6842 43.804 50.8482 44.36 51.1762 44.752C51.5042 45.136 51.9402 45.328 52.4842 45.328ZM59.1563 46.108C58.5883 46.108 58.0963 45.984 57.6803 45.736C57.2643 45.488 56.9403 45.14 56.7083 44.692C56.4843 44.236 56.3723 43.7 56.3723 43.084C56.3723 42.62 56.4363 42.204 56.5643 41.836C56.6923 41.46 56.8803 41.14 57.1283 40.876C57.3763 40.612 57.6683 40.412 58.0043 40.276C58.3483 40.132 58.7323 40.06 59.1563 40.06C59.7243 40.06 60.2163 40.184 60.6323 40.432C61.0483 40.68 61.3683 41.032 61.5923 41.488C61.8243 41.936 61.9403 42.468 61.9403 43.084C61.9403 43.548 61.8763 43.964 61.7483 44.332C61.6203 44.7 61.4323 45.02 61.1843 45.292C60.9363 45.556 60.6403 45.76 60.2963 45.904C59.9603 46.04 59.5803 46.108 59.1563 46.108ZM59.1563 45.328C59.5163 45.328 59.8323 45.24 60.1043 45.064C60.3763 44.888 60.5843 44.632 60.7283 44.296C60.8803 43.96 60.9563 43.556 60.9563 43.084C60.9563 42.356 60.7923 41.8 60.4643 41.416C60.1443 41.032 59.7083 40.84 59.1563 40.84C58.7883 40.84 58.4683 40.928 58.1963 41.104C57.9323 41.272 57.7243 41.524 57.5723 41.86C57.4283 42.188 57.3563 42.596 57.3563 43.084C57.3563 43.804 57.5203 44.36 57.8483 44.752C58.1763 45.136 58.6123 45.328 59.1563 45.328ZM63.8923 46.084C63.7323 46.084 63.6083 46.04 63.5203 45.952C63.4403 45.864 63.4003 45.74 63.4003 45.58V40.576C63.4003 40.416 63.4403 40.296 63.5203 40.216C63.6003 40.128 63.7163 40.084 63.8683 40.084C64.0203 40.084 64.1363 40.128 64.2163 40.216C64.3043 40.296 64.3483 40.416 64.3483 40.576V41.548H64.2283C64.3563 41.076 64.6003 40.712 64.9603 40.456C65.3203 40.2 65.7643 40.064 66.2923 40.048C66.4123 40.04 66.5083 40.068 66.5803 40.132C66.6523 40.188 66.6923 40.288 66.7003 40.432C66.7083 40.568 66.6763 40.676 66.6043 40.756C66.5323 40.836 66.4203 40.884 66.2683 40.9L66.0763 40.924C65.5323 40.972 65.1123 41.148 64.8163 41.452C64.5283 41.748 64.3843 42.156 64.3843 42.676V45.58C64.3843 45.74 64.3403 45.864 64.2523 45.952C64.1723 46.04 64.0523 46.084 63.8923 46.084ZM68.1931 46.084C68.0331 46.084 67.9091 46.04 67.8211 45.952C67.7411 45.864 67.7011 45.74 67.7011 45.58V40.576C67.7011 40.416 67.7411 40.296 67.8211 40.216C67.9011 40.128 68.0171 40.084 68.1691 40.084C68.3211 40.084 68.4371 40.128 68.5171 40.216C68.6051 40.296 68.6491 40.416 68.6491 40.576V41.548H68.5291C68.6571 41.076 68.9011 40.712 69.2611 40.456C69.6211 40.2 70.0651 40.064 70.5931 40.048C70.7131 40.04 70.8091 40.068 70.8811 40.132C70.9531 40.188 70.9931 40.288 71.0011 40.432C71.0091 40.568 70.9771 40.676 70.9051 40.756C70.8331 40.836 70.7211 40.884 70.5691 40.9L70.3771 40.924C69.8331 40.972 69.4131 41.148 69.1171 41.452C68.8291 41.748 68.6851 42.156 68.6851 42.676V45.58C68.6851 45.74 68.6411 45.864 68.5531 45.952C68.4731 46.04 68.3531 46.084 68.1931 46.084ZM74.3555 46.108C73.7875 46.108 73.2955 45.984 72.8795 45.736C72.4635 45.488 72.1395 45.14 71.9075 44.692C71.6835 44.236 71.5715 43.7 71.5715 43.084C71.5715 42.62 71.6355 42.204 71.7635 41.836C71.8915 41.46 72.0795 41.14 72.3275 40.876C72.5755 40.612 72.8675 40.412 73.2035 40.276C73.5475 40.132 73.9315 40.06 74.3555 40.06C74.9235 40.06 75.4155 40.184 75.8315 40.432C76.2475 40.68 76.5675 41.032 76.7915 41.488C77.0235 41.936 77.1395 42.468 77.1395 43.084C77.1395 43.548 77.0755 43.964 76.9475 44.332C76.8195 44.7 76.6315 45.02 76.3835 45.292C76.1355 45.556 75.8395 45.76 75.4955 45.904C75.1595 46.04 74.7795 46.108 74.3555 46.108ZM74.3555 45.328C74.7155 45.328 75.0315 45.24 75.3035 45.064C75.5755 44.888 75.7835 44.632 75.9275 44.296C76.0795 43.96 76.1555 43.556 76.1555 43.084C76.1555 42.356 75.9915 41.8 75.6635 41.416C75.3435 41.032 74.9075 40.84 74.3555 40.84C73.9875 40.84 73.6675 40.928 73.3955 41.104C73.1315 41.272 72.9235 41.524 72.7715 41.86C72.6275 42.188 72.5555 42.596 72.5555 43.084C72.5555 43.804 72.7195 44.36 73.0475 44.752C73.3755 45.136 73.8115 45.328 74.3555 45.328ZM80.5335 46.084C80.3975 46.084 80.2775 46.048 80.1735 45.976C80.0695 45.904 79.9855 45.788 79.9215 45.628L78.1335 40.768C78.0855 40.632 78.0695 40.512 78.0855 40.408C78.1095 40.304 78.1615 40.224 78.2415 40.168C78.3215 40.112 78.4215 40.084 78.5415 40.084C78.6615 40.084 78.7575 40.112 78.8295 40.168C78.9095 40.224 78.9735 40.328 79.0215 40.48L80.7015 45.28H80.4135L82.1415 40.48C82.1975 40.336 82.2655 40.236 82.3455 40.18C82.4335 40.116 82.5455 40.084 82.6815 40.084C82.8095 40.084 82.9175 40.116 83.0055 40.18C83.0935 40.244 83.1615 40.344 83.2095 40.48L84.9015 45.28H84.6255L86.3295 40.456C86.3855 40.312 86.4535 40.216 86.5335 40.168C86.6135 40.112 86.7095 40.084 86.8215 40.084C86.9495 40.084 87.0455 40.116 87.1095 40.18C87.1815 40.244 87.2215 40.328 87.2295 40.432C87.2375 40.536 87.2175 40.648 87.1695 40.768L85.3815 45.628C85.3255 45.78 85.2415 45.896 85.1295 45.976C85.0255 46.048 84.9055 46.084 84.7695 46.084C84.6335 46.084 84.5135 46.048 84.4095 45.976C84.3055 45.896 84.2255 45.78 84.1695 45.628L82.3935 40.756H82.9095L81.1455 45.628C81.0895 45.78 81.0095 45.896 80.9055 45.976C80.8015 46.048 80.6775 46.084 80.5335 46.084ZM91.1533 46.108C90.5373 46.108 90.0053 45.988 89.5573 45.748C89.1173 45.5 88.7733 45.152 88.5253 44.704C88.2853 44.256 88.1653 43.72 88.1653 43.096C88.1653 42.488 88.2853 41.96 88.5253 41.512C88.7653 41.056 89.0933 40.7 89.5093 40.444C89.9333 40.188 90.4213 40.06 90.9733 40.06C91.3653 40.06 91.7173 40.128 92.0293 40.264C92.3413 40.392 92.6053 40.58 92.8213 40.828C93.0453 41.076 93.2133 41.376 93.3253 41.728C93.4453 42.08 93.5053 42.476 93.5053 42.916C93.5053 43.044 93.4693 43.14 93.3973 43.204C93.3253 43.26 93.2213 43.288 93.0853 43.288H88.9093V42.652H92.8573L92.6653 42.808C92.6653 42.376 92.6013 42.012 92.4733 41.716C92.3453 41.412 92.1573 41.18 91.9093 41.02C91.6693 40.86 91.3653 40.78 90.9973 40.78C90.5893 40.78 90.2413 40.876 89.9533 41.068C89.6733 41.252 89.4613 41.512 89.3173 41.848C89.1733 42.176 89.1013 42.56 89.1013 43V43.072C89.1013 43.808 89.2773 44.368 89.6293 44.752C89.9893 45.136 90.4973 45.328 91.1533 45.328C91.4253 45.328 91.6933 45.292 91.9573 45.22C92.2293 45.148 92.4933 45.028 92.7493 44.86C92.8613 44.788 92.9613 44.756 93.0493 44.764C93.1453 44.764 93.2213 44.792 93.2773 44.848C93.3333 44.896 93.3693 44.96 93.3853 45.04C93.4093 45.112 93.4013 45.192 93.3613 45.28C93.3293 45.368 93.2613 45.444 93.1573 45.508C92.8933 45.7 92.5813 45.848 92.2213 45.952C91.8613 46.056 91.5053 46.108 91.1533 46.108ZM97.132 46.108C96.612 46.108 96.156 45.984 95.764 45.736C95.38 45.488 95.08 45.14 94.864 44.692C94.656 44.236 94.552 43.7 94.552 43.084C94.552 42.46 94.656 41.924 94.864 41.476C95.08 41.02 95.38 40.672 95.764 40.432C96.156 40.184 96.612 40.06 97.132 40.06C97.66 40.06 98.112 40.192 98.488 40.456C98.864 40.72 99.116 41.076 99.244 41.524H99.112V37.948C99.112 37.788 99.152 37.668 99.232 37.588C99.32 37.5 99.444 37.456 99.604 37.456C99.756 37.456 99.872 37.5 99.952 37.588C100.04 37.668 100.084 37.788 100.084 37.948V45.58C100.084 45.74 100.044 45.864 99.964 45.952C99.884 46.04 99.764 46.084 99.604 46.084C99.452 46.084 99.332 46.04 99.244 45.952C99.164 45.864 99.124 45.74 99.124 45.58V44.44L99.256 44.608C99.128 45.064 98.872 45.428 98.488 45.7C98.112 45.972 97.66 46.108 97.132 46.108ZM97.336 45.328C97.696 45.328 98.012 45.24 98.284 45.064C98.556 44.888 98.764 44.632 98.908 44.296C99.06 43.96 99.136 43.556 99.136 43.084C99.136 42.356 98.972 41.8 98.644 41.416C98.324 41.032 97.888 40.84 97.336 40.84C96.968 40.84 96.648 40.928 96.376 41.104C96.112 41.272 95.904 41.524 95.752 41.86C95.608 42.188 95.536 42.596 95.536 43.084C95.536 43.804 95.7 44.36 96.028 44.752C96.356 45.136 96.792 45.328 97.336 45.328ZM9.748 62.108C9.348 62.108 8.988 62.032 8.668 61.88C8.356 61.72 8.108 61.504 7.924 61.232C7.74 60.96 7.648 60.656 7.648 60.32C7.648 59.888 7.756 59.548 7.972 59.3C8.196 59.052 8.56 58.876 9.064 58.772C9.576 58.668 10.272 58.616 11.152 58.616H11.692V59.252H11.164C10.516 59.252 10.004 59.284 9.628 59.348C9.26 59.404 9 59.504 8.848 59.648C8.704 59.792 8.632 59.996 8.632 60.26C8.632 60.588 8.744 60.856 8.968 61.064C9.2 61.272 9.512 61.376 9.904 61.376C10.224 61.376 10.504 61.3 10.744 61.148C10.992 60.996 11.184 60.788 11.32 60.524C11.464 60.26 11.536 59.956 11.536 59.612V58.244C11.536 57.748 11.436 57.392 11.236 57.176C11.036 56.952 10.708 56.84 10.252 56.84C9.972 56.84 9.692 56.876 9.412 56.948C9.132 57.02 8.836 57.136 8.524 57.296C8.412 57.352 8.316 57.372 8.236 57.356C8.156 57.332 8.092 57.288 8.044 57.224C7.996 57.16 7.968 57.088 7.96 57.008C7.952 56.92 7.968 56.836 8.008 56.756C8.056 56.676 8.128 56.612 8.224 56.564C8.576 56.388 8.924 56.26 9.268 56.18C9.612 56.1 9.94 56.06 10.252 56.06C10.756 56.06 11.172 56.144 11.5 56.312C11.828 56.472 12.072 56.72 12.232 57.056C12.392 57.384 12.472 57.808 12.472 58.328V61.58C12.472 61.74 12.432 61.864 12.352 61.952C12.28 62.04 12.172 62.084 12.028 62.084C11.876 62.084 11.76 62.04 11.68 61.952C11.6 61.864 11.56 61.74 11.56 61.58V60.644H11.668C11.604 60.948 11.48 61.208 11.296 61.424C11.12 61.64 10.9 61.808 10.636 61.928C10.372 62.048 10.076 62.108 9.748 62.108ZM14.7553 62.084C14.5953 62.084 14.4753 62.04 14.3953 61.952C14.3153 61.864 14.2753 61.74 14.2753 61.58V56.576C14.2753 56.416 14.3153 56.296 14.3953 56.216C14.4753 56.128 14.5913 56.084 14.7433 56.084C14.8953 56.084 15.0113 56.128 15.0913 56.216C15.1793 56.296 15.2233 56.416 15.2233 56.576V57.608L15.0913 57.464C15.2593 57 15.5313 56.652 15.9073 56.42C16.2913 56.18 16.7313 56.06 17.2273 56.06C17.6913 56.06 18.0753 56.144 18.3793 56.312C18.6913 56.48 18.9233 56.736 19.0753 57.08C19.2273 57.416 19.3033 57.844 19.3033 58.364V61.58C19.3033 61.74 19.2593 61.864 19.1713 61.952C19.0913 62.04 18.9753 62.084 18.8233 62.084C18.6633 62.084 18.5393 62.04 18.4513 61.952C18.3713 61.864 18.3313 61.74 18.3313 61.58V58.424C18.3313 57.88 18.2233 57.484 18.0073 57.236C17.7993 56.98 17.4633 56.852 16.9993 56.852C16.4633 56.852 16.0353 57.02 15.7153 57.356C15.4033 57.684 15.2473 58.124 15.2473 58.676V61.58C15.2473 61.916 15.0833 62.084 14.7553 62.084ZM23.3156 62.108C22.7956 62.108 22.3396 61.984 21.9476 61.736C21.5636 61.488 21.2636 61.14 21.0476 60.692C20.8396 60.236 20.7356 59.7 20.7356 59.084C20.7356 58.46 20.8396 57.924 21.0476 57.476C21.2636 57.02 21.5636 56.672 21.9476 56.432C22.3396 56.184 22.7956 56.06 23.3156 56.06C23.8436 56.06 24.2956 56.192 24.6716 56.456C25.0476 56.72 25.2996 57.076 25.4276 57.524H25.2956V53.948C25.2956 53.788 25.3356 53.668 25.4156 53.588C25.5036 53.5 25.6276 53.456 25.7876 53.456C25.9396 53.456 26.0556 53.5 26.1356 53.588C26.2236 53.668 26.2676 53.788 26.2676 53.948V61.58C26.2676 61.74 26.2276 61.864 26.1476 61.952C26.0676 62.04 25.9476 62.084 25.7876 62.084C25.6356 62.084 25.5156 62.04 25.4276 61.952C25.3476 61.864 25.3076 61.74 25.3076 61.58V60.44L25.4396 60.608C25.3116 61.064 25.0556 61.428 24.6716 61.7C24.2956 61.972 23.8436 62.108 23.3156 62.108ZM23.5196 61.328C23.8796 61.328 24.1956 61.24 24.4676 61.064C24.7396 60.888 24.9476 60.632 25.0916 60.296C25.2436 59.96 25.3196 59.556 25.3196 59.084C25.3196 58.356 25.1556 57.8 24.8276 57.416C24.5076 57.032 24.0716 56.84 23.5196 56.84C23.1516 56.84 22.8316 56.928 22.5596 57.104C22.2956 57.272 22.0876 57.524 21.9356 57.86C21.7916 58.188 21.7196 58.596 21.7196 59.084C21.7196 59.804 21.8836 60.36 22.2116 60.752C22.5396 61.136 22.9756 61.328 23.5196 61.328ZM31.6654 64.244C31.5054 64.244 31.3854 64.2 31.3054 64.112C31.2254 64.032 31.1854 63.912 31.1854 63.752V56.576C31.1854 56.416 31.2254 56.296 31.3054 56.216C31.3854 56.128 31.5014 56.084 31.6534 56.084C31.8134 56.084 31.9334 56.128 32.0134 56.216C32.1014 56.296 32.1454 56.416 32.1454 56.576V57.716L32.0134 57.548C32.1414 57.092 32.3934 56.732 32.7694 56.468C33.1534 56.196 33.6094 56.06 34.1374 56.06C34.6574 56.06 35.1094 56.184 35.4934 56.432C35.8854 56.672 36.1854 57.02 36.3934 57.476C36.6094 57.924 36.7174 58.46 36.7174 59.084C36.7174 59.7 36.6094 60.236 36.3934 60.692C36.1854 61.14 35.8894 61.488 35.5054 61.736C35.1214 61.984 34.6654 62.108 34.1374 62.108C33.6094 62.108 33.1574 61.976 32.7814 61.712C32.4054 61.44 32.1494 61.08 32.0134 60.632H32.1574V63.752C32.1574 63.912 32.1134 64.032 32.0254 64.112C31.9374 64.2 31.8174 64.244 31.6654 64.244ZM33.9334 61.328C34.3014 61.328 34.6174 61.24 34.8814 61.064C35.1534 60.888 35.3614 60.632 35.5054 60.296C35.6574 59.96 35.7334 59.556 35.7334 59.084C35.7334 58.356 35.5694 57.8 35.2414 57.416C34.9214 57.032 34.4854 56.84 33.9334 56.84C33.5734 56.84 33.2574 56.928 32.9854 57.104C32.7134 57.272 32.5014 57.524 32.3494 57.86C32.2054 58.188 32.1334 58.596 32.1334 59.084C32.1334 59.804 32.2974 60.36 32.6254 60.752C32.9534 61.136 33.3894 61.328 33.9334 61.328ZM40.0175 62.108C39.6175 62.108 39.2575 62.032 38.9375 61.88C38.6255 61.72 38.3775 61.504 38.1935 61.232C38.0095 60.96 37.9175 60.656 37.9175 60.32C37.9175 59.888 38.0255 59.548 38.2415 59.3C38.4655 59.052 38.8295 58.876 39.3335 58.772C39.8455 58.668 40.5415 58.616 41.4215 58.616H41.9615V59.252H41.4335C40.7855 59.252 40.2735 59.284 39.8975 59.348C39.5295 59.404 39.2695 59.504 39.1175 59.648C38.9735 59.792 38.9015 59.996 38.9015 60.26C38.9015 60.588 39.0135 60.856 39.2375 61.064C39.4695 61.272 39.7815 61.376 40.1735 61.376C40.4935 61.376 40.7735 61.3 41.0135 61.148C41.2615 60.996 41.4535 60.788 41.5895 60.524C41.7335 60.26 41.8055 59.956 41.8055 59.612V58.244C41.8055 57.748 41.7055 57.392 41.5055 57.176C41.3055 56.952 40.9775 56.84 40.5215 56.84C40.2415 56.84 39.9615 56.876 39.6815 56.948C39.4015 57.02 39.1055 57.136 38.7935 57.296C38.6815 57.352 38.5855 57.372 38.5055 57.356C38.4255 57.332 38.3615 57.288 38.3135 57.224C38.2655 57.16 38.2375 57.088 38.2295 57.008C38.2215 56.92 38.2375 56.836 38.2775 56.756C38.3255 56.676 38.3975 56.612 38.4935 56.564C38.8455 56.388 39.1935 56.26 39.5375 56.18C39.8815 56.1 40.2095 56.06 40.5215 56.06C41.0255 56.06 41.4415 56.144 41.7695 56.312C42.0975 56.472 42.3415 56.72 42.5015 57.056C42.6615 57.384 42.7415 57.808 42.7415 58.328V61.58C42.7415 61.74 42.7015 61.864 42.6215 61.952C42.5495 62.04 42.4415 62.084 42.2975 62.084C42.1455 62.084 42.0295 62.04 41.9495 61.952C41.8695 61.864 41.8295 61.74 41.8295 61.58V60.644H41.9375C41.8735 60.948 41.7495 61.208 41.5655 61.424C41.3895 61.64 41.1695 61.808 40.9055 61.928C40.6415 62.048 40.3455 62.108 40.0175 62.108ZM45.0248 62.06C44.8648 62.06 44.7448 62.016 44.6648 61.928C44.5848 61.832 44.5448 61.7 44.5448 61.532V56.624C44.5448 56.456 44.5848 56.328 44.6648 56.24C44.7448 56.152 44.8648 56.108 45.0248 56.108C45.1768 56.108 45.2968 56.152 45.3848 56.24C45.4728 56.328 45.5168 56.456 45.5168 56.624V61.532C45.5168 61.7 45.4728 61.832 45.3848 61.928C45.3048 62.016 45.1848 62.06 45.0248 62.06ZM45.0248 54.764C44.8248 54.764 44.6688 54.712 44.5568 54.608C44.4448 54.496 44.3888 54.348 44.3888 54.164C44.3888 53.972 44.4448 53.828 44.5568 53.732C44.6688 53.628 44.8248 53.576 45.0248 53.576C45.2328 53.576 45.3888 53.628 45.4928 53.732C45.6048 53.828 45.6608 53.972 45.6608 54.164C45.6608 54.348 45.6048 54.496 45.4928 54.608C45.3888 54.712 45.2328 54.764 45.0248 54.764ZM49.5539 62.108C49.0339 62.108 48.5779 61.984 48.1859 61.736C47.8019 61.488 47.5019 61.14 47.2859 60.692C47.0779 60.236 46.9739 59.7 46.9739 59.084C46.9739 58.46 47.0779 57.924 47.2859 57.476C47.5019 57.02 47.8019 56.672 48.1859 56.432C48.5779 56.184 49.0339 56.06 49.5539 56.06C50.0819 56.06 50.5339 56.192 50.9099 56.456C51.2859 56.72 51.5379 57.076 51.6659 57.524H51.5339V53.948C51.5339 53.788 51.5739 53.668 51.6539 53.588C51.7419 53.5 51.8659 53.456 52.0259 53.456C52.1779 53.456 52.2939 53.5 52.3739 53.588C52.4619 53.668 52.5059 53.788 52.5059 53.948V61.58C52.5059 61.74 52.4659 61.864 52.3859 61.952C52.3059 62.04 52.1859 62.084 52.0259 62.084C51.8739 62.084 51.7539 62.04 51.6659 61.952C51.5859 61.864 51.5459 61.74 51.5459 61.58V60.44L51.6779 60.608C51.5499 61.064 51.2939 61.428 50.9099 61.7C50.5339 61.972 50.0819 62.108 49.5539 62.108ZM49.7579 61.328C50.1179 61.328 50.4339 61.24 50.7059 61.064C50.9779 60.888 51.1859 60.632 51.3299 60.296C51.4819 59.96 51.5579 59.556 51.5579 59.084C51.5579 58.356 51.3939 57.8 51.0659 57.416C50.7459 57.032 50.3099 56.84 49.7579 56.84C49.3899 56.84 49.0699 56.928 48.7979 57.104C48.5339 57.272 48.3259 57.524 48.1739 57.86C48.0299 58.188 47.9579 58.596 47.9579 59.084C47.9579 59.804 48.1219 60.36 48.4499 60.752C48.7779 61.136 49.2139 61.328 49.7579 61.328ZM60.3757 62.108C59.8477 62.108 59.3917 61.972 59.0077 61.7C58.6317 61.428 58.3797 61.064 58.2517 60.608L58.3837 60.476V61.58C58.3837 61.74 58.3397 61.864 58.2517 61.952C58.1717 62.04 58.0557 62.084 57.9037 62.084C57.7437 62.084 57.6237 62.04 57.5437 61.952C57.4637 61.864 57.4237 61.74 57.4237 61.58V53.948C57.4237 53.788 57.4637 53.668 57.5437 53.588C57.6237 53.5 57.7437 53.456 57.9037 53.456C58.0557 53.456 58.1757 53.5 58.2637 53.588C58.3517 53.668 58.3957 53.788 58.3957 53.948V57.524H58.2517C58.3877 57.076 58.6437 56.72 59.0197 56.456C59.3957 56.192 59.8477 56.06 60.3757 56.06C60.9037 56.06 61.3597 56.184 61.7437 56.432C62.1277 56.672 62.4237 57.02 62.6317 57.476C62.8477 57.924 62.9557 58.46 62.9557 59.084C62.9557 59.7 62.8477 60.236 62.6317 60.692C62.4237 61.14 62.1237 61.488 61.7317 61.736C61.3477 61.984 60.8957 62.108 60.3757 62.108ZM60.1717 61.328C60.5397 61.328 60.8557 61.24 61.1197 61.064C61.3917 60.888 61.5997 60.632 61.7437 60.296C61.8957 59.96 61.9717 59.556 61.9717 59.084C61.9717 58.356 61.8077 57.8 61.4797 57.416C61.1597 57.032 60.7237 56.84 60.1717 56.84C59.8117 56.84 59.4957 56.928 59.2237 57.104C58.9517 57.272 58.7397 57.524 58.5877 57.86C58.4437 58.188 58.3717 58.596 58.3717 59.084C58.3717 59.804 58.5357 60.36 58.8637 60.752C59.1917 61.136 59.6277 61.328 60.1717 61.328ZM66.2558 62.108C65.8558 62.108 65.4958 62.032 65.1758 61.88C64.8638 61.72 64.6158 61.504 64.4318 61.232C64.2478 60.96 64.1558 60.656 64.1558 60.32C64.1558 59.888 64.2638 59.548 64.4798 59.3C64.7038 59.052 65.0678 58.876 65.5718 58.772C66.0838 58.668 66.7798 58.616 67.6598 58.616H68.1998V59.252H67.6718C67.0238 59.252 66.5118 59.284 66.1358 59.348C65.7678 59.404 65.5078 59.504 65.3558 59.648C65.2118 59.792 65.1398 59.996 65.1398 60.26C65.1398 60.588 65.2518 60.856 65.4758 61.064C65.7078 61.272 66.0198 61.376 66.4118 61.376C66.7318 61.376 67.0118 61.3 67.2518 61.148C67.4998 60.996 67.6918 60.788 67.8278 60.524C67.9718 60.26 68.0438 59.956 68.0438 59.612V58.244C68.0438 57.748 67.9438 57.392 67.7438 57.176C67.5438 56.952 67.2158 56.84 66.7598 56.84C66.4798 56.84 66.1998 56.876 65.9198 56.948C65.6398 57.02 65.3438 57.136 65.0318 57.296C64.9198 57.352 64.8238 57.372 64.7438 57.356C64.6638 57.332 64.5998 57.288 64.5518 57.224C64.5038 57.16 64.4758 57.088 64.4678 57.008C64.4598 56.92 64.4758 56.836 64.5158 56.756C64.5638 56.676 64.6358 56.612 64.7318 56.564C65.0838 56.388 65.4318 56.26 65.7758 56.18C66.1198 56.1 66.4478 56.06 66.7598 56.06C67.2638 56.06 67.6798 56.144 68.0078 56.312C68.3358 56.472 68.5798 56.72 68.7398 57.056C68.8998 57.384 68.9798 57.808 68.9798 58.328V61.58C68.9798 61.74 68.9398 61.864 68.8598 61.952C68.7878 62.04 68.6798 62.084 68.5358 62.084C68.3838 62.084 68.2678 62.04 68.1878 61.952C68.1078 61.864 68.0678 61.74 68.0678 61.58V60.644H68.1758C68.1118 60.948 67.9878 61.208 67.8038 61.424C67.6278 61.64 67.4078 61.808 67.1438 61.928C66.8798 62.048 66.5838 62.108 66.2558 62.108ZM73.2551 62.108C72.6711 62.108 72.1671 61.98 71.7431 61.724C71.3191 61.468 70.9911 61.112 70.7591 60.656C70.5351 60.192 70.4231 59.656 70.4231 59.048C70.4231 58.584 70.4871 58.168 70.6151 57.8C70.7431 57.432 70.9311 57.12 71.1791 56.864C71.4271 56.6 71.7231 56.4 72.0671 56.264C72.4191 56.128 72.8151 56.06 73.2551 56.06C73.5431 56.06 73.8431 56.104 74.1551 56.192C74.4671 56.28 74.7511 56.432 75.0071 56.648C75.0871 56.704 75.1391 56.772 75.1631 56.852C75.1871 56.932 75.1871 57.012 75.1631 57.092C75.1391 57.164 75.0991 57.228 75.0431 57.284C74.9871 57.332 74.9151 57.36 74.8271 57.368C74.7471 57.376 74.6631 57.348 74.5751 57.284C74.3671 57.124 74.1551 57.012 73.9391 56.948C73.7231 56.884 73.5151 56.852 73.3151 56.852C73.0031 56.852 72.7311 56.904 72.4991 57.008C72.2671 57.104 72.0711 57.244 71.9111 57.428C71.7511 57.612 71.6271 57.84 71.5391 58.112C71.4591 58.384 71.4191 58.7 71.4191 59.06C71.4191 59.756 71.5831 60.308 71.9111 60.716C72.2391 61.116 72.7071 61.316 73.3151 61.316C73.5151 61.316 73.7191 61.284 73.9271 61.22C74.1431 61.156 74.3591 61.044 74.5751 60.884C74.6631 60.82 74.7471 60.792 74.8271 60.8C74.9071 60.808 74.9751 60.84 75.0311 60.896C75.0871 60.944 75.1231 61.008 75.1391 61.088C75.1631 61.168 75.1631 61.248 75.1391 61.328C75.1151 61.4 75.0631 61.464 74.9831 61.52C74.7271 61.728 74.4471 61.88 74.1431 61.976C73.8391 62.064 73.5431 62.108 73.2551 62.108ZM76.8178 62.084C76.6578 62.084 76.5378 62.04 76.4578 61.952C76.3778 61.864 76.3378 61.74 76.3378 61.58V53.948C76.3378 53.788 76.3778 53.668 76.4578 53.588C76.5378 53.5 76.6578 53.456 76.8178 53.456C76.9698 53.456 77.0898 53.5 77.1778 53.588C77.2658 53.668 77.3098 53.788 77.3098 53.948V58.76H77.3338L79.7938 56.408C79.9058 56.304 80.0018 56.224 80.0818 56.168C80.1698 56.112 80.2858 56.084 80.4298 56.084C80.5578 56.084 80.6578 56.12 80.7298 56.192C80.8018 56.256 80.8338 56.34 80.8258 56.444C80.8258 56.54 80.7778 56.644 80.6818 56.756L78.0658 59.24V58.712L80.9098 61.388C81.0218 61.5 81.0778 61.608 81.0778 61.712C81.0778 61.816 81.0378 61.904 80.9578 61.976C80.8858 62.048 80.7898 62.084 80.6698 62.084C80.5258 62.084 80.4098 62.056 80.3218 62C80.2338 61.936 80.1258 61.844 79.9978 61.724L77.3338 59.264H77.3098V61.58C77.3098 61.916 77.1458 62.084 76.8178 62.084ZM9.928 78.084C9.792 78.084 9.672 78.048 9.568 77.976C9.464 77.904 9.38 77.788 9.316 77.628L7.528 72.768C7.48 72.632 7.464 72.512 7.48 72.408C7.504 72.304 7.556 72.224 7.636 72.168C7.716 72.112 7.816 72.084 7.936 72.084C8.056 72.084 8.152 72.112 8.224 72.168C8.304 72.224 8.368 72.328 8.416 72.48L10.096 77.28H9.808L11.536 72.48C11.592 72.336 11.66 72.236 11.74 72.18C11.828 72.116 11.94 72.084 12.076 72.084C12.204 72.084 12.312 72.116 12.4 72.18C12.488 72.244 12.556 72.344 12.604 72.48L14.296 77.28H14.02L15.724 72.456C15.78 72.312 15.848 72.216 15.928 72.168C16.008 72.112 16.104 72.084 16.216 72.084C16.344 72.084 16.44 72.116 16.504 72.18C16.576 72.244 16.616 72.328 16.624 72.432C16.632 72.536 16.612 72.648 16.564 72.768L14.776 77.628C14.72 77.78 14.636 77.896 14.524 77.976C14.42 78.048 14.3 78.084 14.164 78.084C14.028 78.084 13.908 78.048 13.804 77.976C13.7 77.896 13.62 77.78 13.564 77.628L11.788 72.756H12.304L10.54 77.628C10.484 77.78 10.404 77.896 10.3 77.976C10.196 78.048 10.072 78.084 9.928 78.084ZM18.4818 78.06C18.3218 78.06 18.2018 78.016 18.1218 77.928C18.0418 77.832 18.0018 77.7 18.0018 77.532V72.624C18.0018 72.456 18.0418 72.328 18.1218 72.24C18.2018 72.152 18.3218 72.108 18.4818 72.108C18.6338 72.108 18.7538 72.152 18.8418 72.24C18.9298 72.328 18.9738 72.456 18.9738 72.624V77.532C18.9738 77.7 18.9298 77.832 18.8418 77.928C18.7618 78.016 18.6418 78.06 18.4818 78.06ZM18.4818 70.764C18.2818 70.764 18.1258 70.712 18.0138 70.608C17.9018 70.496 17.8458 70.348 17.8458 70.164C17.8458 69.972 17.9018 69.828 18.0138 69.732C18.1258 69.628 18.2818 69.576 18.4818 69.576C18.6898 69.576 18.8458 69.628 18.9498 69.732C19.0618 69.828 19.1178 69.972 19.1178 70.164C19.1178 70.348 19.0618 70.496 18.9498 70.608C18.8458 70.712 18.6898 70.764 18.4818 70.764ZM23.1309 78.108C22.6749 78.108 22.2909 78.028 21.9789 77.868C21.6749 77.7 21.4469 77.46 21.2949 77.148C21.1429 76.828 21.0669 76.44 21.0669 75.984V72.924H20.2629C20.1269 72.924 20.0229 72.892 19.9509 72.828C19.8789 72.756 19.8429 72.66 19.8429 72.54C19.8429 72.42 19.8789 72.328 19.9509 72.264C20.0229 72.2 20.1269 72.168 20.2629 72.168H21.0669V70.788C21.0669 70.628 21.1109 70.508 21.1989 70.428C21.2869 70.34 21.4069 70.296 21.5589 70.296C21.7109 70.296 21.8269 70.34 21.9069 70.428C21.9949 70.508 22.0389 70.628 22.0389 70.788V72.168H23.5509C23.6869 72.168 23.7909 72.2 23.8629 72.264C23.9349 72.328 23.9709 72.42 23.9709 72.54C23.9709 72.66 23.9349 72.756 23.8629 72.828C23.7909 72.892 23.6869 72.924 23.5509 72.924H22.0389V75.888C22.0389 76.344 22.1349 76.692 22.3269 76.932C22.5189 77.164 22.8309 77.28 23.2629 77.28C23.4149 77.28 23.5429 77.264 23.6469 77.232C23.7589 77.2 23.8509 77.184 23.9229 77.184C23.9949 77.176 24.0549 77.2 24.1029 77.256C24.1509 77.312 24.1749 77.408 24.1749 77.544C24.1749 77.64 24.1549 77.728 24.1149 77.808C24.0829 77.888 24.0229 77.944 23.9349 77.976C23.8389 78.008 23.7109 78.036 23.5509 78.06C23.3989 78.092 23.2589 78.108 23.1309 78.108ZM25.5365 78.084C25.3765 78.084 25.2565 78.04 25.1765 77.952C25.0965 77.864 25.0565 77.74 25.0565 77.58V69.948C25.0565 69.788 25.0965 69.668 25.1765 69.588C25.2565 69.5 25.3765 69.456 25.5365 69.456C25.6885 69.456 25.8085 69.5 25.8965 69.588C25.9845 69.668 26.0285 69.788 26.0285 69.948V73.464H25.8725C26.0405 73 26.3125 72.652 26.6885 72.42C27.0725 72.18 27.5125 72.06 28.0085 72.06C28.4725 72.06 28.8565 72.144 29.1605 72.312C29.4725 72.48 29.7045 72.736 29.8565 73.08C30.0085 73.416 30.0845 73.844 30.0845 74.364V77.58C30.0845 77.74 30.0405 77.864 29.9525 77.952C29.8725 78.04 29.7565 78.084 29.6045 78.084C29.4445 78.084 29.3205 78.04 29.2325 77.952C29.1525 77.864 29.1125 77.74 29.1125 77.58V74.424C29.1125 73.88 29.0045 73.484 28.7885 73.236C28.5805 72.98 28.2445 72.852 27.7805 72.852C27.2445 72.852 26.8165 73.02 26.4965 73.356C26.1845 73.684 26.0285 74.124 26.0285 74.676V77.58C26.0285 77.916 25.8645 78.084 25.5365 78.084ZM37.5986 78.108C36.9826 78.108 36.4506 77.988 36.0026 77.748C35.5626 77.5 35.2186 77.152 34.9706 76.704C34.7306 76.256 34.6106 75.72 34.6106 75.096C34.6106 74.488 34.7306 73.96 34.9706 73.512C35.2106 73.056 35.5386 72.7 35.9546 72.444C36.3786 72.188 36.8666 72.06 37.4186 72.06C37.8106 72.06 38.1626 72.128 38.4746 72.264C38.7866 72.392 39.0506 72.58 39.2666 72.828C39.4906 73.076 39.6586 73.376 39.7706 73.728C39.8906 74.08 39.9506 74.476 39.9506 74.916C39.9506 75.044 39.9146 75.14 39.8426 75.204C39.7706 75.26 39.6666 75.288 39.5306 75.288H35.3546V74.652H39.3026L39.1106 74.808C39.1106 74.376 39.0466 74.012 38.9186 73.716C38.7906 73.412 38.6026 73.18 38.3546 73.02C38.1146 72.86 37.8106 72.78 37.4426 72.78C37.0346 72.78 36.6866 72.876 36.3986 73.068C36.1186 73.252 35.9066 73.512 35.7626 73.848C35.6186 74.176 35.5466 74.56 35.5466 75V75.072C35.5466 75.808 35.7226 76.368 36.0746 76.752C36.4346 77.136 36.9426 77.328 37.5986 77.328C37.8706 77.328 38.1386 77.292 38.4026 77.22C38.6746 77.148 38.9386 77.028 39.1946 76.86C39.3066 76.788 39.4066 76.756 39.4946 76.764C39.5906 76.764 39.6666 76.792 39.7226 76.848C39.7786 76.896 39.8146 76.96 39.8306 77.04C39.8546 77.112 39.8466 77.192 39.8066 77.28C39.7746 77.368 39.7066 77.444 39.6026 77.508C39.3386 77.7 39.0266 77.848 38.6666 77.952C38.3066 78.056 37.9506 78.108 37.5986 78.108ZM41.3344 78.072C41.2304 78.072 41.1384 78.04 41.0584 77.976C40.9784 77.912 40.9344 77.828 40.9264 77.724C40.9264 77.612 40.9784 77.496 41.0824 77.376L43.1824 74.736V75.24L41.2144 72.78C41.1104 72.652 41.0584 72.536 41.0584 72.432C41.0664 72.328 41.1104 72.244 41.1904 72.18C41.2704 72.116 41.3624 72.084 41.4664 72.084C41.5864 72.084 41.6864 72.108 41.7664 72.156C41.8544 72.196 41.9344 72.264 42.0064 72.36L43.7224 74.532H43.3864L45.1144 72.36C45.1864 72.264 45.2624 72.196 45.3424 72.156C45.4224 72.108 45.5224 72.084 45.6424 72.084C45.7544 72.084 45.8464 72.116 45.9184 72.18C45.9984 72.244 46.0384 72.332 46.0384 72.444C46.0464 72.548 45.9984 72.664 45.8944 72.792L43.9384 75.216V74.772L46.0384 77.376C46.1344 77.496 46.1784 77.612 46.1704 77.724C46.1704 77.828 46.1304 77.912 46.0504 77.976C45.9704 78.04 45.8744 78.072 45.7624 78.072C45.6504 78.072 45.5504 78.048 45.4624 78C45.3824 77.96 45.3024 77.892 45.2224 77.796L43.3744 75.468H43.7224L41.8744 77.796C41.8024 77.884 41.7224 77.952 41.6344 78C41.5544 78.048 41.4544 78.072 41.3344 78.072ZM49.9551 78.108C49.4991 78.108 49.1151 78.028 48.8031 77.868C48.4991 77.7 48.2711 77.46 48.1191 77.148C47.9671 76.828 47.8911 76.44 47.8911 75.984V72.924H47.0871C46.9511 72.924 46.8471 72.892 46.7751 72.828C46.7031 72.756 46.6671 72.66 46.6671 72.54C46.6671 72.42 46.7031 72.328 46.7751 72.264C46.8471 72.2 46.9511 72.168 47.0871 72.168H47.8911V70.788C47.8911 70.628 47.9351 70.508 48.0231 70.428C48.1111 70.34 48.2311 70.296 48.3831 70.296C48.5351 70.296 48.6511 70.34 48.7311 70.428C48.8191 70.508 48.8631 70.628 48.8631 70.788V72.168H50.3751C50.5111 72.168 50.6151 72.2 50.6871 72.264C50.7591 72.328 50.7951 72.42 50.7951 72.54C50.7951 72.66 50.7591 72.756 50.6871 72.828C50.6151 72.892 50.5111 72.924 50.3751 72.924H48.8631V75.888C48.8631 76.344 48.9591 76.692 49.1511 76.932C49.3431 77.164 49.6551 77.28 50.0871 77.28C50.2391 77.28 50.3671 77.264 50.4711 77.232C50.5831 77.2 50.6751 77.184 50.7471 77.184C50.8191 77.176 50.8791 77.2 50.9271 77.256C50.9751 77.312 50.9991 77.408 50.9991 77.544C50.9991 77.64 50.9791 77.728 50.9391 77.808C50.9071 77.888 50.8471 77.944 50.7591 77.976C50.6631 78.008 50.5351 78.036 50.3751 78.06C50.2231 78.092 50.0831 78.108 49.9551 78.108ZM52.3024 78.084C52.1424 78.084 52.0184 78.04 51.9304 77.952C51.8504 77.864 51.8104 77.74 51.8104 77.58V72.576C51.8104 72.416 51.8504 72.296 51.9304 72.216C52.0104 72.128 52.1264 72.084 52.2784 72.084C52.4304 72.084 52.5464 72.128 52.6264 72.216C52.7144 72.296 52.7584 72.416 52.7584 72.576V73.548H52.6384C52.7664 73.076 53.0104 72.712 53.3704 72.456C53.7304 72.2 54.1744 72.064 54.7024 72.048C54.8224 72.04 54.9184 72.068 54.9904 72.132C55.0624 72.188 55.1024 72.288 55.1104 72.432C55.1184 72.568 55.0864 72.676 55.0144 72.756C54.9424 72.836 54.8304 72.884 54.6784 72.9L54.4864 72.924C53.9424 72.972 53.5224 73.148 53.2264 73.452C52.9384 73.748 52.7944 74.156 52.7944 74.676V77.58C52.7944 77.74 52.7504 77.864 52.6624 77.952C52.5824 78.04 52.4624 78.084 52.3024 78.084ZM57.8886 78.108C57.4886 78.108 57.1286 78.032 56.8086 77.88C56.4966 77.72 56.2486 77.504 56.0646 77.232C55.8806 76.96 55.7886 76.656 55.7886 76.32C55.7886 75.888 55.8966 75.548 56.1126 75.3C56.3366 75.052 56.7006 74.876 57.2046 74.772C57.7166 74.668 58.4126 74.616 59.2926 74.616H59.8326V75.252H59.3046C58.6566 75.252 58.1446 75.284 57.7686 75.348C57.4006 75.404 57.1406 75.504 56.9886 75.648C56.8446 75.792 56.7726 75.996 56.7726 76.26C56.7726 76.588 56.8846 76.856 57.1086 77.064C57.3406 77.272 57.6526 77.376 58.0446 77.376C58.3646 77.376 58.6446 77.3 58.8846 77.148C59.1326 76.996 59.3246 76.788 59.4606 76.524C59.6046 76.26 59.6766 75.956 59.6766 75.612V74.244C59.6766 73.748 59.5766 73.392 59.3766 73.176C59.1766 72.952 58.8486 72.84 58.3926 72.84C58.1126 72.84 57.8326 72.876 57.5526 72.948C57.2726 73.02 56.9766 73.136 56.6646 73.296C56.5526 73.352 56.4566 73.372 56.3766 73.356C56.2966 73.332 56.2326 73.288 56.1846 73.224C56.1366 73.16 56.1086 73.088 56.1006 73.008C56.0926 72.92 56.1086 72.836 56.1486 72.756C56.1966 72.676 56.2686 72.612 56.3646 72.564C56.7166 72.388 57.0646 72.26 57.4086 72.18C57.7526 72.1 58.0806 72.06 58.3926 72.06C58.8966 72.06 59.3126 72.144 59.6406 72.312C59.9686 72.472 60.2126 72.72 60.3726 73.056C60.5326 73.384 60.6126 73.808 60.6126 74.328V77.58C60.6126 77.74 60.5726 77.864 60.4926 77.952C60.4206 78.04 60.3126 78.084 60.1686 78.084C60.0166 78.084 59.9006 78.04 59.8206 77.952C59.7406 77.864 59.7006 77.74 59.7006 77.58V76.644H59.8086C59.7446 76.948 59.6206 77.208 59.4366 77.424C59.2606 77.64 59.0406 77.808 58.7766 77.928C58.5126 78.048 58.2166 78.108 57.8886 78.108ZM66.0137 78.084C65.8537 78.084 65.7337 78.04 65.6537 77.952C65.5737 77.864 65.5337 77.74 65.5337 77.58V72.576C65.5337 72.416 65.5737 72.296 65.6537 72.216C65.7337 72.128 65.8497 72.084 66.0017 72.084C66.1537 72.084 66.2697 72.128 66.3497 72.216C66.4377 72.296 66.4817 72.416 66.4817 72.576V73.632L66.3497 73.464C66.5017 73.016 66.7457 72.672 67.0817 72.432C67.4257 72.184 67.8337 72.06 68.3057 72.06C68.8017 72.06 69.2017 72.18 69.5057 72.42C69.8177 72.652 70.0257 73.016 70.1297 73.512H69.9497C70.0937 73.064 70.3497 72.712 70.7177 72.456C71.0937 72.192 71.5297 72.06 72.0257 72.06C72.4657 72.06 72.8257 72.144 73.1057 72.312C73.3937 72.48 73.6097 72.736 73.7537 73.08C73.8977 73.416 73.9697 73.844 73.9697 74.364V77.58C73.9697 77.74 73.9257 77.864 73.8377 77.952C73.7577 78.04 73.6377 78.084 73.4777 78.084C73.3257 78.084 73.2057 78.04 73.1177 77.952C73.0377 77.864 72.9977 77.74 72.9977 77.58V74.412C72.9977 73.876 72.9057 73.484 72.7217 73.236C72.5377 72.98 72.2257 72.852 71.7857 72.852C71.3057 72.852 70.9257 73.02 70.6457 73.356C70.3737 73.684 70.2377 74.132 70.2377 74.7V77.58C70.2377 77.74 70.1937 77.864 70.1057 77.952C70.0257 78.04 69.9057 78.084 69.7457 78.084C69.5937 78.084 69.4737 78.04 69.3857 77.952C69.3057 77.864 69.2657 77.74 69.2657 77.58V74.412C69.2657 73.876 69.1697 73.484 68.9777 73.236C68.7937 72.98 68.4857 72.852 68.0537 72.852C67.5737 72.852 67.1937 73.02 66.9137 73.356C66.6417 73.684 66.5057 74.132 66.5057 74.7V77.58C66.5057 77.916 66.3417 78.084 66.0137 78.084ZM78.211 78.108C77.643 78.108 77.151 77.984 76.735 77.736C76.319 77.488 75.995 77.14 75.763 76.692C75.539 76.236 75.427 75.7 75.427 75.084C75.427 74.62 75.491 74.204 75.619 73.836C75.747 73.46 75.935 73.14 76.183 72.876C76.431 72.612 76.723 72.412 77.059 72.276C77.403 72.132 77.787 72.06 78.211 72.06C78.779 72.06 79.271 72.184 79.687 72.432C80.103 72.68 80.423 73.032 80.647 73.488C80.879 73.936 80.995 74.468 80.995 75.084C80.995 75.548 80.931 75.964 80.803 76.332C80.675 76.7 80.487 77.02 80.239 77.292C79.991 77.556 79.695 77.76 79.351 77.904C79.015 78.04 78.635 78.108 78.211 78.108ZM78.211 77.328C78.571 77.328 78.887 77.24 79.159 77.064C79.431 76.888 79.639 76.632 79.783 76.296C79.935 75.96 80.011 75.556 80.011 75.084C80.011 74.356 79.847 73.8 79.519 73.416C79.199 73.032 78.763 72.84 78.211 72.84C77.843 72.84 77.523 72.928 77.251 73.104C76.987 73.272 76.779 73.524 76.627 73.86C76.483 74.188 76.411 74.596 76.411 75.084C76.411 75.804 76.575 76.36 76.903 76.752C77.231 77.136 77.667 77.328 78.211 77.328ZM82.935 78.084C82.775 78.084 82.655 78.04 82.575 77.952C82.495 77.864 82.455 77.74 82.455 77.58V72.576C82.455 72.416 82.495 72.296 82.575 72.216C82.655 72.128 82.771 72.084 82.923 72.084C83.075 72.084 83.191 72.128 83.271 72.216C83.359 72.296 83.403 72.416 83.403 72.576V73.608L83.271 73.464C83.439 73 83.711 72.652 84.087 72.42C84.471 72.18 84.911 72.06 85.407 72.06C85.871 72.06 86.255 72.144 86.559 72.312C86.871 72.48 87.103 72.736 87.255 73.08C87.407 73.416 87.483 73.844 87.483 74.364V77.58C87.483 77.74 87.439 77.864 87.351 77.952C87.271 78.04 87.155 78.084 87.003 78.084C86.843 78.084 86.719 78.04 86.631 77.952C86.551 77.864 86.511 77.74 86.511 77.58V74.424C86.511 73.88 86.403 73.484 86.187 73.236C85.979 72.98 85.643 72.852 85.179 72.852C84.643 72.852 84.215 73.02 83.895 73.356C83.583 73.684 83.427 74.124 83.427 74.676V77.58C83.427 77.916 83.263 78.084 82.935 78.084ZM91.9033 78.108C91.2873 78.108 90.7553 77.988 90.3073 77.748C89.8673 77.5 89.5233 77.152 89.2753 76.704C89.0353 76.256 88.9153 75.72 88.9153 75.096C88.9153 74.488 89.0353 73.96 89.2753 73.512C89.5153 73.056 89.8433 72.7 90.2593 72.444C90.6833 72.188 91.1713 72.06 91.7233 72.06C92.1153 72.06 92.4673 72.128 92.7793 72.264C93.0913 72.392 93.3553 72.58 93.5713 72.828C93.7953 73.076 93.9633 73.376 94.0753 73.728C94.1953 74.08 94.2553 74.476 94.2553 74.916C94.2553 75.044 94.2193 75.14 94.1473 75.204C94.0753 75.26 93.9713 75.288 93.8353 75.288H89.6593V74.652H93.6073L93.4153 74.808C93.4153 74.376 93.3513 74.012 93.2233 73.716C93.0953 73.412 92.9073 73.18 92.6593 73.02C92.4193 72.86 92.1153 72.78 91.7473 72.78C91.3393 72.78 90.9913 72.876 90.7033 73.068C90.4233 73.252 90.2113 73.512 90.0673 73.848C89.9233 74.176 89.8513 74.56 89.8513 75V75.072C89.8513 75.808 90.0273 76.368 90.3793 76.752C90.7393 77.136 91.2473 77.328 91.9033 77.328C92.1753 77.328 92.4433 77.292 92.7073 77.22C92.9793 77.148 93.2433 77.028 93.4993 76.86C93.6113 76.788 93.7113 76.756 93.7993 76.764C93.8953 76.764 93.9713 76.792 94.0273 76.848C94.0833 76.896 94.1193 76.96 94.1353 77.04C94.1593 77.112 94.1513 77.192 94.1113 77.28C94.0793 77.368 94.0113 77.444 93.9073 77.508C93.6433 77.7 93.3313 77.848 92.9713 77.952C92.6113 78.056 92.2553 78.108 91.9033 78.108ZM96.8877 80.244C96.7677 80.244 96.6717 80.212 96.5997 80.148C96.5277 80.084 96.4837 79.996 96.4677 79.884C96.4597 79.78 96.4797 79.672 96.5277 79.56L97.3557 77.7V78.12L95.0517 72.768C95.0037 72.648 94.9877 72.536 95.0037 72.432C95.0197 72.328 95.0677 72.244 95.1477 72.18C95.2277 72.116 95.3397 72.084 95.4837 72.084C95.6117 72.084 95.7117 72.112 95.7837 72.168C95.8557 72.224 95.9197 72.324 95.9757 72.468L97.9437 77.292H97.6197L99.6117 72.468C99.6757 72.324 99.7437 72.224 99.8157 72.168C99.8877 72.112 99.9917 72.084 100.128 72.084C100.256 72.084 100.352 72.116 100.416 72.18C100.488 72.244 100.528 72.328 100.536 72.432C100.552 72.528 100.536 72.636 100.488 72.756L97.4157 79.86C97.3517 80.004 97.2797 80.104 97.1997 80.16C97.1277 80.216 97.0237 80.244 96.8877 80.244ZM10.384 94.108C9.8 94.108 9.296 93.98 8.872 93.724C8.448 93.468 8.12 93.112 7.888 92.656C7.664 92.192 7.552 91.656 7.552 91.048C7.552 90.584 7.616 90.168 7.744 89.8C7.872 89.432 8.06 89.12 8.308 88.864C8.556 88.6 8.852 88.4 9.196 88.264C9.548 88.128 9.944 88.06 10.384 88.06C10.672 88.06 10.972 88.104 11.284 88.192C11.596 88.28 11.88 88.432 12.136 88.648C12.216 88.704 12.268 88.772 12.292 88.852C12.316 88.932 12.316 89.012 12.292 89.092C12.268 89.164 12.228 89.228 12.172 89.284C12.116 89.332 12.044 89.36 11.956 89.368C11.876 89.376 11.792 89.348 11.704 89.284C11.496 89.124 11.284 89.012 11.068 88.948C10.852 88.884 10.644 88.852 10.444 88.852C10.132 88.852 9.86 88.904 9.628 89.008C9.396 89.104 9.2 89.244 9.04 89.428C8.88 89.612 8.756 89.84 8.668 90.112C8.588 90.384 8.548 90.7 8.548 91.06C8.548 91.756 8.712 92.308 9.04 92.716C9.368 93.116 9.836 93.316 10.444 93.316C10.644 93.316 10.848 93.284 11.056 93.22C11.272 93.156 11.488 93.044 11.704 92.884C11.792 92.82 11.876 92.792 11.956 92.8C12.036 92.808 12.104 92.84 12.16 92.896C12.216 92.944 12.252 93.008 12.268 93.088C12.292 93.168 12.292 93.248 12.268 93.328C12.244 93.4 12.192 93.464 12.112 93.52C11.856 93.728 11.576 93.88 11.272 93.976C10.968 94.064 10.672 94.108 10.384 94.108ZM15.2558 94.108C14.8558 94.108 14.4958 94.032 14.1758 93.88C13.8638 93.72 13.6158 93.504 13.4318 93.232C13.2478 92.96 13.1558 92.656 13.1558 92.32C13.1558 91.888 13.2638 91.548 13.4798 91.3C13.7038 91.052 14.0678 90.876 14.5718 90.772C15.0838 90.668 15.7798 90.616 16.6598 90.616H17.1998V91.252H16.6718C16.0238 91.252 15.5118 91.284 15.1358 91.348C14.7678 91.404 14.5078 91.504 14.3558 91.648C14.2118 91.792 14.1398 91.996 14.1398 92.26C14.1398 92.588 14.2518 92.856 14.4758 93.064C14.7078 93.272 15.0198 93.376 15.4118 93.376C15.7318 93.376 16.0118 93.3 16.2518 93.148C16.4998 92.996 16.6918 92.788 16.8278 92.524C16.9718 92.26 17.0438 91.956 17.0438 91.612V90.244C17.0438 89.748 16.9438 89.392 16.7438 89.176C16.5438 88.952 16.2158 88.84 15.7598 88.84C15.4798 88.84 15.1998 88.876 14.9198 88.948C14.6398 89.02 14.3438 89.136 14.0318 89.296C13.9198 89.352 13.8238 89.372 13.7438 89.356C13.6638 89.332 13.5998 89.288 13.5518 89.224C13.5038 89.16 13.4758 89.088 13.4678 89.008C13.4598 88.92 13.4758 88.836 13.5158 88.756C13.5638 88.676 13.6358 88.612 13.7318 88.564C14.0838 88.388 14.4318 88.26 14.7758 88.18C15.1198 88.1 15.4478 88.06 15.7598 88.06C16.2638 88.06 16.6798 88.144 17.0078 88.312C17.3358 88.472 17.5798 88.72 17.7398 89.056C17.8998 89.384 17.9798 89.808 17.9798 90.328V93.58C17.9798 93.74 17.9398 93.864 17.8598 93.952C17.7878 94.04 17.6798 94.084 17.5358 94.084C17.3838 94.084 17.2678 94.04 17.1878 93.952C17.1078 93.864 17.0678 93.74 17.0678 93.58V92.644H17.1758C17.1118 92.948 16.9878 93.208 16.8038 93.424C16.6278 93.64 16.4078 93.808 16.1438 93.928C15.8798 94.048 15.5838 94.108 15.2558 94.108ZM21.5591 94.108C20.9831 94.108 20.5431 93.932 20.2391 93.58C19.9351 93.228 19.7831 92.724 19.7831 92.068V85.948C19.7831 85.788 19.8231 85.668 19.9031 85.588C19.9831 85.5 20.1031 85.456 20.2631 85.456C20.4151 85.456 20.5351 85.5 20.6231 85.588C20.7111 85.668 20.7551 85.788 20.7551 85.948V91.996C20.7551 92.428 20.8391 92.752 21.0071 92.968C21.1831 93.176 21.4391 93.28 21.7751 93.28C21.8471 93.28 21.9111 93.276 21.9671 93.268C22.0231 93.26 22.0791 93.256 22.1351 93.256C22.2231 93.248 22.2831 93.268 22.3151 93.316C22.3551 93.364 22.3751 93.46 22.3751 93.604C22.3751 93.748 22.3431 93.856 22.2791 93.928C22.2151 94 22.1111 94.048 21.9671 94.072C21.9031 94.08 21.8351 94.088 21.7631 94.096C21.6911 94.104 21.6231 94.108 21.5591 94.108ZM25.1099 94.108C24.5339 94.108 24.0939 93.932 23.7899 93.58C23.4859 93.228 23.3339 92.724 23.3339 92.068V85.948C23.3339 85.788 23.3739 85.668 23.4539 85.588C23.5339 85.5 23.6539 85.456 23.8139 85.456C23.9659 85.456 24.0859 85.5 24.1739 85.588C24.2619 85.668 24.3059 85.788 24.3059 85.948V91.996C24.3059 92.428 24.3899 92.752 24.5579 92.968C24.7339 93.176 24.9899 93.28 25.3259 93.28C25.3979 93.28 25.4619 93.276 25.5179 93.268C25.5739 93.26 25.6299 93.256 25.6859 93.256C25.7739 93.248 25.8339 93.268 25.8659 93.316C25.9059 93.364 25.9259 93.46 25.9259 93.604C25.9259 93.748 25.8939 93.856 25.8299 93.928C25.7659 94 25.6619 94.048 25.5179 94.072C25.4539 94.08 25.3859 94.088 25.3139 94.096C25.2419 94.104 25.1739 94.108 25.1099 94.108ZM29.4541 94.108C28.8381 94.108 28.3061 93.988 27.8581 93.748C27.4181 93.5 27.0741 93.152 26.8261 92.704C26.5861 92.256 26.4661 91.72 26.4661 91.096C26.4661 90.488 26.5861 89.96 26.8261 89.512C27.0661 89.056 27.3941 88.7 27.8101 88.444C28.2341 88.188 28.7221 88.06 29.2741 88.06C29.6661 88.06 30.0181 88.128 30.3301 88.264C30.6421 88.392 30.9061 88.58 31.1221 88.828C31.3461 89.076 31.5141 89.376 31.6261 89.728C31.7461 90.08 31.8061 90.476 31.8061 90.916C31.8061 91.044 31.7701 91.14 31.6981 91.204C31.6261 91.26 31.5221 91.288 31.3861 91.288H27.2101V90.652H31.1581L30.9661 90.808C30.9661 90.376 30.9021 90.012 30.7741 89.716C30.6461 89.412 30.4581 89.18 30.2101 89.02C29.9701 88.86 29.6661 88.78 29.2981 88.78C28.8901 88.78 28.5421 88.876 28.2541 89.068C27.9741 89.252 27.7621 89.512 27.6181 89.848C27.4741 90.176 27.4021 90.56 27.4021 91V91.072C27.4021 91.808 27.5781 92.368 27.9301 92.752C28.2901 93.136 28.7981 93.328 29.4541 93.328C29.7261 93.328 29.9941 93.292 30.2581 93.22C30.5301 93.148 30.7941 93.028 31.0501 92.86C31.1621 92.788 31.2621 92.756 31.3501 92.764C31.4461 92.764 31.5221 92.792 31.5781 92.848C31.6341 92.896 31.6701 92.96 31.6861 93.04C31.7101 93.112 31.7021 93.192 31.6621 93.28C31.6301 93.368 31.5621 93.444 31.4581 93.508C31.1941 93.7 30.8821 93.848 30.5221 93.952C30.1621 94.056 29.8061 94.108 29.4541 94.108ZM35.4328 94.108C34.9128 94.108 34.4568 93.984 34.0648 93.736C33.6808 93.488 33.3808 93.14 33.1648 92.692C32.9568 92.236 32.8528 91.7 32.8528 91.084C32.8528 90.46 32.9568 89.924 33.1648 89.476C33.3808 89.02 33.6808 88.672 34.0648 88.432C34.4568 88.184 34.9128 88.06 35.4328 88.06C35.9608 88.06 36.4128 88.192 36.7888 88.456C37.1648 88.72 37.4168 89.076 37.5448 89.524H37.4128V85.948C37.4128 85.788 37.4528 85.668 37.5328 85.588C37.6208 85.5 37.7448 85.456 37.9048 85.456C38.0568 85.456 38.1728 85.5 38.2528 85.588C38.3408 85.668 38.3848 85.788 38.3848 85.948V93.58C38.3848 93.74 38.3448 93.864 38.2648 93.952C38.1848 94.04 38.0648 94.084 37.9048 94.084C37.7528 94.084 37.6328 94.04 37.5448 93.952C37.4648 93.864 37.4248 93.74 37.4248 93.58V92.44L37.5568 92.608C37.4288 93.064 37.1728 93.428 36.7888 93.7C36.4128 93.972 35.9608 94.108 35.4328 94.108ZM35.6368 93.328C35.9968 93.328 36.3128 93.24 36.5848 93.064C36.8568 92.888 37.0648 92.632 37.2088 92.296C37.3608 91.96 37.4368 91.556 37.4368 91.084C37.4368 90.356 37.2728 89.8 36.9448 89.416C36.6248 89.032 36.1888 88.84 35.6368 88.84C35.2688 88.84 34.9488 88.928 34.6768 89.104C34.4128 89.272 34.2048 89.524 34.0528 89.86C33.9088 90.188 33.8368 90.596 33.8368 91.084C33.8368 91.804 34.0008 92.36 34.3288 92.752C34.6568 93.136 35.0928 93.328 35.6368 93.328ZM43.7826 94.06C43.6226 94.06 43.5026 94.016 43.4226 93.928C43.3426 93.832 43.3026 93.7 43.3026 93.532V88.624C43.3026 88.456 43.3426 88.328 43.4226 88.24C43.5026 88.152 43.6226 88.108 43.7826 88.108C43.9346 88.108 44.0546 88.152 44.1426 88.24C44.2306 88.328 44.2746 88.456 44.2746 88.624V93.532C44.2746 93.7 44.2306 93.832 44.1426 93.928C44.0626 94.016 43.9426 94.06 43.7826 94.06ZM43.7826 86.764C43.5826 86.764 43.4266 86.712 43.3146 86.608C43.2026 86.496 43.1466 86.348 43.1466 86.164C43.1466 85.972 43.2026 85.828 43.3146 85.732C43.4266 85.628 43.5826 85.576 43.7826 85.576C43.9906 85.576 44.1466 85.628 44.2506 85.732C44.3626 85.828 44.4186 85.972 44.4186 86.164C44.4186 86.348 44.3626 86.496 44.2506 86.608C44.1466 86.712 43.9906 86.764 43.7826 86.764ZM46.5717 94.084C46.4117 94.084 46.2917 94.04 46.2117 93.952C46.1317 93.864 46.0917 93.74 46.0917 93.58V88.576C46.0917 88.416 46.1317 88.296 46.2117 88.216C46.2917 88.128 46.4077 88.084 46.5597 88.084C46.7117 88.084 46.8277 88.128 46.9077 88.216C46.9957 88.296 47.0397 88.416 47.0397 88.576V89.608L46.9077 89.464C47.0757 89 47.3477 88.652 47.7237 88.42C48.1077 88.18 48.5477 88.06 49.0437 88.06C49.5077 88.06 49.8917 88.144 50.1957 88.312C50.5077 88.48 50.7397 88.736 50.8917 89.08C51.0437 89.416 51.1197 89.844 51.1197 90.364V93.58C51.1197 93.74 51.0757 93.864 50.9877 93.952C50.9077 94.04 50.7917 94.084 50.6397 94.084C50.4797 94.084 50.3557 94.04 50.2677 93.952C50.1877 93.864 50.1477 93.74 50.1477 93.58V90.424C50.1477 89.88 50.0397 89.484 49.8237 89.236C49.6157 88.98 49.2797 88.852 48.8157 88.852C48.2797 88.852 47.8517 89.02 47.5317 89.356C47.2197 89.684 47.0637 90.124 47.0637 90.676V93.58C47.0637 93.916 46.8997 94.084 46.5717 94.084ZM55.252 94.108C54.796 94.108 54.412 94.028 54.1 93.868C53.796 93.7 53.568 93.46 53.416 93.148C53.264 92.828 53.188 92.44 53.188 91.984V88.924H52.384C52.248 88.924 52.144 88.892 52.072 88.828C52 88.756 51.964 88.66 51.964 88.54C51.964 88.42 52 88.328 52.072 88.264C52.144 88.2 52.248 88.168 52.384 88.168H53.188V86.788C53.188 86.628 53.232 86.508 53.32 86.428C53.408 86.34 53.528 86.296 53.68 86.296C53.832 86.296 53.948 86.34 54.028 86.428C54.116 86.508 54.16 86.628 54.16 86.788V88.168H55.672C55.808 88.168 55.912 88.2 55.984 88.264C56.056 88.328 56.092 88.42 56.092 88.54C56.092 88.66 56.056 88.756 55.984 88.828C55.912 88.892 55.808 88.924 55.672 88.924H54.16V91.888C54.16 92.344 54.256 92.692 54.448 92.932C54.64 93.164 54.952 93.28 55.384 93.28C55.536 93.28 55.664 93.264 55.768 93.232C55.88 93.2 55.972 93.184 56.044 93.184C56.116 93.176 56.176 93.2 56.224 93.256C56.272 93.312 56.296 93.408 56.296 93.544C56.296 93.64 56.276 93.728 56.236 93.808C56.204 93.888 56.144 93.944 56.056 93.976C55.96 94.008 55.832 94.036 55.672 94.06C55.52 94.092 55.38 94.108 55.252 94.108ZM59.6767 94.108C59.0607 94.108 58.5287 93.988 58.0807 93.748C57.6407 93.5 57.2967 93.152 57.0487 92.704C56.8087 92.256 56.6887 91.72 56.6887 91.096C56.6887 90.488 56.8087 89.96 57.0487 89.512C57.2887 89.056 57.6167 88.7 58.0327 88.444C58.4567 88.188 58.9447 88.06 59.4967 88.06C59.8887 88.06 60.2407 88.128 60.5527 88.264C60.8647 88.392 61.1287 88.58 61.3447 88.828C61.5687 89.076 61.7367 89.376 61.8487 89.728C61.9687 90.08 62.0287 90.476 62.0287 90.916C62.0287 91.044 61.9927 91.14 61.9207 91.204C61.8487 91.26 61.7447 91.288 61.6087 91.288H57.4327V90.652H61.3807L61.1887 90.808C61.1887 90.376 61.1247 90.012 60.9967 89.716C60.8687 89.412 60.6807 89.18 60.4327 89.02C60.1927 88.86 59.8887 88.78 59.5207 88.78C59.1127 88.78 58.7647 88.876 58.4767 89.068C58.1967 89.252 57.9847 89.512 57.8407 89.848C57.6967 90.176 57.6247 90.56 57.6247 91V91.072C57.6247 91.808 57.8007 92.368 58.1527 92.752C58.5127 93.136 59.0207 93.328 59.6767 93.328C59.9487 93.328 60.2167 93.292 60.4807 93.22C60.7527 93.148 61.0167 93.028 61.2727 92.86C61.3847 92.788 61.4847 92.756 61.5727 92.764C61.6687 92.764 61.7447 92.792 61.8007 92.848C61.8567 92.896 61.8927 92.96 61.9087 93.04C61.9327 93.112 61.9247 93.192 61.8847 93.28C61.8527 93.368 61.7847 93.444 61.6807 93.508C61.4167 93.7 61.1047 93.848 60.7447 93.952C60.3847 94.056 60.0287 94.108 59.6767 94.108ZM63.9274 94.084C63.7674 94.084 63.6434 94.04 63.5554 93.952C63.4754 93.864 63.4354 93.74 63.4354 93.58V88.576C63.4354 88.416 63.4754 88.296 63.5554 88.216C63.6354 88.128 63.7514 88.084 63.9034 88.084C64.0554 88.084 64.1714 88.128 64.2514 88.216C64.3394 88.296 64.3834 88.416 64.3834 88.576V89.548H64.2634C64.3914 89.076 64.6354 88.712 64.9954 88.456C65.3554 88.2 65.7994 88.064 66.3274 88.048C66.4474 88.04 66.5434 88.068 66.6154 88.132C66.6874 88.188 66.7274 88.288 66.7354 88.432C66.7434 88.568 66.7114 88.676 66.6394 88.756C66.5674 88.836 66.4554 88.884 66.3034 88.9L66.1114 88.924C65.5674 88.972 65.1474 89.148 64.8514 89.452C64.5634 89.748 64.4194 90.156 64.4194 90.676V93.58C64.4194 93.74 64.3754 93.864 64.2874 93.952C64.2074 94.04 64.0874 94.084 63.9274 94.084ZM70.2939 94.108C69.6779 94.108 69.1459 93.988 68.6979 93.748C68.2579 93.5 67.9139 93.152 67.6659 92.704C67.4259 92.256 67.3059 91.72 67.3059 91.096C67.3059 90.488 67.4259 89.96 67.6659 89.512C67.9059 89.056 68.2339 88.7 68.6499 88.444C69.0739 88.188 69.5619 88.06 70.1139 88.06C70.5059 88.06 70.8579 88.128 71.1699 88.264C71.4819 88.392 71.7459 88.58 71.9619 88.828C72.1859 89.076 72.3539 89.376 72.4659 89.728C72.5859 90.08 72.6459 90.476 72.6459 90.916C72.6459 91.044 72.6099 91.14 72.5379 91.204C72.4659 91.26 72.3619 91.288 72.2259 91.288H68.0499V90.652H71.9979L71.8059 90.808C71.8059 90.376 71.7419 90.012 71.6139 89.716C71.4859 89.412 71.2979 89.18 71.0499 89.02C70.8099 88.86 70.5059 88.78 70.1379 88.78C69.7299 88.78 69.3819 88.876 69.0939 89.068C68.8139 89.252 68.6019 89.512 68.4579 89.848C68.3139 90.176 68.2419 90.56 68.2419 91V91.072C68.2419 91.808 68.4179 92.368 68.7699 92.752C69.1299 93.136 69.6379 93.328 70.2939 93.328C70.5659 93.328 70.8339 93.292 71.0979 93.22C71.3699 93.148 71.6339 93.028 71.8899 92.86C72.0019 92.788 72.1019 92.756 72.1899 92.764C72.2859 92.764 72.3619 92.792 72.4179 92.848C72.4739 92.896 72.5099 92.96 72.5259 93.04C72.5499 93.112 72.5419 93.192 72.5019 93.28C72.4699 93.368 72.4019 93.444 72.2979 93.508C72.0339 93.7 71.7219 93.848 71.3619 93.952C71.0019 94.056 70.6459 94.108 70.2939 94.108ZM76.0206 94.108C75.6606 94.108 75.2966 94.064 74.9286 93.976C74.5686 93.888 74.2326 93.736 73.9206 93.52C73.8406 93.464 73.7846 93.4 73.7526 93.328C73.7206 93.248 73.7086 93.172 73.7166 93.1C73.7326 93.02 73.7646 92.952 73.8126 92.896C73.8686 92.84 73.9326 92.808 74.0046 92.8C74.0846 92.784 74.1726 92.8 74.2686 92.848C74.5806 93.04 74.8806 93.176 75.1686 93.256C75.4646 93.328 75.7566 93.364 76.0446 93.364C76.5006 93.364 76.8446 93.28 77.0766 93.112C77.3086 92.944 77.4246 92.716 77.4246 92.428C77.4246 92.204 77.3486 92.028 77.1966 91.9C77.0446 91.764 76.8046 91.66 76.4766 91.588L75.3846 91.348C74.8806 91.244 74.5046 91.064 74.2566 90.808C74.0166 90.552 73.8966 90.22 73.8966 89.812C73.8966 89.452 73.9886 89.144 74.1726 88.888C74.3646 88.624 74.6326 88.42 74.9766 88.276C75.3206 88.132 75.7206 88.06 76.1766 88.06C76.5286 88.06 76.8606 88.108 77.1726 88.204C77.4926 88.292 77.7806 88.436 78.0366 88.636C78.1166 88.692 78.1686 88.76 78.1926 88.84C78.2246 88.912 78.2286 88.988 78.2046 89.068C78.1886 89.14 78.1526 89.204 78.0966 89.26C78.0406 89.308 77.9726 89.336 77.8926 89.344C77.8126 89.352 77.7286 89.328 77.6406 89.272C77.4006 89.112 77.1566 88.996 76.9086 88.924C76.6606 88.844 76.4166 88.804 76.1766 88.804C75.7286 88.804 75.3886 88.892 75.1566 89.068C74.9246 89.244 74.8086 89.476 74.8086 89.764C74.8086 89.988 74.8806 90.172 75.0246 90.316C75.1686 90.46 75.3926 90.564 75.6966 90.628L76.7886 90.856C77.3086 90.968 77.6966 91.148 77.9526 91.396C78.2166 91.636 78.3486 91.964 78.3486 92.38C78.3486 92.908 78.1366 93.328 77.7126 93.64C77.2886 93.952 76.7246 94.108 76.0206 94.108ZM82.1114 94.108C81.6554 94.108 81.2714 94.028 80.9594 93.868C80.6554 93.7 80.4274 93.46 80.2754 93.148C80.1234 92.828 80.0474 92.44 80.0474 91.984V88.924H79.2434C79.1074 88.924 79.0034 88.892 78.9314 88.828C78.8594 88.756 78.8234 88.66 78.8234 88.54C78.8234 88.42 78.8594 88.328 78.9314 88.264C79.0034 88.2 79.1074 88.168 79.2434 88.168H80.0474V86.788C80.0474 86.628 80.0914 86.508 80.1794 86.428C80.2674 86.34 80.3874 86.296 80.5394 86.296C80.6914 86.296 80.8074 86.34 80.8874 86.428C80.9754 86.508 81.0194 86.628 81.0194 86.788V88.168H82.5314C82.6674 88.168 82.7714 88.2 82.8434 88.264C82.9154 88.328 82.9514 88.42 82.9514 88.54C82.9514 88.66 82.9154 88.756 82.8434 88.828C82.7714 88.892 82.6674 88.924 82.5314 88.924H81.0194V91.888C81.0194 92.344 81.1154 92.692 81.3074 92.932C81.4994 93.164 81.8114 93.28 82.2434 93.28C82.3954 93.28 82.5234 93.264 82.6274 93.232C82.7394 93.2 82.8314 93.184 82.9034 93.184C82.9754 93.176 83.0354 93.2 83.0834 93.256C83.1314 93.312 83.1554 93.408 83.1554 93.544C83.1554 93.64 83.1354 93.728 83.0954 93.808C83.0634 93.888 83.0034 93.944 82.9154 93.976C82.8194 94.008 82.6914 94.036 82.5314 94.06C82.3794 94.092 82.2394 94.108 82.1114 94.108Z" fill="black"/>
</svg>
