<svg width="103" height="97" viewBox="0 0 103 97" fill="none" xmlns="http://www.w3.org/2000/svg">
<rect width="103" height="97" rx="16" fill="#FCFCFE"/>
<path d="M14.78 29.108C14.404 29.108 14.036 29.076 13.676 29.012C13.316 28.948 12.98 28.856 12.668 28.736C12.364 28.616 12.088 28.464 11.84 28.28C11.744 28.208 11.676 28.128 11.636 28.04C11.604 27.944 11.596 27.852 11.612 27.764C11.636 27.668 11.676 27.588 11.732 27.524C11.796 27.46 11.872 27.424 11.96 27.416C12.048 27.408 12.144 27.436 12.248 27.5C12.608 27.756 12.992 27.944 13.4 28.064C13.808 28.176 14.268 28.232 14.78 28.232C15.5 28.232 16.032 28.1 16.376 27.836C16.728 27.564 16.904 27.208 16.904 26.768C16.904 26.408 16.776 26.128 16.52 25.928C16.272 25.72 15.852 25.556 15.26 25.436L14.012 25.184C13.26 25.024 12.696 24.764 12.32 24.404C11.952 24.036 11.768 23.548 11.768 22.94C11.768 22.564 11.844 22.224 11.996 21.92C12.148 21.608 12.36 21.344 12.632 21.128C12.904 20.904 13.228 20.732 13.604 20.612C13.98 20.492 14.396 20.432 14.852 20.432C15.356 20.432 15.824 20.504 16.256 20.648C16.696 20.784 17.092 20.992 17.444 21.272C17.532 21.344 17.592 21.428 17.624 21.524C17.656 21.612 17.66 21.7 17.636 21.788C17.612 21.868 17.568 21.936 17.504 21.992C17.448 22.048 17.372 22.08 17.276 22.088C17.188 22.096 17.088 22.064 16.976 21.992C16.656 21.752 16.324 21.58 15.98 21.476C15.636 21.364 15.256 21.308 14.84 21.308C14.416 21.308 14.048 21.372 13.736 21.5C13.432 21.628 13.192 21.816 13.016 22.064C12.848 22.304 12.764 22.584 12.764 22.904C12.764 23.288 12.88 23.592 13.112 23.816C13.352 24.04 13.74 24.204 14.276 24.308L15.524 24.572C16.332 24.74 16.928 24.996 17.312 25.34C17.704 25.676 17.9 26.136 17.9 26.72C17.9 27.072 17.828 27.396 17.684 27.692C17.54 27.988 17.332 28.244 17.06 28.46C16.788 28.668 16.46 28.828 16.076 28.94C15.692 29.052 15.26 29.108 14.78 29.108ZM19.7748 31.244C19.6148 31.244 19.4948 31.2 19.4148 31.112C19.3348 31.032 19.2948 30.912 19.2948 30.752V23.576C19.2948 23.416 19.3348 23.296 19.4148 23.216C19.4948 23.128 19.6108 23.084 19.7628 23.084C19.9228 23.084 20.0428 23.128 20.1228 23.216C20.2108 23.296 20.2548 23.416 20.2548 23.576V24.716L20.1228 24.548C20.2508 24.092 20.5028 23.732 20.8788 23.468C21.2628 23.196 21.7188 23.06 22.2468 23.06C22.7668 23.06 23.2188 23.184 23.6028 23.432C23.9948 23.672 24.2948 24.02 24.5028 24.476C24.7188 24.924 24.8268 25.46 24.8268 26.084C24.8268 26.7 24.7188 27.236 24.5028 27.692C24.2948 28.14 23.9988 28.488 23.6148 28.736C23.2308 28.984 22.7748 29.108 22.2468 29.108C21.7188 29.108 21.2668 28.976 20.8908 28.712C20.5148 28.44 20.2588 28.08 20.1228 27.632H20.2668V30.752C20.2668 30.912 20.2228 31.032 20.1348 31.112C20.0468 31.2 19.9268 31.244 19.7748 31.244ZM22.0428 28.328C22.4108 28.328 22.7268 28.24 22.9908 28.064C23.2628 27.888 23.4708 27.632 23.6148 27.296C23.7668 26.96 23.8428 26.556 23.8428 26.084C23.8428 25.356 23.6788 24.8 23.3508 24.416C23.0308 24.032 22.5948 23.84 22.0428 23.84C21.6828 23.84 21.3668 23.928 21.0948 24.104C20.8228 24.272 20.6108 24.524 20.4588 24.86C20.3148 25.188 20.2428 25.596 20.2428 26.084C20.2428 26.804 20.4068 27.36 20.7348 27.752C21.0628 28.136 21.4988 28.328 22.0428 28.328ZM28.9189 29.108C28.3029 29.108 27.7709 28.988 27.3229 28.748C26.8829 28.5 26.5389 28.152 26.2909 27.704C26.0509 27.256 25.9309 26.72 25.9309 26.096C25.9309 25.488 26.0509 24.96 26.2909 24.512C26.5309 24.056 26.8589 23.7 27.2749 23.444C27.6989 23.188 28.1869 23.06 28.7389 23.06C29.1309 23.06 29.4829 23.128 29.7949 23.264C30.1069 23.392 30.3709 23.58 30.5869 23.828C30.8109 24.076 30.9789 24.376 31.0909 24.728C31.2109 25.08 31.2709 25.476 31.2709 25.916C31.2709 26.044 31.2349 26.14 31.1629 26.204C31.0909 26.26 30.9869 26.288 30.8509 26.288H26.6749V25.652H30.6229L30.4309 25.808C30.4309 25.376 30.3669 25.012 30.2389 24.716C30.1109 24.412 29.9229 24.18 29.6749 24.02C29.4349 23.86 29.1309 23.78 28.7629 23.78C28.3549 23.78 28.0069 23.876 27.7189 24.068C27.4389 24.252 27.2269 24.512 27.0829 24.848C26.9389 25.176 26.8669 25.56 26.8669 26V26.072C26.8669 26.808 27.0429 27.368 27.3949 27.752C27.7549 28.136 28.2629 28.328 28.9189 28.328C29.1909 28.328 29.4589 28.292 29.7229 28.22C29.9949 28.148 30.2589 28.028 30.5149 27.86C30.6269 27.788 30.7269 27.756 30.8149 27.764C30.9109 27.764 30.9869 27.792 31.0429 27.848C31.0989 27.896 31.1349 27.96 31.1509 28.04C31.1749 28.112 31.1669 28.192 31.1269 28.28C31.0949 28.368 31.0269 28.444 30.9229 28.508C30.6589 28.7 30.3469 28.848 29.9869 28.952C29.6269 29.056 29.2709 29.108 28.9189 29.108ZM33.1576 29.084C32.9976 29.084 32.8776 29.04 32.7976 28.952C32.7176 28.864 32.6776 28.74 32.6776 28.58V23.576C32.6776 23.416 32.7176 23.296 32.7976 23.216C32.8776 23.128 32.9936 23.084 33.1456 23.084C33.2976 23.084 33.4136 23.128 33.4936 23.216C33.5816 23.296 33.6256 23.416 33.6256 23.576V24.608L33.4936 24.464C33.6616 24 33.9336 23.652 34.3096 23.42C34.6936 23.18 35.1336 23.06 35.6296 23.06C36.0936 23.06 36.4776 23.144 36.7816 23.312C37.0936 23.48 37.3256 23.736 37.4776 24.08C37.6296 24.416 37.7056 24.844 37.7056 25.364V28.58C37.7056 28.74 37.6616 28.864 37.5736 28.952C37.4936 29.04 37.3776 29.084 37.2256 29.084C37.0656 29.084 36.9416 29.04 36.8536 28.952C36.7736 28.864 36.7336 28.74 36.7336 28.58V25.424C36.7336 24.88 36.6256 24.484 36.4096 24.236C36.2016 23.98 35.8656 23.852 35.4016 23.852C34.8656 23.852 34.4376 24.02 34.1176 24.356C33.8056 24.684 33.6496 25.124 33.6496 25.676V28.58C33.6496 28.916 33.4856 29.084 33.1576 29.084ZM41.7179 29.108C41.1979 29.108 40.7419 28.984 40.3499 28.736C39.9659 28.488 39.6659 28.14 39.4499 27.692C39.2419 27.236 39.1379 26.7 39.1379 26.084C39.1379 25.46 39.2419 24.924 39.4499 24.476C39.6659 24.02 39.9659 23.672 40.3499 23.432C40.7419 23.184 41.1979 23.06 41.7179 23.06C42.2459 23.06 42.6979 23.192 43.0739 23.456C43.4499 23.72 43.7019 24.076 43.8299 24.524H43.6979V20.948C43.6979 20.788 43.7379 20.668 43.8179 20.588C43.9059 20.5 44.0299 20.456 44.1899 20.456C44.3419 20.456 44.4579 20.5 44.5379 20.588C44.6259 20.668 44.6699 20.788 44.6699 20.948V28.58C44.6699 28.74 44.6299 28.864 44.5499 28.952C44.4699 29.04 44.3499 29.084 44.1899 29.084C44.0379 29.084 43.9179 29.04 43.8299 28.952C43.7499 28.864 43.7099 28.74 43.7099 28.58V27.44L43.8419 27.608C43.7139 28.064 43.4579 28.428 43.0739 28.7C42.6979 28.972 42.2459 29.108 41.7179 29.108ZM41.9219 28.328C42.2819 28.328 42.5979 28.24 42.8699 28.064C43.1419 27.888 43.3499 27.632 43.4939 27.296C43.6459 26.96 43.7219 26.556 43.7219 26.084C43.7219 25.356 43.5579 24.8 43.2299 24.416C42.9099 24.032 42.4739 23.84 41.9219 23.84C41.5539 23.84 41.2339 23.928 40.9619 24.104C40.6979 24.272 40.4899 24.524 40.3379 24.86C40.1939 25.188 40.1219 25.596 40.1219 26.084C40.1219 26.804 40.2859 27.36 40.6139 27.752C40.9419 28.136 41.3779 28.328 41.9219 28.328ZM46.974 29.06C46.814 29.06 46.694 29.016 46.614 28.928C46.534 28.832 46.494 28.7 46.494 28.532V23.624C46.494 23.456 46.534 23.328 46.614 23.24C46.694 23.152 46.814 23.108 46.974 23.108C47.126 23.108 47.246 23.152 47.334 23.24C47.422 23.328 47.466 23.456 47.466 23.624V28.532C47.466 28.7 47.422 28.832 47.334 28.928C47.254 29.016 47.134 29.06 46.974 29.06ZM46.974 21.764C46.774 21.764 46.618 21.712 46.506 21.608C46.394 21.496 46.338 21.348 46.338 21.164C46.338 20.972 46.394 20.828 46.506 20.732C46.618 20.628 46.774 20.576 46.974 20.576C47.182 20.576 47.338 20.628 47.442 20.732C47.554 20.828 47.61 20.972 47.61 21.164C47.61 21.348 47.554 21.496 47.442 21.608C47.338 21.712 47.182 21.764 46.974 21.764ZM49.7631 29.084C49.6031 29.084 49.4831 29.04 49.4031 28.952C49.3231 28.864 49.2831 28.74 49.2831 28.58V23.576C49.2831 23.416 49.3231 23.296 49.4031 23.216C49.4831 23.128 49.5991 23.084 49.7511 23.084C49.9031 23.084 50.0191 23.128 50.0991 23.216C50.1871 23.296 50.2311 23.416 50.2311 23.576V24.608L50.0991 24.464C50.2671 24 50.5391 23.652 50.9151 23.42C51.2991 23.18 51.7391 23.06 52.2351 23.06C52.6991 23.06 53.0831 23.144 53.3871 23.312C53.6991 23.48 53.9311 23.736 54.0831 24.08C54.2351 24.416 54.3111 24.844 54.3111 25.364V28.58C54.3111 28.74 54.2671 28.864 54.1791 28.952C54.0991 29.04 53.9831 29.084 53.8311 29.084C53.6711 29.084 53.5471 29.04 53.4591 28.952C53.3791 28.864 53.3391 28.74 53.3391 28.58V25.424C53.3391 24.88 53.2311 24.484 53.0151 24.236C52.8071 23.98 52.4711 23.852 52.0071 23.852C51.4711 23.852 51.0431 24.02 50.7231 24.356C50.4111 24.684 50.2551 25.124 50.2551 25.676V28.58C50.2551 28.916 50.0911 29.084 49.7631 29.084ZM58.6834 31.268C58.2594 31.268 57.8434 31.216 57.4354 31.112C57.0354 31.016 56.6714 30.86 56.3434 30.644C56.2474 30.588 56.1834 30.52 56.1514 30.44C56.1274 30.36 56.1234 30.28 56.1394 30.2C56.1554 30.128 56.1914 30.06 56.2474 29.996C56.3034 29.94 56.3674 29.904 56.4394 29.888C56.5194 29.872 56.5994 29.884 56.6794 29.924C57.0314 30.14 57.3674 30.288 57.6874 30.368C58.0074 30.448 58.3234 30.488 58.6354 30.488C59.2034 30.488 59.6314 30.336 59.9194 30.032C60.2154 29.728 60.3634 29.288 60.3634 28.712V27.356H60.4834C60.3634 27.82 60.1074 28.188 59.7154 28.46C59.3314 28.732 58.8794 28.868 58.3594 28.868C57.8234 28.868 57.3594 28.748 56.9674 28.508C56.5754 28.26 56.2714 27.916 56.0554 27.476C55.8474 27.036 55.7434 26.528 55.7434 25.952C55.7434 25.52 55.8034 25.128 55.9234 24.776C56.0434 24.416 56.2154 24.112 56.4394 23.864C56.6714 23.608 56.9474 23.412 57.2674 23.276C57.5954 23.132 57.9594 23.06 58.3594 23.06C58.8874 23.06 59.3434 23.196 59.7274 23.468C60.1114 23.732 60.3594 24.092 60.4714 24.548L60.3514 24.692V23.576C60.3514 23.416 60.3914 23.296 60.4714 23.216C60.5594 23.128 60.6794 23.084 60.8314 23.084C60.9914 23.084 61.1114 23.128 61.1914 23.216C61.2714 23.296 61.3114 23.416 61.3114 23.576V28.58C61.3114 29.468 61.0874 30.136 60.6394 30.584C60.1994 31.04 59.5474 31.268 58.6834 31.268ZM58.5394 28.076C58.9154 28.076 59.2394 27.992 59.5114 27.824C59.7834 27.648 59.9914 27.4 60.1354 27.08C60.2874 26.76 60.3634 26.384 60.3634 25.952C60.3634 25.304 60.1994 24.792 59.8714 24.416C59.5434 24.032 59.0994 23.84 58.5394 23.84C58.1714 23.84 57.8514 23.928 57.5794 24.104C57.3074 24.272 57.0954 24.516 56.9434 24.836C56.7994 25.148 56.7274 25.52 56.7274 25.952C56.7274 26.6 56.8914 27.116 57.2194 27.5C57.5474 27.884 57.9874 28.076 58.5394 28.076ZM66.7084 31.244C66.5484 31.244 66.4284 31.2 66.3484 31.112C66.2684 31.032 66.2284 30.912 66.2284 30.752V23.576C66.2284 23.416 66.2684 23.296 66.3484 23.216C66.4284 23.128 66.5444 23.084 66.6964 23.084C66.8564 23.084 66.9764 23.128 67.0564 23.216C67.1444 23.296 67.1884 23.416 67.1884 23.576V24.716L67.0564 24.548C67.1844 24.092 67.4364 23.732 67.8124 23.468C68.1964 23.196 68.6524 23.06 69.1804 23.06C69.7004 23.06 70.1524 23.184 70.5364 23.432C70.9284 23.672 71.2284 24.02 71.4364 24.476C71.6524 24.924 71.7604 25.46 71.7604 26.084C71.7604 26.7 71.6524 27.236 71.4364 27.692C71.2284 28.14 70.9324 28.488 70.5484 28.736C70.1644 28.984 69.7084 29.108 69.1804 29.108C68.6524 29.108 68.2004 28.976 67.8244 28.712C67.4484 28.44 67.1924 28.08 67.0564 27.632H67.2004V30.752C67.2004 30.912 67.1564 31.032 67.0684 31.112C66.9804 31.2 66.8604 31.244 66.7084 31.244ZM68.9764 28.328C69.3444 28.328 69.6604 28.24 69.9244 28.064C70.1964 27.888 70.4044 27.632 70.5484 27.296C70.7004 26.96 70.7764 26.556 70.7764 26.084C70.7764 25.356 70.6124 24.8 70.2844 24.416C69.9644 24.032 69.5284 23.84 68.9764 23.84C68.6164 23.84 68.3004 23.928 68.0284 24.104C67.7564 24.272 67.5444 24.524 67.3924 24.86C67.2484 25.188 67.1764 25.596 67.1764 26.084C67.1764 26.804 67.3404 27.36 67.6684 27.752C67.9964 28.136 68.4324 28.328 68.9764 28.328ZM75.0005 29.108C74.4245 29.108 73.9845 28.932 73.6805 28.58C73.3765 28.228 73.2245 27.724 73.2245 27.068V20.948C73.2245 20.788 73.2645 20.668 73.3445 20.588C73.4245 20.5 73.5445 20.456 73.7045 20.456C73.8565 20.456 73.9765 20.5 74.0645 20.588C74.1525 20.668 74.1965 20.788 74.1965 20.948V26.996C74.1965 27.428 74.2805 27.752 74.4485 27.968C74.6245 28.176 74.8805 28.28 75.2165 28.28C75.2885 28.28 75.3525 28.276 75.4085 28.268C75.4645 28.26 75.5205 28.256 75.5765 28.256C75.6645 28.248 75.7245 28.268 75.7565 28.316C75.7965 28.364 75.8165 28.46 75.8165 28.604C75.8165 28.748 75.7845 28.856 75.7205 28.928C75.6565 29 75.5525 29.048 75.4085 29.072C75.3445 29.08 75.2765 29.088 75.2045 29.096C75.1325 29.104 75.0645 29.108 75.0005 29.108ZM78.6113 29.108C78.2113 29.108 77.8513 29.032 77.5313 28.88C77.2193 28.72 76.9713 28.504 76.7873 28.232C76.6033 27.96 76.5113 27.656 76.5113 27.32C76.5113 26.888 76.6193 26.548 76.8353 26.3C77.0593 26.052 77.4233 25.876 77.9273 25.772C78.4393 25.668 79.1353 25.616 80.0153 25.616H80.5553V26.252H80.0273C79.3793 26.252 78.8673 26.284 78.4913 26.348C78.1233 26.404 77.8633 26.504 77.7113 26.648C77.5673 26.792 77.4953 26.996 77.4953 27.26C77.4953 27.588 77.6073 27.856 77.8313 28.064C78.0633 28.272 78.3753 28.376 78.7673 28.376C79.0873 28.376 79.3673 28.3 79.6073 28.148C79.8553 27.996 80.0473 27.788 80.1833 27.524C80.3273 27.26 80.3993 26.956 80.3993 26.612V25.244C80.3993 24.748 80.2993 24.392 80.0993 24.176C79.8993 23.952 79.5713 23.84 79.1153 23.84C78.8353 23.84 78.5553 23.876 78.2753 23.948C77.9953 24.02 77.6993 24.136 77.3873 24.296C77.2753 24.352 77.1793 24.372 77.0993 24.356C77.0193 24.332 76.9553 24.288 76.9073 24.224C76.8593 24.16 76.8313 24.088 76.8233 24.008C76.8153 23.92 76.8313 23.836 76.8713 23.756C76.9193 23.676 76.9913 23.612 77.0873 23.564C77.4393 23.388 77.7873 23.26 78.1313 23.18C78.4753 23.1 78.8033 23.06 79.1153 23.06C79.6193 23.06 80.0353 23.144 80.3633 23.312C80.6913 23.472 80.9353 23.72 81.0953 24.056C81.2553 24.384 81.3353 24.808 81.3353 25.328V28.58C81.3353 28.74 81.2953 28.864 81.2153 28.952C81.1433 29.04 81.0353 29.084 80.8913 29.084C80.7393 29.084 80.6233 29.04 80.5433 28.952C80.4633 28.864 80.4233 28.74 80.4233 28.58V27.644H80.5313C80.4673 27.948 80.3433 28.208 80.1593 28.424C79.9833 28.64 79.7633 28.808 79.4993 28.928C79.2353 29.048 78.9393 29.108 78.6113 29.108ZM83.6186 29.084C83.4586 29.084 83.3386 29.04 83.2586 28.952C83.1786 28.864 83.1386 28.74 83.1386 28.58V23.576C83.1386 23.416 83.1786 23.296 83.2586 23.216C83.3386 23.128 83.4546 23.084 83.6066 23.084C83.7586 23.084 83.8746 23.128 83.9546 23.216C84.0426 23.296 84.0866 23.416 84.0866 23.576V24.608L83.9546 24.464C84.1226 24 84.3946 23.652 84.7706 23.42C85.1546 23.18 85.5946 23.06 86.0906 23.06C86.5546 23.06 86.9386 23.144 87.2426 23.312C87.5546 23.48 87.7866 23.736 87.9386 24.08C88.0906 24.416 88.1666 24.844 88.1666 25.364V28.58C88.1666 28.74 88.1226 28.864 88.0346 28.952C87.9546 29.04 87.8386 29.084 87.6866 29.084C87.5266 29.084 87.4026 29.04 87.3146 28.952C87.2346 28.864 87.1946 28.74 87.1946 28.58V25.424C87.1946 24.88 87.0866 24.484 86.8706 24.236C86.6626 23.98 86.3266 23.852 85.8626 23.852C85.3266 23.852 84.8986 24.02 84.5786 24.356C84.2666 24.684 84.1106 25.124 84.1106 25.676V28.58C84.1106 28.916 83.9466 29.084 83.6186 29.084ZM14.864 45.108C14.336 45.108 13.88 44.972 13.496 44.7C13.12 44.428 12.868 44.064 12.74 43.608L12.872 43.476V44.58C12.872 44.74 12.828 44.864 12.74 44.952C12.66 45.04 12.544 45.084 12.392 45.084C12.232 45.084 12.112 45.04 12.032 44.952C11.952 44.864 11.912 44.74 11.912 44.58V36.948C11.912 36.788 11.952 36.668 12.032 36.588C12.112 36.5 12.232 36.456 12.392 36.456C12.544 36.456 12.664 36.5 12.752 36.588C12.84 36.668 12.884 36.788 12.884 36.948V40.524H12.74C12.876 40.076 13.132 39.72 13.508 39.456C13.884 39.192 14.336 39.06 14.864 39.06C15.392 39.06 15.848 39.184 16.232 39.432C16.616 39.672 16.912 40.02 17.12 40.476C17.336 40.924 17.444 41.46 17.444 42.084C17.444 42.7 17.336 43.236 17.12 43.692C16.912 44.14 16.612 44.488 16.22 44.736C15.836 44.984 15.384 45.108 14.864 45.108ZM14.66 44.328C15.028 44.328 15.344 44.24 15.608 44.064C15.88 43.888 16.088 43.632 16.232 43.296C16.384 42.96 16.46 42.556 16.46 42.084C16.46 41.356 16.296 40.8 15.968 40.416C15.648 40.032 15.212 39.84 14.66 39.84C14.3 39.84 13.984 39.928 13.712 40.104C13.44 40.272 13.228 40.524 13.076 40.86C12.932 41.188 12.86 41.596 12.86 42.084C12.86 42.804 13.024 43.36 13.352 43.752C13.68 44.136 14.116 44.328 14.66 44.328ZM20.7441 45.108C20.3441 45.108 19.9841 45.032 19.6641 44.88C19.3521 44.72 19.1041 44.504 18.9201 44.232C18.7361 43.96 18.6441 43.656 18.6441 43.32C18.6441 42.888 18.7521 42.548 18.9681 42.3C19.1921 42.052 19.5561 41.876 20.0601 41.772C20.5721 41.668 21.2681 41.616 22.1481 41.616H22.6881V42.252H22.1601C21.5121 42.252 21.0001 42.284 20.6241 42.348C20.2561 42.404 19.9961 42.504 19.8441 42.648C19.7001 42.792 19.6281 42.996 19.6281 43.26C19.6281 43.588 19.7401 43.856 19.9641 44.064C20.1961 44.272 20.5081 44.376 20.9001 44.376C21.2201 44.376 21.5001 44.3 21.7401 44.148C21.9881 43.996 22.1801 43.788 22.3161 43.524C22.4601 43.26 22.5321 42.956 22.5321 42.612V41.244C22.5321 40.748 22.4321 40.392 22.2321 40.176C22.0321 39.952 21.7041 39.84 21.2481 39.84C20.9681 39.84 20.6881 39.876 20.4081 39.948C20.1281 40.02 19.8321 40.136 19.5201 40.296C19.4081 40.352 19.3121 40.372 19.2321 40.356C19.1521 40.332 19.0881 40.288 19.0401 40.224C18.9921 40.16 18.9641 40.088 18.9561 40.008C18.9481 39.92 18.9641 39.836 19.0041 39.756C19.0521 39.676 19.1241 39.612 19.2201 39.564C19.5721 39.388 19.9201 39.26 20.2641 39.18C20.6081 39.1 20.9361 39.06 21.2481 39.06C21.7521 39.06 22.1681 39.144 22.4961 39.312C22.8241 39.472 23.0681 39.72 23.2281 40.056C23.3881 40.384 23.4681 40.808 23.4681 41.328V44.58C23.4681 44.74 23.4281 44.864 23.3481 44.952C23.2761 45.04 23.1681 45.084 23.0241 45.084C22.8721 45.084 22.7561 45.04 22.6761 44.952C22.5961 44.864 22.5561 44.74 22.5561 44.58V43.644H22.6641C22.6001 43.948 22.4761 44.208 22.2921 44.424C22.1161 44.64 21.8961 44.808 21.6321 44.928C21.3681 45.048 21.0721 45.108 20.7441 45.108ZM27.2394 45.108C26.8794 45.108 26.5154 45.064 26.1474 44.976C25.7874 44.888 25.4514 44.736 25.1394 44.52C25.0594 44.464 25.0034 44.4 24.9714 44.328C24.9394 44.248 24.9274 44.172 24.9354 44.1C24.9514 44.02 24.9834 43.952 25.0314 43.896C25.0874 43.84 25.1514 43.808 25.2234 43.8C25.3034 43.784 25.3914 43.8 25.4874 43.848C25.7994 44.04 26.0994 44.176 26.3874 44.256C26.6834 44.328 26.9754 44.364 27.2634 44.364C27.7194 44.364 28.0634 44.28 28.2954 44.112C28.5274 43.944 28.6434 43.716 28.6434 43.428C28.6434 43.204 28.5674 43.028 28.4154 42.9C28.2634 42.764 28.0234 42.66 27.6954 42.588L26.6034 42.348C26.0994 42.244 25.7234 42.064 25.4754 41.808C25.2354 41.552 25.1154 41.22 25.1154 40.812C25.1154 40.452 25.2074 40.144 25.3914 39.888C25.5834 39.624 25.8514 39.42 26.1954 39.276C26.5394 39.132 26.9394 39.06 27.3954 39.06C27.7474 39.06 28.0794 39.108 28.3914 39.204C28.7114 39.292 28.9994 39.436 29.2554 39.636C29.3354 39.692 29.3874 39.76 29.4114 39.84C29.4434 39.912 29.4474 39.988 29.4234 40.068C29.4074 40.14 29.3714 40.204 29.3154 40.26C29.2594 40.308 29.1914 40.336 29.1114 40.344C29.0314 40.352 28.9474 40.328 28.8594 40.272C28.6194 40.112 28.3754 39.996 28.1274 39.924C27.8794 39.844 27.6354 39.804 27.3954 39.804C26.9474 39.804 26.6074 39.892 26.3754 40.068C26.1434 40.244 26.0274 40.476 26.0274 40.764C26.0274 40.988 26.0994 41.172 26.2434 41.316C26.3874 41.46 26.6114 41.564 26.9154 41.628L28.0074 41.856C28.5274 41.968 28.9154 42.148 29.1714 42.396C29.4354 42.636 29.5674 42.964 29.5674 43.38C29.5674 43.908 29.3554 44.328 28.9314 44.64C28.5074 44.952 27.9434 45.108 27.2394 45.108ZM33.6767 45.108C33.0607 45.108 32.5287 44.988 32.0807 44.748C31.6407 44.5 31.2967 44.152 31.0487 43.704C30.8087 43.256 30.6887 42.72 30.6887 42.096C30.6887 41.488 30.8087 40.96 31.0487 40.512C31.2887 40.056 31.6167 39.7 32.0327 39.444C32.4567 39.188 32.9447 39.06 33.4967 39.06C33.8887 39.06 34.2407 39.128 34.5527 39.264C34.8647 39.392 35.1287 39.58 35.3447 39.828C35.5687 40.076 35.7367 40.376 35.8487 40.728C35.9687 41.08 36.0287 41.476 36.0287 41.916C36.0287 42.044 35.9927 42.14 35.9207 42.204C35.8487 42.26 35.7447 42.288 35.6087 42.288H31.4327V41.652H35.3807L35.1887 41.808C35.1887 41.376 35.1247 41.012 34.9967 40.716C34.8687 40.412 34.6807 40.18 34.4327 40.02C34.1927 39.86 33.8887 39.78 33.5207 39.78C33.1127 39.78 32.7647 39.876 32.4767 40.068C32.1967 40.252 31.9847 40.512 31.8407 40.848C31.6967 41.176 31.6247 41.56 31.6247 42V42.072C31.6247 42.808 31.8007 43.368 32.1527 43.752C32.5127 44.136 33.0207 44.328 33.6767 44.328C33.9487 44.328 34.2167 44.292 34.4807 44.22C34.7527 44.148 35.0167 44.028 35.2727 43.86C35.3847 43.788 35.4847 43.756 35.5727 43.764C35.6687 43.764 35.7447 43.792 35.8007 43.848C35.8567 43.896 35.8927 43.96 35.9087 44.04C35.9327 44.112 35.9247 44.192 35.8847 44.28C35.8527 44.368 35.7847 44.444 35.6807 44.508C35.4167 44.7 35.1047 44.848 34.7447 44.952C34.3847 45.056 34.0287 45.108 33.6767 45.108ZM39.6554 45.108C39.1354 45.108 38.6794 44.984 38.2874 44.736C37.9034 44.488 37.6034 44.14 37.3874 43.692C37.1794 43.236 37.0754 42.7 37.0754 42.084C37.0754 41.46 37.1794 40.924 37.3874 40.476C37.6034 40.02 37.9034 39.672 38.2874 39.432C38.6794 39.184 39.1354 39.06 39.6554 39.06C40.1834 39.06 40.6354 39.192 41.0114 39.456C41.3874 39.72 41.6394 40.076 41.7674 40.524H41.6354V36.948C41.6354 36.788 41.6754 36.668 41.7554 36.588C41.8434 36.5 41.9674 36.456 42.1274 36.456C42.2794 36.456 42.3954 36.5 42.4754 36.588C42.5634 36.668 42.6074 36.788 42.6074 36.948V44.58C42.6074 44.74 42.5674 44.864 42.4874 44.952C42.4074 45.04 42.2874 45.084 42.1274 45.084C41.9754 45.084 41.8554 45.04 41.7674 44.952C41.6874 44.864 41.6474 44.74 41.6474 44.58V43.44L41.7794 43.608C41.6514 44.064 41.3954 44.428 41.0114 44.7C40.6354 44.972 40.1834 45.108 39.6554 45.108ZM39.8594 44.328C40.2194 44.328 40.5354 44.24 40.8074 44.064C41.0794 43.888 41.2874 43.632 41.4314 43.296C41.5834 42.96 41.6594 42.556 41.6594 42.084C41.6594 41.356 41.4954 40.8 41.1674 40.416C40.8474 40.032 40.4114 39.84 39.8594 39.84C39.4914 39.84 39.1714 39.928 38.8994 40.104C38.6354 40.272 38.4274 40.524 38.2754 40.86C38.1314 41.188 38.0594 41.596 38.0594 42.084C38.0594 42.804 38.2234 43.36 38.5514 43.752C38.8794 44.136 39.3154 44.328 39.8594 44.328ZM49.9493 45.108C49.3813 45.108 48.8893 44.984 48.4733 44.736C48.0573 44.488 47.7333 44.14 47.5013 43.692C47.2773 43.236 47.1653 42.7 47.1653 42.084C47.1653 41.62 47.2293 41.204 47.3573 40.836C47.4853 40.46 47.6733 40.14 47.9213 39.876C48.1693 39.612 48.4613 39.412 48.7973 39.276C49.1413 39.132 49.5253 39.06 49.9493 39.06C50.5173 39.06 51.0093 39.184 51.4253 39.432C51.8413 39.68 52.1613 40.032 52.3853 40.488C52.6173 40.936 52.7333 41.468 52.7333 42.084C52.7333 42.548 52.6693 42.964 52.5413 43.332C52.4133 43.7 52.2253 44.02 51.9773 44.292C51.7293 44.556 51.4333 44.76 51.0893 44.904C50.7533 45.04 50.3733 45.108 49.9493 45.108ZM49.9493 44.328C50.3093 44.328 50.6253 44.24 50.8973 44.064C51.1693 43.888 51.3773 43.632 51.5213 43.296C51.6733 42.96 51.7493 42.556 51.7493 42.084C51.7493 41.356 51.5853 40.8 51.2573 40.416C50.9373 40.032 50.5013 39.84 49.9493 39.84C49.5813 39.84 49.2613 39.928 48.9893 40.104C48.7253 40.272 48.5173 40.524 48.3653 40.86C48.2213 41.188 48.1493 41.596 48.1493 42.084C48.1493 42.804 48.3133 43.36 48.6413 43.752C48.9693 44.136 49.4053 44.328 49.9493 44.328ZM54.6733 45.084C54.5133 45.084 54.3933 45.04 54.3133 44.952C54.2333 44.864 54.1933 44.74 54.1933 44.58V39.576C54.1933 39.416 54.2333 39.296 54.3133 39.216C54.3933 39.128 54.5093 39.084 54.6613 39.084C54.8133 39.084 54.9293 39.128 55.0093 39.216C55.0973 39.296 55.1413 39.416 55.1413 39.576V40.608L55.0093 40.464C55.1773 40 55.4493 39.652 55.8253 39.42C56.2093 39.18 56.6493 39.06 57.1453 39.06C57.6093 39.06 57.9933 39.144 58.2973 39.312C58.6093 39.48 58.8413 39.736 58.9933 40.08C59.1453 40.416 59.2213 40.844 59.2213 41.364V44.58C59.2213 44.74 59.1773 44.864 59.0893 44.952C59.0093 45.04 58.8933 45.084 58.7413 45.084C58.5813 45.084 58.4573 45.04 58.3693 44.952C58.2893 44.864 58.2493 44.74 58.2493 44.58V41.424C58.2493 40.88 58.1413 40.484 57.9253 40.236C57.7173 39.98 57.3813 39.852 56.9173 39.852C56.3813 39.852 55.9533 40.02 55.6333 40.356C55.3213 40.684 55.1653 41.124 55.1653 41.676V44.58C55.1653 44.916 55.0013 45.084 54.6733 45.084ZM12.392 61.06C12.232 61.06 12.112 61.016 12.032 60.928C11.952 60.832 11.912 60.7 11.912 60.532V55.624C11.912 55.456 11.952 55.328 12.032 55.24C12.112 55.152 12.232 55.108 12.392 55.108C12.544 55.108 12.664 55.152 12.752 55.24C12.84 55.328 12.884 55.456 12.884 55.624V60.532C12.884 60.7 12.84 60.832 12.752 60.928C12.672 61.016 12.552 61.06 12.392 61.06ZM12.392 53.764C12.192 53.764 12.036 53.712 11.924 53.608C11.812 53.496 11.756 53.348 11.756 53.164C11.756 52.972 11.812 52.828 11.924 52.732C12.036 52.628 12.192 52.576 12.392 52.576C12.6 52.576 12.756 52.628 12.86 52.732C12.972 52.828 13.028 52.972 13.028 53.164C13.028 53.348 12.972 53.496 12.86 53.608C12.756 53.712 12.6 53.764 12.392 53.764ZM15.1811 61.084C15.0211 61.084 14.9011 61.04 14.8211 60.952C14.7411 60.864 14.7011 60.74 14.7011 60.58V55.576C14.7011 55.416 14.7411 55.296 14.8211 55.216C14.9011 55.128 15.0171 55.084 15.1691 55.084C15.3211 55.084 15.4371 55.128 15.5171 55.216C15.6051 55.296 15.6491 55.416 15.6491 55.576V56.608L15.5171 56.464C15.6851 56 15.9571 55.652 16.3331 55.42C16.7171 55.18 17.1571 55.06 17.6531 55.06C18.1171 55.06 18.5011 55.144 18.8051 55.312C19.1171 55.48 19.3491 55.736 19.5011 56.08C19.6531 56.416 19.7291 56.844 19.7291 57.364V60.58C19.7291 60.74 19.6851 60.864 19.5971 60.952C19.5171 61.04 19.4011 61.084 19.2491 61.084C19.0891 61.084 18.9651 61.04 18.8771 60.952C18.7971 60.864 18.7571 60.74 18.7571 60.58V57.424C18.7571 56.88 18.6491 56.484 18.4331 56.236C18.2251 55.98 17.8891 55.852 17.4251 55.852C16.8891 55.852 16.4611 56.02 16.1411 56.356C15.8291 56.684 15.6731 57.124 15.6731 57.676V60.58C15.6731 60.916 15.5091 61.084 15.1811 61.084ZM23.9934 61.108C23.4094 61.108 22.9054 60.98 22.4814 60.724C22.0574 60.468 21.7294 60.112 21.4974 59.656C21.2734 59.192 21.1614 58.656 21.1614 58.048C21.1614 57.584 21.2254 57.168 21.3534 56.8C21.4814 56.432 21.6694 56.12 21.9174 55.864C22.1654 55.6 22.4614 55.4 22.8054 55.264C23.1574 55.128 23.5534 55.06 23.9934 55.06C24.2814 55.06 24.5814 55.104 24.8934 55.192C25.2054 55.28 25.4894 55.432 25.7454 55.648C25.8254 55.704 25.8774 55.772 25.9014 55.852C25.9254 55.932 25.9254 56.012 25.9014 56.092C25.8774 56.164 25.8374 56.228 25.7814 56.284C25.7254 56.332 25.6534 56.36 25.5654 56.368C25.4854 56.376 25.4014 56.348 25.3134 56.284C25.1054 56.124 24.8934 56.012 24.6774 55.948C24.4614 55.884 24.2534 55.852 24.0534 55.852C23.7414 55.852 23.4694 55.904 23.2374 56.008C23.0054 56.104 22.8094 56.244 22.6494 56.428C22.4894 56.612 22.3654 56.84 22.2774 57.112C22.1974 57.384 22.1574 57.7 22.1574 58.06C22.1574 58.756 22.3214 59.308 22.6494 59.716C22.9774 60.116 23.4454 60.316 24.0534 60.316C24.2534 60.316 24.4574 60.284 24.6654 60.22C24.8814 60.156 25.0974 60.044 25.3134 59.884C25.4014 59.82 25.4854 59.792 25.5654 59.8C25.6454 59.808 25.7134 59.84 25.7694 59.896C25.8254 59.944 25.8614 60.008 25.8774 60.088C25.9014 60.168 25.9014 60.248 25.8774 60.328C25.8534 60.4 25.8014 60.464 25.7214 60.52C25.4654 60.728 25.1854 60.88 24.8814 60.976C24.5774 61.064 24.2814 61.108 23.9934 61.108ZM29.3829 61.108C28.8149 61.108 28.3229 60.984 27.9069 60.736C27.4909 60.488 27.1669 60.14 26.9349 59.692C26.7109 59.236 26.5989 58.7 26.5989 58.084C26.5989 57.62 26.6629 57.204 26.7909 56.836C26.9189 56.46 27.1069 56.14 27.3549 55.876C27.6029 55.612 27.8949 55.412 28.2309 55.276C28.5749 55.132 28.9589 55.06 29.3829 55.06C29.9509 55.06 30.4429 55.184 30.8589 55.432C31.2749 55.68 31.5949 56.032 31.8189 56.488C32.0509 56.936 32.1669 57.468 32.1669 58.084C32.1669 58.548 32.1029 58.964 31.9749 59.332C31.8469 59.7 31.6589 60.02 31.4109 60.292C31.1629 60.556 30.8669 60.76 30.5229 60.904C30.1869 61.04 29.8069 61.108 29.3829 61.108ZM29.3829 60.328C29.7429 60.328 30.0589 60.24 30.3309 60.064C30.6029 59.888 30.8109 59.632 30.9549 59.296C31.1069 58.96 31.1829 58.556 31.1829 58.084C31.1829 57.356 31.0189 56.8 30.6909 56.416C30.3709 56.032 29.9349 55.84 29.3829 55.84C29.0149 55.84 28.6949 55.928 28.4229 56.104C28.1589 56.272 27.9509 56.524 27.7989 56.86C27.6549 57.188 27.5829 57.596 27.5829 58.084C27.5829 58.804 27.7469 59.36 28.0749 59.752C28.4029 60.136 28.8389 60.328 29.3829 60.328ZM34.1308 61.084C33.9708 61.084 33.8508 61.04 33.7708 60.952C33.6908 60.864 33.6508 60.74 33.6508 60.58V55.576C33.6508 55.416 33.6908 55.296 33.7708 55.216C33.8508 55.128 33.9668 55.084 34.1188 55.084C34.2708 55.084 34.3868 55.128 34.4668 55.216C34.5548 55.296 34.5988 55.416 34.5988 55.576V56.632L34.4668 56.464C34.6188 56.016 34.8628 55.672 35.1988 55.432C35.5428 55.184 35.9508 55.06 36.4228 55.06C36.9188 55.06 37.3188 55.18 37.6228 55.42C37.9348 55.652 38.1428 56.016 38.2468 56.512H38.0668C38.2108 56.064 38.4668 55.712 38.8348 55.456C39.2108 55.192 39.6468 55.06 40.1428 55.06C40.5828 55.06 40.9428 55.144 41.2228 55.312C41.5108 55.48 41.7268 55.736 41.8708 56.08C42.0148 56.416 42.0868 56.844 42.0868 57.364V60.58C42.0868 60.74 42.0428 60.864 41.9548 60.952C41.8748 61.04 41.7548 61.084 41.5948 61.084C41.4428 61.084 41.3228 61.04 41.2348 60.952C41.1548 60.864 41.1148 60.74 41.1148 60.58V57.412C41.1148 56.876 41.0228 56.484 40.8388 56.236C40.6548 55.98 40.3428 55.852 39.9028 55.852C39.4228 55.852 39.0428 56.02 38.7628 56.356C38.4908 56.684 38.3548 57.132 38.3548 57.7V60.58C38.3548 60.74 38.3108 60.864 38.2228 60.952C38.1428 61.04 38.0228 61.084 37.8628 61.084C37.7108 61.084 37.5908 61.04 37.5028 60.952C37.4228 60.864 37.3828 60.74 37.3828 60.58V57.412C37.3828 56.876 37.2868 56.484 37.0948 56.236C36.9108 55.98 36.6028 55.852 36.1708 55.852C35.6908 55.852 35.3108 56.02 35.0308 56.356C34.7588 56.684 34.6228 57.132 34.6228 57.7V60.58C34.6228 60.916 34.4588 61.084 34.1308 61.084ZM46.5322 61.108C45.9162 61.108 45.3842 60.988 44.9362 60.748C44.4962 60.5 44.1522 60.152 43.9042 59.704C43.6642 59.256 43.5442 58.72 43.5442 58.096C43.5442 57.488 43.6642 56.96 43.9042 56.512C44.1442 56.056 44.4722 55.7 44.8882 55.444C45.3122 55.188 45.8002 55.06 46.3522 55.06C46.7442 55.06 47.0962 55.128 47.4082 55.264C47.7202 55.392 47.9842 55.58 48.2002 55.828C48.4242 56.076 48.5922 56.376 48.7042 56.728C48.8242 57.08 48.8842 57.476 48.8842 57.916C48.8842 58.044 48.8482 58.14 48.7762 58.204C48.7042 58.26 48.6002 58.288 48.4642 58.288H44.2882V57.652H48.2362L48.0442 57.808C48.0442 57.376 47.9802 57.012 47.8522 56.716C47.7242 56.412 47.5362 56.18 47.2882 56.02C47.0482 55.86 46.7442 55.78 46.3762 55.78C45.9682 55.78 45.6202 55.876 45.3322 56.068C45.0522 56.252 44.8402 56.512 44.6962 56.848C44.5522 57.176 44.4802 57.56 44.4802 58V58.072C44.4802 58.808 44.6562 59.368 45.0082 59.752C45.3682 60.136 45.8762 60.328 46.5322 60.328C46.8042 60.328 47.0722 60.292 47.3362 60.22C47.6082 60.148 47.8722 60.028 48.1282 59.86C48.2402 59.788 48.3402 59.756 48.4282 59.764C48.5242 59.764 48.6002 59.792 48.6562 59.848C48.7122 59.896 48.7482 59.96 48.7642 60.04C48.7882 60.112 48.7802 60.192 48.7402 60.28C48.7082 60.368 48.6402 60.444 48.5362 60.508C48.2722 60.7 47.9602 60.848 47.6002 60.952C47.2402 61.056 46.8842 61.108 46.5322 61.108ZM55.2207 61.108C54.8207 61.108 54.4607 61.032 54.1407 60.88C53.8287 60.72 53.5807 60.504 53.3967 60.232C53.2127 59.96 53.1207 59.656 53.1207 59.32C53.1207 58.888 53.2287 58.548 53.4447 58.3C53.6687 58.052 54.0327 57.876 54.5367 57.772C55.0487 57.668 55.7447 57.616 56.6247 57.616H57.1647V58.252H56.6367C55.9887 58.252 55.4767 58.284 55.1007 58.348C54.7327 58.404 54.4727 58.504 54.3207 58.648C54.1767 58.792 54.1047 58.996 54.1047 59.26C54.1047 59.588 54.2167 59.856 54.4407 60.064C54.6727 60.272 54.9847 60.376 55.3767 60.376C55.6967 60.376 55.9767 60.3 56.2167 60.148C56.4647 59.996 56.6567 59.788 56.7927 59.524C56.9367 59.26 57.0087 58.956 57.0087 58.612V57.244C57.0087 56.748 56.9087 56.392 56.7087 56.176C56.5087 55.952 56.1807 55.84 55.7247 55.84C55.4447 55.84 55.1647 55.876 54.8847 55.948C54.6047 56.02 54.3087 56.136 53.9967 56.296C53.8847 56.352 53.7887 56.372 53.7087 56.356C53.6287 56.332 53.5647 56.288 53.5167 56.224C53.4687 56.16 53.4407 56.088 53.4327 56.008C53.4247 55.92 53.4407 55.836 53.4807 55.756C53.5287 55.676 53.6007 55.612 53.6967 55.564C54.0487 55.388 54.3967 55.26 54.7407 55.18C55.0847 55.1 55.4127 55.06 55.7247 55.06C56.2287 55.06 56.6447 55.144 56.9727 55.312C57.3007 55.472 57.5447 55.72 57.7047 56.056C57.8647 56.384 57.9447 56.808 57.9447 57.328V60.58C57.9447 60.74 57.9047 60.864 57.8247 60.952C57.7527 61.04 57.6447 61.084 57.5007 61.084C57.3487 61.084 57.2327 61.04 57.1527 60.952C57.0727 60.864 57.0327 60.74 57.0327 60.58V59.644H57.1407C57.0767 59.948 56.9527 60.208 56.7687 60.424C56.5927 60.64 56.3727 60.808 56.1087 60.928C55.8447 61.048 55.5487 61.108 55.2207 61.108ZM60.2279 61.084C60.0679 61.084 59.9479 61.04 59.8679 60.952C59.7879 60.864 59.7479 60.74 59.7479 60.58V55.576C59.7479 55.416 59.7879 55.296 59.8679 55.216C59.9479 55.128 60.0639 55.084 60.2159 55.084C60.3679 55.084 60.4839 55.128 60.5639 55.216C60.6519 55.296 60.6959 55.416 60.6959 55.576V56.608L60.5639 56.464C60.7319 56 61.0039 55.652 61.3799 55.42C61.7639 55.18 62.2039 55.06 62.6999 55.06C63.1639 55.06 63.5479 55.144 63.8519 55.312C64.1639 55.48 64.3959 55.736 64.5479 56.08C64.6999 56.416 64.7759 56.844 64.7759 57.364V60.58C64.7759 60.74 64.7319 60.864 64.6439 60.952C64.5639 61.04 64.4479 61.084 64.2959 61.084C64.1359 61.084 64.0119 61.04 63.9239 60.952C63.8439 60.864 63.8039 60.74 63.8039 60.58V57.424C63.8039 56.88 63.6959 56.484 63.4799 56.236C63.2719 55.98 62.9359 55.852 62.4719 55.852C61.9359 55.852 61.5079 56.02 61.1879 56.356C60.8759 56.684 60.7199 57.124 60.7199 57.676V60.58C60.7199 60.916 60.5559 61.084 60.2279 61.084ZM68.7883 61.108C68.2683 61.108 67.8123 60.984 67.4202 60.736C67.0363 60.488 66.7363 60.14 66.5203 59.692C66.3123 59.236 66.2083 58.7 66.2083 58.084C66.2083 57.46 66.3123 56.924 66.5203 56.476C66.7363 56.02 67.0363 55.672 67.4202 55.432C67.8123 55.184 68.2683 55.06 68.7883 55.06C69.3163 55.06 69.7683 55.192 70.1443 55.456C70.5203 55.72 70.7723 56.076 70.9003 56.524H70.7683V52.948C70.7683 52.788 70.8083 52.668 70.8883 52.588C70.9763 52.5 71.1003 52.456 71.2603 52.456C71.4123 52.456 71.5283 52.5 71.6083 52.588C71.6963 52.668 71.7403 52.788 71.7403 52.948V60.58C71.7403 60.74 71.7003 60.864 71.6203 60.952C71.5403 61.04 71.4203 61.084 71.2603 61.084C71.1083 61.084 70.9883 61.04 70.9003 60.952C70.8203 60.864 70.7803 60.74 70.7803 60.58V59.44L70.9123 59.608C70.7843 60.064 70.5283 60.428 70.1443 60.7C69.7683 60.972 69.3163 61.108 68.7883 61.108ZM68.9923 60.328C69.3523 60.328 69.6683 60.24 69.9403 60.064C70.2123 59.888 70.4203 59.632 70.5643 59.296C70.7163 58.96 70.7923 58.556 70.7923 58.084C70.7923 57.356 70.6283 56.8 70.3003 56.416C69.9803 56.032 69.5443 55.84 68.9923 55.84C68.6243 55.84 68.3043 55.928 68.0323 56.104C67.7683 56.272 67.5603 56.524 67.4083 56.86C67.2643 57.188 67.1923 57.596 67.1923 58.084C67.1923 58.804 67.3563 59.36 67.6843 59.752C68.0123 60.136 68.4483 60.328 68.9923 60.328ZM14.54 77.108C13.924 77.108 13.392 76.988 12.944 76.748C12.504 76.5 12.16 76.152 11.912 75.704C11.672 75.256 11.552 74.72 11.552 74.096C11.552 73.488 11.672 72.96 11.912 72.512C12.152 72.056 12.48 71.7 12.896 71.444C13.32 71.188 13.808 71.06 14.36 71.06C14.752 71.06 15.104 71.128 15.416 71.264C15.728 71.392 15.992 71.58 16.208 71.828C16.432 72.076 16.6 72.376 16.712 72.728C16.832 73.08 16.892 73.476 16.892 73.916C16.892 74.044 16.856 74.14 16.784 74.204C16.712 74.26 16.608 74.288 16.472 74.288H12.296V73.652H16.244L16.052 73.808C16.052 73.376 15.988 73.012 15.86 72.716C15.732 72.412 15.544 72.18 15.296 72.02C15.056 71.86 14.752 71.78 14.384 71.78C13.976 71.78 13.628 71.876 13.34 72.068C13.06 72.252 12.848 72.512 12.704 72.848C12.56 73.176 12.488 73.56 12.488 74V74.072C12.488 74.808 12.664 75.368 13.016 75.752C13.376 76.136 13.884 76.328 14.54 76.328C14.812 76.328 15.08 76.292 15.344 76.22C15.616 76.148 15.88 76.028 16.136 75.86C16.248 75.788 16.348 75.756 16.436 75.764C16.532 75.764 16.608 75.792 16.664 75.848C16.72 75.896 16.756 75.96 16.772 76.04C16.796 76.112 16.788 76.192 16.748 76.28C16.716 76.368 16.648 76.444 16.544 76.508C16.28 76.7 15.968 76.848 15.608 76.952C15.248 77.056 14.892 77.108 14.54 77.108ZM18.2758 77.072C18.1718 77.072 18.0798 77.04 17.9998 76.976C17.9198 76.912 17.8758 76.828 17.8678 76.724C17.8678 76.612 17.9198 76.496 18.0238 76.376L20.1238 73.736V74.24L18.1558 71.78C18.0518 71.652 17.9998 71.536 17.9998 71.432C18.0078 71.328 18.0518 71.244 18.1318 71.18C18.2118 71.116 18.3038 71.084 18.4078 71.084C18.5278 71.084 18.6278 71.108 18.7078 71.156C18.7958 71.196 18.8758 71.264 18.9478 71.36L20.6638 73.532H20.3278L22.0558 71.36C22.1278 71.264 22.2038 71.196 22.2838 71.156C22.3638 71.108 22.4638 71.084 22.5838 71.084C22.6958 71.084 22.7878 71.116 22.8598 71.18C22.9398 71.244 22.9798 71.332 22.9798 71.444C22.9878 71.548 22.9398 71.664 22.8358 71.792L20.8798 74.216V73.772L22.9798 76.376C23.0758 76.496 23.1198 76.612 23.1118 76.724C23.1118 76.828 23.0718 76.912 22.9918 76.976C22.9118 77.04 22.8158 77.072 22.7038 77.072C22.5918 77.072 22.4918 77.048 22.4038 77C22.3238 76.96 22.2438 76.892 22.1638 76.796L20.3158 74.468H20.6638L18.8158 76.796C18.7438 76.884 18.6638 76.952 18.5758 77C18.4958 77.048 18.3958 77.072 18.2758 77.072ZM25.0365 79.244C24.8765 79.244 24.7565 79.2 24.6765 79.112C24.5965 79.032 24.5565 78.912 24.5565 78.752V71.576C24.5565 71.416 24.5965 71.296 24.6765 71.216C24.7565 71.128 24.8725 71.084 25.0245 71.084C25.1845 71.084 25.3045 71.128 25.3845 71.216C25.4725 71.296 25.5165 71.416 25.5165 71.576V72.716L25.3845 72.548C25.5125 72.092 25.7645 71.732 26.1405 71.468C26.5245 71.196 26.9805 71.06 27.5085 71.06C28.0285 71.06 28.4805 71.184 28.8645 71.432C29.2565 71.672 29.5565 72.02 29.7645 72.476C29.9805 72.924 30.0885 73.46 30.0885 74.084C30.0885 74.7 29.9805 75.236 29.7645 75.692C29.5565 76.14 29.2605 76.488 28.8765 76.736C28.4925 76.984 28.0365 77.108 27.5085 77.108C26.9805 77.108 26.5285 76.976 26.1525 76.712C25.7765 76.44 25.5205 76.08 25.3845 75.632H25.5285V78.752C25.5285 78.912 25.4845 79.032 25.3965 79.112C25.3085 79.2 25.1885 79.244 25.0365 79.244ZM27.3045 76.328C27.6725 76.328 27.9885 76.24 28.2525 76.064C28.5245 75.888 28.7325 75.632 28.8765 75.296C29.0285 74.96 29.1045 74.556 29.1045 74.084C29.1045 73.356 28.9405 72.8 28.6125 72.416C28.2925 72.032 27.8565 71.84 27.3045 71.84C26.9445 71.84 26.6285 71.928 26.3565 72.104C26.0845 72.272 25.8725 72.524 25.7205 72.86C25.5765 73.188 25.5045 73.596 25.5045 74.084C25.5045 74.804 25.6685 75.36 25.9965 75.752C26.3245 76.136 26.7605 76.328 27.3045 76.328ZM34.1806 77.108C33.5646 77.108 33.0326 76.988 32.5846 76.748C32.1446 76.5 31.8006 76.152 31.5526 75.704C31.3126 75.256 31.1926 74.72 31.1926 74.096C31.1926 73.488 31.3126 72.96 31.5526 72.512C31.7926 72.056 32.1206 71.7 32.5366 71.444C32.9606 71.188 33.4486 71.06 34.0006 71.06C34.3926 71.06 34.7446 71.128 35.0566 71.264C35.3686 71.392 35.6326 71.58 35.8486 71.828C36.0726 72.076 36.2406 72.376 36.3526 72.728C36.4726 73.08 36.5326 73.476 36.5326 73.916C36.5326 74.044 36.4966 74.14 36.4246 74.204C36.3526 74.26 36.2486 74.288 36.1126 74.288H31.9366V73.652H35.8846L35.6926 73.808C35.6926 73.376 35.6286 73.012 35.5006 72.716C35.3726 72.412 35.1846 72.18 34.9366 72.02C34.6966 71.86 34.3926 71.78 34.0246 71.78C33.6166 71.78 33.2686 71.876 32.9806 72.068C32.7006 72.252 32.4886 72.512 32.3446 72.848C32.2006 73.176 32.1286 73.56 32.1286 74V74.072C32.1286 74.808 32.3046 75.368 32.6566 75.752C33.0166 76.136 33.5246 76.328 34.1806 76.328C34.4526 76.328 34.7206 76.292 34.9846 76.22C35.2566 76.148 35.5206 76.028 35.7766 75.86C35.8886 75.788 35.9886 75.756 36.0766 75.764C36.1726 75.764 36.2486 75.792 36.3046 75.848C36.3606 75.896 36.3966 75.96 36.4126 76.04C36.4366 76.112 36.4286 76.192 36.3886 76.28C36.3566 76.368 36.2886 76.444 36.1846 76.508C35.9206 76.7 35.6086 76.848 35.2486 76.952C34.8886 77.056 34.5326 77.108 34.1806 77.108ZM38.4193 77.084C38.2593 77.084 38.1393 77.04 38.0593 76.952C37.9793 76.864 37.9393 76.74 37.9393 76.58V71.576C37.9393 71.416 37.9793 71.296 38.0593 71.216C38.1393 71.128 38.2553 71.084 38.4073 71.084C38.5593 71.084 38.6753 71.128 38.7553 71.216C38.8433 71.296 38.8873 71.416 38.8873 71.576V72.608L38.7553 72.464C38.9233 72 39.1953 71.652 39.5713 71.42C39.9553 71.18 40.3953 71.06 40.8913 71.06C41.3553 71.06 41.7393 71.144 42.0433 71.312C42.3553 71.48 42.5873 71.736 42.7393 72.08C42.8913 72.416 42.9673 72.844 42.9673 73.364V76.58C42.9673 76.74 42.9233 76.864 42.8353 76.952C42.7553 77.04 42.6393 77.084 42.4873 77.084C42.3273 77.084 42.2033 77.04 42.1153 76.952C42.0353 76.864 41.9953 76.74 41.9953 76.58V73.424C41.9953 72.88 41.8873 72.484 41.6713 72.236C41.4633 71.98 41.1273 71.852 40.6633 71.852C40.1273 71.852 39.6993 72.02 39.3793 72.356C39.0673 72.684 38.9113 73.124 38.9113 73.676V76.58C38.9113 76.916 38.7473 77.084 38.4193 77.084ZM46.7277 77.108C46.3677 77.108 46.0037 77.064 45.6357 76.976C45.2757 76.888 44.9397 76.736 44.6277 76.52C44.5477 76.464 44.4917 76.4 44.4597 76.328C44.4277 76.248 44.4157 76.172 44.4237 76.1C44.4397 76.02 44.4717 75.952 44.5197 75.896C44.5757 75.84 44.6397 75.808 44.7117 75.8C44.7917 75.784 44.8797 75.8 44.9757 75.848C45.2877 76.04 45.5877 76.176 45.8757 76.256C46.1717 76.328 46.4637 76.364 46.7517 76.364C47.2077 76.364 47.5517 76.28 47.7837 76.112C48.0157 75.944 48.1317 75.716 48.1317 75.428C48.1317 75.204 48.0557 75.028 47.9037 74.9C47.7517 74.764 47.5117 74.66 47.1837 74.588L46.0917 74.348C45.5877 74.244 45.2117 74.064 44.9637 73.808C44.7237 73.552 44.6037 73.22 44.6037 72.812C44.6037 72.452 44.6957 72.144 44.8797 71.888C45.0717 71.624 45.3397 71.42 45.6837 71.276C46.0277 71.132 46.4277 71.06 46.8837 71.06C47.2357 71.06 47.5677 71.108 47.8797 71.204C48.1997 71.292 48.4877 71.436 48.7437 71.636C48.8237 71.692 48.8757 71.76 48.8997 71.84C48.9317 71.912 48.9357 71.988 48.9117 72.068C48.8957 72.14 48.8597 72.204 48.8037 72.26C48.7477 72.308 48.6797 72.336 48.5997 72.344C48.5197 72.352 48.4357 72.328 48.3477 72.272C48.1077 72.112 47.8637 71.996 47.6157 71.924C47.3677 71.844 47.1237 71.804 46.8837 71.804C46.4357 71.804 46.0957 71.892 45.8637 72.068C45.6317 72.244 45.5157 72.476 45.5157 72.764C45.5157 72.988 45.5877 73.172 45.7317 73.316C45.8757 73.46 46.0997 73.564 46.4037 73.628L47.4957 73.856C48.0157 73.968 48.4037 74.148 48.6597 74.396C48.9237 74.636 49.0557 74.964 49.0557 75.38C49.0557 75.908 48.8437 76.328 48.4197 76.64C47.9957 76.952 47.4317 77.108 46.7277 77.108ZM53.165 77.108C52.549 77.108 52.017 76.988 51.569 76.748C51.129 76.5 50.785 76.152 50.537 75.704C50.297 75.256 50.177 74.72 50.177 74.096C50.177 73.488 50.297 72.96 50.537 72.512C50.777 72.056 51.105 71.7 51.521 71.444C51.945 71.188 52.433 71.06 52.985 71.06C53.377 71.06 53.729 71.128 54.041 71.264C54.353 71.392 54.617 71.58 54.833 71.828C55.057 72.076 55.225 72.376 55.337 72.728C55.457 73.08 55.517 73.476 55.517 73.916C55.517 74.044 55.481 74.14 55.409 74.204C55.337 74.26 55.233 74.288 55.097 74.288H50.921V73.652H54.869L54.677 73.808C54.677 73.376 54.613 73.012 54.485 72.716C54.357 72.412 54.169 72.18 53.921 72.02C53.681 71.86 53.377 71.78 53.009 71.78C52.601 71.78 52.253 71.876 51.965 72.068C51.685 72.252 51.473 72.512 51.329 72.848C51.185 73.176 51.113 73.56 51.113 74V74.072C51.113 74.808 51.289 75.368 51.641 75.752C52.001 76.136 52.509 76.328 53.165 76.328C53.437 76.328 53.705 76.292 53.969 76.22C54.241 76.148 54.505 76.028 54.761 75.86C54.873 75.788 54.973 75.756 55.061 75.764C55.157 75.764 55.233 75.792 55.289 75.848C55.345 75.896 55.381 75.96 55.397 76.04C55.421 76.112 55.413 76.192 55.373 76.28C55.341 76.368 55.273 76.444 55.169 76.508C54.905 76.7 54.593 76.848 54.233 76.952C53.873 77.056 53.517 77.108 53.165 77.108ZM58.8917 77.108C58.5317 77.108 58.1677 77.064 57.7997 76.976C57.4397 76.888 57.1037 76.736 56.7917 76.52C56.7117 76.464 56.6557 76.4 56.6237 76.328C56.5917 76.248 56.5797 76.172 56.5877 76.1C56.6037 76.02 56.6357 75.952 56.6837 75.896C56.7397 75.84 56.8037 75.808 56.8757 75.8C56.9557 75.784 57.0437 75.8 57.1397 75.848C57.4517 76.04 57.7517 76.176 58.0397 76.256C58.3357 76.328 58.6277 76.364 58.9157 76.364C59.3717 76.364 59.7157 76.28 59.9477 76.112C60.1797 75.944 60.2957 75.716 60.2957 75.428C60.2957 75.204 60.2197 75.028 60.0677 74.9C59.9157 74.764 59.6757 74.66 59.3477 74.588L58.2557 74.348C57.7517 74.244 57.3757 74.064 57.1277 73.808C56.8877 73.552 56.7677 73.22 56.7677 72.812C56.7677 72.452 56.8597 72.144 57.0437 71.888C57.2357 71.624 57.5037 71.42 57.8477 71.276C58.1917 71.132 58.5917 71.06 59.0477 71.06C59.3997 71.06 59.7317 71.108 60.0437 71.204C60.3637 71.292 60.6517 71.436 60.9077 71.636C60.9877 71.692 61.0397 71.76 61.0637 71.84C61.0957 71.912 61.0997 71.988 61.0757 72.068C61.0597 72.14 61.0237 72.204 60.9677 72.26C60.9117 72.308 60.8437 72.336 60.7637 72.344C60.6837 72.352 60.5997 72.328 60.5117 72.272C60.2717 72.112 60.0277 71.996 59.7797 71.924C59.5317 71.844 59.2877 71.804 59.0477 71.804C58.5997 71.804 58.2597 71.892 58.0277 72.068C57.7957 72.244 57.6797 72.476 57.6797 72.764C57.6797 72.988 57.7517 73.172 57.8957 73.316C58.0397 73.46 58.2637 73.564 58.5677 73.628L59.6597 73.856C60.1797 73.968 60.5677 74.148 60.8237 74.396C61.0877 74.636 61.2197 74.964 61.2197 75.38C61.2197 75.908 61.0077 76.328 60.5837 76.64C60.1597 76.952 59.5957 77.108 58.8917 77.108ZM63.1691 74.852C63.0731 74.852 62.9931 74.82 62.9291 74.756C62.8731 74.692 62.8411 74.596 62.8331 74.468L62.5931 69.092C62.5851 68.9 62.6291 68.748 62.7251 68.636C62.8291 68.516 62.9771 68.456 63.1691 68.456C63.3531 68.456 63.4931 68.516 63.5891 68.636C63.6851 68.748 63.7291 68.9 63.7211 69.092L63.4811 74.468C63.4811 74.596 63.4531 74.692 63.3971 74.756C63.3411 74.82 63.2651 74.852 63.1691 74.852ZM63.1691 77.048C62.9691 77.048 62.8091 76.988 62.6891 76.868C62.5691 76.74 62.5091 76.58 62.5091 76.388C62.5091 76.196 62.5691 76.04 62.6891 75.92C62.8091 75.792 62.9691 75.728 63.1691 75.728C63.3691 75.728 63.5251 75.792 63.6371 75.92C63.7571 76.04 63.8171 76.196 63.8171 76.388C63.8171 76.58 63.7571 76.74 63.6371 76.868C63.5251 76.988 63.3691 77.048 63.1691 77.048Z" fill="black"/>
</svg>
