<svg width="329" height="50" viewBox="0 0 329 50" fill="none" xmlns="http://www.w3.org/2000/svg">
<rect width="329" height="50" rx="16" fill="#C6C5D0"/>
<path d="M105.27 32.2773C105.457 32.457 105.664 32.5742 105.891 32.6289C106.117 32.6836 106.41 32.7109 106.77 32.7109C107.137 32.7109 107.605 32.6328 108.176 32.4766L108.035 34H100.465L100.594 32.7227C101.289 32.7227 101.773 32.5078 102.047 32.0781C102.305 31.6797 102.434 31.0273 102.434 30.1211L102.422 19.4688C102.422 18.5312 102.383 17.9727 102.305 17.793C102.234 17.6133 102.125 17.4922 101.977 17.4297C101.836 17.3672 101.625 17.3359 101.344 17.3359C100.914 17.3359 100.5 17.3789 100.102 17.4648L100.312 16.0703H102.68C104.164 16.0703 105.227 16.0469 105.867 16C106.969 15.9297 107.957 15.8984 108.832 15.9062C109.715 15.9141 110.535 16.0508 111.293 16.3164C112.051 16.582 112.664 16.9492 113.133 17.418C114.031 18.3086 114.48 19.5586 114.48 21.168C114.48 22.9023 113.859 24.3164 112.617 25.4102C111.422 26.4727 109.918 27.0039 108.105 27.0039C107.395 27.0039 106.676 26.9062 105.949 26.7109L105.727 25.3398C106.414 25.4961 107.047 25.5742 107.625 25.5742C108.211 25.5742 108.77 25.4766 109.301 25.2812C109.832 25.0859 110.281 24.8047 110.648 24.4375C111.414 23.6875 111.797 22.6484 111.797 21.3203C111.797 18.5859 110.262 17.2188 107.191 17.2188C106.473 17.2188 105.742 17.293 105 17.4414V30.9414C105 31.6445 105.09 32.0898 105.27 32.2773ZM120.551 14.0195C120.387 14.8711 120.305 16.582 120.305 19.1523V19.9961L120.328 31.2109C120.328 31.8516 120.375 32.25 120.469 32.4062C120.617 32.6406 120.879 32.7578 121.254 32.7578C121.777 32.7578 122.234 32.7148 122.625 32.6289L122.438 34H115.652L115.852 32.7578C116.664 32.7578 117.184 32.668 117.41 32.4883C117.645 32.3086 117.793 32.125 117.855 31.9375C117.926 31.7422 117.961 31.5039 117.961 31.2227V18.0039C117.961 17.3398 117.918 16.9258 117.832 16.7617C117.754 16.5977 117.68 16.4766 117.609 16.3984C117.547 16.3125 117.445 16.2461 117.305 16.1992C117.172 16.1445 117.016 16.1094 116.836 16.0938C116.586 16.0625 116.172 16.0469 115.594 16.0469L115.734 14.7109L120.551 14.0195ZM134.965 23.793L134.777 30.0156C134.777 30.8516 135.031 31.4531 135.539 31.8203C135.891 32.0781 136.34 32.207 136.887 32.207C136.855 32.6055 136.695 32.9648 136.406 33.2852C135.898 33.8477 135.484 34.1719 135.164 34.2578C134.68 34.2578 134.223 34.0938 133.793 33.7656C133.371 33.4375 133.043 32.957 132.809 32.3242C131.918 33.168 130.828 33.7656 129.539 34.1172C129.18 34.2188 128.758 34.2695 128.273 34.2695C127.797 34.2695 127.285 34.1797 126.738 34C126.199 33.8125 125.746 33.5508 125.379 33.2148C124.637 32.5352 124.266 31.6094 124.266 30.4375C124.266 29.0156 125.062 27.9102 126.656 27.1211C128.141 26.3867 130.094 26.0195 132.516 26.0195H132.645C132.645 25.5273 132.637 25.0469 132.621 24.5781L132.609 24.1094C132.57 23.1641 132.23 22.4453 131.59 21.9531C131.082 21.5625 130.457 21.3672 129.715 21.3672C128.973 21.3672 128.375 21.5664 127.922 21.9648C127.469 22.3555 127.242 22.9219 127.242 23.6641C127.242 23.9375 127.273 24.2305 127.336 24.543H125.238L125.156 24.5195C125.133 24.3945 125.109 24.2617 125.086 24.1211C125.016 23.7852 124.957 23.4375 124.91 23.0781C124.871 22.7109 124.852 22.4688 124.852 22.3516C124.852 22.1797 124.883 22.0547 124.945 21.9766C126.969 20.5469 128.949 19.832 130.887 19.832C132.777 19.832 134.023 20.5195 134.625 21.8945C134.852 22.4023 134.965 23.0352 134.965 23.793ZM132.516 30.4727C132.57 29.4883 132.609 28.4336 132.633 27.3086C132.547 27.2773 132.285 27.2617 131.848 27.2617C131.418 27.2617 130.871 27.332 130.207 27.4727C129.551 27.6055 128.977 27.8008 128.484 28.0586C127.438 28.6133 126.914 29.3555 126.914 30.2852C126.914 30.9336 127.125 31.4766 127.547 31.9141C127.977 32.3516 128.531 32.5703 129.211 32.5703C130.055 32.5703 130.922 32.1914 131.812 31.4336C132.078 31.207 132.312 30.9688 132.516 30.7188V30.4727ZM151.641 21.4141C151.477 21.3906 151.34 21.3789 151.23 21.3789C151.129 21.3789 151.027 21.4297 150.926 21.5312C150.824 21.625 150.719 21.7617 150.609 21.9414C150.508 22.1211 150.398 22.3359 150.281 22.5859L149.918 23.4414C149.543 24.3242 149.152 25.3047 148.746 26.3828L146.016 33.625L145.289 35.4766C144.719 36.8594 144.281 37.7773 143.977 38.2305C143.672 38.6836 143.375 39.0352 143.086 39.2852C142.484 39.8086 141.781 40.0703 140.977 40.0703C140.148 40.0703 139.328 39.7109 138.516 38.9922C138.281 38.7812 138.078 38.5586 137.906 38.3242L138.668 37.0234L138.773 37.0117C139.695 37.5273 140.469 37.7852 141.094 37.7852C141.938 37.7852 142.652 37.168 143.238 35.9336C143.395 35.6055 143.531 35.2891 143.648 34.9844L144.105 33.8008L143.121 33.3438L143.086 33.332L139.008 23.2891C138.859 22.9297 138.73 22.6133 138.621 22.3398C138.52 22.0664 138.344 21.8359 138.094 21.6484C137.844 21.4609 137.652 21.3672 137.52 21.3672H137.273C137.242 21.3672 137.184 21.3711 137.098 21.3789L137.262 20.0664H143.191L143.027 21.3555C142.887 21.3789 142.727 21.3906 142.547 21.3906H142.23C141.855 21.3906 141.586 21.5391 141.422 21.8359C141.352 21.9688 141.316 22.125 141.316 22.3047C141.316 22.4844 141.363 22.7422 141.457 23.0781C141.551 23.4062 141.676 23.7969 141.832 24.25C142.309 25.5625 142.684 26.5547 142.957 27.2266C144.121 30.1406 144.75 31.707 144.844 31.9258C145.57 29.9414 146.016 28.7031 146.18 28.2109L147.246 25.1406C147.848 23.4922 148.148 22.4805 148.148 22.1055C148.148 21.6133 147.805 21.3672 147.117 21.3672C146.859 21.3672 146.566 21.3906 146.238 21.4375L146.438 20.0664H151.84L151.641 21.4141ZM159.996 32.7227C160.59 32.7227 160.988 32.6445 161.191 32.4883C161.504 32.2461 161.777 31.8438 162.012 31.2812H162L167.859 16.0703C168.297 16.0703 168.719 16.0039 169.125 15.8711C169.531 15.7383 169.785 15.6367 169.887 15.5664L175.301 30.0742C175.723 31.3008 176.188 32.1172 176.695 32.5234C176.852 32.6484 176.996 32.7109 177.129 32.7109C177.52 32.7109 177.832 32.6367 178.066 32.4883L177.809 34H170.836L171.012 32.7109C172.332 32.7344 173.047 32.4844 173.156 31.9609C173.195 31.8047 173.195 31.6328 173.156 31.4453L171.656 27.4727H165.398L163.898 31.7617C163.75 32.1211 163.836 32.4062 164.156 32.6172C164.242 32.6797 164.402 32.7109 164.637 32.7109C164.879 32.7109 165.086 32.7031 165.258 32.6875C165.68 32.6641 165.992 32.6133 166.195 32.5352L166.008 34H159.844L159.996 32.7227ZM171.117 26.0312L168.422 18.8711L165.902 26.0312H171.117ZM183.352 29.4766C182.859 29.8672 182.613 30.2031 182.613 30.4844C182.613 30.7578 182.664 30.9648 182.766 31.1055C182.875 31.2383 183.039 31.3477 183.258 31.4336C183.539 31.543 184.234 31.6602 185.344 31.7852L186.469 31.9258C188.031 32.1211 189.148 32.4297 189.82 32.8516C190.672 33.3906 191.098 34.1875 191.098 35.2422C191.098 36.6797 190.523 37.8477 189.375 38.7461C188.234 39.6289 186.742 40.0703 184.898 40.0703C182.141 40.0703 180.328 39.4375 179.461 38.1719C179.188 37.7656 179.051 37.3398 179.051 36.8945C179.051 36.4492 179.113 36.0508 179.238 35.6992C179.371 35.3555 179.555 35.0352 179.789 34.7383C180.281 34.1211 180.93 33.6484 181.734 33.3203C180.812 32.9062 180.352 32.3633 180.352 31.6914C180.352 30.9961 180.699 30.2969 181.395 29.5938C181.582 29.3984 181.766 29.2461 181.945 29.1367C180.508 28.6055 179.633 27.5938 179.32 26.1016C179.227 25.6797 179.18 25.207 179.18 24.6836C179.18 24.1602 179.332 23.5977 179.637 22.9961C179.949 22.3867 180.383 21.8477 180.938 21.3789C182.172 20.3477 183.715 19.832 185.566 19.832C186.426 19.832 187.223 20.0039 187.957 20.3477L191.637 19.8203V21.8125L189.715 21.8477C190.191 22.5508 190.43 23.3555 190.43 24.2617C190.43 25.168 190.25 25.9336 189.891 26.5586C189.539 27.1836 189.078 27.7109 188.508 28.1406C187.336 29.0469 186 29.5 184.5 29.5C184.234 29.5 184.004 29.5 183.809 29.5C183.621 29.5 183.469 29.4922 183.352 29.4766ZM184.992 28.0938C185.469 28.0938 185.891 28.0273 186.258 27.8945C186.633 27.7539 186.957 27.5469 187.23 27.2734C187.809 26.7109 188.098 25.9258 188.098 24.918C188.098 23.8633 187.812 23.0156 187.242 22.375C186.641 21.6953 185.82 21.3555 184.781 21.3555C183.836 21.3555 183.109 21.5508 182.602 21.9414C181.906 22.4648 181.559 23.3711 181.559 24.6602C181.559 25.5742 181.887 26.3672 182.543 27.0391C183.23 27.7422 184.047 28.0938 184.992 28.0938ZM183.012 33.6836C182.02 34.2617 181.523 35.1133 181.523 36.2383C181.523 36.9648 181.875 37.5391 182.578 37.9609C183.25 38.3594 184.031 38.5586 184.922 38.5586C185.82 38.5586 186.52 38.5 187.02 38.3828C187.52 38.2656 187.93 38.1016 188.25 37.8906C188.867 37.4922 189.176 36.9297 189.176 36.2031C189.176 35.4375 188.773 34.8984 187.969 34.5859C187.406 34.3594 186.152 34.1133 184.207 33.8477L183.012 33.6836ZM203.848 23.793L203.66 30.0156C203.66 30.8516 203.914 31.4531 204.422 31.8203C204.773 32.0781 205.223 32.207 205.77 32.207C205.738 32.6055 205.578 32.9648 205.289 33.2852C204.781 33.8477 204.367 34.1719 204.047 34.2578C203.562 34.2578 203.105 34.0938 202.676 33.7656C202.254 33.4375 201.926 32.957 201.691 32.3242C200.801 33.168 199.711 33.7656 198.422 34.1172C198.062 34.2188 197.641 34.2695 197.156 34.2695C196.68 34.2695 196.168 34.1797 195.621 34C195.082 33.8125 194.629 33.5508 194.262 33.2148C193.52 32.5352 193.148 31.6094 193.148 30.4375C193.148 29.0156 193.945 27.9102 195.539 27.1211C197.023 26.3867 198.977 26.0195 201.398 26.0195H201.527C201.527 25.5273 201.52 25.0469 201.504 24.5781L201.492 24.1094C201.453 23.1641 201.113 22.4453 200.473 21.9531C199.965 21.5625 199.34 21.3672 198.598 21.3672C197.855 21.3672 197.258 21.5664 196.805 21.9648C196.352 22.3555 196.125 22.9219 196.125 23.6641C196.125 23.9375 196.156 24.2305 196.219 24.543H194.121L194.039 24.5195C194.016 24.3945 193.992 24.2617 193.969 24.1211C193.898 23.7852 193.84 23.4375 193.793 23.0781C193.754 22.7109 193.734 22.4688 193.734 22.3516C193.734 22.1797 193.766 22.0547 193.828 21.9766C195.852 20.5469 197.832 19.832 199.77 19.832C201.66 19.832 202.906 20.5195 203.508 21.8945C203.734 22.4023 203.848 23.0352 203.848 23.793ZM201.398 30.4727C201.453 29.4883 201.492 28.4336 201.516 27.3086C201.43 27.2773 201.168 27.2617 200.73 27.2617C200.301 27.2617 199.754 27.332 199.09 27.4727C198.434 27.6055 197.859 27.8008 197.367 28.0586C196.32 28.6133 195.797 29.3555 195.797 30.2852C195.797 30.9336 196.008 31.4766 196.43 31.9141C196.859 32.3516 197.414 32.5703 198.094 32.5703C198.938 32.5703 199.805 32.1914 200.695 31.4336C200.961 31.207 201.195 30.9688 201.398 30.7188V30.4727ZM210.973 17.5234C210.754 17.6094 210.516 17.6523 210.258 17.6523C210 17.6523 209.758 17.6094 209.531 17.5234C209.305 17.4297 209.109 17.3047 208.945 17.1484C208.586 16.8203 208.406 16.4648 208.406 16.082C208.406 15.6914 208.453 15.3828 208.547 15.1562C208.641 14.9297 208.773 14.7344 208.945 14.5703C209.305 14.2188 209.746 14.043 210.27 14.043C210.777 14.043 211.203 14.2188 211.547 14.5703C211.883 14.9219 212.051 15.3633 212.051 15.8945C212.051 16.6836 211.691 17.2266 210.973 17.5234ZM211.863 19.8203C211.512 20.8359 211.336 22.8359 211.336 25.8203L211.418 31.2812C211.418 31.7578 211.492 32.125 211.641 32.3828C211.789 32.6328 212.086 32.7578 212.531 32.7578C212.891 32.7578 213.211 32.7109 213.492 32.6172L213.328 34H207.035L207.246 32.7578C208.012 32.7578 208.531 32.5469 208.805 32.125C209.031 31.7656 209.145 31.168 209.145 30.332V24.2031C209.145 23.2266 208.973 22.5938 208.629 22.3047C208.355 22.0703 207.754 21.9531 206.824 21.9531L207.012 20.4766L211.863 19.8203ZM215.145 32.7578C215.793 32.7578 216.227 32.5938 216.445 32.2656C216.695 31.8906 216.82 31.1172 216.82 29.9453V24.2852C216.82 23.3477 216.707 22.7266 216.48 22.4219C216.254 22.1094 215.73 21.9531 214.91 21.9531L215.098 20.4766L219.293 19.8438C219.207 20.4766 219.164 21.1484 219.164 21.8594C220.164 21.0391 221.211 20.4453 222.305 20.0781C222.773 19.9141 223.258 19.832 223.758 19.832C224.258 19.832 224.742 19.9062 225.211 20.0547C225.688 20.2031 226.102 20.4453 226.453 20.7812C227.227 21.5078 227.613 22.5898 227.613 24.0273C227.613 24.9023 227.586 25.7578 227.531 26.5938C227.383 29.1016 227.336 30.6289 227.391 31.1758C227.453 31.7227 227.523 32.0859 227.602 32.2656C227.75 32.5938 228.016 32.7578 228.398 32.7578C228.766 32.7578 229.098 32.7109 229.395 32.6172L229.219 34H223.219L223.43 32.7578C224.078 32.7578 224.523 32.6172 224.766 32.3359C224.867 32.2188 224.941 32.0586 224.988 31.8555C225.043 31.6445 225.086 31.3789 225.117 31.0586C225.156 30.7383 225.188 30.3516 225.211 29.8984C225.258 28.9766 225.281 27.9336 225.281 26.7695C225.281 25.5977 225.258 24.7461 225.211 24.2148C225.172 23.6758 225.07 23.2422 224.906 22.9141C224.594 22.2734 223.906 21.9531 222.844 21.9531C221.859 21.9531 220.82 22.2891 219.727 22.9609L219.164 23.3008V31.1758C219.164 31.8789 219.219 32.3047 219.328 32.4531C219.438 32.6016 219.562 32.6914 219.703 32.7227C219.844 32.7461 220 32.7578 220.172 32.7578C220.57 32.7578 220.941 32.7148 221.285 32.6289L221.086 34H214.957L215.145 32.7578Z" fill="#898A8D"/>
</svg>
