<svg width="356" height="211" viewBox="0 0 356 211" fill="none" xmlns="http://www.w3.org/2000/svg">
<path d="M17.572 14.126C16.5733 14.126 15.7193 13.9207 15.01 13.51C14.3007 13.0993 13.7547 12.516 13.372 11.76C12.9987 10.9947 12.812 10.094 12.812 9.058C12.812 8.28333 12.9193 7.588 13.134 6.972C13.3487 6.34667 13.6567 5.81467 14.058 5.376C14.4687 4.928 14.968 4.58733 15.556 4.354C16.1533 4.12067 16.8253 4.004 17.572 4.004C18.1227 4.004 18.65 4.07867 19.154 4.228C19.6673 4.37733 20.1107 4.592 20.484 4.872C20.6427 4.97467 20.7453 5.10067 20.792 5.25C20.848 5.39 20.8573 5.52533 20.82 5.656C20.792 5.78667 20.7313 5.89867 20.638 5.992C20.5447 6.076 20.4233 6.12267 20.274 6.132C20.134 6.14133 19.98 6.09 19.812 5.978C19.504 5.74467 19.1633 5.572 18.79 5.46C18.4167 5.348 18.0247 5.292 17.614 5.292C16.9047 5.292 16.3073 5.44133 15.822 5.74C15.3367 6.02933 14.968 6.454 14.716 7.014C14.464 7.574 14.338 8.25533 14.338 9.058C14.338 9.86067 14.464 10.5467 14.716 11.116C14.968 11.676 15.3367 12.1053 15.822 12.404C16.3073 12.6933 16.9047 12.838 17.614 12.838C18.0247 12.838 18.4167 12.782 18.79 12.67C19.1727 12.5487 19.532 12.3713 19.868 12.138C20.036 12.0353 20.1853 11.9887 20.316 11.998C20.456 12.0073 20.5727 12.054 20.666 12.138C20.7593 12.222 20.82 12.3293 20.848 12.46C20.8853 12.5813 20.8807 12.712 20.834 12.852C20.7967 12.9827 20.708 13.0947 20.568 13.188C20.1853 13.496 19.7327 13.7293 19.21 13.888C18.6873 14.0467 18.1413 14.126 17.572 14.126ZM25.1688 14.126C24.4221 14.126 23.7781 13.986 23.2368 13.706C22.7048 13.4167 22.2894 13.0107 21.9908 12.488C21.7014 11.956 21.5568 11.326 21.5568 10.598C21.5568 9.88867 21.7014 9.268 21.9908 8.736C22.2801 8.204 22.6768 7.78867 23.1808 7.49C23.6848 7.19133 24.2588 7.042 24.9028 7.042C25.3788 7.042 25.8034 7.12133 26.1768 7.28C26.5501 7.42933 26.8674 7.65333 27.1288 7.952C27.3994 8.24133 27.6001 8.596 27.7308 9.016C27.8708 9.436 27.9408 9.90733 27.9408 10.43C27.9408 10.5887 27.8941 10.71 27.8008 10.794C27.7074 10.8687 27.5674 10.906 27.3808 10.906H22.6768V10.038H26.9888L26.7508 10.234C26.7508 9.76733 26.6808 9.37067 26.5408 9.044C26.4101 8.71733 26.2094 8.47 25.9388 8.302C25.6774 8.12467 25.3508 8.036 24.9588 8.036C24.5201 8.036 24.1468 8.13867 23.8388 8.344C23.5401 8.54933 23.3114 8.834 23.1528 9.198C22.9941 9.562 22.9148 9.98667 22.9148 10.472V10.556C22.9148 11.3773 23.1061 11.998 23.4888 12.418C23.8808 12.8287 24.4454 13.034 25.1828 13.034C25.4628 13.034 25.7568 12.9967 26.0648 12.922C26.3821 12.8473 26.6808 12.7213 26.9608 12.544C27.1194 12.4507 27.2594 12.4087 27.3808 12.418C27.5114 12.4273 27.6141 12.4693 27.6888 12.544C27.7728 12.6187 27.8241 12.712 27.8428 12.824C27.8614 12.936 27.8428 13.0527 27.7868 13.174C27.7308 13.286 27.6328 13.3887 27.4928 13.482C27.1754 13.6967 26.8068 13.86 26.3868 13.972C25.9668 14.0747 25.5608 14.126 25.1688 14.126ZM30.1963 14.098C29.9629 14.098 29.7856 14.0373 29.6643 13.916C29.5429 13.7853 29.4823 13.608 29.4823 13.384V7.784C29.4823 7.55067 29.5429 7.37333 29.6643 7.252C29.7856 7.13067 29.9536 7.07 30.1683 7.07C30.3923 7.07 30.5603 7.13067 30.6723 7.252C30.7936 7.37333 30.8543 7.55067 30.8543 7.784V8.806H30.7143C30.8636 8.246 31.1389 7.82133 31.5403 7.532C31.9416 7.24267 32.4549 7.07467 33.0803 7.028C33.2483 7.01867 33.3789 7.06067 33.4723 7.154C33.5749 7.24733 33.6309 7.392 33.6403 7.588C33.6589 7.784 33.6169 7.94267 33.5143 8.064C33.4116 8.176 33.2529 8.24133 33.0383 8.26L32.7723 8.288C32.1656 8.344 31.7036 8.53533 31.3863 8.862C31.0689 9.18867 30.9103 9.63667 30.9103 10.206V13.384C30.9103 13.608 30.8496 13.7853 30.7283 13.916C30.6163 14.0373 30.4389 14.098 30.1963 14.098ZM37.9998 14.126C37.4398 14.126 36.9684 14.028 36.5858 13.832C36.2031 13.636 35.9184 13.3467 35.7318 12.964C35.5451 12.5813 35.4518 12.1147 35.4518 11.564V8.26H34.6118C34.4251 8.26 34.2804 8.21333 34.1778 8.12C34.0751 8.01733 34.0237 7.882 34.0237 7.714C34.0237 7.53667 34.0751 7.40133 34.1778 7.308C34.2804 7.21467 34.4251 7.168 34.6118 7.168H35.4518V5.726C35.4518 5.49267 35.5124 5.31533 35.6338 5.194C35.7644 5.07267 35.9418 5.012 36.1658 5.012C36.3898 5.012 36.5624 5.07267 36.6838 5.194C36.8051 5.31533 36.8658 5.49267 36.8658 5.726V7.168H38.5038C38.6904 7.168 38.8351 7.21467 38.9378 7.308C39.0404 7.40133 39.0918 7.53667 39.0918 7.714C39.0918 7.882 39.0404 8.01733 38.9378 8.12C38.8351 8.21333 38.6904 8.26 38.5038 8.26H36.8658V11.452C36.8658 11.9467 36.9684 12.32 37.1738 12.572C37.3884 12.824 37.7338 12.95 38.2097 12.95C38.3778 12.95 38.5224 12.936 38.6438 12.908C38.7744 12.8707 38.8818 12.8473 38.9658 12.838C39.0684 12.838 39.1524 12.8753 39.2178 12.95C39.2831 13.0153 39.3158 13.146 39.3158 13.342C39.3158 13.482 39.2878 13.6127 39.2318 13.734C39.1851 13.8553 39.0964 13.9347 38.9658 13.972C38.8538 14.0093 38.6998 14.042 38.5038 14.07C38.3171 14.1073 38.1491 14.126 37.9998 14.126ZM41.0241 14.084C40.8001 14.084 40.6274 14.0187 40.5061 13.888C40.3847 13.748 40.3241 13.5567 40.3241 13.314V7.854C40.3241 7.61133 40.3847 7.42467 40.5061 7.294C40.6274 7.16333 40.8001 7.098 41.0241 7.098C41.2481 7.098 41.4207 7.16333 41.5421 7.294C41.6727 7.42467 41.7381 7.61133 41.7381 7.854V13.314C41.7381 13.5567 41.6774 13.748 41.5561 13.888C41.4347 14.0187 41.2574 14.084 41.0241 14.084ZM41.0241 5.642C40.7441 5.642 40.5247 5.572 40.3661 5.432C40.2167 5.292 40.1421 5.096 40.1421 4.844C40.1421 4.58267 40.2167 4.38667 40.3661 4.256C40.5247 4.116 40.7441 4.046 41.0241 4.046C41.3041 4.046 41.5187 4.116 41.6681 4.256C41.8267 4.38667 41.9061 4.58267 41.9061 4.844C41.9061 5.096 41.8267 5.292 41.6681 5.432C41.5187 5.572 41.3041 5.642 41.0241 5.642ZM44.8484 14.098C44.6244 14.098 44.447 14.0373 44.3164 13.916C44.195 13.7853 44.1344 13.608 44.1344 13.384V8.26H43.3504C43.173 8.26 43.033 8.21333 42.9304 8.12C42.8277 8.01733 42.7764 7.882 42.7764 7.714C42.7764 7.53667 42.8277 7.40133 42.9304 7.308C43.033 7.21467 43.173 7.168 43.3504 7.168H44.5404L44.1344 7.546V7.042C44.1344 6.118 44.363 5.42267 44.8204 4.956C45.2777 4.48 45.945 4.2 46.8224 4.116L47.2564 4.088C47.415 4.06933 47.541 4.09267 47.6344 4.158C47.7277 4.22333 47.7884 4.30733 47.8164 4.41C47.8444 4.51267 47.8444 4.62 47.8164 4.732C47.7977 4.83467 47.751 4.928 47.6764 5.012C47.6017 5.096 47.5084 5.14267 47.3964 5.152L47.1304 5.166C46.5797 5.21267 46.1784 5.37133 45.9264 5.642C45.6744 5.90333 45.5484 6.30467 45.5484 6.846V7.392L45.3524 7.168H46.9064C47.1024 7.168 47.247 7.21467 47.3404 7.308C47.443 7.40133 47.4944 7.53667 47.4944 7.714C47.4944 7.882 47.443 8.01733 47.3404 8.12C47.247 8.21333 47.1024 8.26 46.9064 8.26H45.5484V13.384C45.5484 13.86 45.315 14.098 44.8484 14.098ZM49.2819 14.084C49.0579 14.084 48.8852 14.0187 48.7639 13.888C48.6426 13.748 48.5819 13.5567 48.5819 13.314V7.854C48.5819 7.61133 48.6426 7.42467 48.7639 7.294C48.8852 7.16333 49.0579 7.098 49.2819 7.098C49.5059 7.098 49.6786 7.16333 49.7999 7.294C49.9306 7.42467 49.9959 7.61133 49.9959 7.854V13.314C49.9959 13.5567 49.9352 13.748 49.8139 13.888C49.6926 14.0187 49.5152 14.084 49.2819 14.084ZM49.2819 5.642C49.0019 5.642 48.7826 5.572 48.6239 5.432C48.4746 5.292 48.3999 5.096 48.3999 4.844C48.3999 4.58267 48.4746 4.38667 48.6239 4.256C48.7826 4.116 49.0019 4.046 49.2819 4.046C49.5619 4.046 49.7766 4.116 49.9259 4.256C50.0846 4.38667 50.1639 4.58267 50.1639 4.844C50.1639 5.096 50.0846 5.292 49.9259 5.432C49.7766 5.572 49.5619 5.642 49.2819 5.642ZM54.9962 14.126C54.2962 14.126 53.6895 13.9813 53.1762 13.692C52.6722 13.3933 52.2802 12.978 52.0002 12.446C51.7202 11.9047 51.5802 11.27 51.5802 10.542C51.5802 10.0007 51.6595 9.51533 51.8182 9.086C51.9769 8.64733 52.2009 8.27867 52.4902 7.98C52.7889 7.68133 53.1482 7.45267 53.5682 7.294C53.9975 7.126 54.4735 7.042 54.9962 7.042C55.3229 7.042 55.6635 7.09333 56.0182 7.196C56.3822 7.28933 56.7182 7.448 57.0262 7.672C57.1475 7.74667 57.2222 7.84 57.2502 7.952C57.2875 8.05467 57.2922 8.162 57.2642 8.274C57.2455 8.386 57.1942 8.484 57.1102 8.568C57.0355 8.64267 56.9422 8.68933 56.8302 8.708C56.7182 8.71733 56.5969 8.68467 56.4662 8.61C56.2422 8.45133 56.0135 8.33933 55.7802 8.274C55.5469 8.19933 55.3229 8.162 55.1082 8.162C54.7722 8.162 54.4735 8.218 54.2122 8.33C53.9602 8.43267 53.7455 8.58667 53.5682 8.792C53.3909 8.988 53.2555 9.23533 53.1622 9.534C53.0782 9.83267 53.0362 10.1733 53.0362 10.556C53.0362 11.3213 53.2135 11.9233 53.5682 12.362C53.9322 12.7913 54.4455 13.006 55.1082 13.006C55.3229 13.006 55.5469 12.9733 55.7802 12.908C56.0135 12.8427 56.2422 12.7307 56.4662 12.572C56.5969 12.4973 56.7182 12.4693 56.8302 12.488C56.9422 12.5067 57.0309 12.558 57.0962 12.642C57.1709 12.7167 57.2175 12.81 57.2362 12.922C57.2642 13.0247 57.2595 13.132 57.2222 13.244C57.1849 13.356 57.1055 13.4493 56.9842 13.524C56.6855 13.7387 56.3589 13.8927 56.0042 13.986C55.6589 14.0793 55.3229 14.126 54.9962 14.126ZM60.6507 14.126C60.1747 14.126 59.7453 14.0327 59.3627 13.846C58.9893 13.6593 58.6953 13.4073 58.4807 13.09C58.266 12.7727 58.1587 12.4133 58.1587 12.012C58.1587 11.508 58.2847 11.1113 58.5367 10.822C58.798 10.5233 59.2227 10.3133 59.8107 10.192C60.408 10.0613 61.2107 9.996 62.2187 9.996H62.8767V10.864H62.2327C61.5607 10.864 61.0287 10.8967 60.6367 10.962C60.2447 11.0273 59.9647 11.1393 59.7967 11.298C59.638 11.4473 59.5587 11.6573 59.5587 11.928C59.5587 12.2827 59.68 12.572 59.9227 12.796C60.1653 13.0107 60.5013 13.118 60.9307 13.118C61.276 13.118 61.5793 13.0387 61.8407 12.88C62.102 12.712 62.3073 12.488 62.4567 12.208C62.6153 11.928 62.6947 11.606 62.6947 11.242V9.632C62.6947 9.1 62.5827 8.71733 62.3587 8.484C62.1347 8.25067 61.766 8.134 61.2527 8.134C60.954 8.134 60.6413 8.17133 60.3147 8.246C59.9973 8.32067 59.666 8.44667 59.3207 8.624C59.162 8.69867 59.0267 8.722 58.9147 8.694C58.8027 8.666 58.714 8.60533 58.6487 8.512C58.5833 8.40933 58.546 8.302 58.5367 8.19C58.5367 8.06867 58.5647 7.952 58.6207 7.84C58.686 7.728 58.7933 7.644 58.9427 7.588C59.3533 7.392 59.7593 7.252 60.1607 7.168C60.562 7.084 60.94 7.042 61.2947 7.042C61.92 7.042 62.4333 7.14 62.8347 7.336C63.2453 7.532 63.5487 7.83067 63.7447 8.232C63.9407 8.63333 64.0387 9.15133 64.0387 9.786V13.384C64.0387 13.608 63.9827 13.7853 63.8707 13.916C63.7587 14.0373 63.5953 14.098 63.3807 14.098C63.1753 14.098 63.012 14.0373 62.8907 13.916C62.7693 13.7853 62.7087 13.608 62.7087 13.384V12.474H62.8347C62.76 12.8193 62.62 13.118 62.4147 13.37C62.2187 13.6127 61.9713 13.7993 61.6727 13.93C61.374 14.0607 61.0333 14.126 60.6507 14.126ZM68.8982 14.126C68.3382 14.126 67.8669 14.028 67.4842 13.832C67.1015 13.636 66.8169 13.3467 66.6302 12.964C66.4435 12.5813 66.3502 12.1147 66.3502 11.564V8.26H65.5102C65.3235 8.26 65.1789 8.21333 65.0762 8.12C64.9735 8.01733 64.9222 7.882 64.9222 7.714C64.9222 7.53667 64.9735 7.40133 65.0762 7.308C65.1789 7.21467 65.3235 7.168 65.5102 7.168H66.3502V5.726C66.3502 5.49267 66.4109 5.31533 66.5322 5.194C66.6629 5.07267 66.8402 5.012 67.0642 5.012C67.2882 5.012 67.4609 5.07267 67.5822 5.194C67.7035 5.31533 67.7642 5.49267 67.7642 5.726V7.168H69.4022C69.5889 7.168 69.7335 7.21467 69.8362 7.308C69.9389 7.40133 69.9902 7.53667 69.9902 7.714C69.9902 7.882 69.9389 8.01733 69.8362 8.12C69.7335 8.21333 69.5889 8.26 69.4022 8.26H67.7642V11.452C67.7642 11.9467 67.8669 12.32 68.0722 12.572C68.2869 12.824 68.6322 12.95 69.1082 12.95C69.2762 12.95 69.4209 12.936 69.5422 12.908C69.6729 12.8707 69.7802 12.8473 69.8642 12.838C69.9669 12.838 70.0509 12.8753 70.1162 12.95C70.1815 13.0153 70.2142 13.146 70.2142 13.342C70.2142 13.482 70.1862 13.6127 70.1302 13.734C70.0835 13.8553 69.9949 13.9347 69.8642 13.972C69.7522 14.0093 69.5982 14.042 69.4022 14.07C69.2155 14.1073 69.0475 14.126 68.8982 14.126ZM71.9225 14.084C71.6985 14.084 71.5258 14.0187 71.4045 13.888C71.2832 13.748 71.2225 13.5567 71.2225 13.314V7.854C71.2225 7.61133 71.2832 7.42467 71.4045 7.294C71.5258 7.16333 71.6985 7.098 71.9225 7.098C72.1465 7.098 72.3192 7.16333 72.4405 7.294C72.5712 7.42467 72.6365 7.61133 72.6365 7.854V13.314C72.6365 13.5567 72.5758 13.748 72.4545 13.888C72.3332 14.0187 72.1558 14.084 71.9225 14.084ZM71.9225 5.642C71.6425 5.642 71.4232 5.572 71.2645 5.432C71.1152 5.292 71.0405 5.096 71.0405 4.844C71.0405 4.58267 71.1152 4.38667 71.2645 4.256C71.4232 4.116 71.6425 4.046 71.9225 4.046C72.2025 4.046 72.4172 4.116 72.5665 4.256C72.7252 4.38667 72.8045 4.58267 72.8045 4.844C72.8045 5.096 72.7252 5.292 72.5665 5.432C72.4172 5.572 72.2025 5.642 71.9225 5.642ZM77.5948 14.126C76.9041 14.126 76.3068 13.9813 75.8028 13.692C75.3081 13.4027 74.9208 12.992 74.6408 12.46C74.3608 11.928 74.2208 11.3027 74.2208 10.584C74.2208 10.0333 74.3001 9.54333 74.4588 9.114C74.6175 8.68467 74.8415 8.316 75.1308 8.008C75.4295 7.69067 75.7841 7.45267 76.1948 7.294C76.6148 7.126 77.0815 7.042 77.5948 7.042C78.2761 7.042 78.8641 7.18667 79.3588 7.476C79.8628 7.76533 80.2548 8.176 80.5348 8.708C80.8148 9.23067 80.9548 9.856 80.9548 10.584C80.9548 11.1253 80.8755 11.6153 80.7168 12.054C80.5581 12.4927 80.3295 12.866 80.0308 13.174C79.7415 13.482 79.3868 13.72 78.9668 13.888C78.5561 14.0467 78.0988 14.126 77.5948 14.126ZM77.5948 13.034C77.9775 13.034 78.3135 12.9407 78.6028 12.754C78.8921 12.5673 79.1161 12.292 79.2748 11.928C79.4428 11.564 79.5268 11.116 79.5268 10.584C79.5268 9.78133 79.3495 9.17467 78.9948 8.764C78.6401 8.35333 78.1735 8.148 77.5948 8.148C77.2028 8.148 76.8621 8.24133 76.5728 8.428C76.2835 8.60533 76.0548 8.876 75.8868 9.24C75.7281 9.604 75.6488 10.052 75.6488 10.584C75.6488 11.3773 75.8261 11.984 76.1808 12.404C76.5355 12.824 77.0068 13.034 77.5948 13.034ZM83.2428 14.098C83.0188 14.098 82.8462 14.0373 82.7248 13.916C82.6035 13.7853 82.5428 13.608 82.5428 13.384V7.784C82.5428 7.55067 82.6035 7.37333 82.7248 7.252C82.8462 7.13067 83.0142 7.07 83.2288 7.07C83.4528 7.07 83.6208 7.13067 83.7328 7.252C83.8542 7.37333 83.9148 7.55067 83.9148 7.784V8.876L83.7608 8.624C83.9662 8.10133 84.2882 7.70933 84.7268 7.448C85.1655 7.17733 85.6695 7.042 86.2388 7.042C86.7802 7.042 87.2282 7.14467 87.5828 7.35C87.9468 7.546 88.2175 7.84933 88.3948 8.26C88.5722 8.66133 88.6608 9.17 88.6608 9.786V13.384C88.6608 13.608 88.6002 13.7853 88.4788 13.916C88.3575 14.0373 88.1848 14.098 87.9608 14.098C87.7275 14.098 87.5502 14.0373 87.4288 13.916C87.3075 13.7853 87.2468 13.608 87.2468 13.384V9.87C87.2468 9.282 87.1302 8.85267 86.8968 8.582C86.6728 8.31133 86.3182 8.176 85.8328 8.176C85.2635 8.176 84.8062 8.35333 84.4608 8.708C84.1248 9.06267 83.9568 9.53867 83.9568 10.136V13.384C83.9568 13.86 83.7188 14.098 83.2428 14.098ZM93.0032 14.126C92.5926 14.126 92.1679 14.0793 91.7292 13.986C91.2999 13.8927 90.9032 13.734 90.5392 13.51C90.4179 13.426 90.3339 13.3327 90.2872 13.23C90.2406 13.1273 90.2219 13.0247 90.2312 12.922C90.2499 12.81 90.2919 12.7167 90.3572 12.642C90.4319 12.558 90.5206 12.5067 90.6232 12.488C90.7352 12.4693 90.8519 12.4927 90.9732 12.558C91.3372 12.7633 91.6872 12.908 92.0232 12.992C92.3592 13.0667 92.6906 13.104 93.0172 13.104C93.5119 13.104 93.8852 13.0153 94.1372 12.838C94.3892 12.6607 94.5152 12.4227 94.5152 12.124C94.5152 11.8813 94.4312 11.6947 94.2632 11.564C94.0952 11.424 93.8432 11.3167 93.5072 11.242L92.1772 10.976C91.5986 10.8547 91.1599 10.64 90.8612 10.332C90.5626 10.024 90.4132 9.632 90.4132 9.156C90.4132 8.72667 90.5299 8.35333 90.7632 8.036C90.9966 7.71867 91.3232 7.476 91.7432 7.308C92.1632 7.13067 92.6486 7.042 93.1992 7.042C93.6099 7.042 93.9972 7.09333 94.3612 7.196C94.7252 7.29867 95.0612 7.45267 95.3692 7.658C95.4906 7.72333 95.5699 7.812 95.6072 7.924C95.6446 8.02667 95.6492 8.12933 95.6212 8.232C95.6026 8.33467 95.5559 8.428 95.4812 8.512C95.4066 8.58667 95.3132 8.63333 95.2012 8.652C95.0986 8.66133 94.9819 8.63333 94.8512 8.568C94.5712 8.39067 94.2912 8.26467 94.0112 8.19C93.7406 8.11533 93.4699 8.078 93.1992 8.078C92.7046 8.078 92.3312 8.17133 92.0792 8.358C91.8366 8.53533 91.7152 8.778 91.7152 9.086C91.7152 9.31933 91.7899 9.51067 91.9392 9.66C92.0886 9.80933 92.3219 9.91667 92.6392 9.982L93.9692 10.248C94.5759 10.3693 95.0332 10.5747 95.3412 10.864C95.6586 11.1533 95.8172 11.5453 95.8172 12.04C95.8172 12.684 95.5606 13.1927 95.0472 13.566C94.5339 13.9393 93.8526 14.126 93.0032 14.126ZM102.02 14C101.768 14 101.572 13.9347 101.432 13.804C101.301 13.664 101.236 13.468 101.236 13.216V4.914C101.236 4.662 101.301 4.47067 101.432 4.34C101.572 4.2 101.768 4.13 102.02 4.13H107.13C107.326 4.13 107.475 4.18133 107.578 4.284C107.681 4.37733 107.732 4.51733 107.732 4.704C107.732 4.9 107.681 5.04933 107.578 5.152C107.475 5.25467 107.326 5.306 107.13 5.306H102.636V8.4H106.822C107.027 8.4 107.177 8.45133 107.27 8.554C107.373 8.65667 107.424 8.80133 107.424 8.988C107.424 9.184 107.373 9.33333 107.27 9.436C107.177 9.52933 107.027 9.576 106.822 9.576H102.636V12.824H107.13C107.326 12.824 107.475 12.8753 107.578 12.978C107.681 13.0807 107.732 13.2253 107.732 13.412C107.732 13.608 107.681 13.7573 107.578 13.86C107.475 13.9533 107.326 14 107.13 14H102.02ZM111.428 14.126C110.952 14.126 110.523 14.0327 110.14 13.846C109.767 13.6593 109.473 13.4073 109.258 13.09C109.043 12.7727 108.936 12.4133 108.936 12.012C108.936 11.508 109.062 11.1113 109.314 10.822C109.575 10.5233 110 10.3133 110.588 10.192C111.185 10.0613 111.988 9.996 112.996 9.996H113.654V10.864H113.01C112.338 10.864 111.806 10.8967 111.414 10.962C111.022 11.0273 110.742 11.1393 110.574 11.298C110.415 11.4473 110.336 11.6573 110.336 11.928C110.336 12.2827 110.457 12.572 110.7 12.796C110.943 13.0107 111.279 13.118 111.708 13.118C112.053 13.118 112.357 13.0387 112.618 12.88C112.879 12.712 113.085 12.488 113.234 12.208C113.393 11.928 113.472 11.606 113.472 11.242V9.632C113.472 9.1 113.36 8.71733 113.136 8.484C112.912 8.25067 112.543 8.134 112.03 8.134C111.731 8.134 111.419 8.17133 111.092 8.246C110.775 8.32067 110.443 8.44667 110.098 8.624C109.939 8.69867 109.804 8.722 109.692 8.694C109.58 8.666 109.491 8.60533 109.426 8.512C109.361 8.40933 109.323 8.302 109.314 8.19C109.314 8.06867 109.342 7.952 109.398 7.84C109.463 7.728 109.571 7.644 109.72 7.588C110.131 7.392 110.537 7.252 110.938 7.168C111.339 7.084 111.717 7.042 112.072 7.042C112.697 7.042 113.211 7.14 113.612 7.336C114.023 7.532 114.326 7.83067 114.522 8.232C114.718 8.63333 114.816 9.15133 114.816 9.786V13.384C114.816 13.608 114.76 13.7853 114.648 13.916C114.536 14.0373 114.373 14.098 114.158 14.098C113.953 14.098 113.789 14.0373 113.668 13.916C113.547 13.7853 113.486 13.608 113.486 13.384V12.474H113.612C113.537 12.8193 113.397 13.118 113.192 13.37C112.996 13.6127 112.749 13.7993 112.45 13.93C112.151 14.0607 111.811 14.126 111.428 14.126ZM117.478 14.098C117.244 14.098 117.067 14.0373 116.946 13.916C116.824 13.7853 116.764 13.608 116.764 13.384V7.784C116.764 7.55067 116.824 7.37333 116.946 7.252C117.067 7.13067 117.235 7.07 117.45 7.07C117.674 7.07 117.842 7.13067 117.954 7.252C118.075 7.37333 118.136 7.55067 118.136 7.784V8.806H117.996C118.145 8.246 118.42 7.82133 118.822 7.532C119.223 7.24267 119.736 7.07467 120.362 7.028C120.53 7.01867 120.66 7.06067 120.754 7.154C120.856 7.24733 120.912 7.392 120.922 7.588C120.94 7.784 120.898 7.94267 120.796 8.064C120.693 8.176 120.534 8.24133 120.32 8.26L120.054 8.288C119.447 8.344 118.985 8.53533 118.668 8.862C118.35 9.18867 118.192 9.63667 118.192 10.206V13.384C118.192 13.608 118.131 13.7853 118.01 13.916C117.898 14.0373 117.72 14.098 117.478 14.098ZM122.686 14.098C122.462 14.098 122.29 14.0373 122.168 13.916C122.047 13.7853 121.986 13.608 121.986 13.384V7.784C121.986 7.55067 122.047 7.37333 122.168 7.252C122.29 7.13067 122.458 7.07 122.672 7.07C122.896 7.07 123.064 7.13067 123.176 7.252C123.298 7.37333 123.358 7.55067 123.358 7.784V8.876L123.204 8.624C123.41 8.10133 123.732 7.70933 124.17 7.448C124.609 7.17733 125.113 7.042 125.682 7.042C126.224 7.042 126.672 7.14467 127.026 7.35C127.39 7.546 127.661 7.84933 127.838 8.26C128.016 8.66133 128.104 9.17 128.104 9.786V13.384C128.104 13.608 128.044 13.7853 127.922 13.916C127.801 14.0373 127.628 14.098 127.404 14.098C127.171 14.098 126.994 14.0373 126.872 13.916C126.751 13.7853 126.69 13.608 126.69 13.384V9.87C126.69 9.282 126.574 8.85267 126.34 8.582C126.116 8.31133 125.762 8.176 125.276 8.176C124.707 8.176 124.25 8.35333 123.904 8.708C123.568 9.06267 123.4 9.53867 123.4 10.136V13.384C123.4 13.86 123.162 14.098 122.686 14.098ZM133.259 14.126C132.512 14.126 131.868 13.986 131.327 13.706C130.795 13.4167 130.379 13.0107 130.081 12.488C129.791 11.956 129.647 11.326 129.647 10.598C129.647 9.88867 129.791 9.268 130.081 8.736C130.37 8.204 130.767 7.78867 131.271 7.49C131.775 7.19133 132.349 7.042 132.993 7.042C133.469 7.042 133.893 7.12133 134.267 7.28C134.64 7.42933 134.957 7.65333 135.219 7.952C135.489 8.24133 135.69 8.596 135.821 9.016C135.961 9.436 136.031 9.90733 136.031 10.43C136.031 10.5887 135.984 10.71 135.891 10.794C135.797 10.8687 135.657 10.906 135.471 10.906H130.767V10.038H135.079L134.841 10.234C134.841 9.76733 134.771 9.37067 134.631 9.044C134.5 8.71733 134.299 8.47 134.029 8.302C133.767 8.12467 133.441 8.036 133.049 8.036C132.61 8.036 132.237 8.13867 131.929 8.344C131.63 8.54933 131.401 8.834 131.243 9.198C131.084 9.562 131.005 9.98667 131.005 10.472V10.556C131.005 11.3773 131.196 11.998 131.579 12.418C131.971 12.8287 132.535 13.034 133.273 13.034C133.553 13.034 133.847 12.9967 134.155 12.922C134.472 12.8473 134.771 12.7213 135.051 12.544C135.209 12.4507 135.349 12.4087 135.471 12.418C135.601 12.4273 135.704 12.4693 135.779 12.544C135.863 12.6187 135.914 12.712 135.933 12.824C135.951 12.936 135.933 13.0527 135.877 13.174C135.821 13.286 135.723 13.3887 135.583 13.482C135.265 13.6967 134.897 13.86 134.477 13.972C134.057 14.0747 133.651 14.126 133.259 14.126ZM140.176 14.126C139.579 14.126 139.051 13.986 138.594 13.706C138.146 13.4167 137.796 13.006 137.544 12.474C137.292 11.9327 137.166 11.3027 137.166 10.584C137.166 9.84667 137.292 9.21667 137.544 8.694C137.796 8.17133 138.146 7.76533 138.594 7.476C139.051 7.18667 139.579 7.042 140.176 7.042C140.773 7.042 141.287 7.19133 141.716 7.49C142.155 7.77933 142.449 8.17133 142.598 8.666H142.444V4.746C142.444 4.51267 142.505 4.33533 142.626 4.214C142.747 4.09267 142.92 4.032 143.144 4.032C143.368 4.032 143.541 4.09267 143.662 4.214C143.793 4.33533 143.858 4.51267 143.858 4.746V13.384C143.858 13.608 143.797 13.7853 143.676 13.916C143.555 14.0373 143.382 14.098 143.158 14.098C142.934 14.098 142.761 14.0373 142.64 13.916C142.519 13.7853 142.458 13.608 142.458 13.384V12.152L142.612 12.46C142.463 12.964 142.169 13.37 141.73 13.678C141.301 13.9767 140.783 14.126 140.176 14.126ZM140.54 13.034C140.923 13.034 141.259 12.9407 141.548 12.754C141.837 12.5673 142.061 12.292 142.22 11.928C142.388 11.564 142.472 11.116 142.472 10.584C142.472 9.78133 142.295 9.17467 141.94 8.764C141.585 8.35333 141.119 8.148 140.54 8.148C140.148 8.148 139.807 8.24133 139.518 8.428C139.229 8.60533 139 8.876 138.832 9.24C138.673 9.604 138.594 10.052 138.594 10.584C138.594 11.3773 138.771 11.984 139.126 12.404C139.481 12.824 139.952 13.034 140.54 13.034Z" fill="#151414"/>
<g filter="url(#filter0_dd_243_3280)">
<rect x="12" y="32" width="156.264" height="164" rx="17.1467" fill="white"/>
</g>
<g filter="url(#filter1_d_243_3280)">
<path d="M85.3845 60.7517C87.717 58.3219 91.6058 58.3219 93.9383 60.7517C95.3893 62.2633 97.5318 62.8963 99.5711 62.4149C102.833 61.645 106.093 63.7866 106.749 67.0731C107.16 69.133 108.626 70.8567 110.603 71.5669C113.768 72.7041 115.361 76.265 114.148 79.4022C113.388 81.3673 113.702 83.6154 114.982 85.2887C117.034 87.9712 116.491 91.8285 113.766 93.824C112.069 95.0672 111.145 97.138 111.326 99.2343C111.613 102.576 109.089 105.552 105.74 105.742C103.646 105.861 101.761 107.09 100.792 108.95C99.2413 111.927 95.5107 113.047 92.5969 111.381C90.7781 110.34 88.5446 110.34 86.7258 111.381C83.8121 113.047 80.0815 111.927 78.5307 108.95C77.5618 107.09 75.6765 105.861 73.5826 105.742C70.2342 105.552 67.7094 102.576 67.997 99.2343C68.1774 97.138 67.2541 95.0672 65.5566 93.824C62.8319 91.8285 62.2886 87.9712 64.3405 85.2887C65.6205 83.6154 65.9345 81.3673 65.1748 79.4022C63.9621 76.265 65.5546 72.7041 68.72 71.5669C70.6968 70.8567 72.1629 69.133 72.5738 67.0731C73.2294 63.7866 76.4901 61.645 79.7517 62.4149C81.7909 62.8963 83.9335 62.2633 85.3845 60.7517Z" fill="url(#paint0_linear_243_3280)"/>
<path d="M85.3845 60.7517C87.717 58.3219 91.6058 58.3219 93.9383 60.7517C95.3893 62.2633 97.5318 62.8963 99.5711 62.4149C102.833 61.645 106.093 63.7866 106.749 67.0731C107.16 69.133 108.626 70.8567 110.603 71.5669C113.768 72.7041 115.361 76.265 114.148 79.4022C113.388 81.3673 113.702 83.6154 114.982 85.2887C117.034 87.9712 116.491 91.8285 113.766 93.824C112.069 95.0672 111.145 97.138 111.326 99.2343C111.613 102.576 109.089 105.552 105.74 105.742C103.646 105.861 101.761 107.09 100.792 108.95C99.2412 111.927 95.5107 113.047 92.5969 111.381C90.7781 110.34 88.5446 110.34 86.7258 111.381C83.8121 113.047 80.0815 111.927 78.5307 108.95C77.5618 107.09 75.6765 105.861 73.5826 105.742C70.2342 105.552 67.7094 102.576 67.997 99.2343C68.1774 97.138 67.2541 95.0672 65.5566 93.824C62.8319 91.8285 62.2886 87.9712 64.3405 85.2887C65.6205 83.6154 65.9345 81.3673 65.1748 79.4022C63.9621 76.265 65.5546 72.7041 68.72 71.5669C70.6968 70.8567 72.1629 69.133 72.5738 67.0731C73.2294 63.7866 76.4901 61.645 79.7517 62.4149C81.7909 62.8963 83.9335 62.2633 85.3845 60.7517Z" fill="url(#paint1_linear_243_3280)" fill-opacity="0.1"/>
<path opacity="0.8" d="M86.34 89.6451L82.4701 85.7355C82.2618 85.5245 81.9789 85.4059 81.6839 85.4059C81.3889 85.4059 81.106 85.5245 80.8977 85.7355C80.4627 86.1749 80.4627 86.8847 80.8977 87.3241L85.5593 92.0337C85.9943 92.4731 86.6969 92.4731 87.1318 92.0337L98.9309 80.1133C99.3659 79.6738 99.3659 78.964 98.9309 78.5246C98.7226 78.3136 98.4397 78.1951 98.1447 78.1951C97.8497 78.1951 97.5668 78.3136 97.3585 78.5246L86.34 89.6451Z" fill="white" stroke="#FDFDFD" stroke-width="1.13221"/>
<path d="M89.6616 67.8264C89.6616 66.6652 90.6055 65.7125 91.7606 65.8319C95.381 66.2058 98.8496 67.5423 101.798 69.7198C105.312 72.3153 107.901 75.9689 109.185 80.1444C110.47 84.3199 110.382 88.7972 108.934 92.9189C107.487 97.0407 104.756 100.59 101.143 103.045C97.5295 105.501 93.2243 106.733 88.8591 106.561C84.4939 106.39 80.2987 104.823 76.8894 102.092C73.4802 99.3601 71.0364 95.6076 69.9169 91.3849C68.9778 87.8422 69.0122 84.1252 69.9974 80.6215C70.3117 79.5035 71.5449 78.9766 72.6247 79.4042C73.7044 79.8317 74.2186 81.0521 73.9342 82.178C73.2626 84.8368 73.2733 87.6345 73.9819 90.3072C74.8709 93.6606 76.8115 96.6406 79.5189 98.8098C82.2263 100.979 85.5578 102.223 89.0243 102.359C92.4908 102.496 95.9097 101.517 98.7791 99.567C101.648 97.6171 103.817 94.7987 104.967 91.5255C106.116 88.2523 106.186 84.6967 105.166 81.3809C104.146 78.0651 102.09 75.1636 99.2991 73.1025C97.075 71.4597 94.4777 70.4197 91.7585 70.0652C90.6069 69.9151 89.6616 68.9877 89.6616 67.8264Z" fill="white" fill-opacity="0.5"/>
<path d="M48.0834 135.487C47.7965 135.487 47.5744 135.408 47.417 135.251C47.2689 135.084 47.1949 134.857 47.1949 134.57V126.393C47.1949 126.097 47.2689 125.87 47.417 125.713C47.5744 125.555 47.7965 125.477 48.0834 125.477C48.3704 125.477 48.5879 125.555 48.736 125.713C48.8933 125.87 48.972 126.097 48.972 126.393V134.57C48.972 134.857 48.8979 135.084 48.7498 135.251C48.6018 135.408 48.3796 135.487 48.0834 135.487ZM51.8289 135.487C51.5512 135.487 51.3383 135.413 51.1902 135.265C51.0421 135.107 50.9681 134.885 50.9681 134.598V129.35C50.9681 129.063 51.0421 128.846 51.1902 128.698C51.3383 128.55 51.5466 128.476 51.815 128.476C52.0834 128.476 52.2917 128.55 52.4398 128.698C52.5878 128.846 52.6619 129.063 52.6619 129.35V130.294L52.5092 129.947C52.7128 129.457 53.0275 129.086 53.4533 128.837C53.8883 128.577 54.3788 128.448 54.9249 128.448C55.471 128.448 55.9199 128.55 56.2716 128.753C56.6233 128.957 56.8871 129.267 57.063 129.683C57.2389 130.091 57.3268 130.609 57.3268 131.238V134.598C57.3268 134.885 57.2527 135.107 57.1046 135.265C56.9566 135.413 56.7437 135.487 56.466 135.487C56.1883 135.487 55.9708 135.413 55.8135 135.265C55.6654 135.107 55.5913 134.885 55.5913 134.598V131.322C55.5913 130.794 55.4895 130.41 55.2859 130.169C55.0915 129.929 54.7861 129.808 54.3696 129.808C53.8605 129.808 53.4533 129.97 53.1478 130.294C52.8516 130.609 52.7035 131.03 52.7035 131.558V134.598C52.7035 135.191 52.412 135.487 51.8289 135.487ZM61.7921 135.487C61.5607 135.487 61.3571 135.427 61.1812 135.306C61.0146 135.186 60.8758 135.001 60.7647 134.751L58.5572 129.628C58.4739 129.424 58.4415 129.235 58.4601 129.059C58.4878 128.883 58.5711 128.744 58.71 128.642C58.858 128.531 59.057 128.476 59.307 128.476C59.5198 128.476 59.6911 128.526 59.8206 128.628C59.9502 128.721 60.0659 128.901 60.1677 129.17L62.042 133.849H61.6255L63.5553 129.156C63.6571 128.897 63.7728 128.721 63.9024 128.628C64.0413 128.526 64.2264 128.476 64.4578 128.476C64.6614 128.476 64.8234 128.531 64.9437 128.642C65.064 128.744 65.1381 128.883 65.1658 129.059C65.1936 129.225 65.1612 129.41 65.0686 129.614L62.8195 134.751C62.7177 135.001 62.5789 135.186 62.403 135.306C62.2364 135.427 62.0328 135.487 61.7921 135.487ZM69.5965 135.515C68.8282 135.515 68.1664 135.371 67.6111 135.084C67.0558 134.797 66.6254 134.39 66.3199 133.862C66.0237 133.335 65.8756 132.71 65.8756 131.988C65.8756 131.285 66.0191 130.669 66.306 130.142C66.6022 129.614 67.0048 129.202 67.5139 128.906C68.0322 128.601 68.62 128.448 69.2771 128.448C69.7584 128.448 70.1888 128.526 70.5683 128.684C70.957 128.841 71.2856 129.068 71.554 129.364C71.8317 129.66 72.04 130.021 72.1788 130.447C72.3269 130.864 72.4009 131.336 72.4009 131.863C72.4009 132.03 72.3408 132.159 72.2205 132.252C72.1094 132.335 71.9474 132.377 71.7345 132.377H67.2779V131.377H71.1792L70.957 131.586C70.957 131.16 70.8923 130.803 70.7627 130.516C70.6423 130.23 70.4619 130.012 70.2212 129.864C69.9898 129.707 69.6983 129.628 69.3465 129.628C68.9578 129.628 68.6246 129.72 68.3469 129.906C68.0785 130.081 67.8703 130.336 67.7222 130.669C67.5833 130.993 67.5139 131.382 67.5139 131.835V131.933C67.5139 132.692 67.6898 133.261 68.0415 133.64C68.4025 134.011 68.93 134.196 69.6242 134.196C69.8649 134.196 70.1333 134.168 70.4295 134.112C70.7349 134.048 71.0218 133.941 71.2903 133.793C71.4846 133.682 71.6559 133.636 71.8039 133.654C71.952 133.663 72.0677 133.714 72.151 133.807C72.2436 133.899 72.2991 134.015 72.3176 134.154C72.3361 134.284 72.3084 134.418 72.2343 134.557C72.1695 134.695 72.0538 134.816 71.8872 134.918C71.5633 135.121 71.1884 135.274 70.7627 135.376C70.3462 135.468 69.9574 135.515 69.5965 135.515ZM76.282 135.515C75.884 135.515 75.4628 135.473 75.0186 135.39C74.5743 135.306 74.1763 135.163 73.8246 134.959C73.6765 134.867 73.57 134.76 73.5052 134.64C73.4497 134.51 73.4266 134.385 73.4358 134.265C73.4543 134.135 73.5006 134.024 73.5747 133.932C73.658 133.839 73.7598 133.779 73.8801 133.751C74.0097 133.724 74.1485 133.747 74.2966 133.821C74.6668 133.997 75.0139 134.122 75.3379 134.196C75.6618 134.26 75.9812 134.293 76.2958 134.293C76.7401 134.293 77.0687 134.219 77.2816 134.071C77.5037 133.913 77.6148 133.71 77.6148 133.46C77.6148 133.247 77.5407 133.085 77.3927 132.974C77.2538 132.854 77.0409 132.766 76.754 132.71L75.3656 132.446C74.7918 132.335 74.3521 132.127 74.0467 131.822C73.7505 131.507 73.6024 131.104 73.6024 130.614C73.6024 130.169 73.7228 129.785 73.9634 129.461C74.2133 129.137 74.5558 128.887 74.9908 128.712C75.4258 128.536 75.9256 128.448 76.4902 128.448C76.8975 128.448 77.277 128.494 77.6287 128.587C77.9896 128.67 78.3367 128.804 78.6699 128.989C78.8088 129.063 78.9013 129.161 78.9476 129.281C79.0032 129.401 79.017 129.526 78.9893 129.656C78.9615 129.776 78.906 129.887 78.8227 129.989C78.7394 130.081 78.6329 130.142 78.5033 130.169C78.383 130.188 78.2442 130.16 78.0868 130.086C77.7999 129.938 77.5222 129.832 77.2538 129.767C76.9947 129.702 76.7448 129.67 76.5041 129.67C76.0506 129.67 75.7127 129.748 75.4906 129.906C75.2777 130.063 75.1713 130.271 75.1713 130.53C75.1713 130.725 75.2361 130.887 75.3656 131.016C75.4952 131.146 75.6942 131.234 75.9626 131.28L77.351 131.544C77.9526 131.655 78.4062 131.859 78.7116 132.155C79.0263 132.451 79.1836 132.849 79.1836 133.349C79.1836 134.024 78.9198 134.557 78.3923 134.945C77.8647 135.325 77.1613 135.515 76.282 135.515ZM83.6395 135.515C83.0379 135.515 82.5335 135.413 82.1262 135.209C81.7282 135.006 81.432 134.709 81.2377 134.321C81.0433 133.923 80.9461 133.432 80.9461 132.849V129.892H80.2242C80.002 129.892 79.8308 129.836 79.7105 129.725C79.5902 129.605 79.53 129.443 79.53 129.239C79.53 129.026 79.5902 128.864 79.7105 128.753C79.8308 128.642 80.002 128.587 80.2242 128.587H80.9461V127.323C80.9461 127.036 81.0202 126.819 81.1683 126.671C81.3256 126.523 81.5431 126.449 81.8208 126.449C82.0985 126.449 82.3113 126.523 82.4594 126.671C82.6075 126.819 82.6816 127.036 82.6816 127.323V128.587H84.1532C84.3754 128.587 84.5466 128.642 84.6669 128.753C84.7872 128.864 84.8474 129.026 84.8474 129.239C84.8474 129.443 84.7872 129.605 84.6669 129.725C84.5466 129.836 84.3754 129.892 84.1532 129.892H82.6816V132.752C82.6816 133.196 82.7788 133.529 82.9731 133.751C83.1675 133.973 83.4822 134.085 83.9172 134.085C84.0746 134.085 84.2134 134.071 84.3337 134.043C84.454 134.015 84.5605 133.997 84.653 133.987C84.7641 133.978 84.8567 134.015 84.9307 134.098C85.0048 134.172 85.0418 134.33 85.0418 134.57C85.0418 134.756 85.0094 134.922 84.9446 135.07C84.8891 135.209 84.7826 135.306 84.6253 135.362C84.5049 135.399 84.3476 135.431 84.1532 135.459C83.9589 135.496 83.7876 135.515 83.6395 135.515ZM86.9165 135.473C86.6388 135.473 86.426 135.39 86.2779 135.223C86.1298 135.056 86.0557 134.825 86.0557 134.529V129.434C86.0557 129.128 86.1298 128.897 86.2779 128.739C86.426 128.573 86.6388 128.489 86.9165 128.489C87.1942 128.489 87.4071 128.573 87.5552 128.739C87.7125 128.897 87.7912 129.128 87.7912 129.434V134.529C87.7912 134.825 87.7171 135.056 87.569 135.223C87.421 135.39 87.2034 135.473 86.9165 135.473ZM86.9165 127.198C86.5926 127.198 86.338 127.12 86.1529 126.962C85.9771 126.796 85.8891 126.569 85.8891 126.282C85.8891 125.986 85.9771 125.759 86.1529 125.602C86.338 125.444 86.5926 125.366 86.9165 125.366C87.2497 125.366 87.5043 125.444 87.6801 125.602C87.856 125.759 87.9439 125.986 87.9439 126.282C87.9439 126.569 87.856 126.796 87.6801 126.962C87.5043 127.12 87.2497 127.198 86.9165 127.198ZM90.4767 135.487C90.199 135.487 89.9861 135.413 89.8381 135.265C89.69 135.107 89.6159 134.885 89.6159 134.598V129.35C89.6159 129.063 89.69 128.846 89.8381 128.698C89.9861 128.55 90.1944 128.476 90.4628 128.476C90.7312 128.476 90.9395 128.55 91.0876 128.698C91.2357 128.846 91.3097 129.063 91.3097 129.35V130.294L91.157 129.947C91.3606 129.457 91.6753 129.086 92.1011 128.837C92.5361 128.577 93.0267 128.448 93.5727 128.448C94.1188 128.448 94.5677 128.55 94.9195 128.753C95.2712 128.957 95.535 129.267 95.7108 129.683C95.8867 130.091 95.9746 130.609 95.9746 131.238V134.598C95.9746 134.885 95.9006 135.107 95.7525 135.265C95.6044 135.413 95.3915 135.487 95.1138 135.487C94.8361 135.487 94.6186 135.413 94.4613 135.265C94.3132 135.107 94.2392 134.885 94.2392 134.598V131.322C94.2392 130.794 94.1373 130.41 93.9337 130.169C93.7393 129.929 93.4339 129.808 93.0174 129.808C92.5083 129.808 92.1011 129.97 91.7956 130.294C91.4995 130.609 91.3514 131.03 91.3514 131.558V134.598C91.3514 135.191 91.0598 135.487 90.4767 135.487ZM100.924 138.014C100.424 138.014 99.9385 137.967 99.4665 137.875C99.0037 137.782 98.5825 137.639 98.2031 137.444C98.0272 137.352 97.9069 137.241 97.8421 137.111C97.7865 136.982 97.768 136.847 97.7865 136.709C97.8143 136.579 97.8698 136.463 97.9531 136.361C98.0457 136.26 98.1568 136.19 98.2864 136.153C98.4159 136.116 98.5501 136.135 98.689 136.209C99.0962 136.412 99.4803 136.542 99.8413 136.597C100.212 136.662 100.526 136.695 100.785 136.695C101.406 136.695 101.868 136.542 102.174 136.237C102.488 135.94 102.646 135.496 102.646 134.904V133.654H102.771C102.632 134.126 102.34 134.506 101.896 134.793C101.461 135.07 100.966 135.209 100.411 135.209C99.7997 135.209 99.2675 135.07 98.8139 134.793C98.3604 134.506 98.0087 134.108 97.7588 133.599C97.5089 133.09 97.3839 132.497 97.3839 131.822C97.3839 131.312 97.4533 130.854 97.5922 130.447C97.7403 130.031 97.9439 129.674 98.2031 129.378C98.4715 129.082 98.7908 128.855 99.161 128.698C99.5405 128.531 99.957 128.448 100.411 128.448C100.984 128.448 101.484 128.591 101.91 128.878C102.345 129.156 102.627 129.526 102.757 129.989L102.618 130.336V129.35C102.618 129.063 102.692 128.846 102.84 128.698C102.998 128.55 103.21 128.476 103.479 128.476C103.756 128.476 103.969 128.55 104.117 128.698C104.266 128.846 104.34 129.063 104.34 129.35V134.695C104.34 135.797 104.048 136.625 103.465 137.181C102.882 137.736 102.035 138.014 100.924 138.014ZM100.883 133.89C101.244 133.89 101.554 133.807 101.813 133.64C102.072 133.474 102.271 133.238 102.41 132.932C102.558 132.618 102.632 132.247 102.632 131.822C102.632 131.183 102.475 130.683 102.16 130.322C101.845 129.952 101.419 129.767 100.883 129.767C100.522 129.767 100.212 129.85 99.9524 130.017C99.6932 130.183 99.4896 130.419 99.3415 130.725C99.2027 131.03 99.1333 131.396 99.1333 131.822C99.1333 132.46 99.2906 132.965 99.6053 133.335C99.92 133.705 100.346 133.89 100.883 133.89ZM111.213 135.376C110.973 135.376 110.783 135.311 110.644 135.181C110.515 135.043 110.45 134.857 110.45 134.626C110.45 134.385 110.515 134.205 110.644 134.085C110.783 133.964 110.973 133.904 111.213 133.904H112.768V127.087H113.629L111.588 128.323C111.412 128.425 111.246 128.466 111.088 128.448C110.94 128.42 110.811 128.355 110.7 128.253C110.598 128.142 110.528 128.013 110.491 127.865C110.454 127.717 110.464 127.569 110.519 127.42C110.584 127.263 110.704 127.134 110.88 127.032L112.796 125.879C112.981 125.768 113.166 125.676 113.351 125.602C113.537 125.518 113.708 125.477 113.865 125.477C114.059 125.477 114.221 125.532 114.351 125.643C114.481 125.745 114.545 125.916 114.545 126.157V133.904H115.962C116.202 133.904 116.387 133.964 116.517 134.085C116.656 134.205 116.725 134.385 116.725 134.626C116.725 134.867 116.656 135.052 116.517 135.181C116.387 135.311 116.202 135.376 115.962 135.376H111.213ZM121.559 135.515C120.402 135.515 119.518 135.08 118.907 134.21C118.296 133.33 117.991 132.081 117.991 130.461C117.991 129.369 118.125 128.452 118.393 127.712C118.671 126.962 119.074 126.398 119.601 126.018C120.138 125.639 120.791 125.449 121.559 125.449C122.725 125.449 123.609 125.875 124.211 126.726C124.821 127.578 125.127 128.818 125.127 130.447C125.127 131.53 124.988 132.451 124.71 133.21C124.442 133.96 124.044 134.533 123.516 134.931C122.989 135.32 122.336 135.515 121.559 135.515ZM121.559 134.057C122.188 134.057 122.651 133.765 122.947 133.182C123.253 132.599 123.405 131.687 123.405 130.447C123.405 129.207 123.253 128.309 122.947 127.754C122.651 127.189 122.188 126.907 121.559 126.907C120.939 126.907 120.476 127.189 120.17 127.754C119.865 128.309 119.712 129.207 119.712 130.447C119.712 131.687 119.865 132.599 120.17 133.182C120.476 133.765 120.939 134.057 121.559 134.057ZM127.906 135.376C127.665 135.376 127.475 135.311 127.337 135.181C127.207 135.043 127.142 134.857 127.142 134.626C127.142 134.385 127.207 134.205 127.337 134.085C127.475 133.964 127.665 133.904 127.906 133.904H129.461V127.087H130.322L128.281 128.323C128.105 128.425 127.938 128.466 127.781 128.448C127.633 128.42 127.503 128.355 127.392 128.253C127.29 128.142 127.221 128.013 127.184 127.865C127.147 127.717 127.156 127.569 127.212 127.42C127.276 127.263 127.397 127.134 127.573 127.032L129.489 125.879C129.674 125.768 129.859 125.676 130.044 125.602C130.229 125.518 130.4 125.477 130.558 125.477C130.752 125.477 130.914 125.532 131.043 125.643C131.173 125.745 131.238 125.916 131.238 126.157V133.904H132.654C132.895 133.904 133.08 133.964 133.209 134.085C133.348 134.205 133.418 134.385 133.418 134.626C133.418 134.867 133.348 135.052 133.209 135.181C133.08 135.311 132.895 135.376 132.654 135.376H127.906Z" fill="black"/>
</g>
<rect x="33.6931" y="146.54" width="113.354" height="35.3545" rx="13.8836" fill="#CBCBCB" fill-opacity="0.59"/>
<path d="M44.5203 168.217C44.2882 168.217 44.1076 168.157 43.9787 168.036C43.8583 167.907 43.7981 167.727 43.7981 167.495V159.847C43.7981 159.615 43.8583 159.439 43.9787 159.318C44.1076 159.189 44.2882 159.125 44.5203 159.125H47.5898C48.2174 159.125 48.7505 159.219 49.189 159.408C49.6361 159.598 49.9757 159.868 50.2078 160.221C50.4485 160.573 50.5689 160.999 50.5689 161.498C50.5689 162.048 50.4056 162.512 50.0788 162.891C49.7521 163.269 49.3093 163.523 48.7505 163.651V163.458C49.3867 163.544 49.8854 163.785 50.2465 164.18C50.6076 164.567 50.7882 165.074 50.7882 165.702C50.7882 166.51 50.5216 167.134 49.9886 167.572C49.4555 168.002 48.7075 168.217 47.7445 168.217H44.5203ZM45.0878 167.185H47.5898C48.2346 167.185 48.7118 167.061 49.0213 166.811C49.3308 166.553 49.4856 166.166 49.4856 165.65C49.4856 165.135 49.3308 164.752 49.0213 164.503C48.7118 164.253 48.2346 164.129 47.5898 164.129H45.0878V167.185ZM45.0878 163.097H47.3834C48.0025 163.097 48.471 162.972 48.7892 162.723C49.1073 162.474 49.2663 162.108 49.2663 161.627C49.2663 161.145 49.1073 160.78 48.7892 160.53C48.471 160.281 48.0025 160.156 47.3834 160.156H45.0878V163.097ZM53.1264 168.307C52.9115 168.307 52.7481 168.251 52.6364 168.14C52.5246 168.019 52.4687 167.856 52.4687 167.649V162.491C52.4687 162.276 52.5246 162.112 52.6364 162.001C52.7481 161.889 52.9029 161.833 53.1006 161.833C53.307 161.833 53.4617 161.889 53.5649 162.001C53.6767 162.112 53.7326 162.276 53.7326 162.491V163.432H53.6036C53.7412 162.916 53.9948 162.525 54.3645 162.259C54.7342 161.992 55.2071 161.837 55.7832 161.794C55.9379 161.786 56.0583 161.824 56.1443 161.91C56.2388 161.996 56.2904 162.13 56.299 162.31C56.3162 162.491 56.2775 162.637 56.183 162.749C56.0884 162.852 55.9422 162.912 55.7445 162.929L55.4994 162.955C54.9406 163.007 54.515 163.183 54.2227 163.484C53.9303 163.785 53.7842 164.197 53.7842 164.722V167.649C53.7842 167.856 53.7283 168.019 53.6165 168.14C53.5133 168.251 53.35 168.307 53.1264 168.307ZM59.9472 168.333C59.311 168.333 58.7607 168.2 58.2965 167.933C57.8408 167.667 57.484 167.288 57.226 166.798C56.9681 166.308 56.8391 165.732 56.8391 165.07C56.8391 164.563 56.9122 164.111 57.0584 163.716C57.2045 163.32 57.4109 162.981 57.6774 162.697C57.9525 162.405 58.2793 162.186 58.6576 162.039C59.0445 161.885 59.4744 161.807 59.9472 161.807C60.5749 161.807 61.1165 161.941 61.5722 162.207C62.0365 162.474 62.3976 162.852 62.6556 163.342C62.9135 163.823 63.0425 164.399 63.0425 165.07C63.0425 165.569 62.9694 166.02 62.8232 166.424C62.677 166.828 62.4664 167.172 62.1913 167.456C61.9247 167.74 61.598 167.959 61.2111 168.114C60.8328 168.26 60.4115 168.333 59.9472 168.333ZM59.9472 167.327C60.2997 167.327 60.6093 167.241 60.8758 167.069C61.1423 166.897 61.3487 166.644 61.4948 166.308C61.6496 165.973 61.727 165.56 61.727 165.07C61.727 164.331 61.5636 163.772 61.2369 163.394C60.9102 163.015 60.4803 162.826 59.9472 162.826C59.5861 162.826 59.2723 162.912 59.0058 163.084C58.7392 163.247 58.5286 163.497 58.3738 163.832C58.2277 164.167 58.1546 164.58 58.1546 165.07C58.1546 165.801 58.3179 166.36 58.6447 166.747C58.9714 167.134 59.4056 167.327 59.9472 167.327ZM65.1717 168.307C64.9653 168.307 64.8063 168.251 64.6945 168.14C64.5827 168.019 64.5268 167.856 64.5268 167.649V162.491C64.5268 162.276 64.5827 162.112 64.6945 162.001C64.8063 161.889 64.961 161.833 65.1588 161.833C65.3651 161.833 65.5199 161.889 65.623 162.001C65.7348 162.112 65.7907 162.276 65.7907 162.491V163.497L65.6488 163.265C65.838 162.783 66.1346 162.422 66.5387 162.181C66.9428 161.932 67.4071 161.807 67.9316 161.807C68.4302 161.807 68.8429 161.902 69.1697 162.091C69.505 162.272 69.7543 162.551 69.9177 162.929C70.081 163.299 70.1627 163.768 70.1627 164.335V167.649C70.1627 167.856 70.1068 168.019 69.995 168.14C69.8833 168.251 69.7242 168.307 69.5179 168.307C69.3029 168.307 69.1396 168.251 69.0278 168.14C68.916 168.019 68.8601 167.856 68.8601 167.649V164.412C68.8601 163.871 68.7527 163.475 68.5377 163.226C68.3314 162.977 68.0046 162.852 67.5576 162.852C67.0331 162.852 66.6118 163.015 66.2937 163.342C65.9842 163.669 65.8294 164.107 65.8294 164.657V167.649C65.8294 168.088 65.6102 168.307 65.1717 168.307ZM72.2241 168.217C72.0865 168.217 71.9748 168.187 71.8888 168.127C71.8028 168.058 71.7426 167.972 71.7082 167.869C71.6824 167.757 71.6824 167.641 71.7082 167.52C71.7426 167.392 71.8114 167.271 71.9146 167.159L75.4225 162.607V162.929H72.1467C71.9834 162.929 71.8587 162.886 71.7727 162.8C71.6867 162.706 71.6437 162.581 71.6437 162.426C71.6437 162.263 71.6867 162.138 71.7727 162.052C71.8587 161.966 71.9834 161.923 72.1467 161.923H76.0415C76.2049 161.923 76.3339 161.958 76.4284 162.026C76.5316 162.095 76.5961 162.181 76.6219 162.284C76.6563 162.388 76.6606 162.499 76.6348 162.62C76.609 162.74 76.5445 162.856 76.4413 162.968L72.8818 167.572V167.224H76.3253C76.6692 167.224 76.8411 167.387 76.8411 167.714C76.8411 167.869 76.7938 167.993 76.6993 168.088C76.6133 168.174 76.4886 168.217 76.3253 168.217H72.2241ZM80.8607 168.333C80.1729 168.333 79.5796 168.204 79.081 167.946C78.5909 167.68 78.2083 167.306 77.9332 166.824C77.6666 166.334 77.5334 165.754 77.5334 165.083C77.5334 164.43 77.6666 163.858 77.9332 163.368C78.1997 162.878 78.5651 162.495 79.0294 162.22C79.4937 161.945 80.0224 161.807 80.6157 161.807C81.0542 161.807 81.4454 161.88 81.7893 162.026C82.1332 162.164 82.4255 162.37 82.6663 162.646C82.9156 162.912 83.1005 163.239 83.2208 163.626C83.3498 164.013 83.4143 164.447 83.4143 164.928C83.4143 165.074 83.3713 165.186 83.2853 165.264C83.1993 165.332 83.0704 165.367 82.8984 165.367H78.5651V164.567H82.5373L82.3181 164.748C82.3181 164.318 82.2536 163.952 82.1246 163.651C82.0042 163.351 81.8194 163.123 81.57 162.968C81.3293 162.805 81.0284 162.723 80.6673 162.723C80.2632 162.723 79.9193 162.817 79.6355 163.007C79.3604 163.196 79.1498 163.458 79.0036 163.793C78.8574 164.129 78.7843 164.52 78.7843 164.967V165.044C78.7843 165.801 78.9606 166.373 79.3131 166.76C79.6742 167.138 80.1944 167.327 80.8736 167.327C81.1316 167.327 81.4024 167.293 81.6861 167.224C81.9784 167.155 82.2536 167.039 82.5115 166.876C82.6577 166.79 82.7866 166.751 82.8984 166.76C83.0188 166.768 83.1134 166.807 83.1821 166.876C83.2595 166.944 83.3068 167.03 83.324 167.134C83.3412 167.237 83.324 167.344 83.2724 167.456C83.2208 167.559 83.1305 167.654 83.0016 167.74C82.7093 167.937 82.3696 168.088 81.9827 168.191C81.5958 168.286 81.2218 168.333 80.8607 168.333ZM92.4951 168.333C91.5751 168.333 90.7884 168.144 90.135 167.766C89.4815 167.387 88.9786 166.85 88.626 166.153C88.2821 165.448 88.1102 164.619 88.1102 163.664C88.1102 162.951 88.209 162.31 88.4068 161.743C88.6045 161.167 88.8883 160.677 89.258 160.273C89.6363 159.86 90.0963 159.546 90.6379 159.331C91.1882 159.116 91.8072 159.009 92.4951 159.009C93.0023 159.009 93.4881 159.077 93.9524 159.215C94.4253 159.353 94.8337 159.55 95.1776 159.808C95.3238 159.903 95.4183 160.019 95.4613 160.156C95.5129 160.285 95.5215 160.41 95.4871 160.53C95.4613 160.651 95.4054 160.754 95.3195 160.84C95.2335 160.917 95.1217 160.96 94.9841 160.969C94.8552 160.978 94.7133 160.93 94.5585 160.827C94.2748 160.612 93.961 160.453 93.6171 160.35C93.2732 160.247 92.9121 160.195 92.5338 160.195C91.8803 160.195 91.3301 160.333 90.883 160.608C90.4359 160.874 90.0963 161.266 89.8641 161.781C89.632 162.297 89.5159 162.925 89.5159 163.664C89.5159 164.404 89.632 165.036 89.8641 165.56C90.0963 166.076 90.4359 166.472 90.883 166.747C91.3301 167.013 91.8803 167.146 92.5338 167.146C92.9121 167.146 93.2732 167.095 93.6171 166.992C93.9696 166.88 94.3006 166.717 94.6101 166.502C94.7649 166.407 94.9025 166.364 95.0228 166.373C95.1518 166.381 95.2593 166.424 95.3452 166.502C95.4312 166.579 95.4871 166.678 95.5129 166.798C95.5473 166.91 95.543 167.03 95.5 167.159C95.4656 167.28 95.3839 167.383 95.255 167.469C94.9025 167.753 94.4855 167.968 94.004 168.114C93.5225 168.26 93.0195 168.333 92.4951 168.333ZM99.5147 168.333C98.8268 168.333 98.2336 168.204 97.7349 167.946C97.2448 167.68 96.8622 167.306 96.5871 166.824C96.3206 166.334 96.1873 165.754 96.1873 165.083C96.1873 164.43 96.3206 163.858 96.5871 163.368C96.8536 162.878 97.219 162.495 97.6833 162.22C98.1476 161.945 98.6764 161.807 99.2696 161.807C99.7081 161.807 100.099 161.88 100.443 162.026C100.787 162.164 101.079 162.37 101.32 162.646C101.57 162.912 101.754 163.239 101.875 163.626C102.004 164.013 102.068 164.447 102.068 164.928C102.068 165.074 102.025 165.186 101.939 165.264C101.853 165.332 101.724 165.367 101.552 165.367H97.219V164.567H101.191L100.972 164.748C100.972 164.318 100.908 163.952 100.779 163.651C100.658 163.351 100.473 163.123 100.224 162.968C99.9832 162.805 99.6823 162.723 99.3212 162.723C98.9171 162.723 98.5732 162.817 98.2895 163.007C98.0143 163.196 97.8037 163.458 97.6575 163.793C97.5114 164.129 97.4383 164.52 97.4383 164.967V165.044C97.4383 165.801 97.6145 166.373 97.967 166.76C98.3282 167.138 98.8483 167.327 99.5276 167.327C99.7855 167.327 100.056 167.293 100.34 167.224C100.632 167.155 100.908 167.039 101.165 166.876C101.312 166.79 101.441 166.751 101.552 166.76C101.673 166.768 101.767 166.807 101.836 166.876C101.913 166.944 101.961 167.03 101.978 167.134C101.995 167.237 101.978 167.344 101.926 167.456C101.875 167.559 101.784 167.654 101.656 167.74C101.363 167.937 101.024 168.088 100.637 168.191C100.25 168.286 99.8758 168.333 99.5147 168.333ZM104.167 168.307C103.953 168.307 103.789 168.251 103.677 168.14C103.566 168.019 103.51 167.856 103.51 167.649V162.491C103.51 162.276 103.566 162.112 103.677 162.001C103.789 161.889 103.944 161.833 104.142 161.833C104.348 161.833 104.503 161.889 104.606 162.001C104.718 162.112 104.774 162.276 104.774 162.491V163.432H104.645C104.782 162.916 105.036 162.525 105.406 162.259C105.775 161.992 106.248 161.837 106.824 161.794C106.979 161.786 107.099 161.824 107.185 161.91C107.28 161.996 107.331 162.13 107.34 162.31C107.357 162.491 107.319 162.637 107.224 162.749C107.129 162.852 106.983 162.912 106.786 162.929L106.54 162.955C105.982 163.007 105.556 163.183 105.264 163.484C104.971 163.785 104.825 164.197 104.825 164.722V167.649C104.825 167.856 104.769 168.019 104.658 168.14C104.554 168.251 104.391 168.307 104.167 168.307ZM111.378 168.333C110.862 168.333 110.427 168.243 110.075 168.062C109.722 167.882 109.46 167.615 109.288 167.263C109.116 166.91 109.03 166.48 109.03 165.973V162.929H108.257C108.085 162.929 107.951 162.886 107.857 162.8C107.762 162.706 107.715 162.581 107.715 162.426C107.715 162.263 107.762 162.138 107.857 162.052C107.951 161.966 108.085 161.923 108.257 161.923H109.03V160.595C109.03 160.38 109.086 160.217 109.198 160.105C109.318 159.993 109.482 159.937 109.688 159.937C109.894 159.937 110.053 159.993 110.165 160.105C110.277 160.217 110.333 160.38 110.333 160.595V161.923H111.842C112.014 161.923 112.147 161.966 112.242 162.052C112.336 162.138 112.383 162.263 112.383 162.426C112.383 162.581 112.336 162.706 112.242 162.8C112.147 162.886 112.014 162.929 111.842 162.929H110.333V165.87C110.333 166.325 110.427 166.669 110.617 166.901C110.814 167.134 111.132 167.25 111.571 167.25C111.726 167.25 111.859 167.237 111.971 167.211C112.091 167.177 112.19 167.155 112.267 167.146C112.362 167.146 112.439 167.181 112.5 167.25C112.56 167.31 112.59 167.43 112.59 167.611C112.59 167.74 112.564 167.86 112.512 167.972C112.469 168.084 112.388 168.157 112.267 168.191C112.164 168.226 112.022 168.256 111.842 168.281C111.67 168.316 111.515 168.333 111.378 168.333ZM114.185 168.294C113.979 168.294 113.82 168.234 113.708 168.114C113.596 167.985 113.54 167.809 113.54 167.585V162.555C113.54 162.332 113.596 162.16 113.708 162.039C113.82 161.919 113.979 161.859 114.185 161.859C114.391 161.859 114.55 161.919 114.662 162.039C114.783 162.16 114.843 162.332 114.843 162.555V167.585C114.843 167.809 114.787 167.985 114.675 168.114C114.563 168.234 114.4 168.294 114.185 168.294ZM114.185 160.518C113.927 160.518 113.725 160.453 113.579 160.324C113.441 160.195 113.373 160.015 113.373 159.782C113.373 159.542 113.441 159.361 113.579 159.241C113.725 159.112 113.927 159.047 114.185 159.047C114.443 159.047 114.641 159.112 114.778 159.241C114.924 159.361 114.997 159.542 114.997 159.782C114.997 160.015 114.924 160.195 114.778 160.324C114.641 160.453 114.443 160.518 114.185 160.518ZM117.729 168.307C117.523 168.307 117.36 168.251 117.239 168.14C117.128 168.019 117.072 167.856 117.072 167.649V162.929H116.349C116.186 162.929 116.057 162.886 115.963 162.8C115.868 162.706 115.821 162.581 115.821 162.426C115.821 162.263 115.868 162.138 115.963 162.052C116.057 161.966 116.186 161.923 116.349 161.923H117.446L117.072 162.272V161.807C117.072 160.956 117.282 160.316 117.704 159.886C118.125 159.447 118.74 159.189 119.548 159.112L119.948 159.086C120.094 159.069 120.21 159.09 120.296 159.151C120.382 159.211 120.438 159.288 120.464 159.383C120.489 159.477 120.489 159.576 120.464 159.679C120.446 159.774 120.403 159.86 120.335 159.937C120.266 160.015 120.18 160.058 120.077 160.066L119.832 160.079C119.324 160.122 118.955 160.268 118.722 160.518C118.49 160.758 118.374 161.128 118.374 161.627V162.13L118.194 161.923H119.625C119.806 161.923 119.939 161.966 120.025 162.052C120.12 162.138 120.167 162.263 120.167 162.426C120.167 162.581 120.12 162.706 120.025 162.8C119.939 162.886 119.806 162.929 119.625 162.929H118.374V167.649C118.374 168.088 118.159 168.307 117.729 168.307ZM121.835 168.294C121.629 168.294 121.47 168.234 121.358 168.114C121.246 167.985 121.19 167.809 121.19 167.585V162.555C121.19 162.332 121.246 162.16 121.358 162.039C121.47 161.919 121.629 161.859 121.835 161.859C122.041 161.859 122.2 161.919 122.312 162.039C122.433 162.16 122.493 162.332 122.493 162.555V167.585C122.493 167.809 122.437 167.985 122.325 168.114C122.213 168.234 122.05 168.294 121.835 168.294ZM121.835 160.518C121.577 160.518 121.375 160.453 121.229 160.324C121.091 160.195 121.023 160.015 121.023 159.782C121.023 159.542 121.091 159.361 121.229 159.241C121.375 159.112 121.577 159.047 121.835 159.047C122.093 159.047 122.291 159.112 122.428 159.241C122.574 159.361 122.648 159.542 122.648 159.782C122.648 160.015 122.574 160.195 122.428 160.324C122.291 160.453 122.093 160.518 121.835 160.518ZM127.301 168.333C126.613 168.333 126.02 168.204 125.521 167.946C125.031 167.68 124.649 167.306 124.374 166.824C124.107 166.334 123.974 165.754 123.974 165.083C123.974 164.43 124.107 163.858 124.374 163.368C124.64 162.878 125.005 162.495 125.47 162.22C125.934 161.945 126.463 161.807 127.056 161.807C127.495 161.807 127.886 161.88 128.23 162.026C128.574 162.164 128.866 162.37 129.107 162.646C129.356 162.912 129.541 163.239 129.661 163.626C129.79 164.013 129.855 164.447 129.855 164.928C129.855 165.074 129.812 165.186 129.726 165.264C129.64 165.332 129.511 165.367 129.339 165.367H125.005V164.567H128.978L128.758 164.748C128.758 164.318 128.694 163.952 128.565 163.651C128.445 163.351 128.26 163.123 128.01 162.968C127.77 162.805 127.469 162.723 127.108 162.723C126.704 162.723 126.36 162.817 126.076 163.007C125.801 163.196 125.59 163.458 125.444 163.793C125.298 164.129 125.225 164.52 125.225 164.967V165.044C125.225 165.801 125.401 166.373 125.753 166.76C126.115 167.138 126.635 167.327 127.314 167.327C127.572 167.327 127.843 167.293 128.126 167.224C128.419 167.155 128.694 167.039 128.952 166.876C129.098 166.79 129.227 166.751 129.339 166.76C129.459 166.768 129.554 166.807 129.623 166.876C129.7 166.944 129.747 167.03 129.764 167.134C129.782 167.237 129.764 167.344 129.713 167.456C129.661 167.559 129.571 167.654 129.442 167.74C129.15 167.937 128.81 168.088 128.423 168.191C128.036 168.286 127.662 168.333 127.301 168.333ZM133.695 168.333C133.145 168.333 132.659 168.204 132.238 167.946C131.825 167.68 131.503 167.301 131.27 166.811C131.038 166.312 130.922 165.732 130.922 165.07C130.922 164.391 131.038 163.811 131.27 163.329C131.503 162.848 131.825 162.474 132.238 162.207C132.659 161.941 133.145 161.807 133.695 161.807C134.245 161.807 134.718 161.945 135.114 162.22C135.518 162.486 135.789 162.848 135.926 163.303H135.784V159.692C135.784 159.477 135.84 159.314 135.952 159.202C136.064 159.09 136.223 159.034 136.429 159.034C136.635 159.034 136.795 159.09 136.906 159.202C137.027 159.314 137.087 159.477 137.087 159.692V167.649C137.087 167.856 137.031 168.019 136.919 168.14C136.807 168.251 136.648 168.307 136.442 168.307C136.236 168.307 136.077 168.251 135.965 168.14C135.853 168.019 135.797 167.856 135.797 167.649V166.515L135.939 166.798C135.801 167.263 135.531 167.637 135.127 167.92C134.731 168.195 134.254 168.333 133.695 168.333ZM134.03 167.327C134.383 167.327 134.692 167.241 134.959 167.069C135.225 166.897 135.432 166.644 135.578 166.308C135.733 165.973 135.81 165.56 135.81 165.07C135.81 164.331 135.647 163.772 135.32 163.394C134.993 163.015 134.563 162.826 134.03 162.826C133.669 162.826 133.355 162.912 133.089 163.084C132.822 163.247 132.612 163.497 132.457 163.832C132.311 164.167 132.238 164.58 132.238 165.07C132.238 165.801 132.401 166.36 132.728 166.747C133.054 167.134 133.489 167.327 134.03 167.327Z" fill="#3C3D3E" fill-opacity="0.64"/>
<g filter="url(#filter2_dd_243_3280)">
<rect x="184.264" y="32" width="156.264" height="164" rx="17.1467" fill="white"/>
<path d="M228.355 135.487C228.095 135.487 227.896 135.413 227.758 135.265C227.619 135.117 227.549 134.913 227.549 134.654V126.31C227.549 126.041 227.623 125.838 227.771 125.699C227.92 125.551 228.123 125.477 228.382 125.477C228.614 125.477 228.794 125.523 228.924 125.616C229.063 125.699 229.188 125.847 229.299 126.06L232.728 132.405H232.284L235.713 126.06C235.824 125.847 235.944 125.699 236.074 125.616C236.203 125.523 236.384 125.477 236.615 125.477C236.874 125.477 237.073 125.551 237.212 125.699C237.351 125.838 237.421 126.041 237.421 126.31V134.654C237.421 134.913 237.351 135.117 237.212 135.265C237.083 135.413 236.884 135.487 236.615 135.487C236.356 135.487 236.157 135.413 236.018 135.265C235.88 135.117 235.81 134.913 235.81 134.654V128.226H236.116L233.2 133.543C233.107 133.7 233.01 133.816 232.908 133.89C232.807 133.964 232.668 134.001 232.492 134.001C232.316 134.001 232.173 133.964 232.062 133.89C231.95 133.807 231.853 133.691 231.77 133.543L228.827 128.212H229.16V134.654C229.16 134.913 229.09 135.117 228.952 135.265C228.822 135.413 228.623 135.487 228.355 135.487ZM242.526 135.515C241.822 135.515 241.211 135.371 240.693 135.084C240.175 134.797 239.772 134.39 239.485 133.862C239.198 133.326 239.055 132.696 239.055 131.974C239.055 131.428 239.134 130.942 239.291 130.516C239.457 130.081 239.693 129.711 239.999 129.406C240.304 129.091 240.67 128.855 241.096 128.698C241.522 128.531 241.998 128.448 242.526 128.448C243.229 128.448 243.84 128.591 244.358 128.878C244.877 129.165 245.279 129.572 245.566 130.1C245.853 130.628 245.997 131.252 245.997 131.974C245.997 132.52 245.913 133.011 245.747 133.446C245.589 133.881 245.358 134.256 245.053 134.57C244.747 134.876 244.382 135.112 243.956 135.279C243.53 135.436 243.053 135.515 242.526 135.515ZM242.526 134.196C242.868 134.196 243.169 134.112 243.428 133.946C243.687 133.779 243.886 133.534 244.025 133.21C244.173 132.877 244.247 132.465 244.247 131.974C244.247 131.234 244.09 130.683 243.775 130.322C243.461 129.952 243.044 129.767 242.526 129.767C242.183 129.767 241.882 129.85 241.623 130.017C241.364 130.174 241.161 130.419 241.012 130.752C240.874 131.076 240.804 131.484 240.804 131.974C240.804 132.705 240.962 133.261 241.276 133.64C241.591 134.011 242.007 134.196 242.526 134.196ZM248.311 135.487C248.034 135.487 247.821 135.413 247.673 135.265C247.525 135.107 247.451 134.885 247.451 134.598V129.35C247.451 129.063 247.525 128.846 247.673 128.698C247.821 128.55 248.029 128.476 248.297 128.476C248.566 128.476 248.774 128.55 248.922 128.698C249.07 128.846 249.144 129.063 249.144 129.35V130.294L248.992 129.947C249.195 129.457 249.51 129.086 249.936 128.837C250.371 128.577 250.861 128.448 251.407 128.448C251.953 128.448 252.402 128.55 252.754 128.753C253.106 128.957 253.37 129.267 253.545 129.683C253.721 130.091 253.809 130.609 253.809 131.238V134.598C253.809 134.885 253.735 135.107 253.587 135.265C253.439 135.413 253.226 135.487 252.948 135.487C252.671 135.487 252.453 135.413 252.296 135.265C252.148 135.107 252.074 134.885 252.074 134.598V131.322C252.074 130.794 251.972 130.41 251.768 130.169C251.574 129.929 251.269 129.808 250.852 129.808C250.343 129.808 249.936 129.97 249.63 130.294C249.334 130.609 249.186 131.03 249.186 131.558V134.598C249.186 135.191 248.894 135.487 248.311 135.487ZM258.939 135.515C258.171 135.515 257.509 135.371 256.954 135.084C256.399 134.797 255.968 134.39 255.663 133.862C255.367 133.335 255.219 132.71 255.219 131.988C255.219 131.285 255.362 130.669 255.649 130.142C255.945 129.614 256.348 129.202 256.857 128.906C257.375 128.601 257.963 128.448 258.62 128.448C259.101 128.448 259.532 128.526 259.911 128.684C260.3 128.841 260.629 129.068 260.897 129.364C261.175 129.66 261.383 130.021 261.522 130.447C261.67 130.864 261.744 131.336 261.744 131.863C261.744 132.03 261.684 132.159 261.563 132.252C261.452 132.335 261.29 132.377 261.077 132.377H256.621V131.377H260.522L260.3 131.586C260.3 131.16 260.235 130.803 260.106 130.516C259.985 130.23 259.805 130.012 259.564 129.864C259.333 129.707 259.041 129.628 258.689 129.628C258.301 129.628 257.967 129.72 257.69 129.906C257.421 130.081 257.213 130.336 257.065 130.669C256.926 130.993 256.857 131.382 256.857 131.835V131.933C256.857 132.692 257.033 133.261 257.384 133.64C257.745 134.011 258.273 134.196 258.967 134.196C259.208 134.196 259.476 134.168 259.772 134.112C260.078 134.048 260.365 133.941 260.633 133.793C260.828 133.682 260.999 133.636 261.147 133.654C261.295 133.663 261.411 133.714 261.494 133.807C261.586 133.899 261.642 134.015 261.661 134.154C261.679 134.284 261.651 134.418 261.577 134.557C261.512 134.695 261.397 134.816 261.23 134.918C260.906 135.121 260.531 135.274 260.106 135.376C259.689 135.468 259.3 135.515 258.939 135.515ZM264.753 137.986C264.549 137.986 264.383 137.93 264.253 137.819C264.123 137.717 264.045 137.579 264.017 137.403C263.998 137.227 264.031 137.042 264.114 136.847L265.058 134.751V135.473L262.531 129.628C262.448 129.424 262.42 129.235 262.448 129.059C262.476 128.883 262.559 128.744 262.698 128.642C262.846 128.531 263.045 128.476 263.295 128.476C263.508 128.476 263.679 128.526 263.809 128.628C263.938 128.721 264.054 128.901 264.156 129.17L266.03 133.849H265.614L267.53 129.156C267.631 128.897 267.752 128.721 267.89 128.628C268.029 128.526 268.214 128.476 268.446 128.476C268.649 128.476 268.811 128.531 268.932 128.642C269.052 128.744 269.126 128.883 269.154 129.059C269.182 129.225 269.149 129.41 269.057 129.614L265.683 137.319C265.563 137.579 265.433 137.754 265.294 137.847C265.155 137.94 264.975 137.986 264.753 137.986ZM275.415 135.376C275.174 135.376 274.984 135.311 274.845 135.181C274.716 135.043 274.651 134.857 274.651 134.626C274.651 134.385 274.716 134.205 274.845 134.085C274.984 133.964 275.174 133.904 275.415 133.904H276.97V127.087H277.83L275.79 128.323C275.614 128.425 275.447 128.466 275.29 128.448C275.142 128.42 275.012 128.355 274.901 128.253C274.799 128.142 274.73 128.013 274.693 127.865C274.656 127.717 274.665 127.569 274.72 127.42C274.785 127.263 274.906 127.134 275.081 127.032L276.997 125.879C277.183 125.768 277.368 125.676 277.553 125.602C277.738 125.518 277.909 125.477 278.066 125.477C278.261 125.477 278.423 125.532 278.552 125.643C278.682 125.745 278.747 125.916 278.747 126.157V133.904H280.163C280.404 133.904 280.589 133.964 280.718 134.085C280.857 134.205 280.926 134.385 280.926 134.626C280.926 134.867 280.857 135.052 280.718 135.181C280.589 135.311 280.404 135.376 280.163 135.376H275.415ZM285.76 135.515C284.603 135.515 283.719 135.08 283.108 134.21C282.498 133.33 282.192 132.081 282.192 130.461C282.192 129.369 282.326 128.452 282.595 127.712C282.872 126.962 283.275 126.398 283.803 126.018C284.339 125.639 284.992 125.449 285.76 125.449C286.926 125.449 287.81 125.875 288.412 126.726C289.023 127.578 289.328 128.818 289.328 130.447C289.328 131.53 289.189 132.451 288.912 133.21C288.643 133.96 288.245 134.533 287.718 134.931C287.19 135.32 286.538 135.515 285.76 135.515ZM285.76 134.057C286.39 134.057 286.852 133.765 287.149 133.182C287.454 132.599 287.607 131.687 287.607 130.447C287.607 129.207 287.454 128.309 287.149 127.754C286.852 127.189 286.39 126.907 285.76 126.907C285.14 126.907 284.677 127.189 284.372 127.754C284.066 128.309 283.914 129.207 283.914 130.447C283.914 131.687 284.066 132.599 284.372 133.182C284.677 133.765 285.14 134.057 285.76 134.057ZM292.107 135.376C291.866 135.376 291.677 135.311 291.538 135.181C291.408 135.043 291.344 134.857 291.344 134.626C291.344 134.385 291.408 134.205 291.538 134.085C291.677 133.964 291.866 133.904 292.107 133.904H293.662V127.087H294.523L292.482 128.323C292.306 128.425 292.14 128.466 291.982 128.448C291.834 128.42 291.705 128.355 291.593 128.253C291.492 128.142 291.422 128.013 291.385 127.865C291.348 127.717 291.357 127.569 291.413 127.42C291.478 127.263 291.598 127.134 291.774 127.032L293.69 125.879C293.875 125.768 294.06 125.676 294.245 125.602C294.43 125.518 294.602 125.477 294.759 125.477C294.953 125.477 295.115 125.532 295.245 125.643C295.374 125.745 295.439 125.916 295.439 126.157V133.904H296.855C297.096 133.904 297.281 133.964 297.411 134.085C297.55 134.205 297.619 134.385 297.619 134.626C297.619 134.867 297.55 135.052 297.411 135.181C297.281 135.311 297.096 135.376 296.855 135.376H292.107Z" fill="black"/>
</g>
<path d="M257.649 60.752C259.981 58.3221 263.87 58.3221 266.202 60.752C267.653 62.2636 269.796 62.8965 271.835 62.4152C275.097 61.6452 278.357 63.7868 279.013 67.0733C279.424 69.1333 280.89 70.8569 282.867 71.5671C286.032 72.7043 287.625 76.2653 286.412 79.4025C285.652 81.3676 285.966 83.6156 287.246 85.289C289.298 87.9714 288.755 91.8287 286.03 93.8242C284.333 95.0675 283.409 97.1382 283.59 99.2346C283.877 102.576 281.353 105.553 278.004 105.743C275.91 105.861 274.025 107.09 273.056 108.95C271.505 111.927 267.775 113.047 264.861 111.381C263.042 110.341 260.809 110.341 258.99 111.381C256.076 113.047 252.346 111.927 250.795 108.95C249.826 107.09 247.941 105.861 245.847 105.743C242.498 105.553 239.974 102.576 240.261 99.2346C240.442 97.1382 239.518 95.0675 237.821 93.8242C235.096 91.8287 234.553 87.9714 236.605 85.289C237.885 83.6156 238.199 81.3676 237.439 79.4025C236.226 76.2653 237.819 72.7043 240.984 71.5671C242.961 70.8569 244.427 69.1333 244.838 67.0733C245.493 63.7868 248.754 61.6452 252.016 62.4152C254.055 62.8965 256.198 62.2636 257.649 60.752Z" fill="url(#paint2_linear_243_3280)"/>
<path d="M257.649 60.752C259.981 58.3221 263.87 58.3221 266.202 60.752C267.653 62.2636 269.796 62.8965 271.835 62.4152C275.097 61.6452 278.357 63.7868 279.013 67.0733C279.424 69.1333 280.89 70.8569 282.867 71.5671C286.032 72.7043 287.625 76.2653 286.412 79.4025C285.652 81.3676 285.966 83.6156 287.246 85.289C289.298 87.9714 288.755 91.8287 286.03 93.8242C284.333 95.0675 283.409 97.1382 283.59 99.2346C283.877 102.576 281.353 105.553 278.004 105.743C275.91 105.861 274.025 107.09 273.056 108.95C271.505 111.927 267.775 113.047 264.861 111.381C263.042 110.341 260.809 110.341 258.99 111.381C256.076 113.047 252.346 111.927 250.795 108.95C249.826 107.09 247.941 105.861 245.847 105.743C242.498 105.553 239.974 102.576 240.261 99.2346C240.442 97.1382 239.518 95.0675 237.821 93.8242C235.096 91.8287 234.553 87.9714 236.605 85.289C237.885 83.6156 238.199 81.3676 237.439 79.4025C236.226 76.2653 237.819 72.7043 240.984 71.5671C242.961 70.8569 244.427 69.1333 244.838 67.0733C245.493 63.7868 248.754 61.6452 252.016 62.4152C254.055 62.8965 256.198 62.2636 257.649 60.752Z" fill="black" fill-opacity="0.1"/>
<path d="M257.649 60.752C259.981 58.3221 263.87 58.3221 266.202 60.752C267.653 62.2636 269.796 62.8965 271.835 62.4152C275.097 61.6452 278.357 63.7868 279.013 67.0733C279.424 69.1333 280.89 70.8569 282.867 71.5671C286.032 72.7043 287.625 76.2653 286.412 79.4025C285.652 81.3676 285.966 83.6156 287.246 85.289C289.298 87.9714 288.755 91.8287 286.03 93.8242C284.333 95.0675 283.409 97.1382 283.59 99.2346C283.877 102.576 281.353 105.553 278.004 105.743C275.91 105.861 274.025 107.09 273.056 108.95C271.505 111.927 267.775 113.047 264.861 111.381C263.042 110.341 260.809 110.341 258.99 111.381C256.076 113.047 252.346 111.927 250.795 108.95C249.826 107.09 247.941 105.861 245.847 105.743C242.498 105.553 239.974 102.576 240.261 99.2346C240.442 97.1382 239.518 95.0675 237.821 93.8242C235.096 91.8287 234.553 87.9714 236.605 85.289C237.885 83.6156 238.199 81.3676 237.439 79.4025C236.226 76.2653 237.819 72.7043 240.984 71.5671C242.961 70.8569 244.427 69.1333 244.838 67.0733C245.493 63.7868 248.754 61.6452 252.016 62.4152C254.055 62.8965 256.198 62.2635 257.649 60.752Z" fill="url(#paint3_linear_243_3280)" fill-opacity="0.1"/>
<path opacity="0.8" d="M258.604 89.6454L254.734 85.7357C254.526 85.5247 254.243 85.4062 253.948 85.4062C253.653 85.4062 253.37 85.5247 253.162 85.7357C252.727 86.1751 252.727 86.885 253.162 87.3244L257.823 92.034C258.258 92.4734 258.961 92.4734 259.396 92.034L271.195 80.1135C271.63 79.6741 271.63 78.9643 271.195 78.5249C270.987 78.3139 270.704 78.1953 270.409 78.1953C270.114 78.1953 269.831 78.3139 269.622 78.5249L258.604 89.6454Z" fill="white" stroke="#FDFDFD" stroke-width="1.13221"/>
<path d="M261.926 67.8267C261.926 66.6654 262.869 65.7128 264.025 65.8321C267.645 66.2061 271.114 67.5425 274.062 69.72C277.576 72.3155 280.165 75.9692 281.449 80.1447C282.734 84.3201 282.646 88.7974 281.198 92.9192C279.751 97.041 277.02 100.59 273.407 103.046C269.793 105.501 265.488 106.733 261.123 106.562C256.758 106.39 252.563 104.823 249.153 102.092C245.744 99.3604 243.3 95.6078 242.181 91.3851C241.242 87.8424 241.276 84.1255 242.261 80.6217C242.576 79.5038 243.809 78.9769 244.889 79.4044C245.968 79.832 246.482 81.0523 246.198 82.1783C245.527 84.837 245.537 87.6347 246.246 90.3075C247.135 93.6608 249.075 96.6408 251.783 98.81C254.49 100.979 257.822 102.223 261.288 102.36C264.755 102.496 268.174 101.517 271.043 99.5673C273.912 97.6174 276.081 94.7989 277.23 91.5257C278.38 88.2525 278.45 84.697 277.43 81.3812C276.41 78.0653 274.354 75.1638 271.563 73.1027C269.339 71.4599 266.742 70.4199 264.022 70.0654C262.871 69.9153 261.926 68.988 261.926 67.8267Z" fill="white" fill-opacity="0.5"/>
<rect x="209.428" y="146.54" width="105.354" height="35.3545" rx="13.8836" fill="#CBCBCB" fill-opacity="0.59"/>
<path d="M222.462 168.333C222.066 168.333 221.679 168.303 221.301 168.243C220.923 168.183 220.566 168.092 220.231 167.972C219.895 167.843 219.594 167.688 219.328 167.508C219.199 167.413 219.109 167.306 219.057 167.185C219.014 167.065 219.001 166.949 219.018 166.837C219.044 166.717 219.096 166.613 219.173 166.527C219.25 166.441 219.345 166.39 219.457 166.373C219.569 166.347 219.693 166.381 219.831 166.476C220.218 166.725 220.626 166.91 221.056 167.03C221.486 167.142 221.955 167.198 222.462 167.198C223.193 167.198 223.73 167.069 224.074 166.811C224.426 166.545 224.603 166.201 224.603 165.779C224.603 165.436 224.478 165.165 224.229 164.967C223.979 164.761 223.562 164.597 222.978 164.477L221.598 164.193C220.781 164.021 220.17 163.737 219.766 163.342C219.371 162.946 219.173 162.413 219.173 161.743C219.173 161.339 219.255 160.969 219.418 160.634C219.59 160.298 219.827 160.01 220.127 159.77C220.428 159.52 220.79 159.331 221.211 159.202C221.632 159.073 222.092 159.009 222.591 159.009C223.124 159.009 223.622 159.077 224.087 159.215C224.56 159.353 224.981 159.563 225.351 159.847C225.462 159.924 225.536 160.023 225.57 160.144C225.613 160.255 225.621 160.367 225.596 160.479C225.579 160.591 225.531 160.685 225.454 160.763C225.376 160.84 225.278 160.887 225.157 160.904C225.037 160.913 224.904 160.87 224.757 160.775C224.422 160.552 224.078 160.393 223.726 160.298C223.382 160.195 222.999 160.144 222.578 160.144C222.157 160.144 221.787 160.208 221.469 160.337C221.159 160.466 220.918 160.647 220.747 160.879C220.583 161.111 220.501 161.386 220.501 161.704C220.501 162.065 220.618 162.353 220.85 162.568C221.082 162.783 221.469 162.946 222.01 163.058L223.377 163.342C224.237 163.523 224.878 163.802 225.299 164.18C225.72 164.559 225.931 165.062 225.931 165.689C225.931 166.093 225.849 166.459 225.686 166.785C225.523 167.103 225.29 167.379 224.99 167.611C224.689 167.843 224.323 168.023 223.893 168.152C223.472 168.273 222.995 168.333 222.462 168.333ZM227.978 168.294C227.772 168.294 227.613 168.234 227.501 168.114C227.389 167.985 227.333 167.809 227.333 167.585V162.555C227.333 162.332 227.389 162.16 227.501 162.039C227.613 161.919 227.772 161.859 227.978 161.859C228.185 161.859 228.344 161.919 228.455 162.039C228.576 162.16 228.636 162.332 228.636 162.555V167.585C228.636 167.809 228.58 167.985 228.468 168.114C228.357 168.234 228.193 168.294 227.978 168.294ZM227.978 160.518C227.72 160.518 227.518 160.453 227.372 160.324C227.234 160.195 227.166 160.015 227.166 159.782C227.166 159.542 227.234 159.361 227.372 159.241C227.518 159.112 227.72 159.047 227.978 159.047C228.236 159.047 228.434 159.112 228.571 159.241C228.718 159.361 228.791 159.542 228.791 159.782C228.791 160.015 228.718 160.195 228.571 160.324C228.434 160.453 228.236 160.518 227.978 160.518ZM232.516 168.333C231.845 168.333 231.338 168.14 230.994 167.753C230.659 167.357 230.491 166.79 230.491 166.05V159.692C230.491 159.477 230.547 159.314 230.659 159.202C230.77 159.09 230.929 159.034 231.136 159.034C231.342 159.034 231.501 159.09 231.613 159.202C231.733 159.314 231.793 159.477 231.793 159.692V165.973C231.793 166.403 231.879 166.725 232.051 166.94C232.232 167.146 232.49 167.25 232.825 167.25C232.903 167.25 232.971 167.25 233.032 167.25C233.092 167.241 233.152 167.232 233.212 167.224C233.315 167.215 233.388 167.245 233.431 167.314C233.474 167.374 233.496 167.503 233.496 167.701C233.496 167.882 233.457 168.023 233.38 168.127C233.302 168.221 233.178 168.281 233.006 168.307C232.928 168.316 232.847 168.32 232.761 168.32C232.675 168.329 232.593 168.333 232.516 168.333ZM236.741 168.307C236.56 168.307 236.401 168.26 236.264 168.165C236.135 168.071 236.027 167.925 235.941 167.727L233.787 162.723C233.719 162.568 233.693 162.422 233.71 162.284C233.727 162.147 233.792 162.039 233.904 161.962C234.015 161.876 234.166 161.833 234.355 161.833C234.518 161.833 234.647 161.872 234.742 161.949C234.836 162.026 234.922 162.16 235 162.349L236.947 167.146H236.586L238.572 162.349C238.65 162.16 238.736 162.026 238.83 161.949C238.933 161.872 239.075 161.833 239.256 161.833C239.41 161.833 239.531 161.876 239.617 161.962C239.711 162.039 239.767 162.147 239.784 162.284C239.81 162.413 239.789 162.555 239.72 162.71L237.54 167.727C237.463 167.925 237.356 168.071 237.218 168.165C237.08 168.26 236.921 168.307 236.741 168.307ZM243.865 168.333C243.177 168.333 242.584 168.204 242.085 167.946C241.595 167.68 241.213 167.306 240.938 166.824C240.671 166.334 240.538 165.754 240.538 165.083C240.538 164.43 240.671 163.858 240.938 163.368C241.204 162.878 241.569 162.495 242.034 162.22C242.498 161.945 243.027 161.807 243.62 161.807C244.059 161.807 244.45 161.88 244.794 162.026C245.138 162.164 245.43 162.37 245.671 162.646C245.92 162.912 246.105 163.239 246.225 163.626C246.354 164.013 246.419 164.447 246.419 164.928C246.419 165.074 246.376 165.186 246.29 165.264C246.204 165.332 246.075 165.367 245.903 165.367H241.569V164.567H245.542L245.322 164.748C245.322 164.318 245.258 163.952 245.129 163.651C245.009 163.351 244.824 163.123 244.574 162.968C244.334 162.805 244.033 162.723 243.672 162.723C243.268 162.723 242.924 162.817 242.64 163.007C242.365 163.196 242.154 163.458 242.008 163.793C241.862 164.129 241.789 164.52 241.789 164.967V165.044C241.789 165.801 241.965 166.373 242.317 166.76C242.679 167.138 243.199 167.327 243.878 167.327C244.136 167.327 244.407 167.293 244.69 167.224C244.983 167.155 245.258 167.039 245.516 166.876C245.662 166.79 245.791 166.751 245.903 166.76C246.023 166.768 246.118 166.807 246.186 166.876C246.264 166.944 246.311 167.03 246.328 167.134C246.346 167.237 246.328 167.344 246.277 167.456C246.225 167.559 246.135 167.654 246.006 167.74C245.714 167.937 245.374 168.088 244.987 168.191C244.6 168.286 244.226 168.333 243.865 168.333ZM248.518 168.307C248.303 168.307 248.14 168.251 248.028 168.14C247.916 168.019 247.86 167.856 247.86 167.649V162.491C247.86 162.276 247.916 162.112 248.028 162.001C248.14 161.889 248.294 161.833 248.492 161.833C248.698 161.833 248.853 161.889 248.956 162.001C249.068 162.112 249.124 162.276 249.124 162.491V163.432H248.995C249.133 162.916 249.386 162.525 249.756 162.259C250.126 161.992 250.599 161.837 251.175 161.794C251.329 161.786 251.45 161.824 251.536 161.91C251.63 161.996 251.682 162.13 251.691 162.31C251.708 162.491 251.669 162.637 251.574 162.749C251.48 162.852 251.334 162.912 251.136 162.929L250.891 162.955C250.332 163.007 249.906 163.183 249.614 163.484C249.322 163.785 249.176 164.197 249.176 164.722V167.649C249.176 167.856 249.12 168.019 249.008 168.14C248.905 168.251 248.741 168.307 248.518 168.307ZM260.332 168.333C259.412 168.333 258.625 168.144 257.972 167.766C257.318 167.387 256.816 166.85 256.463 166.153C256.119 165.448 255.947 164.619 255.947 163.664C255.947 162.951 256.046 162.31 256.244 161.743C256.441 161.167 256.725 160.677 257.095 160.273C257.473 159.86 257.933 159.546 258.475 159.331C259.025 159.116 259.644 159.009 260.332 159.009C260.839 159.009 261.325 159.077 261.789 159.215C262.262 159.353 262.671 159.55 263.015 159.808C263.161 159.903 263.255 160.019 263.298 160.156C263.35 160.285 263.358 160.41 263.324 160.53C263.298 160.651 263.242 160.754 263.156 160.84C263.07 160.917 262.959 160.96 262.821 160.969C262.692 160.978 262.55 160.93 262.395 160.827C262.112 160.612 261.798 160.453 261.454 160.35C261.11 160.247 260.749 160.195 260.371 160.195C259.717 160.195 259.167 160.333 258.72 160.608C258.273 160.874 257.933 161.266 257.701 161.781C257.469 162.297 257.353 162.925 257.353 163.664C257.353 164.404 257.469 165.036 257.701 165.56C257.933 166.076 258.273 166.472 258.72 166.747C259.167 167.013 259.717 167.146 260.371 167.146C260.749 167.146 261.11 167.095 261.454 166.992C261.807 166.88 262.138 166.717 262.447 166.502C262.602 166.407 262.739 166.364 262.86 166.373C262.989 166.381 263.096 166.424 263.182 166.502C263.268 166.579 263.324 166.678 263.35 166.798C263.384 166.91 263.38 167.03 263.337 167.159C263.303 167.28 263.221 167.383 263.092 167.469C262.739 167.753 262.322 167.968 261.841 168.114C261.359 168.26 260.856 168.333 260.332 168.333ZM267.352 168.333C266.664 168.333 266.071 168.204 265.572 167.946C265.082 167.68 264.699 167.306 264.424 166.824C264.158 166.334 264.024 165.754 264.024 165.083C264.024 164.43 264.158 163.858 264.424 163.368C264.691 162.878 265.056 162.495 265.52 162.22C265.985 161.945 266.513 161.807 267.107 161.807C267.545 161.807 267.936 161.88 268.28 162.026C268.624 162.164 268.916 162.37 269.157 162.646C269.406 162.912 269.591 163.239 269.712 163.626C269.841 164.013 269.905 164.447 269.905 164.928C269.905 165.074 269.862 165.186 269.776 165.264C269.69 165.332 269.561 165.367 269.389 165.367H265.056V164.567H269.028L268.809 164.748C268.809 164.318 268.744 163.952 268.615 163.651C268.495 163.351 268.31 163.123 268.061 162.968C267.82 162.805 267.519 162.723 267.158 162.723C266.754 162.723 266.41 162.817 266.126 163.007C265.851 163.196 265.641 163.458 265.494 163.793C265.348 164.129 265.275 164.52 265.275 164.967V165.044C265.275 165.801 265.451 166.373 265.804 166.76C266.165 167.138 266.685 167.327 267.365 167.327C267.622 167.327 267.893 167.293 268.177 167.224C268.469 167.155 268.744 167.039 269.002 166.876C269.149 166.79 269.278 166.751 269.389 166.76C269.51 166.768 269.604 166.807 269.673 166.876C269.75 166.944 269.798 167.03 269.815 167.134C269.832 167.237 269.815 167.344 269.763 167.456C269.712 167.559 269.621 167.654 269.492 167.74C269.2 167.937 268.861 168.088 268.474 168.191C268.087 168.286 267.713 168.333 267.352 168.333ZM272.004 168.307C271.789 168.307 271.626 168.251 271.514 168.14C271.403 168.019 271.347 167.856 271.347 167.649V162.491C271.347 162.276 271.403 162.112 271.514 162.001C271.626 161.889 271.781 161.833 271.979 161.833C272.185 161.833 272.34 161.889 272.443 162.001C272.555 162.112 272.611 162.276 272.611 162.491V163.432H272.482C272.619 162.916 272.873 162.525 273.243 162.259C273.612 161.992 274.085 161.837 274.661 161.794C274.816 161.786 274.936 161.824 275.022 161.91C275.117 161.996 275.168 162.13 275.177 162.31C275.194 162.491 275.156 162.637 275.061 162.749C274.966 162.852 274.82 162.912 274.622 162.929L274.377 162.955C273.819 163.007 273.393 163.183 273.101 163.484C272.808 163.785 272.662 164.197 272.662 164.722V167.649C272.662 167.856 272.606 168.019 272.495 168.14C272.391 168.251 272.228 168.307 272.004 168.307ZM279.214 168.333C278.699 168.333 278.264 168.243 277.912 168.062C277.559 167.882 277.297 167.615 277.125 167.263C276.953 166.91 276.867 166.48 276.867 165.973V162.929H276.093C275.921 162.929 275.788 162.886 275.694 162.8C275.599 162.706 275.552 162.581 275.552 162.426C275.552 162.263 275.599 162.138 275.694 162.052C275.788 161.966 275.921 161.923 276.093 161.923H276.867V160.595C276.867 160.38 276.923 160.217 277.035 160.105C277.155 159.993 277.319 159.937 277.525 159.937C277.731 159.937 277.89 159.993 278.002 160.105C278.114 160.217 278.17 160.38 278.17 160.595V161.923H279.679C279.851 161.923 279.984 161.966 280.079 162.052C280.173 162.138 280.22 162.263 280.22 162.426C280.22 162.581 280.173 162.706 280.079 162.8C279.984 162.886 279.851 162.929 279.679 162.929H278.17V165.87C278.17 166.325 278.264 166.669 278.454 166.901C278.651 167.134 278.969 167.25 279.408 167.25C279.563 167.25 279.696 167.237 279.808 167.211C279.928 167.177 280.027 167.155 280.104 167.146C280.199 167.146 280.276 167.181 280.336 167.25C280.397 167.31 280.427 167.43 280.427 167.611C280.427 167.74 280.401 167.86 280.349 167.972C280.306 168.084 280.225 168.157 280.104 168.191C280.001 168.226 279.859 168.256 279.679 168.281C279.507 168.316 279.352 168.333 279.214 168.333ZM282.022 168.294C281.816 168.294 281.657 168.234 281.545 168.114C281.433 167.985 281.377 167.809 281.377 167.585V162.555C281.377 162.332 281.433 162.16 281.545 162.039C281.657 161.919 281.816 161.859 282.022 161.859C282.228 161.859 282.387 161.919 282.499 162.039C282.62 162.16 282.68 162.332 282.68 162.555V167.585C282.68 167.809 282.624 167.985 282.512 168.114C282.4 168.234 282.237 168.294 282.022 168.294ZM282.022 160.518C281.764 160.518 281.562 160.453 281.416 160.324C281.278 160.195 281.209 160.015 281.209 159.782C281.209 159.542 281.278 159.361 281.416 159.241C281.562 159.112 281.764 159.047 282.022 159.047C282.28 159.047 282.478 159.112 282.615 159.241C282.761 159.361 282.834 159.542 282.834 159.782C282.834 160.015 282.761 160.195 282.615 160.324C282.478 160.453 282.28 160.518 282.022 160.518ZM285.566 168.307C285.36 168.307 285.197 168.251 285.076 168.14C284.965 168.019 284.909 167.856 284.909 167.649V162.929H284.186C284.023 162.929 283.894 162.886 283.8 162.8C283.705 162.706 283.658 162.581 283.658 162.426C283.658 162.263 283.705 162.138 283.8 162.052C283.894 161.966 284.023 161.923 284.186 161.923H285.283L284.909 162.272V161.807C284.909 160.956 285.119 160.316 285.541 159.886C285.962 159.447 286.577 159.189 287.385 159.112L287.785 159.086C287.931 159.069 288.047 159.09 288.133 159.151C288.219 159.211 288.275 159.288 288.3 159.383C288.326 159.477 288.326 159.576 288.3 159.679C288.283 159.774 288.24 159.86 288.172 159.937C288.103 160.015 288.017 160.058 287.914 160.066L287.669 160.079C287.161 160.122 286.792 160.268 286.559 160.518C286.327 160.758 286.211 161.128 286.211 161.627V162.13L286.031 161.923H287.462C287.643 161.923 287.776 161.966 287.862 162.052C287.957 162.138 288.004 162.263 288.004 162.426C288.004 162.581 287.957 162.706 287.862 162.8C287.776 162.886 287.643 162.929 287.462 162.929H286.211V167.649C286.211 168.088 285.996 168.307 285.566 168.307ZM289.672 168.294C289.466 168.294 289.307 168.234 289.195 168.114C289.083 167.985 289.027 167.809 289.027 167.585V162.555C289.027 162.332 289.083 162.16 289.195 162.039C289.307 161.919 289.466 161.859 289.672 161.859C289.878 161.859 290.037 161.919 290.149 162.039C290.27 162.16 290.33 162.332 290.33 162.555V167.585C290.33 167.809 290.274 167.985 290.162 168.114C290.05 168.234 289.887 168.294 289.672 168.294ZM289.672 160.518C289.414 160.518 289.212 160.453 289.066 160.324C288.928 160.195 288.86 160.015 288.86 159.782C288.86 159.542 288.928 159.361 289.066 159.241C289.212 159.112 289.414 159.047 289.672 159.047C289.93 159.047 290.128 159.112 290.265 159.241C290.411 159.361 290.485 159.542 290.485 159.782C290.485 160.015 290.411 160.195 290.265 160.324C290.128 160.453 289.93 160.518 289.672 160.518ZM295.138 168.333C294.45 168.333 293.857 168.204 293.358 167.946C292.868 167.68 292.486 167.306 292.21 166.824C291.944 166.334 291.811 165.754 291.811 165.083C291.811 164.43 291.944 163.858 292.21 163.368C292.477 162.878 292.842 162.495 293.307 162.22C293.771 161.945 294.3 161.807 294.893 161.807C295.332 161.807 295.723 161.88 296.067 162.026C296.411 162.164 296.703 162.37 296.944 162.646C297.193 162.912 297.378 163.239 297.498 163.626C297.627 164.013 297.692 164.447 297.692 164.928C297.692 165.074 297.649 165.186 297.563 165.264C297.477 165.332 297.348 165.367 297.176 165.367H292.842V164.567H296.815L296.595 164.748C296.595 164.318 296.531 163.952 296.402 163.651C296.282 163.351 296.097 163.123 295.847 162.968C295.607 162.805 295.306 162.723 294.945 162.723C294.541 162.723 294.197 162.817 293.913 163.007C293.638 163.196 293.427 163.458 293.281 163.793C293.135 164.129 293.062 164.52 293.062 164.967V165.044C293.062 165.801 293.238 166.373 293.59 166.76C293.952 167.138 294.472 167.327 295.151 167.327C295.409 167.327 295.68 167.293 295.963 167.224C296.256 167.155 296.531 167.039 296.789 166.876C296.935 166.79 297.064 166.751 297.176 166.76C297.296 166.768 297.391 166.807 297.459 166.876C297.537 166.944 297.584 167.03 297.601 167.134C297.619 167.237 297.601 167.344 297.55 167.456C297.498 167.559 297.408 167.654 297.279 167.74C296.987 167.937 296.647 168.088 296.26 168.191C295.873 168.286 295.499 168.333 295.138 168.333ZM301.532 168.333C300.982 168.333 300.496 168.204 300.075 167.946C299.662 167.68 299.34 167.301 299.107 166.811C298.875 166.312 298.759 165.732 298.759 165.07C298.759 164.391 298.875 163.811 299.107 163.329C299.34 162.848 299.662 162.474 300.075 162.207C300.496 161.941 300.982 161.807 301.532 161.807C302.082 161.807 302.555 161.945 302.951 162.22C303.355 162.486 303.626 162.848 303.763 163.303H303.621V159.692C303.621 159.477 303.677 159.314 303.789 159.202C303.901 159.09 304.06 159.034 304.266 159.034C304.472 159.034 304.631 159.09 304.743 159.202C304.864 159.314 304.924 159.477 304.924 159.692V167.649C304.924 167.856 304.868 168.019 304.756 168.14C304.644 168.251 304.485 168.307 304.279 168.307C304.073 168.307 303.914 168.251 303.802 168.14C303.69 168.019 303.634 167.856 303.634 167.649V166.515L303.776 166.798C303.638 167.263 303.368 167.637 302.963 167.92C302.568 168.195 302.091 168.333 301.532 168.333ZM301.867 167.327C302.22 167.327 302.529 167.241 302.796 167.069C303.062 166.897 303.269 166.644 303.415 166.308C303.57 165.973 303.647 165.56 303.647 165.07C303.647 164.331 303.484 163.772 303.157 163.394C302.83 163.015 302.4 162.826 301.867 162.826C301.506 162.826 301.192 162.912 300.926 163.084C300.659 163.247 300.449 163.497 300.294 163.832C300.148 164.167 300.075 164.58 300.075 165.07C300.075 165.801 300.238 166.36 300.565 166.747C300.891 167.134 301.326 167.327 301.867 167.327Z" fill="#3C3D3E" fill-opacity="0.64"/>
<defs>
<filter id="filter0_dd_243_3280" x="-0.00265938" y="19.9973" width="182.841" height="190.577" filterUnits="userSpaceOnUse" color-interpolation-filters="sRGB">
<feFlood flood-opacity="0" result="BackgroundImageFix"/>
<feColorMatrix in="SourceAlpha" type="matrix" values="0 0 0 0 0 0 0 0 0 0 0 0 0 0 0 0 0 0 127 0" result="hardAlpha"/>
<feOffset dx="1.71467" dy="1.71467"/>
<feGaussianBlur stdDeviation="6.43"/>
<feColorMatrix type="matrix" values="0 0 0 0 0.6512 0 0 0 0 0.66896 0 0 0 0 0.74 0 0 0 0.5 0"/>
<feBlend mode="normal" in2="BackgroundImageFix" result="effect1_dropShadow_243_3280"/>
<feColorMatrix in="SourceAlpha" type="matrix" values="0 0 0 0 0 0 0 0 0 0 0 0 0 0 0 0 0 0 127 0" result="hardAlpha"/>
<feOffset dx="-0.857333" dy="-0.857333"/>
<feGaussianBlur stdDeviation="5.57266"/>
<feColorMatrix type="matrix" values="0 0 0 0 0.979167 0 0 0 0 0.983333 0 0 0 0 1 0 0 0 1 0"/>
<feBlend mode="normal" in2="effect1_dropShadow_243_3280" result="effect2_dropShadow_243_3280"/>
<feBlend mode="normal" in="SourceGraphic" in2="effect2_dropShadow_243_3280" result="shape"/>
</filter>
<filter id="filter1_d_243_3280" x="37.8806" y="53.1915" width="104.851" height="100.346" filterUnits="userSpaceOnUse" color-interpolation-filters="sRGB">
<feFlood flood-opacity="0" result="BackgroundImageFix"/>
<feColorMatrix in="SourceAlpha" type="matrix" values="0 0 0 0 0 0 0 0 0 0 0 0 0 0 0 0 0 0 127 0" result="hardAlpha"/>
<feOffset dy="6.20955"/>
<feGaussianBlur stdDeviation="4.65716"/>
<feComposite in2="hardAlpha" operator="out"/>
<feColorMatrix type="matrix" values="0 0 0 0 0.760784 0 0 0 0 0.686275 0 0 0 0 0.607843 0 0 0 0.59 0"/>
<feBlend mode="normal" in2="BackgroundImageFix" result="effect1_dropShadow_243_3280"/>
<feBlend mode="normal" in="SourceGraphic" in2="effect1_dropShadow_243_3280" result="shape"/>
</filter>
<filter id="filter2_dd_243_3280" x="172.261" y="19.9973" width="182.841" height="190.577" filterUnits="userSpaceOnUse" color-interpolation-filters="sRGB">
<feFlood flood-opacity="0" result="BackgroundImageFix"/>
<feColorMatrix in="SourceAlpha" type="matrix" values="0 0 0 0 0 0 0 0 0 0 0 0 0 0 0 0 0 0 127 0" result="hardAlpha"/>
<feOffset dx="1.71467" dy="1.71467"/>
<feGaussianBlur stdDeviation="6.43"/>
<feColorMatrix type="matrix" values="0 0 0 0 0.6512 0 0 0 0 0.66896 0 0 0 0 0.74 0 0 0 0.5 0"/>
<feBlend mode="normal" in2="BackgroundImageFix" result="effect1_dropShadow_243_3280"/>
<feColorMatrix in="SourceAlpha" type="matrix" values="0 0 0 0 0 0 0 0 0 0 0 0 0 0 0 0 0 0 127 0" result="hardAlpha"/>
<feOffset dx="-0.857333" dy="-0.857333"/>
<feGaussianBlur stdDeviation="5.57266"/>
<feColorMatrix type="matrix" values="0 0 0 0 0.979167 0 0 0 0 0.983333 0 0 0 0 1 0 0 0 1 0"/>
<feBlend mode="normal" in2="effect1_dropShadow_243_3280" result="effect2_dropShadow_243_3280"/>
<feBlend mode="normal" in="SourceGraphic" in2="effect2_dropShadow_243_3280" result="shape"/>
</filter>
<linearGradient id="paint0_linear_243_3280" x1="98.0265" y1="114.434" x2="79.6905" y2="62.7239" gradientUnits="userSpaceOnUse">
<stop offset="0.0625" stop-color="#87704F"/>
<stop offset="1" stop-color="#CBC6C5"/>
</linearGradient>
<linearGradient id="paint1_linear_243_3280" x1="50.6084" y1="51.7543" x2="94.7717" y2="130.582" gradientUnits="userSpaceOnUse">
<stop stop-color="white"/>
<stop offset="1" stop-color="white" stop-opacity="0"/>
</linearGradient>
<linearGradient id="paint2_linear_243_3280" x1="247.161" y1="67.7372" x2="285.711" y2="91.5182" gradientUnits="userSpaceOnUse">
<stop stop-color="#B6C0D6"/>
<stop offset="1" stop-color="#6B6A7B" stop-opacity="0.84"/>
</linearGradient>
<linearGradient id="paint3_linear_243_3280" x1="222.872" y1="51.7545" x2="267.036" y2="130.582" gradientUnits="userSpaceOnUse">
<stop stop-color="white"/>
<stop offset="1" stop-color="white" stop-opacity="0"/>
</linearGradient>
</defs>
</svg>
