<svg width="360" height="149" viewBox="0 0 360 149" fill="none" xmlns="http://www.w3.org/2000/svg">
<path d="M15.932 14C15.68 14 15.484 13.9347 15.344 13.804C15.2133 13.664 15.148 13.468 15.148 13.216V4.914C15.148 4.662 15.2133 4.47067 15.344 4.34C15.484 4.2 15.68 4.13 15.932 4.13H19.264C19.9453 4.13 20.524 4.23267 21 4.438C21.4853 4.64333 21.854 4.93733 22.106 5.32C22.3673 5.70267 22.498 6.16467 22.498 6.706C22.498 7.30333 22.3207 7.80733 21.966 8.218C21.6113 8.62867 21.1307 8.904 20.524 9.044V8.834C21.2147 8.92733 21.756 9.18867 22.148 9.618C22.54 10.038 22.736 10.5887 22.736 11.27C22.736 12.1473 22.4467 12.824 21.868 13.3C21.2893 13.7667 20.4773 14 19.432 14H15.932ZM16.548 12.88H19.264C19.964 12.88 20.482 12.7447 20.818 12.474C21.154 12.194 21.322 11.774 21.322 11.214C21.322 10.654 21.154 10.2387 20.818 9.968C20.482 9.69733 19.964 9.562 19.264 9.562H16.548V12.88ZM16.548 8.442H19.04C19.712 8.442 20.2207 8.30667 20.566 8.036C20.9113 7.76533 21.084 7.36867 21.084 6.846C21.084 6.32333 20.9113 5.92667 20.566 5.656C20.2207 5.38533 19.712 5.25 19.04 5.25H16.548V8.442ZM26.7407 14.126C26.2647 14.126 25.8354 14.0327 25.4527 13.846C25.0794 13.6593 24.7854 13.4073 24.5707 13.09C24.3561 12.7727 24.2487 12.4133 24.2487 12.012C24.2487 11.508 24.3747 11.1113 24.6267 10.822C24.8881 10.5233 25.3127 10.3133 25.9007 10.192C26.4981 10.0613 27.3007 9.996 28.3087 9.996H28.9667V10.864H28.3227C27.6507 10.864 27.1187 10.8967 26.7267 10.962C26.3347 11.0273 26.0547 11.1393 25.8867 11.298C25.7281 11.4473 25.6487 11.6573 25.6487 11.928C25.6487 12.2827 25.7701 12.572 26.0127 12.796C26.2554 13.0107 26.5914 13.118 27.0207 13.118C27.3661 13.118 27.6694 13.0387 27.9307 12.88C28.1921 12.712 28.3974 12.488 28.5467 12.208C28.7054 11.928 28.7847 11.606 28.7847 11.242V9.632C28.7847 9.1 28.6727 8.71733 28.4487 8.484C28.2247 8.25067 27.8561 8.134 27.3427 8.134C27.0441 8.134 26.7314 8.17133 26.4047 8.246C26.0874 8.32067 25.7561 8.44667 25.4107 8.624C25.2521 8.69867 25.1167 8.722 25.0047 8.694C24.8927 8.666 24.8041 8.60533 24.7387 8.512C24.6734 8.40933 24.6361 8.302 24.6267 8.19C24.6267 8.06867 24.6547 7.952 24.7107 7.84C24.7761 7.728 24.8834 7.644 25.0327 7.588C25.4434 7.392 25.8494 7.252 26.2507 7.168C26.6521 7.084 27.0301 7.042 27.3847 7.042C28.0101 7.042 28.5234 7.14 28.9247 7.336C29.3354 7.532 29.6387 7.83067 29.8347 8.232C30.0307 8.63333 30.1287 9.15133 30.1287 9.786V13.384C30.1287 13.608 30.0727 13.7853 29.9607 13.916C29.8487 14.0373 29.6854 14.098 29.4707 14.098C29.2654 14.098 29.1021 14.0373 28.9807 13.916C28.8594 13.7853 28.7987 13.608 28.7987 13.384V12.474H28.9247C28.8501 12.8193 28.7101 13.118 28.5047 13.37C28.3087 13.6127 28.0614 13.7993 27.7627 13.93C27.4641 14.0607 27.1234 14.126 26.7407 14.126ZM34.7 14.126C34.1027 14.126 33.5754 13.986 33.118 13.706C32.67 13.4167 32.32 13.006 32.068 12.474C31.816 11.9327 31.69 11.3027 31.69 10.584C31.69 9.84667 31.816 9.21667 32.068 8.694C32.32 8.17133 32.67 7.76533 33.118 7.476C33.5754 7.18667 34.1027 7.042 34.7 7.042C35.2974 7.042 35.8107 7.19133 36.24 7.49C36.6787 7.77933 36.9727 8.17133 37.122 8.666H36.968V4.746C36.968 4.51267 37.0287 4.33533 37.15 4.214C37.2714 4.09267 37.444 4.032 37.668 4.032C37.892 4.032 38.0647 4.09267 38.186 4.214C38.3167 4.33533 38.382 4.51267 38.382 4.746V13.384C38.382 13.608 38.3214 13.7853 38.2 13.916C38.0787 14.0373 37.906 14.098 37.682 14.098C37.458 14.098 37.2854 14.0373 37.164 13.916C37.0427 13.7853 36.982 13.608 36.982 13.384V12.152L37.136 12.46C36.9867 12.964 36.6927 13.37 36.254 13.678C35.8247 13.9767 35.3067 14.126 34.7 14.126ZM35.064 13.034C35.4467 13.034 35.7827 12.9407 36.072 12.754C36.3614 12.5673 36.5854 12.292 36.744 11.928C36.912 11.564 36.996 11.116 36.996 10.584C36.996 9.78133 36.8187 9.17467 36.464 8.764C36.1094 8.35333 35.6427 8.148 35.064 8.148C34.672 8.148 34.3314 8.24133 34.042 8.428C33.7527 8.60533 33.524 8.876 33.356 9.24C33.1974 9.604 33.118 10.052 33.118 10.584C33.118 11.3773 33.2954 11.984 33.65 12.404C34.0047 12.824 34.476 13.034 35.064 13.034ZM43.4813 16.646C42.9773 16.646 42.4873 16.5947 42.0113 16.492C41.5446 16.3893 41.1199 16.2213 40.7373 15.988C40.5973 15.9133 40.5039 15.82 40.4573 15.708C40.4106 15.6053 40.3966 15.498 40.4153 15.386C40.4433 15.274 40.4946 15.176 40.5693 15.092C40.6439 15.008 40.7326 14.952 40.8353 14.924C40.9473 14.896 41.0639 14.9147 41.1853 14.98C41.5959 15.204 41.9833 15.3533 42.3473 15.428C42.7206 15.512 43.0659 15.554 43.3833 15.554C44.0366 15.554 44.5266 15.386 44.8533 15.05C45.1799 14.7233 45.3433 14.238 45.3433 13.594V12.166H45.4693C45.3293 12.6793 45.0353 13.0853 44.5873 13.384C44.1393 13.6827 43.6213 13.832 43.0333 13.832C42.4173 13.832 41.8806 13.692 41.4233 13.412C40.9659 13.1227 40.6113 12.726 40.3593 12.222C40.1073 11.7087 39.9813 11.1113 39.9813 10.43C39.9813 9.91667 40.0513 9.45467 40.1913 9.044C40.3406 8.63333 40.5459 8.27867 40.8073 7.98C41.0779 7.68133 41.3999 7.45267 41.7733 7.294C42.1559 7.126 42.5759 7.042 43.0333 7.042C43.6306 7.042 44.1486 7.19133 44.5873 7.49C45.0353 7.78867 45.3246 8.19467 45.4553 8.708L45.3153 8.946V7.784C45.3153 7.55067 45.3759 7.37333 45.4973 7.252C45.6279 7.13067 45.8006 7.07 46.0153 7.07C46.2393 7.07 46.4119 7.13067 46.5333 7.252C46.6546 7.37333 46.7153 7.55067 46.7153 7.784V13.426C46.7153 14.49 46.4399 15.2927 45.8893 15.834C45.3386 16.3753 44.5359 16.646 43.4813 16.646ZM43.3693 12.726C43.7799 12.726 44.1299 12.6327 44.4193 12.446C44.7086 12.2593 44.9326 11.9933 45.0913 11.648C45.2499 11.3027 45.3293 10.8967 45.3293 10.43C45.3293 9.73 45.1519 9.17467 44.7973 8.764C44.4519 8.35333 43.9759 8.148 43.3693 8.148C42.9679 8.148 42.6226 8.24133 42.3333 8.428C42.0439 8.61467 41.8153 8.88067 41.6473 9.226C41.4886 9.562 41.4093 9.96333 41.4093 10.43C41.4093 11.1393 41.5866 11.6993 41.9413 12.11C42.2959 12.5207 42.7719 12.726 43.3693 12.726ZM51.9255 14.126C51.1789 14.126 50.5349 13.986 49.9935 13.706C49.4615 13.4167 49.0462 13.0107 48.7475 12.488C48.4582 11.956 48.3135 11.326 48.3135 10.598C48.3135 9.88867 48.4582 9.268 48.7475 8.736C49.0369 8.204 49.4335 7.78867 49.9375 7.49C50.4415 7.19133 51.0155 7.042 51.6595 7.042C52.1355 7.042 52.5602 7.12133 52.9335 7.28C53.3069 7.42933 53.6242 7.65333 53.8855 7.952C54.1562 8.24133 54.3569 8.596 54.4875 9.016C54.6275 9.436 54.6975 9.90733 54.6975 10.43C54.6975 10.5887 54.6509 10.71 54.5575 10.794C54.4642 10.8687 54.3242 10.906 54.1375 10.906H49.4335V10.038H53.7455L53.5075 10.234C53.5075 9.76733 53.4375 9.37067 53.2975 9.044C53.1669 8.71733 52.9662 8.47 52.6955 8.302C52.4342 8.12467 52.1075 8.036 51.7155 8.036C51.2769 8.036 50.9035 8.13867 50.5955 8.344C50.2969 8.54933 50.0682 8.834 49.9095 9.198C49.7509 9.562 49.6715 9.98667 49.6715 10.472V10.556C49.6715 11.3773 49.8629 11.998 50.2455 12.418C50.6375 12.8287 51.2022 13.034 51.9395 13.034C52.2195 13.034 52.5135 12.9967 52.8215 12.922C53.1389 12.8473 53.4375 12.7213 53.7175 12.544C53.8762 12.4507 54.0162 12.4087 54.1375 12.418C54.2682 12.4273 54.3709 12.4693 54.4455 12.544C54.5295 12.6187 54.5809 12.712 54.5995 12.824C54.6182 12.936 54.5995 13.0527 54.5435 13.174C54.4875 13.286 54.3895 13.3887 54.2495 13.482C53.9322 13.6967 53.5635 13.86 53.1435 13.972C52.7235 14.0747 52.3175 14.126 51.9255 14.126ZM58.6528 14.126C58.2421 14.126 57.8175 14.0793 57.3788 13.986C56.9495 13.8927 56.5528 13.734 56.1888 13.51C56.0675 13.426 55.9835 13.3327 55.9368 13.23C55.8901 13.1273 55.8715 13.0247 55.8808 12.922C55.8995 12.81 55.9415 12.7167 56.0068 12.642C56.0815 12.558 56.1701 12.5067 56.2728 12.488C56.3848 12.4693 56.5015 12.4927 56.6228 12.558C56.9868 12.7633 57.3368 12.908 57.6728 12.992C58.0088 13.0667 58.3401 13.104 58.6668 13.104C59.1615 13.104 59.5348 13.0153 59.7868 12.838C60.0388 12.6607 60.1648 12.4227 60.1648 12.124C60.1648 11.8813 60.0808 11.6947 59.9128 11.564C59.7448 11.424 59.4928 11.3167 59.1568 11.242L57.8268 10.976C57.2481 10.8547 56.8095 10.64 56.5108 10.332C56.2121 10.024 56.0628 9.632 56.0628 9.156C56.0628 8.72667 56.1795 8.35333 56.4128 8.036C56.6461 7.71867 56.9728 7.476 57.3928 7.308C57.8128 7.13067 58.2981 7.042 58.8488 7.042C59.2595 7.042 59.6468 7.09333 60.0108 7.196C60.3748 7.29867 60.7108 7.45267 61.0188 7.658C61.1401 7.72333 61.2195 7.812 61.2568 7.924C61.2941 8.02667 61.2988 8.12933 61.2708 8.232C61.2521 8.33467 61.2055 8.428 61.1308 8.512C61.0561 8.58667 60.9628 8.63333 60.8508 8.652C60.7481 8.66133 60.6315 8.63333 60.5008 8.568C60.2208 8.39067 59.9408 8.26467 59.6608 8.19C59.3901 8.11533 59.1195 8.078 58.8488 8.078C58.3541 8.078 57.9808 8.17133 57.7288 8.358C57.4861 8.53533 57.3648 8.778 57.3648 9.086C57.3648 9.31933 57.4395 9.51067 57.5888 9.66C57.7381 9.80933 57.9715 9.91667 58.2888 9.982L59.6188 10.248C60.2255 10.3693 60.6828 10.5747 60.9908 10.864C61.3081 11.1533 61.4668 11.5453 61.4668 12.04C61.4668 12.684 61.2101 13.1927 60.6968 13.566C60.1835 13.9393 59.5021 14.126 58.6528 14.126Z" fill="#151414"/>
<g filter="url(#filter0_dd_243_3247)">
<rect x="14" y="26.7521" width="99.7904" height="104.731" rx="19.7605" fill="white"/>
<rect opacity="0.15" x="50.557" y="99.8658" width="27.6647" height="18.7725" rx="5.92814" fill="#EAB021"/>
<path d="M57.1043 112.842V111.714L60.0978 108.779C60.3841 108.49 60.6227 108.233 60.8136 108.008C61.0044 107.784 61.1476 107.566 61.243 107.356C61.3385 107.145 61.3862 106.921 61.3862 106.682C61.3862 106.41 61.3244 106.177 61.2009 105.983C61.0774 105.787 60.9076 105.635 60.6915 105.529C60.4753 105.422 60.2297 105.369 59.9547 105.369C59.6712 105.369 59.4228 105.428 59.2094 105.545C58.9961 105.661 58.8305 105.825 58.7126 106.038C58.5975 106.251 58.54 106.505 58.54 106.8H57.0537C57.0537 106.253 57.1787 105.777 57.4285 105.373C57.6783 104.969 58.0221 104.656 58.46 104.434C58.9007 104.212 59.4059 104.101 59.9757 104.101C60.5539 104.101 61.062 104.209 61.4999 104.425C61.9377 104.642 62.2774 104.938 62.5188 105.314C62.763 105.69 62.8851 106.119 62.8851 106.602C62.8851 106.925 62.8233 107.242 62.6998 107.554C62.5763 107.865 62.3588 108.211 62.0472 108.589C61.7384 108.968 61.3048 109.427 60.7462 109.966L59.26 111.478V111.537H63.0156V112.842H57.1043ZM64.1469 111.242V110L67.8056 104.219H68.8414V105.988H68.2098L65.7468 109.89V109.958H70.8539V111.242H64.1469ZM68.2604 112.842V110.863L68.2772 110.307V104.219H69.7508V112.842H68.2604Z" fill="#EDB552"/>
<path d="M55.9186 88.2601C55.0096 88.2601 54.2429 88.0901 53.6184 87.7503C52.994 87.4025 52.5198 86.9085 52.1957 86.2682C51.8795 85.628 51.7214 84.8652 51.7214 83.98C51.7214 83.316 51.8123 82.7232 51.9941 82.2015C52.1838 81.6719 52.4526 81.2214 52.8004 80.8499C53.156 80.4705 53.5868 80.182 54.0927 79.9844C54.6065 79.7868 55.1874 79.688 55.8356 79.688C56.3098 79.688 56.7762 79.7512 57.2346 79.8777C57.6931 79.9963 58.112 80.1939 58.4914 80.4705C58.602 80.5496 58.6732 80.6404 58.7048 80.7432C58.7364 80.846 58.7364 80.9527 58.7048 81.0633C58.6811 81.1661 58.6297 81.257 58.5507 81.336C58.4795 81.4151 58.3886 81.4625 58.278 81.4783C58.1752 81.4941 58.0606 81.4625 57.9341 81.3834C57.6259 81.17 57.3018 81.0159 56.9619 80.921C56.622 80.8183 56.2466 80.7669 55.8356 80.7669C55.219 80.7669 54.6974 80.8934 54.2705 81.1463C53.8516 81.3993 53.5354 81.7668 53.322 82.249C53.1086 82.7232 53.0019 83.3002 53.0019 83.98C53.0019 85.0312 53.2509 85.8295 53.7489 86.3749C54.2468 86.9203 54.9859 87.193 55.966 87.193C56.3217 87.193 56.6695 87.1614 57.0093 87.0982C57.3571 87.027 57.6891 86.9282 58.0053 86.8018L57.7563 87.4183V84.6558H56.2268C56.0687 84.6558 55.9423 84.6163 55.8474 84.5372C55.7605 84.4503 55.717 84.3317 55.717 84.1815C55.717 84.0313 55.7605 83.9207 55.8474 83.8495C55.9423 83.7705 56.0687 83.731 56.2268 83.731H58.278C58.4439 83.731 58.5704 83.7745 58.6574 83.8614C58.7443 83.9484 58.7878 84.0748 58.7878 84.2408V87.2286C58.7878 87.3709 58.7601 87.4934 58.7048 87.5961C58.6574 87.691 58.5744 87.7621 58.4558 87.8095C58.1159 87.9439 57.7168 88.0546 57.2583 88.1415C56.7999 88.2206 56.3533 88.2601 55.9186 88.2601ZM63.0811 88.2601C62.4962 88.2601 61.9903 88.1376 61.5635 87.8925C61.1446 87.6475 60.8165 87.2997 60.5794 86.8492C60.3423 86.3987 60.2237 85.8691 60.2237 85.2604C60.2237 84.7941 60.2909 84.3791 60.4253 84.0155C60.5596 83.6519 60.7493 83.3397 60.9944 83.0789C61.2473 82.8101 61.5477 82.6086 61.8955 82.4742C62.2511 82.3319 62.6464 82.2608 63.0811 82.2608C63.6581 82.2608 64.1561 82.3833 64.575 82.6284C65.0018 82.8734 65.3338 83.2212 65.5709 83.6717C65.808 84.1143 65.9266 84.6439 65.9266 85.2604C65.9266 85.7189 65.8594 86.1339 65.725 86.5054C65.5907 86.8769 65.397 87.193 65.1441 87.4539C64.899 87.7147 64.5987 87.9163 64.243 88.0585C63.8952 88.1929 63.5079 88.2601 63.0811 88.2601ZM63.0811 87.3353C63.4052 87.3353 63.6897 87.2563 63.9347 87.0982C64.1798 86.9401 64.3695 86.7069 64.5038 86.3987C64.6461 86.0904 64.7173 85.711 64.7173 85.2604C64.7173 84.5807 64.5671 84.0669 64.2667 83.7191C63.9664 83.3713 63.5711 83.1975 63.0811 83.1975C62.7491 83.1975 62.4606 83.2765 62.2156 83.4346C61.9705 83.5848 61.7769 83.814 61.6346 84.1222C61.5002 84.4305 61.4331 84.8099 61.4331 85.2604C61.4331 85.9323 61.5832 86.4461 61.8836 86.8018C62.184 87.1575 62.5831 87.3353 63.0811 87.3353ZM69.1526 88.2601C68.5361 88.2601 68.0698 88.0822 67.7536 87.7266C67.4453 87.363 67.2912 86.8413 67.2912 86.1615V80.3164C67.2912 80.1188 67.3426 79.9686 67.4453 79.8658C67.5481 79.7631 67.6943 79.7117 67.884 79.7117C68.0737 79.7117 68.22 79.7631 68.3227 79.8658C68.4334 79.9686 68.4887 80.1188 68.4887 80.3164V86.0904C68.4887 86.4856 68.5677 86.782 68.7258 86.9796C68.8918 87.1693 69.1289 87.2642 69.4372 87.2642C69.5083 87.2642 69.5716 87.2642 69.6269 87.2642C69.6822 87.2563 69.7376 87.2484 69.7929 87.2404C69.8877 87.2325 69.9549 87.2602 69.9944 87.3234C70.034 87.3788 70.0537 87.4973 70.0537 87.6791C70.0537 87.8451 70.0182 87.9755 69.947 88.0704C69.8759 88.1573 69.7613 88.2127 69.6032 88.2364C69.532 88.2443 69.457 88.2482 69.3779 88.2482C69.2989 88.2561 69.2238 88.2601 69.1526 88.2601ZM73.0824 88.2601C72.5765 88.2601 72.1299 88.1415 71.7426 87.9044C71.3632 87.6594 71.0668 87.3116 70.8534 86.861C70.64 86.4026 70.5333 85.8691 70.5333 85.2604C70.5333 84.636 70.64 84.1025 70.8534 83.6598C71.0668 83.2172 71.3632 82.8734 71.7426 82.6284C72.1299 82.3833 72.5765 82.2608 73.0824 82.2608C73.5883 82.2608 74.023 82.3873 74.3866 82.6402C74.7581 82.8852 75.0071 83.2172 75.1335 83.6361H75.0031V80.3164C75.0031 80.1188 75.0545 79.9686 75.1572 79.8658C75.26 79.7631 75.4062 79.7117 75.5959 79.7117C75.7856 79.7117 75.9318 79.7631 76.0346 79.8658C76.1453 79.9686 76.2006 80.1188 76.2006 80.3164V87.6317C76.2006 87.8214 76.1492 87.9716 76.0465 88.0822C75.9437 88.185 75.7975 88.2364 75.6078 88.2364C75.4181 88.2364 75.2718 88.185 75.1691 88.0822C75.0663 87.9716 75.015 87.8214 75.015 87.6317V86.5884L75.1454 86.8492C75.0189 87.276 74.7699 87.6198 74.3984 87.8807C74.0348 88.1336 73.5962 88.2601 73.0824 88.2601ZM73.3906 87.3353C73.7147 87.3353 73.9993 87.2563 74.2443 87.0982C74.4893 86.9401 74.679 86.7069 74.8134 86.3987C74.9557 86.0904 75.0268 85.711 75.0268 85.2604C75.0268 84.5807 74.8766 84.0669 74.5763 83.7191C74.2759 83.3713 73.8807 83.1975 73.3906 83.1975C73.0587 83.1975 72.7702 83.2765 72.5251 83.4346C72.2801 83.5848 72.0865 83.814 71.9442 84.1222C71.8098 84.4305 71.7426 84.8099 71.7426 85.2604C71.7426 85.9323 71.8928 86.4461 72.1932 86.8018C72.4935 87.1575 72.8927 87.3353 73.3906 87.3353Z" fill="black"/>
</g>
<g filter="url(#filter1_d_243_3247)">
<path d="M48.5967 55.4211C48.5967 47.7905 54.7901 41.6047 62.4207 41.6047C70.0513 41.6047 76.2447 47.7905 76.2447 55.4211C76.2447 63.0516 70.0513 69.2375 62.4207 69.2375C54.7901 69.2375 48.5967 63.0516 48.5967 55.4211Z" fill="url(#paint0_linear_243_3247)"/>
<path d="M49.8974 55.4211C49.8974 48.5098 55.5075 42.9054 62.4207 42.9054C69.3338 42.9054 74.944 48.5098 74.944 55.4211C74.944 62.3324 69.3338 67.9368 62.4207 67.9368C55.5075 67.9368 49.8974 62.3324 49.8974 55.4211Z" stroke="white" stroke-opacity="0.2" stroke-width="2.60138"/>
<path d="M51.8257 55.5907C51.8257 49.6488 56.6484 44.832 62.5902 44.832C68.5321 44.832 73.3548 49.6488 73.3548 55.5907C73.3548 61.5325 68.5321 66.3493 62.5902 66.3493C56.6484 66.3493 51.8257 61.5325 51.8257 55.5907Z" fill="url(#paint1_linear_243_3247)"/>
</g>
<g filter="url(#filter2_dd_243_3247)">
<rect x="128.79" y="26.7521" width="98.8024" height="104.731" rx="19.7605" fill="white"/>
<rect x="164.359" y="99.8658" width="27.6647" height="18.7725" rx="5.92814" fill="#ECEEF1"/>
<path d="M175.276 104.219V112.842H173.714V105.739H173.664L171.647 107.027V105.596L173.79 104.219H175.276ZM180.551 112.96C179.925 112.96 179.369 112.855 178.883 112.644C178.4 112.434 178.022 112.146 177.746 111.781C177.474 111.413 177.339 110.996 177.342 110.53C177.339 110.168 177.418 109.836 177.578 109.533C177.738 109.229 177.954 108.977 178.226 108.775C178.502 108.57 178.807 108.439 179.144 108.383V108.324C178.701 108.226 178.342 108 178.066 107.646C177.794 107.29 177.659 106.879 177.662 106.413C177.659 105.969 177.783 105.573 178.033 105.225C178.283 104.877 178.625 104.604 179.06 104.404C179.495 104.202 179.992 104.101 180.551 104.101C181.104 104.101 181.596 104.202 182.028 104.404C182.463 104.604 182.806 104.877 183.056 105.225C183.308 105.573 183.435 105.969 183.435 106.413C183.435 106.879 183.296 107.29 183.018 107.646C182.743 108 182.388 108.226 181.953 108.324V108.383C182.289 108.439 182.593 108.57 182.862 108.775C183.134 108.977 183.35 109.229 183.51 109.533C183.673 109.836 183.755 110.168 183.755 110.53C183.755 110.996 183.617 111.413 183.342 111.781C183.067 112.146 182.688 112.434 182.205 112.644C181.725 112.855 181.174 112.96 180.551 112.96ZM180.551 111.756C180.873 111.756 181.154 111.701 181.393 111.591C181.631 111.479 181.816 111.322 181.948 111.12C182.08 110.918 182.148 110.685 182.15 110.421C182.148 110.146 182.076 109.903 181.936 109.693C181.798 109.479 181.609 109.312 181.367 109.192C181.129 109.071 180.857 109.011 180.551 109.011C180.242 109.011 179.967 109.071 179.725 109.192C179.484 109.312 179.293 109.479 179.153 109.693C179.015 109.903 178.948 110.146 178.951 110.421C178.948 110.685 179.012 110.918 179.144 111.12C179.276 111.319 179.461 111.475 179.7 111.587C179.941 111.7 180.225 111.756 180.551 111.756ZM180.551 107.827C180.814 107.827 181.047 107.774 181.249 107.667C181.454 107.561 181.616 107.412 181.734 107.221C181.852 107.03 181.912 106.81 181.915 106.56C181.912 106.313 181.853 106.097 181.738 105.912C181.623 105.724 181.463 105.579 181.258 105.478C181.053 105.374 180.817 105.322 180.551 105.322C180.278 105.322 180.038 105.374 179.831 105.478C179.626 105.579 179.466 105.724 179.351 105.912C179.238 106.097 179.184 106.313 179.186 106.56C179.184 106.81 179.24 107.03 179.355 107.221C179.473 107.409 179.634 107.558 179.839 107.667C180.047 107.774 180.284 107.827 180.551 107.827Z" fill="#717484"/>
<path d="M166.253 88.2601C165.89 88.2601 165.534 88.2324 165.186 88.1771C164.838 88.1218 164.51 88.0388 164.202 87.9281C163.894 87.8095 163.617 87.6673 163.372 87.5013C163.254 87.4143 163.171 87.3155 163.123 87.2049C163.084 87.0942 163.072 86.9875 163.088 86.8848C163.111 86.7741 163.159 86.6792 163.23 86.6002C163.301 86.5212 163.388 86.4737 163.491 86.4579C163.593 86.4342 163.708 86.4658 163.835 86.5528C164.19 86.782 164.566 86.9519 164.961 87.0626C165.356 87.1654 165.787 87.2167 166.253 87.2167C166.925 87.2167 167.419 87.0982 167.735 86.861C168.059 86.616 168.221 86.2998 168.221 85.9125C168.221 85.5964 168.107 85.3474 167.878 85.1656C167.648 84.9759 167.265 84.8257 166.727 84.7151L165.459 84.4542C164.708 84.2961 164.147 84.0353 163.775 83.6717C163.412 83.3081 163.23 82.8181 163.23 82.2015C163.23 81.83 163.305 81.4901 163.455 81.1819C163.613 80.8736 163.831 80.6088 164.107 80.3875C164.384 80.1583 164.716 79.9844 165.103 79.8658C165.49 79.7473 165.913 79.688 166.372 79.688C166.862 79.688 167.32 79.7512 167.747 79.8777C168.182 80.0042 168.569 80.1978 168.909 80.4587C169.012 80.5298 169.079 80.6207 169.111 80.7313C169.15 80.8341 169.158 80.9369 169.134 81.0396C169.119 81.1424 169.075 81.2293 169.004 81.3004C168.933 81.3716 168.842 81.4151 168.731 81.4309C168.621 81.4388 168.498 81.3993 168.364 81.3123C168.055 81.1068 167.739 80.9606 167.415 80.8736C167.099 80.7788 166.747 80.7313 166.36 80.7313C165.973 80.7313 165.633 80.7906 165.34 80.9092C165.056 81.0278 164.834 81.1937 164.676 81.4072C164.526 81.6206 164.451 81.8735 164.451 82.166C164.451 82.4979 164.558 82.7627 164.771 82.9603C164.985 83.1579 165.34 83.3081 165.838 83.4109L167.095 83.6717C167.885 83.8377 168.474 84.0946 168.862 84.4424C169.249 84.7901 169.443 85.2525 169.443 85.8295C169.443 86.201 169.367 86.537 169.217 86.8373C169.067 87.1298 168.854 87.3827 168.577 87.5961C168.3 87.8095 167.964 87.9755 167.569 88.0941C167.182 88.2048 166.743 88.2601 166.253 88.2601ZM171.325 88.2245C171.135 88.2245 170.989 88.1692 170.886 88.0585C170.783 87.94 170.732 87.7779 170.732 87.5724V82.9485C170.732 82.743 170.783 82.5849 170.886 82.4742C170.989 82.3636 171.135 82.3082 171.325 82.3082C171.514 82.3082 171.661 82.3636 171.763 82.4742C171.874 82.5849 171.929 82.743 171.929 82.9485V87.5724C171.929 87.7779 171.878 87.94 171.775 88.0585C171.672 88.1692 171.522 88.2245 171.325 88.2245ZM171.325 81.0752C171.087 81.0752 170.902 81.0159 170.767 80.8973C170.641 80.7788 170.578 80.6128 170.578 80.3994C170.578 80.1781 170.641 80.0121 170.767 79.9014C170.902 79.7828 171.087 79.7236 171.325 79.7236C171.562 79.7236 171.744 79.7828 171.87 79.9014C172.004 80.0121 172.072 80.1781 172.072 80.3994C172.072 80.6128 172.004 80.7788 171.87 80.8973C171.744 81.0159 171.562 81.0752 171.325 81.0752ZM175.496 88.2601C174.879 88.2601 174.413 88.0822 174.097 87.7266C173.789 87.363 173.635 86.8413 173.635 86.1615V80.3164C173.635 80.1188 173.686 79.9686 173.789 79.8658C173.891 79.7631 174.038 79.7117 174.227 79.7117C174.417 79.7117 174.563 79.7631 174.666 79.8658C174.777 79.9686 174.832 80.1188 174.832 80.3164V86.0904C174.832 86.4856 174.911 86.782 175.069 86.9796C175.235 87.1693 175.472 87.2642 175.781 87.2642C175.852 87.2642 175.915 87.2642 175.97 87.2642C176.026 87.2563 176.081 87.2484 176.136 87.2404C176.231 87.2325 176.298 87.2602 176.338 87.3234C176.377 87.3788 176.397 87.4973 176.397 87.6791C176.397 87.8451 176.362 87.9755 176.29 88.0704C176.219 88.1573 176.105 88.2127 175.947 88.2364C175.875 88.2443 175.8 88.2482 175.721 88.2482C175.642 88.2561 175.567 88.2601 175.496 88.2601ZM179.38 88.2364C179.214 88.2364 179.068 88.1929 178.942 88.106C178.823 88.019 178.724 87.8846 178.645 87.7028L176.665 83.1026C176.602 82.9603 176.578 82.826 176.594 82.6995C176.61 82.573 176.669 82.4742 176.772 82.4031C176.875 82.324 177.013 82.2845 177.187 82.2845C177.337 82.2845 177.456 82.3201 177.543 82.3912C177.629 82.4624 177.709 82.5849 177.78 82.7588L179.57 87.1693H179.238L181.064 82.7588C181.135 82.5849 181.214 82.4624 181.301 82.3912C181.396 82.3201 181.526 82.2845 181.692 82.2845C181.835 82.2845 181.945 82.324 182.024 82.4031C182.111 82.4742 182.163 82.573 182.178 82.6995C182.202 82.8181 182.182 82.9485 182.119 83.0907L180.115 87.7028C180.044 87.8846 179.945 88.019 179.819 88.106C179.692 88.1929 179.546 88.2364 179.38 88.2364ZM185.93 88.2601C185.297 88.2601 184.752 88.1415 184.294 87.9044C183.843 87.6594 183.491 87.3155 183.238 86.8729C182.993 86.4224 182.871 85.8888 182.871 85.2723C182.871 84.6716 182.993 84.146 183.238 83.6954C183.483 83.2449 183.819 82.8931 184.246 82.6402C184.673 82.3873 185.159 82.2608 185.705 82.2608C186.108 82.2608 186.467 82.328 186.783 82.4624C187.1 82.5888 187.368 82.7785 187.59 83.0315C187.819 83.2765 187.989 83.5769 188.099 83.9325C188.218 84.2882 188.277 84.6874 188.277 85.13C188.277 85.2644 188.238 85.3672 188.159 85.4383C188.08 85.5015 187.961 85.5331 187.803 85.5331H183.819V84.7981H187.471L187.27 84.964C187.27 84.5688 187.21 84.2329 187.092 83.9563C186.981 83.6796 186.811 83.4701 186.582 83.3279C186.361 83.1777 186.084 83.1026 185.752 83.1026C185.38 83.1026 185.064 83.1895 184.803 83.3634C184.551 83.5373 184.357 83.7784 184.222 84.0867C184.088 84.3949 184.021 84.7546 184.021 85.1656V85.2367C184.021 85.9323 184.183 86.4579 184.507 86.8136C184.839 87.1614 185.317 87.3353 185.942 87.3353C186.179 87.3353 186.428 87.3037 186.689 87.2404C186.957 87.1772 187.21 87.0705 187.447 86.9203C187.582 86.8413 187.7 86.8057 187.803 86.8136C187.914 86.8215 188.001 86.8571 188.064 86.9203C188.135 86.9836 188.179 87.0626 188.194 87.1575C188.21 87.2523 188.194 87.3511 188.147 87.4539C188.099 87.5487 188.017 87.6357 187.898 87.7147C187.629 87.8965 187.317 88.0348 186.961 88.1297C186.606 88.2166 186.262 88.2601 185.93 88.2601ZM190.207 88.2364C190.01 88.2364 189.859 88.185 189.757 88.0822C189.654 87.9716 189.603 87.8214 189.603 87.6317V82.8892C189.603 82.6916 189.654 82.5414 189.757 82.4387C189.859 82.3359 190.002 82.2845 190.184 82.2845C190.373 82.2845 190.516 82.3359 190.61 82.4387C190.713 82.5414 190.765 82.6916 190.765 82.8892V83.7547H190.646C190.772 83.2804 191.006 82.9208 191.345 82.6758C191.685 82.4307 192.12 82.2885 192.65 82.249C192.792 82.241 192.903 82.2766 192.982 82.3557C193.069 82.4347 193.116 82.5572 193.124 82.7232C193.14 82.8892 193.104 83.0236 193.017 83.1263C192.93 83.2212 192.796 83.2765 192.614 83.2923L192.389 83.316C191.875 83.3634 191.484 83.5255 191.215 83.8021C190.946 84.0788 190.812 84.4582 190.812 84.9403V87.6317C190.812 87.8214 190.761 87.9716 190.658 88.0822C190.563 88.185 190.413 88.2364 190.207 88.2364Z" fill="black"/>
</g>
<g filter="url(#filter3_d_243_3247)">
<path d="M163.371 55.3971C163.371 47.762 169.568 41.5724 177.204 41.5724C184.839 41.5724 191.036 47.762 191.036 55.3971C191.036 63.0323 184.839 69.2218 177.204 69.2218C169.568 69.2218 163.371 63.0323 163.371 55.3971Z" fill="url(#paint2_linear_243_3247)"/>
<path d="M163.371 55.3971C163.371 47.762 169.568 41.5724 177.204 41.5724C184.839 41.5724 191.036 47.762 191.036 55.3971C191.036 63.0323 184.839 69.2218 177.204 69.2218C169.568 69.2218 163.371 63.0323 163.371 55.3971Z" fill="black" fill-opacity="0.1"/>
<path d="M164.672 55.3971C164.672 48.4813 170.286 42.8731 177.204 42.8731C184.121 42.8731 189.735 48.4813 189.735 55.3971C189.735 62.313 184.121 67.9212 177.204 67.9212C170.286 67.9212 164.672 62.313 164.672 55.3971Z" stroke="white" stroke-opacity="0.2" stroke-width="2.60138"/>
<path d="M166.602 55.5672C166.602 49.6218 171.428 44.8021 177.373 44.8021C183.319 44.8021 188.144 49.6218 188.144 55.5672C188.144 61.5126 183.319 66.3323 177.373 66.3323C171.428 66.3323 166.602 61.5126 166.602 55.5672Z" fill="url(#paint3_linear_243_3247)"/>
<path d="M166.602 55.5672C166.602 49.6218 171.428 44.8021 177.373 44.8021C183.319 44.8021 188.144 49.6218 188.144 55.5672C188.144 61.5126 183.319 66.3323 177.373 66.3323C171.428 66.3323 166.602 61.5126 166.602 55.5672Z" fill="black" fill-opacity="0.1"/>
</g>
<g filter="url(#filter4_dd_243_3247)">
<rect x="242.593" y="26.7521" width="99.7904" height="104.731" rx="19.7605" fill="#FFFEFE"/>
<rect opacity="0.15" x="279.15" y="99.8658" width="27.6647" height="18.7725" rx="5.92814" fill="#AA9083"/>
<path d="M291.055 104.219V112.842H289.493V105.739H289.442L287.426 107.027V105.596L289.569 104.219H291.055ZM296.771 104.219V112.842H295.209V105.739H295.159L293.142 107.027V105.596L295.285 104.219H296.771Z" fill="#AA9083"/>
<path d="M275.338 88.1534C275.124 88.1534 274.959 88.0981 274.84 87.9874C274.729 87.8688 274.674 87.7028 274.674 87.4894V80.4587C274.674 80.2452 274.729 80.0832 274.84 79.9725C274.959 79.854 275.124 79.7947 275.338 79.7947H278.16C278.737 79.7947 279.227 79.8816 279.63 80.0555C280.041 80.2294 280.353 80.4784 280.567 80.8025C280.788 81.1266 280.899 81.5178 280.899 81.9763C280.899 82.4821 280.748 82.909 280.448 83.2567C280.148 83.6045 279.741 83.8377 279.227 83.9563V83.7784C279.812 83.8575 280.27 84.0788 280.602 84.4424C280.934 84.7981 281.1 85.2644 281.1 85.8414C281.1 86.5844 280.855 87.1575 280.365 87.5606C279.875 87.9558 279.187 88.1534 278.302 88.1534H275.338ZM275.86 87.2049H278.16C278.753 87.2049 279.191 87.0903 279.476 86.861C279.76 86.6239 279.903 86.2682 279.903 85.794C279.903 85.3197 279.76 84.968 279.476 84.7388C279.191 84.5095 278.753 84.3949 278.16 84.3949H275.86V87.2049ZM275.86 83.4464H277.97C278.539 83.4464 278.97 83.3318 279.262 83.1026C279.555 82.8734 279.701 82.5375 279.701 82.0948C279.701 81.6522 279.555 81.3163 279.262 81.087C278.97 80.8578 278.539 80.7432 277.97 80.7432H275.86V83.4464ZM283.25 88.2364C283.052 88.2364 282.902 88.185 282.799 88.0822C282.696 87.9716 282.645 87.8214 282.645 87.6317V82.8892C282.645 82.6916 282.696 82.5414 282.799 82.4387C282.902 82.3359 283.044 82.2845 283.226 82.2845C283.416 82.2845 283.558 82.3359 283.653 82.4387C283.756 82.5414 283.807 82.6916 283.807 82.8892V83.7547H283.688C283.815 83.2804 284.048 82.9208 284.388 82.6758C284.728 82.4307 285.162 82.2885 285.692 82.249C285.834 82.241 285.945 82.2766 286.024 82.3557C286.111 82.4347 286.158 82.5572 286.166 82.7232C286.182 82.8892 286.147 83.0236 286.06 83.1263C285.973 83.2212 285.838 83.2765 285.657 83.2923L285.431 83.316C284.917 83.3634 284.526 83.5255 284.257 83.8021C283.989 84.0788 283.854 84.4582 283.854 84.9403V87.6317C283.854 87.8214 283.803 87.9716 283.7 88.0822C283.605 88.185 283.455 88.2364 283.25 88.2364ZM289.52 88.2601C288.935 88.2601 288.429 88.1376 288.003 87.8925C287.584 87.6475 287.256 87.2997 287.019 86.8492C286.781 86.3987 286.663 85.8691 286.663 85.2604C286.663 84.7941 286.73 84.3791 286.864 84.0155C286.999 83.6519 287.188 83.3397 287.434 83.0789C287.686 82.8101 287.987 82.6086 288.335 82.4742C288.69 82.3319 289.085 82.2608 289.52 82.2608C290.097 82.2608 290.595 82.3833 291.014 82.6284C291.441 82.8734 291.773 83.2212 292.01 83.6717C292.247 84.1143 292.366 84.6439 292.366 85.2604C292.366 85.7189 292.299 86.1339 292.164 86.5054C292.03 86.8769 291.836 87.193 291.583 87.4539C291.338 87.7147 291.038 87.9163 290.682 88.0585C290.334 88.1929 289.947 88.2601 289.52 88.2601ZM289.52 87.3353C289.844 87.3353 290.129 87.2563 290.374 87.0982C290.619 86.9401 290.809 86.7069 290.943 86.3987C291.085 86.0904 291.156 85.711 291.156 85.2604C291.156 84.5807 291.006 84.0669 290.706 83.7191C290.405 83.3713 290.01 83.1975 289.52 83.1975C289.188 83.1975 288.9 83.2765 288.655 83.4346C288.41 83.5848 288.216 83.814 288.074 84.1222C287.939 84.4305 287.872 84.8099 287.872 85.2604C287.872 85.9323 288.022 86.4461 288.323 86.8018C288.623 87.1575 289.022 87.3353 289.52 87.3353ZM294.323 88.2364C294.133 88.2364 293.987 88.185 293.884 88.0822C293.782 87.9716 293.73 87.8214 293.73 87.6317V82.8892C293.73 82.6916 293.782 82.5414 293.884 82.4387C293.987 82.3359 294.129 82.2845 294.311 82.2845C294.501 82.2845 294.643 82.3359 294.738 82.4387C294.841 82.5414 294.892 82.6916 294.892 82.8892V83.814L294.762 83.6006C294.936 83.1579 295.208 82.826 295.58 82.6046C295.951 82.3754 296.378 82.2608 296.86 82.2608C297.319 82.2608 297.698 82.3478 297.999 82.5216C298.307 82.6876 298.536 82.9445 298.686 83.2923C298.836 83.6322 298.912 84.063 298.912 84.5846V87.6317C298.912 87.8214 298.86 87.9716 298.757 88.0822C298.655 88.185 298.508 88.2364 298.319 88.2364C298.121 88.2364 297.971 88.185 297.868 88.0822C297.765 87.9716 297.714 87.8214 297.714 87.6317V84.6558C297.714 84.1578 297.615 83.7942 297.418 83.565C297.228 83.3358 296.928 83.2212 296.517 83.2212C296.034 83.2212 295.647 83.3713 295.355 83.6717C295.07 83.9721 294.928 84.3752 294.928 84.881V87.6317C294.928 88.0348 294.726 88.2364 294.323 88.2364ZM300.807 88.1534C300.68 88.1534 300.577 88.1257 300.498 88.0704C300.419 88.0072 300.364 87.9281 300.332 87.8333C300.309 87.7305 300.309 87.6238 300.332 87.5131C300.364 87.3946 300.427 87.2839 300.522 87.1812L303.747 82.9959V83.2923H300.735C300.585 83.2923 300.471 83.2528 300.392 83.1737C300.313 83.0868 300.273 82.9722 300.273 82.8299C300.273 82.6797 300.313 82.5651 300.392 82.4861C300.471 82.407 300.585 82.3675 300.735 82.3675H304.316C304.466 82.3675 304.585 82.3991 304.672 82.4624C304.767 82.5256 304.826 82.6046 304.85 82.6995C304.881 82.7943 304.885 82.8971 304.861 83.0078C304.838 83.1184 304.778 83.2251 304.684 83.3279L301.411 87.5606V87.2404H304.577C304.893 87.2404 305.051 87.3906 305.051 87.691C305.051 87.8333 305.008 87.9479 304.921 88.0348C304.842 88.1139 304.727 88.1534 304.577 88.1534H300.807ZM308.746 88.2601C308.114 88.2601 307.569 88.1415 307.11 87.9044C306.66 87.6594 306.308 87.3155 306.055 86.8729C305.81 86.4224 305.688 85.8888 305.688 85.2723C305.688 84.6716 305.81 84.146 306.055 83.6954C306.3 83.2449 306.636 82.8931 307.063 82.6402C307.49 82.3873 307.976 82.2608 308.521 82.2608C308.924 82.2608 309.284 82.328 309.6 82.4624C309.916 82.5888 310.185 82.7785 310.406 83.0315C310.636 83.2765 310.806 83.5769 310.916 83.9325C311.035 84.2882 311.094 84.6874 311.094 85.13C311.094 85.2644 311.054 85.3672 310.975 85.4383C310.896 85.5015 310.778 85.5331 310.62 85.5331H306.636V84.7981H310.288L310.086 84.964C310.086 84.5688 310.027 84.2329 309.908 83.9563C309.798 83.6796 309.628 83.4701 309.399 83.3279C309.177 83.1777 308.901 83.1026 308.569 83.1026C308.197 83.1026 307.881 83.1895 307.62 83.3634C307.367 83.5373 307.174 83.7784 307.039 84.0867C306.905 84.3949 306.838 84.7546 306.838 85.1656V85.2367C306.838 85.9323 307 86.4579 307.324 86.8136C307.656 87.1614 308.134 87.3353 308.758 87.3353C308.995 87.3353 309.244 87.3037 309.505 87.2404C309.774 87.1772 310.027 87.0705 310.264 86.9203C310.398 86.8413 310.517 86.8057 310.62 86.8136C310.73 86.8215 310.817 86.8571 310.881 86.9203C310.952 86.9836 310.995 87.0626 311.011 87.1575C311.027 87.2523 311.011 87.3511 310.964 87.4539C310.916 87.5487 310.833 87.6357 310.715 87.7147C310.446 87.8965 310.134 88.0348 309.778 88.1297C309.422 88.2166 309.078 88.2601 308.746 88.2601Z" fill="black"/>
</g>
<g filter="url(#filter5_d_243_3247)">
<path d="M279.165 55.4211C279.165 47.7905 285.359 41.6047 292.99 41.6047C300.62 41.6047 306.814 47.7905 306.814 55.4211C306.814 63.0516 300.62 69.2375 292.99 69.2375C285.359 69.2375 279.165 63.0516 279.165 55.4211Z" fill="url(#paint4_linear_243_3247)"/>
<path d="M280.466 55.4211C280.466 48.5098 286.076 42.9054 292.99 42.9054C299.903 42.9054 305.513 48.5098 305.513 55.4211C305.513 62.3324 299.903 67.9368 292.99 67.9368C286.076 67.9368 280.466 62.3324 280.466 55.4211Z" stroke="white" stroke-opacity="0.2" stroke-width="2.60138"/>
<path d="M282.394 55.5907C282.394 49.6488 287.217 44.832 293.159 44.832C299.101 44.832 303.924 49.6488 303.924 55.5907C303.924 61.5325 299.101 66.3493 293.159 66.3493C287.217 66.3493 282.394 61.5325 282.394 55.5907Z" fill="url(#paint5_linear_243_3247)"/>
</g>
<defs>
<filter id="filter0_dd_243_3247" x="0.167667" y="12.9198" width="130.419" height="135.359" filterUnits="userSpaceOnUse" color-interpolation-filters="sRGB">
<feFlood flood-opacity="0" result="BackgroundImageFix"/>
<feColorMatrix in="SourceAlpha" type="matrix" values="0 0 0 0 0 0 0 0 0 0 0 0 0 0 0 0 0 0 127 0" result="hardAlpha"/>
<feOffset dx="1.97605" dy="1.97605"/>
<feGaussianBlur stdDeviation="7.41018"/>
<feColorMatrix type="matrix" values="0 0 0 0 0.6512 0 0 0 0 0.66896 0 0 0 0 0.74 0 0 0 0.5 0"/>
<feBlend mode="normal" in2="BackgroundImageFix" result="effect1_dropShadow_243_3247"/>
<feColorMatrix in="SourceAlpha" type="matrix" values="0 0 0 0 0 0 0 0 0 0 0 0 0 0 0 0 0 0 127 0" result="hardAlpha"/>
<feOffset dx="-0.988024" dy="-0.988024"/>
<feGaussianBlur stdDeviation="6.42215"/>
<feColorMatrix type="matrix" values="0 0 0 0 0.979167 0 0 0 0 0.983333 0 0 0 0 1 0 0 0 1 0"/>
<feBlend mode="normal" in2="effect1_dropShadow_243_3247" result="effect2_dropShadow_243_3247"/>
<feBlend mode="normal" in="SourceGraphic" in2="effect2_dropShadow_243_3247" result="shape"/>
</filter>
<filter id="filter1_d_243_3247" x="36.5808" y="37.5724" width="51.6647" height="51.665" filterUnits="userSpaceOnUse" color-interpolation-filters="sRGB">
<feFlood flood-opacity="0" result="BackgroundImageFix"/>
<feColorMatrix in="SourceAlpha" type="matrix" values="0 0 0 0 0 0 0 0 0 0 0 0 0 0 0 0 0 0 127 0" result="hardAlpha"/>
<feOffset dy="8"/>
<feGaussianBlur stdDeviation="6"/>
<feComposite in2="hardAlpha" operator="out"/>
<feColorMatrix type="matrix" values="0 0 0 0 0.917647 0 0 0 0 0.690196 0 0 0 0 0.12549 0 0 0 0.4 0"/>
<feBlend mode="normal" in2="BackgroundImageFix" result="effect1_dropShadow_243_3247"/>
<feBlend mode="normal" in="SourceGraphic" in2="effect1_dropShadow_243_3247" result="shape"/>
</filter>
<filter id="filter2_dd_243_3247" x="114.958" y="12.9198" width="129.431" height="135.359" filterUnits="userSpaceOnUse" color-interpolation-filters="sRGB">
<feFlood flood-opacity="0" result="BackgroundImageFix"/>
<feColorMatrix in="SourceAlpha" type="matrix" values="0 0 0 0 0 0 0 0 0 0 0 0 0 0 0 0 0 0 127 0" result="hardAlpha"/>
<feOffset dx="1.97605" dy="1.97605"/>
<feGaussianBlur stdDeviation="7.41018"/>
<feColorMatrix type="matrix" values="0 0 0 0 0.6512 0 0 0 0 0.66896 0 0 0 0 0.74 0 0 0 0.5 0"/>
<feBlend mode="normal" in2="BackgroundImageFix" result="effect1_dropShadow_243_3247"/>
<feColorMatrix in="SourceAlpha" type="matrix" values="0 0 0 0 0 0 0 0 0 0 0 0 0 0 0 0 0 0 127 0" result="hardAlpha"/>
<feOffset dx="-0.988024" dy="-0.988024"/>
<feGaussianBlur stdDeviation="6.42215"/>
<feColorMatrix type="matrix" values="0 0 0 0 0.979167 0 0 0 0 0.983333 0 0 0 0 1 0 0 0 1 0"/>
<feBlend mode="normal" in2="effect1_dropShadow_243_3247" result="effect2_dropShadow_243_3247"/>
<feBlend mode="normal" in="SourceGraphic" in2="effect2_dropShadow_243_3247" result="shape"/>
</filter>
<filter id="filter3_d_243_3247" x="151.515" y="37.6204" width="51.3772" height="51.362" filterUnits="userSpaceOnUse" color-interpolation-filters="sRGB">
<feFlood flood-opacity="0" result="BackgroundImageFix"/>
<feColorMatrix in="SourceAlpha" type="matrix" values="0 0 0 0 0 0 0 0 0 0 0 0 0 0 0 0 0 0 127 0" result="hardAlpha"/>
<feOffset dy="7.90419"/>
<feGaussianBlur stdDeviation="5.92814"/>
<feComposite in2="hardAlpha" operator="out"/>
<feColorMatrix type="matrix" values="0 0 0 0 0.478431 0 0 0 0 0.478431 0 0 0 0 0.631373 0 0 0 0.4 0"/>
<feBlend mode="normal" in2="BackgroundImageFix" result="effect1_dropShadow_243_3247"/>
<feBlend mode="normal" in="SourceGraphic" in2="effect1_dropShadow_243_3247" result="shape"/>
</filter>
<filter id="filter4_dd_243_3247" x="228.76" y="12.9198" width="130.419" height="135.359" filterUnits="userSpaceOnUse" color-interpolation-filters="sRGB">
<feFlood flood-opacity="0" result="BackgroundImageFix"/>
<feColorMatrix in="SourceAlpha" type="matrix" values="0 0 0 0 0 0 0 0 0 0 0 0 0 0 0 0 0 0 127 0" result="hardAlpha"/>
<feOffset dx="1.97605" dy="1.97605"/>
<feGaussianBlur stdDeviation="7.41018"/>
<feColorMatrix type="matrix" values="0 0 0 0 0.6512 0 0 0 0 0.66896 0 0 0 0 0.74 0 0 0 0.5 0"/>
<feBlend mode="normal" in2="BackgroundImageFix" result="effect1_dropShadow_243_3247"/>
<feColorMatrix in="SourceAlpha" type="matrix" values="0 0 0 0 0 0 0 0 0 0 0 0 0 0 0 0 0 0 127 0" result="hardAlpha"/>
<feOffset dx="-0.988024" dy="-0.988024"/>
<feGaussianBlur stdDeviation="6.42215"/>
<feColorMatrix type="matrix" values="0 0 0 0 0.979167 0 0 0 0 0.983333 0 0 0 0 1 0 0 0 1 0"/>
<feBlend mode="normal" in2="effect1_dropShadow_243_3247" result="effect2_dropShadow_243_3247"/>
<feBlend mode="normal" in="SourceGraphic" in2="effect2_dropShadow_243_3247" result="shape"/>
</filter>
<filter id="filter5_d_243_3247" x="267.293" y="37.6204" width="51.3772" height="51.3776" filterUnits="userSpaceOnUse" color-interpolation-filters="sRGB">
<feFlood flood-opacity="0" result="BackgroundImageFix"/>
<feColorMatrix in="SourceAlpha" type="matrix" values="0 0 0 0 0 0 0 0 0 0 0 0 0 0 0 0 0 0 127 0" result="hardAlpha"/>
<feOffset dy="7.90419"/>
<feGaussianBlur stdDeviation="5.92814"/>
<feComposite in2="hardAlpha" operator="out"/>
<feColorMatrix type="matrix" values="0 0 0 0 0.815686 0 0 0 0 0.764706 0 0 0 0 0.686275 0 0 0 1 0"/>
<feBlend mode="normal" in2="BackgroundImageFix" result="effect1_dropShadow_243_3247"/>
<feBlend mode="normal" in="SourceGraphic" in2="effect1_dropShadow_243_3247" result="shape"/>
</filter>
<linearGradient id="paint0_linear_243_3247" x1="53.4513" y1="44.1924" x2="68.6041" y2="68.0898" gradientUnits="userSpaceOnUse">
<stop stop-color="#FFE092"/>
<stop offset="1" stop-color="#E3A302"/>
</linearGradient>
<linearGradient id="paint1_linear_243_3247" x1="55.6059" y1="46.847" x2="67.4052" y2="65.4556" gradientUnits="userSpaceOnUse">
<stop stop-color="#FFE092"/>
<stop offset="1" stop-color="#E3A302"/>
</linearGradient>
<linearGradient id="paint2_linear_243_3247" x1="170.178" y1="47.0135" x2="188.516" y2="58.3324" gradientUnits="userSpaceOnUse">
<stop stop-color="#B6C0D6"/>
<stop offset="1" stop-color="#6B6A7B" stop-opacity="0.84"/>
</linearGradient>
<linearGradient id="paint3_linear_243_3247" x1="171.903" y1="49.039" x2="186.182" y2="57.8529" gradientUnits="userSpaceOnUse">
<stop stop-color="#B6C0D6"/>
<stop offset="1" stop-color="#6B6A7B" stop-opacity="0.84"/>
</linearGradient>
<linearGradient id="paint4_linear_243_3247" x1="302.693" y1="73.4782" x2="275.302" y2="40.7235" gradientUnits="userSpaceOnUse">
<stop offset="0.0625" stop-color="#97766F"/>
<stop offset="1" stop-color="#DACFB3"/>
</linearGradient>
<linearGradient id="paint5_linear_243_3247" x1="300.715" y1="69.6515" x2="279.386" y2="44.1458" gradientUnits="userSpaceOnUse">
<stop offset="0.0625" stop-color="#97766F"/>
<stop offset="1" stop-color="#DACFB3"/>
</linearGradient>
</defs>
</svg>
