<svg width="46" height="45" viewBox="0 0 46 45" fill="none" xmlns="http://www.w3.org/2000/svg">
<path fill-rule="evenodd" clip-rule="evenodd" d="M17.0601 5.8893C14.5178 7.77703 13.2466 8.7209 12.7474 10.1151C12.7073 10.227 12.6713 10.3403 12.6394 10.4548C12.2414 11.8827 12.727 13.4099 13.698 16.4643C14.6691 19.5187 15.1546 21.0459 16.2978 21.962C16.3895 22.0355 16.4838 22.1055 16.5805 22.172C17.7863 23 19.3575 23 22.5 23C25.6425 23 27.2137 23 28.4195 22.172C28.5162 22.1055 28.6105 22.0355 28.7022 21.962C29.8454 21.0459 30.3309 19.5187 31.302 16.4643C32.273 13.4099 32.7586 11.8827 32.3606 10.4548C32.3287 10.3403 32.2927 10.227 32.2526 10.1151C31.7534 8.7209 30.4822 7.77704 27.9399 5.88931C25.3976 4.00158 24.1265 3.0577 22.6747 3.00327C22.5583 2.99891 22.4417 2.99891 22.3253 3.00327C20.8735 3.0577 19.6024 4.00157 17.0601 5.8893ZM20.5934 17.6821C20.1985 17.6821 19.8784 18.0093 19.8784 18.4129C19.8784 18.8164 20.1985 19.1436 20.5934 19.1436H24.4066C24.8015 19.1436 25.1216 18.8164 25.1216 18.4129C25.1216 18.0093 24.8015 17.6821 24.4066 17.6821H20.5934Z" fill="#8390FA"/>
<path d="M7.536 41.084C7.376 41.084 7.252 41.04 7.164 40.952C7.084 40.856 7.044 40.728 7.044 40.568V32.972C7.044 32.804 7.084 32.676 7.164 32.588C7.252 32.5 7.376 32.456 7.536 32.456C7.696 32.456 7.816 32.5 7.896 32.588C7.984 32.676 8.028 32.804 8.028 32.972V36.284H13.104V32.972C13.104 32.804 13.144 32.676 13.224 32.588C13.312 32.5 13.436 32.456 13.596 32.456C13.756 32.456 13.876 32.5 13.956 32.588C14.044 32.676 14.088 32.804 14.088 32.972V40.568C14.088 40.728 14.044 40.856 13.956 40.952C13.876 41.04 13.756 41.084 13.596 41.084C13.436 41.084 13.312 41.04 13.224 40.952C13.144 40.856 13.104 40.728 13.104 40.568V37.136H8.028V40.568C8.028 40.728 7.988 40.856 7.908 40.952C7.828 41.04 7.704 41.084 7.536 41.084ZM18.4649 41.108C17.8969 41.108 17.4049 40.984 16.9889 40.736C16.5729 40.488 16.2489 40.14 16.0169 39.692C15.7929 39.236 15.6809 38.7 15.6809 38.084C15.6809 37.62 15.7449 37.204 15.8729 36.836C16.0009 36.46 16.1889 36.14 16.4369 35.876C16.6849 35.612 16.9769 35.412 17.3129 35.276C17.6569 35.132 18.0409 35.06 18.4649 35.06C19.0329 35.06 19.5249 35.184 19.9409 35.432C20.3569 35.68 20.6769 36.032 20.9009 36.488C21.1329 36.936 21.2489 37.468 21.2489 38.084C21.2489 38.548 21.1849 38.964 21.0569 39.332C20.9289 39.7 20.7409 40.02 20.4929 40.292C20.2449 40.556 19.9489 40.76 19.6049 40.904C19.2689 41.04 18.8889 41.108 18.4649 41.108ZM18.4649 40.328C18.8249 40.328 19.1409 40.24 19.4129 40.064C19.6849 39.888 19.8929 39.632 20.0369 39.296C20.1889 38.96 20.2649 38.556 20.2649 38.084C20.2649 37.356 20.1009 36.8 19.7729 36.416C19.4529 36.032 19.0169 35.84 18.4649 35.84C18.0969 35.84 17.7769 35.928 17.5049 36.104C17.2409 36.272 17.0329 36.524 16.8809 36.86C16.7369 37.188 16.6649 37.596 16.6649 38.084C16.6649 38.804 16.8289 39.36 17.1569 39.752C17.4849 40.136 17.9209 40.328 18.4649 40.328ZM23.2129 41.084C23.0529 41.084 22.9329 41.04 22.8529 40.952C22.7729 40.864 22.7329 40.74 22.7329 40.58V35.576C22.7329 35.416 22.7729 35.296 22.8529 35.216C22.9329 35.128 23.0489 35.084 23.2009 35.084C23.3529 35.084 23.4689 35.128 23.5489 35.216C23.6369 35.296 23.6809 35.416 23.6809 35.576V36.632L23.5489 36.464C23.7009 36.016 23.9449 35.672 24.2809 35.432C24.6249 35.184 25.0329 35.06 25.5049 35.06C26.0009 35.06 26.4009 35.18 26.7049 35.42C27.0169 35.652 27.2249 36.016 27.3289 36.512H27.1489C27.2929 36.064 27.5489 35.712 27.9169 35.456C28.2929 35.192 28.7289 35.06 29.2249 35.06C29.6649 35.06 30.0249 35.144 30.3049 35.312C30.5929 35.48 30.8089 35.736 30.9529 36.08C31.0969 36.416 31.1689 36.844 31.1689 37.364V40.58C31.1689 40.74 31.1249 40.864 31.0369 40.952C30.9569 41.04 30.8369 41.084 30.6769 41.084C30.5249 41.084 30.4049 41.04 30.3169 40.952C30.2369 40.864 30.1969 40.74 30.1969 40.58V37.412C30.1969 36.876 30.1049 36.484 29.9209 36.236C29.7369 35.98 29.4249 35.852 28.9849 35.852C28.5049 35.852 28.1249 36.02 27.8449 36.356C27.5729 36.684 27.4369 37.132 27.4369 37.7V40.58C27.4369 40.74 27.3929 40.864 27.3049 40.952C27.2249 41.04 27.1049 41.084 26.9449 41.084C26.7929 41.084 26.6729 41.04 26.5849 40.952C26.5049 40.864 26.4649 40.74 26.4649 40.58V37.412C26.4649 36.876 26.3689 36.484 26.1769 36.236C25.9929 35.98 25.6849 35.852 25.2529 35.852C24.7729 35.852 24.3929 36.02 24.1129 36.356C23.8409 36.684 23.7049 37.132 23.7049 37.7V40.58C23.7049 40.916 23.5409 41.084 23.2129 41.084ZM35.6142 41.108C34.9982 41.108 34.4662 40.988 34.0182 40.748C33.5782 40.5 33.2342 40.152 32.9862 39.704C32.7462 39.256 32.6262 38.72 32.6262 38.096C32.6262 37.488 32.7462 36.96 32.9862 36.512C33.2262 36.056 33.5542 35.7 33.9702 35.444C34.3942 35.188 34.8822 35.06 35.4342 35.06C35.8262 35.06 36.1782 35.128 36.4902 35.264C36.8022 35.392 37.0662 35.58 37.2822 35.828C37.5062 36.076 37.6742 36.376 37.7862 36.728C37.9062 37.08 37.9662 37.476 37.9662 37.916C37.9662 38.044 37.9302 38.14 37.8582 38.204C37.7862 38.26 37.6822 38.288 37.5462 38.288H33.3702V37.652H37.3182L37.1262 37.808C37.1262 37.376 37.0622 37.012 36.9342 36.716C36.8062 36.412 36.6182 36.18 36.3702 36.02C36.1302 35.86 35.8262 35.78 35.4582 35.78C35.0502 35.78 34.7022 35.876 34.4142 36.068C34.1342 36.252 33.9222 36.512 33.7782 36.848C33.6342 37.176 33.5622 37.56 33.5622 38V38.072C33.5622 38.808 33.7382 39.368 34.0902 39.752C34.4502 40.136 34.9582 40.328 35.6142 40.328C35.8862 40.328 36.1542 40.292 36.4182 40.22C36.6902 40.148 36.9542 40.028 37.2102 39.86C37.3222 39.788 37.4222 39.756 37.5102 39.764C37.6062 39.764 37.6822 39.792 37.7382 39.848C37.7942 39.896 37.8302 39.96 37.8462 40.04C37.8702 40.112 37.8622 40.192 37.8222 40.28C37.7902 40.368 37.7222 40.444 37.6182 40.508C37.3542 40.7 37.0422 40.848 36.6822 40.952C36.3222 41.056 35.9662 41.108 35.6142 41.108Z" fill="#8390FA"/>
</svg>
