<svg width="42" height="52" viewBox="0 0 42 52" fill="none" xmlns="http://www.w3.org/2000/svg">
<path d="M6.25266 40.26C6.70599 39.9 6.91266 39.7333 6.87266 39.76C8.17932 38.68 9.20599 37.7933 9.95266 37.1C10.7127 36.4067 11.3527 35.68 11.8727 34.92C12.3927 34.16 12.6527 33.42 12.6527 32.7C12.6527 32.1533 12.526 31.7267 12.2727 31.42C12.0193 31.1133 11.6393 30.96 11.1327 30.96C10.626 30.96 10.226 31.1533 9.93266 31.54C9.65266 31.9133 9.51266 32.4467 9.51266 33.14H6.21266C6.23932 32.0067 6.47932 31.06 6.93266 30.3C7.39932 29.54 8.00599 28.98 8.75266 28.62C9.51266 28.26 10.3527 28.08 11.2727 28.08C12.8593 28.08 14.0527 28.4867 14.8527 29.3C15.666 30.1133 16.0727 31.1733 16.0727 32.48C16.0727 33.9067 15.586 35.2333 14.6127 36.46C13.6393 37.6733 12.3993 38.86 10.8927 40.02H16.2927V42.8H6.25266V40.26ZM17.9184 32.52C17.9718 31.0933 18.4384 29.9933 19.3184 29.22C20.1984 28.4467 21.3918 28.06 22.8984 28.06C23.8984 28.06 24.7518 28.2333 25.4584 28.58C26.1784 28.9267 26.7184 29.4 27.0784 30C27.4518 30.6 27.6384 31.2733 27.6384 32.02C27.6384 32.9 27.4184 33.62 26.9784 34.18C26.5384 34.7267 26.0251 35.1 25.4384 35.3V35.38C26.1984 35.6333 26.7984 36.0533 27.2384 36.64C27.6784 37.2267 27.8984 37.98 27.8984 38.9C27.8984 39.7267 27.7051 40.46 27.3184 41.1C26.9451 41.7267 26.3918 42.22 25.6584 42.58C24.9384 42.94 24.0784 43.12 23.0784 43.12C21.4784 43.12 20.1984 42.7267 19.2384 41.94C18.2918 41.1533 17.7918 39.9667 17.7384 38.38H21.0584C21.0718 38.9667 21.2384 39.4333 21.5584 39.78C21.8784 40.1133 22.3451 40.28 22.9584 40.28C23.4784 40.28 23.8784 40.1333 24.1584 39.84C24.4518 39.5333 24.5984 39.1333 24.5984 38.64C24.5984 38 24.3918 37.54 23.9784 37.26C23.5784 36.9667 22.9318 36.82 22.0384 36.82H21.3984V34.04H22.0384C22.7184 34.04 23.2651 33.9267 23.6784 33.7C24.1051 33.46 24.3184 33.04 24.3184 32.44C24.3184 31.96 24.1851 31.5867 23.9184 31.32C23.6518 31.0533 23.2851 30.92 22.8184 30.92C22.3118 30.92 21.9318 31.0733 21.6784 31.38C21.4384 31.6867 21.2984 32.0667 21.2584 32.52H17.9184ZM29.5478 31.58V28.4H35.0878V43H31.5278V31.58H29.5478Z" fill="#222121"/>
<path d="M7.66352 8.098C7.66352 8.91 7.38352 9.58667 6.82352 10.128C6.27286 10.66 5.42819 10.926 4.28952 10.926H2.41352V15H1.13952V5.242H4.28952C5.39086 5.242 6.22619 5.508 6.79552 6.04C7.37419 6.572 7.66352 7.258 7.66352 8.098ZM4.28952 9.876C4.99886 9.876 5.52152 9.722 5.85752 9.414C6.19352 9.106 6.36152 8.66733 6.36152 8.098C6.36152 6.894 5.67086 6.292 4.28952 6.292H2.41352V9.876H4.28952ZM12.5929 15.126C11.8743 15.126 11.2209 14.9627 10.6329 14.636C10.0543 14.3093 9.59695 13.8473 9.26095 13.25C8.93428 12.6433 8.77095 11.9433 8.77095 11.15C8.77095 10.366 8.93895 9.67533 9.27495 9.078C9.62028 8.47133 10.0869 8.00933 10.6749 7.692C11.2629 7.36533 11.9209 7.202 12.6489 7.202C13.3769 7.202 14.0349 7.36533 14.6229 7.692C15.2109 8.00933 15.6729 8.46667 16.0089 9.064C16.3543 9.66133 16.5269 10.3567 16.5269 11.15C16.5269 11.9433 16.3496 12.6433 15.9949 13.25C15.6496 13.8473 15.1783 14.3093 14.5809 14.636C13.9836 14.9627 13.3209 15.126 12.5929 15.126ZM12.5929 14.006C13.0503 14.006 13.4796 13.8987 13.8809 13.684C14.2823 13.4693 14.6043 13.1473 14.8469 12.718C15.0989 12.2887 15.2249 11.766 15.2249 11.15C15.2249 10.534 15.1036 10.0113 14.8609 9.582C14.6183 9.15267 14.3009 8.83533 13.9089 8.63C13.5169 8.41533 13.0923 8.308 12.6349 8.308C12.1683 8.308 11.7389 8.41533 11.3469 8.63C10.9643 8.83533 10.6563 9.15267 10.4229 9.582C10.1896 10.0113 10.0729 10.534 10.0729 11.15C10.0729 11.7753 10.1849 12.3027 10.4089 12.732C10.6423 13.1613 10.9503 13.4833 11.3329 13.698C11.7156 13.9033 12.1356 14.006 12.5929 14.006ZM18.86 6.082C18.6174 6.082 18.412 5.998 18.244 5.83C18.076 5.662 17.992 5.45667 17.992 5.214C17.992 4.97133 18.076 4.766 18.244 4.598C18.412 4.43 18.6174 4.346 18.86 4.346C19.0934 4.346 19.2894 4.43 19.448 4.598C19.616 4.766 19.7 4.97133 19.7 5.214C19.7 5.45667 19.616 5.662 19.448 5.83C19.2894 5.998 19.0934 6.082 18.86 6.082ZM19.476 7.328V15H18.202V7.328H19.476ZM25.3853 7.188C26.3187 7.188 27.0747 7.47267 27.6533 8.042C28.232 8.602 28.5213 9.414 28.5213 10.478V15H27.2613V10.66C27.2613 9.89467 27.07 9.31133 26.6873 8.91C26.3047 8.49933 25.782 8.294 25.1193 8.294C24.4473 8.294 23.9107 8.504 23.5093 8.924C23.1173 9.344 22.9213 9.95533 22.9213 10.758V15H21.6473V7.328H22.9213V8.42C23.1733 8.028 23.514 7.72467 23.9433 7.51C24.382 7.29533 24.8627 7.188 25.3853 7.188ZM32.1564 8.378V12.9C32.1564 13.2733 32.2357 13.5393 32.3944 13.698C32.5531 13.8473 32.8284 13.922 33.2204 13.922H34.1584V15H33.0104C32.3011 15 31.7691 14.8367 31.4144 14.51C31.0597 14.1833 30.8824 13.6467 30.8824 12.9V8.378H29.8884V7.328H30.8824V5.396H32.1564V7.328H34.1584V8.378H32.1564ZM38.418 15.126C37.83 15.126 37.3027 15.028 36.836 14.832C36.3694 14.6267 36.0007 14.3467 35.73 13.992C35.4594 13.628 35.31 13.2127 35.282 12.746H36.598C36.6354 13.1287 36.8127 13.4413 37.13 13.684C37.4567 13.9267 37.8814 14.048 38.404 14.048C38.8894 14.048 39.272 13.9407 39.552 13.726C39.832 13.5113 39.972 13.2407 39.972 12.914C39.972 12.578 39.8227 12.3307 39.524 12.172C39.2254 12.004 38.7634 11.8407 38.138 11.682C37.5687 11.5327 37.102 11.3833 36.738 11.234C36.3834 11.0753 36.0754 10.8467 35.814 10.548C35.562 10.24 35.436 9.83867 35.436 9.344C35.436 8.952 35.5527 8.59267 35.786 8.266C36.0194 7.93933 36.3507 7.68267 36.78 7.496C37.2094 7.3 37.6994 7.202 38.25 7.202C39.0994 7.202 39.7854 7.41667 40.308 7.846C40.8307 8.27533 41.1107 8.86333 41.148 9.61H39.874C39.846 9.20867 39.6827 8.88667 39.384 8.644C39.0947 8.40133 38.7027 8.28 38.208 8.28C37.7507 8.28 37.3867 8.378 37.116 8.574C36.8454 8.77 36.71 9.02667 36.71 9.344C36.71 9.596 36.7894 9.806 36.948 9.974C37.116 10.1327 37.3214 10.2633 37.564 10.366C37.816 10.4593 38.1614 10.5667 38.6 10.688C39.1507 10.8373 39.5987 10.9867 39.944 11.136C40.2894 11.276 40.5834 11.4907 40.826 11.78C41.078 12.0693 41.2087 12.4473 41.218 12.914C41.218 13.334 41.1014 13.712 40.868 14.048C40.6347 14.384 40.3034 14.65 39.874 14.846C39.454 15.0327 38.9687 15.126 38.418 15.126Z" fill="#222121"/>
</svg>
