<svg width="51" height="55" viewBox="0 0 51 55" fill="none" xmlns="http://www.w3.org/2000/svg">
<path d="M28.75 15C28.75 16.7949 27.2949 18.25 25.5 18.25V19.75C28.1234 19.75 30.25 17.6234 30.25 15H28.75ZM25.5 18.25C23.7051 18.25 22.25 16.7949 22.25 15H20.75C20.75 17.6234 22.8766 19.75 25.5 19.75V18.25ZM22.25 15C22.25 13.2051 23.7051 11.75 25.5 11.75V10.25C22.8766 10.25 20.75 12.3766 20.75 15H22.25ZM25.5 11.75C27.2949 11.75 28.75 13.2051 28.75 15H30.25C30.25 12.3766 28.1234 10.25 25.5 10.25V11.75ZM22.5 22.75H28.5V21.25H22.5V22.75ZM16.25 18C16.25 12.8914 20.3914 8.75 25.5 8.75V7.25C19.5629 7.25 14.75 12.0629 14.75 18H16.25ZM25.5 8.75C30.6086 8.75 34.75 12.8914 34.75 18H36.25C36.25 12.0629 31.4371 7.25 25.5 7.25V8.75ZM34.75 18C34.75 20.6233 33.659 22.9905 31.9039 24.6748L32.9425 25.7571C34.9801 23.8016 36.25 21.0485 36.25 18H34.75ZM31.9039 24.6748C30.2412 26.2705 27.9858 27.25 25.5 27.25V28.75C28.3882 28.75 31.0117 27.61 32.9425 25.7571L31.9039 24.6748ZM28.5 22.75C30.076 22.75 31.3915 23.8726 31.6876 25.3621L33.1588 25.0697C32.726 22.8918 30.8055 21.25 28.5 21.25V22.75ZM25.5 27.25C23.0142 27.25 20.7588 26.2705 19.0961 24.6748L18.0575 25.7571C19.9883 27.61 22.6118 28.75 25.5 28.75V27.25ZM19.0961 24.6748C17.341 22.9905 16.25 20.6233 16.25 18H14.75C14.75 21.0485 16.0199 23.8016 18.0575 25.7571L19.0961 24.6748ZM22.5 21.25C20.1945 21.25 18.274 22.8918 17.8412 25.0697L19.3124 25.3621C19.6085 23.8726 20.924 22.75 22.5 22.75V21.25Z" fill="#5E5F60"/>
<path d="M9.536 46.084C9.376 46.084 9.252 46.04 9.164 45.952C9.084 45.856 9.044 45.728 9.044 45.568V38.044C9.044 37.876 9.088 37.752 9.176 37.672C9.264 37.584 9.388 37.54 9.548 37.54H12.392C13.296 37.54 13.992 37.764 14.48 38.212C14.968 38.652 15.212 39.276 15.212 40.084C15.212 40.884 14.968 41.508 14.48 41.956C13.992 42.404 13.296 42.628 12.392 42.628H10.028V45.568C10.028 45.728 9.988 45.856 9.908 45.952C9.828 46.04 9.704 46.084 9.536 46.084ZM10.028 41.8H12.272C12.92 41.8 13.408 41.656 13.736 41.368C14.072 41.072 14.24 40.644 14.24 40.084C14.24 39.516 14.072 39.088 13.736 38.8C13.408 38.504 12.92 38.356 12.272 38.356H10.028V41.8ZM16.8806 46.084C16.7206 46.084 16.5966 46.04 16.5086 45.952C16.4286 45.864 16.3886 45.74 16.3886 45.58V40.576C16.3886 40.416 16.4286 40.296 16.5086 40.216C16.5886 40.128 16.7046 40.084 16.8566 40.084C17.0086 40.084 17.1246 40.128 17.2046 40.216C17.2926 40.296 17.3366 40.416 17.3366 40.576V41.548H17.2166C17.3446 41.076 17.5886 40.712 17.9486 40.456C18.3086 40.2 18.7526 40.064 19.2806 40.048C19.4006 40.04 19.4966 40.068 19.5686 40.132C19.6406 40.188 19.6806 40.288 19.6886 40.432C19.6966 40.568 19.6646 40.676 19.5926 40.756C19.5206 40.836 19.4086 40.884 19.2566 40.9L19.0646 40.924C18.5206 40.972 18.1006 41.148 17.8046 41.452C17.5166 41.748 17.3726 42.156 17.3726 42.676V45.58C17.3726 45.74 17.3286 45.864 17.2406 45.952C17.1606 46.04 17.0406 46.084 16.8806 46.084ZM23.043 46.108C22.475 46.108 21.983 45.984 21.567 45.736C21.151 45.488 20.827 45.14 20.595 44.692C20.371 44.236 20.259 43.7 20.259 43.084C20.259 42.62 20.323 42.204 20.451 41.836C20.579 41.46 20.767 41.14 21.015 40.876C21.263 40.612 21.555 40.412 21.891 40.276C22.235 40.132 22.619 40.06 23.043 40.06C23.611 40.06 24.103 40.184 24.519 40.432C24.935 40.68 25.255 41.032 25.479 41.488C25.711 41.936 25.827 42.468 25.827 43.084C25.827 43.548 25.763 43.964 25.635 44.332C25.507 44.7 25.319 45.02 25.071 45.292C24.823 45.556 24.527 45.76 24.183 45.904C23.847 46.04 23.467 46.108 23.043 46.108ZM23.043 45.328C23.403 45.328 23.719 45.24 23.991 45.064C24.263 44.888 24.471 44.632 24.615 44.296C24.767 43.96 24.843 43.556 24.843 43.084C24.843 42.356 24.679 41.8 24.351 41.416C24.031 41.032 23.595 40.84 23.043 40.84C22.675 40.84 22.355 40.928 22.083 41.104C21.819 41.272 21.611 41.524 21.459 41.86C21.315 42.188 21.243 42.596 21.243 43.084C21.243 43.804 21.407 44.36 21.735 44.752C22.063 45.136 22.499 45.328 23.043 45.328ZM28.0204 46.084C27.8684 46.084 27.7484 46.04 27.6604 45.952C27.5804 45.864 27.5404 45.74 27.5404 45.58V40.924H26.7724C26.6444 40.924 26.5404 40.892 26.4604 40.828C26.3884 40.756 26.3524 40.66 26.3524 40.54C26.3524 40.42 26.3884 40.328 26.4604 40.264C26.5404 40.2 26.6444 40.168 26.7724 40.168H27.8044L27.5404 40.42V39.964C27.5404 39.212 27.7204 38.636 28.0804 38.236C28.4484 37.836 28.9884 37.608 29.7004 37.552L30.0604 37.516C30.1804 37.508 30.2764 37.528 30.3484 37.576C30.4204 37.616 30.4644 37.672 30.4804 37.744C30.5044 37.816 30.5084 37.892 30.4924 37.972C30.4764 38.052 30.4404 38.12 30.3844 38.176C30.3364 38.232 30.2764 38.264 30.2044 38.272L29.8444 38.296C29.3724 38.328 29.0324 38.476 28.8244 38.74C28.6164 38.996 28.5124 39.364 28.5124 39.844V40.348L28.3684 40.168H31.6324C31.7844 40.168 31.9004 40.212 31.9804 40.3C32.0684 40.388 32.1124 40.516 32.1124 40.684V45.532C32.1124 45.7 32.0724 45.832 31.9924 45.928C31.9124 46.016 31.7924 46.06 31.6324 46.06C31.4724 46.06 31.3484 46.016 31.2604 45.928C31.1804 45.832 31.1404 45.7 31.1404 45.532V40.924H28.5124V45.58C28.5124 45.916 28.3484 46.084 28.0204 46.084ZM31.6444 38.764C31.4444 38.764 31.2884 38.712 31.1764 38.608C31.0724 38.496 31.0204 38.348 31.0204 38.164C31.0204 37.972 31.0724 37.828 31.1764 37.732C31.2884 37.628 31.4444 37.576 31.6444 37.576C31.8444 37.576 31.9964 37.628 32.1004 37.732C32.2124 37.828 32.2684 37.972 32.2684 38.164C32.2684 38.348 32.2124 38.496 32.1004 38.608C31.9964 38.712 31.8444 38.764 31.6444 38.764ZM35.7075 46.108C35.1315 46.108 34.6915 45.932 34.3875 45.58C34.0835 45.228 33.9315 44.724 33.9315 44.068V37.948C33.9315 37.788 33.9715 37.668 34.0515 37.588C34.1315 37.5 34.2515 37.456 34.4115 37.456C34.5635 37.456 34.6835 37.5 34.7715 37.588C34.8595 37.668 34.9035 37.788 34.9035 37.948V43.996C34.9035 44.428 34.9875 44.752 35.1555 44.968C35.3315 45.176 35.5875 45.28 35.9235 45.28C35.9955 45.28 36.0595 45.276 36.1155 45.268C36.1715 45.26 36.2275 45.256 36.2835 45.256C36.3715 45.248 36.4315 45.268 36.4635 45.316C36.5035 45.364 36.5235 45.46 36.5235 45.604C36.5235 45.748 36.4915 45.856 36.4275 45.928C36.3635 46 36.2595 46.048 36.1155 46.072C36.0515 46.08 35.9835 46.088 35.9115 46.096C35.8395 46.104 35.7715 46.108 35.7075 46.108ZM40.0517 46.108C39.4357 46.108 38.9037 45.988 38.4557 45.748C38.0157 45.5 37.6717 45.152 37.4237 44.704C37.1837 44.256 37.0637 43.72 37.0637 43.096C37.0637 42.488 37.1837 41.96 37.4237 41.512C37.6637 41.056 37.9917 40.7 38.4077 40.444C38.8317 40.188 39.3197 40.06 39.8717 40.06C40.2637 40.06 40.6157 40.128 40.9277 40.264C41.2397 40.392 41.5037 40.58 41.7197 40.828C41.9437 41.076 42.1117 41.376 42.2237 41.728C42.3437 42.08 42.4037 42.476 42.4037 42.916C42.4037 43.044 42.3677 43.14 42.2957 43.204C42.2237 43.26 42.1197 43.288 41.9837 43.288H37.8077V42.652H41.7557L41.5637 42.808C41.5637 42.376 41.4997 42.012 41.3717 41.716C41.2437 41.412 41.0557 41.18 40.8077 41.02C40.5677 40.86 40.2637 40.78 39.8957 40.78C39.4877 40.78 39.1397 40.876 38.8517 41.068C38.5717 41.252 38.3597 41.512 38.2157 41.848C38.0717 42.176 37.9997 42.56 37.9997 43V43.072C37.9997 43.808 38.1757 44.368 38.5277 44.752C38.8877 45.136 39.3957 45.328 40.0517 45.328C40.3237 45.328 40.5917 45.292 40.8557 45.22C41.1277 45.148 41.3917 45.028 41.6477 44.86C41.7597 44.788 41.8597 44.756 41.9477 44.764C42.0437 44.764 42.1197 44.792 42.1757 44.848C42.2317 44.896 42.2677 44.96 42.2837 45.04C42.3077 45.112 42.2997 45.192 42.2597 45.28C42.2277 45.368 42.1597 45.444 42.0557 45.508C41.7917 45.7 41.4797 45.848 41.1197 45.952C40.7597 46.056 40.4037 46.108 40.0517 46.108Z" fill="#5E5F60"/>
</svg>
