<svg width="136" height="136" viewBox="0 0 136 136" fill="none" xmlns="http://www.w3.org/2000/svg">
<g filter="url(#filter0_d_152_4162)">
<rect x="32" y="16" width="72" height="72" rx="28" fill="#FF9051"/>
<g filter="url(#filter1_d_152_4162)">
<path d="M68 56.2319C73.7849 56.2319 78.6667 57.1719 78.6667 60.7986C78.6667 64.4267 73.7529 65.3333 68 65.3333C62.2165 65.3333 57.3334 64.3933 57.3334 60.7666C57.3334 57.1386 62.2472 56.2319 68 56.2319ZM68 38.6667C71.9188 38.6667 75.0587 41.8054 75.0587 45.7214C75.0587 49.6374 71.9188 52.7775 68 52.7775C64.0826 52.7775 60.9414 49.6374 60.9414 45.7214C60.9414 41.8054 64.0826 38.6667 68 38.6667Z" fill="white"/>
</g>
</g>
<defs>
<filter id="filter0_d_152_4162" x="0" y="0" width="136" height="136" filterUnits="userSpaceOnUse" color-interpolation-filters="sRGB">
<feFlood flood-opacity="0" result="BackgroundImageFix"/>
<feColorMatrix in="SourceAlpha" type="matrix" values="0 0 0 0 0 0 0 0 0 0 0 0 0 0 0 0 0 0 127 0" result="hardAlpha"/>
<feOffset dy="16"/>
<feGaussianBlur stdDeviation="16"/>
<feComposite in2="hardAlpha" operator="out"/>
<feColorMatrix type="matrix" values="0 0 0 0 0.210031 0 0 0 0 0.0633751 0 0 0 0 0.65 0 0 0 0.4 0"/>
<feBlend mode="normal" in2="BackgroundImageFix" result="effect1_dropShadow_152_4162"/>
<feBlend mode="normal" in="SourceGraphic" in2="effect1_dropShadow_152_4162" result="shape"/>
</filter>
<filter id="filter1_d_152_4162" x="37.3334" y="22.6667" width="61.3334" height="66.6667" filterUnits="userSpaceOnUse" color-interpolation-filters="sRGB">
<feFlood flood-opacity="0" result="BackgroundImageFix"/>
<feColorMatrix in="SourceAlpha" type="matrix" values="0 0 0 0 0 0 0 0 0 0 0 0 0 0 0 0 0 0 127 0" result="hardAlpha"/>
<feOffset dy="4"/>
<feGaussianBlur stdDeviation="10"/>
<feComposite in2="hardAlpha" operator="out"/>
<feColorMatrix type="matrix" values="0 0 0 0 1 0 0 0 0 1 0 0 0 0 1 0 0 0 0.48 0"/>
<feBlend mode="normal" in2="BackgroundImageFix" result="effect1_dropShadow_152_4162"/>
<feBlend mode="normal" in="SourceGraphic" in2="effect1_dropShadow_152_4162" result="shape"/>
</filter>
</defs>
</svg>
