<svg width="359" height="152" viewBox="0 0 359 152" fill="none" xmlns="http://www.w3.org/2000/svg">
<path d="M19.572 14.126C18.5733 14.126 17.7193 13.9207 17.01 13.51C16.3007 13.0993 15.7547 12.516 15.372 11.76C14.9987 10.9947 14.812 10.094 14.812 9.058C14.812 8.28333 14.9193 7.588 15.134 6.972C15.3487 6.34667 15.6567 5.81467 16.058 5.376C16.4687 4.928 16.968 4.58733 17.556 4.354C18.1533 4.12067 18.8253 4.004 19.572 4.004C20.1227 4.004 20.65 4.07867 21.154 4.228C21.6673 4.37733 22.1107 4.592 22.484 4.872C22.6427 4.97467 22.7453 5.10067 22.792 5.25C22.848 5.39 22.8573 5.52533 22.82 5.656C22.792 5.78667 22.7313 5.89867 22.638 5.992C22.5447 6.076 22.4233 6.12267 22.274 6.132C22.134 6.14133 21.98 6.09 21.812 5.978C21.504 5.74467 21.1633 5.572 20.79 5.46C20.4167 5.348 20.0247 5.292 19.614 5.292C18.9047 5.292 18.3073 5.44133 17.822 5.74C17.3367 6.02933 16.968 6.454 16.716 7.014C16.464 7.574 16.338 8.25533 16.338 9.058C16.338 9.86067 16.464 10.5467 16.716 11.116C16.968 11.676 17.3367 12.1053 17.822 12.404C18.3073 12.6933 18.9047 12.838 19.614 12.838C20.0247 12.838 20.4167 12.782 20.79 12.67C21.1727 12.5487 21.532 12.3713 21.868 12.138C22.036 12.0353 22.1853 11.9887 22.316 11.998C22.456 12.0073 22.5727 12.054 22.666 12.138C22.7593 12.222 22.82 12.3293 22.848 12.46C22.8853 12.5813 22.8807 12.712 22.834 12.852C22.7967 12.9827 22.708 13.0947 22.568 13.188C22.1853 13.496 21.7327 13.7293 21.21 13.888C20.6873 14.0467 20.1413 14.126 19.572 14.126ZM26.7466 14.126C26.196 14.126 25.734 14.0233 25.3606 13.818C24.9966 13.6127 24.7213 13.3093 24.5346 12.908C24.3573 12.4973 24.2686 11.984 24.2686 11.368V7.784C24.2686 7.54133 24.3293 7.364 24.4506 7.252C24.572 7.13067 24.7446 7.07 24.9686 7.07C25.1926 7.07 25.3653 7.13067 25.4866 7.252C25.6173 7.364 25.6826 7.54133 25.6826 7.784V11.382C25.6826 11.9327 25.7946 12.3387 26.0186 12.6C26.2426 12.8613 26.5973 12.992 27.0826 12.992C27.6146 12.992 28.044 12.8147 28.3706 12.46C28.7066 12.096 28.8746 11.62 28.8746 11.032V7.784C28.8746 7.54133 28.9353 7.364 29.0566 7.252C29.178 7.13067 29.3553 7.07 29.5886 7.07C29.8126 7.07 29.9853 7.13067 30.1066 7.252C30.228 7.364 30.2886 7.54133 30.2886 7.784V13.384C30.2886 13.86 30.06 14.098 29.6026 14.098C29.388 14.098 29.22 14.0373 29.0986 13.916C28.9773 13.7853 28.9166 13.608 28.9166 13.384V12.194L29.0986 12.502C28.912 13.0247 28.6133 13.426 28.2026 13.706C27.792 13.986 27.3066 14.126 26.7466 14.126ZM33.0151 14.098C32.7818 14.098 32.6044 14.0373 32.4831 13.916C32.3618 13.7853 32.3011 13.608 32.3011 13.384V7.784C32.3011 7.55067 32.3618 7.37333 32.4831 7.252C32.6044 7.13067 32.7724 7.07 32.9871 7.07C33.2111 7.07 33.3791 7.13067 33.4911 7.252C33.6124 7.37333 33.6731 7.55067 33.6731 7.784V8.806H33.5331C33.6824 8.246 33.9578 7.82133 34.3591 7.532C34.7604 7.24267 35.2738 7.07467 35.8991 7.028C36.0671 7.01867 36.1978 7.06067 36.2911 7.154C36.3938 7.24733 36.4498 7.392 36.4591 7.588C36.4778 7.784 36.4358 7.94267 36.3331 8.064C36.2304 8.176 36.0718 8.24133 35.8571 8.26L35.5911 8.288C34.9844 8.344 34.5224 8.53533 34.2051 8.862C33.8878 9.18867 33.7291 9.63667 33.7291 10.206V13.384C33.7291 13.608 33.6684 13.7853 33.5471 13.916C33.4351 14.0373 33.2578 14.098 33.0151 14.098ZM38.2575 14.098C38.0242 14.098 37.8469 14.0373 37.7255 13.916C37.6042 13.7853 37.5435 13.608 37.5435 13.384V7.784C37.5435 7.55067 37.6042 7.37333 37.7255 7.252C37.8469 7.13067 38.0149 7.07 38.2295 7.07C38.4535 7.07 38.6215 7.13067 38.7335 7.252C38.8549 7.37333 38.9155 7.55067 38.9155 7.784V8.806H38.7755C38.9249 8.246 39.2002 7.82133 39.6015 7.532C40.0029 7.24267 40.5162 7.07467 41.1415 7.028C41.3095 7.01867 41.4402 7.06067 41.5335 7.154C41.6362 7.24733 41.6922 7.392 41.7015 7.588C41.7202 7.784 41.6782 7.94267 41.5755 8.064C41.4729 8.176 41.3142 8.24133 41.0995 8.26L40.8335 8.288C40.2269 8.344 39.7649 8.53533 39.4475 8.862C39.1302 9.18867 38.9715 9.63667 38.9715 10.206V13.384C38.9715 13.608 38.9109 13.7853 38.7895 13.916C38.6775 14.0373 38.5002 14.098 38.2575 14.098ZM45.8962 14.126C45.1496 14.126 44.5056 13.986 43.9642 13.706C43.4322 13.4167 43.0169 13.0107 42.7182 12.488C42.4289 11.956 42.2842 11.326 42.2842 10.598C42.2842 9.88867 42.4289 9.268 42.7182 8.736C43.0076 8.204 43.4042 7.78867 43.9082 7.49C44.4122 7.19133 44.9862 7.042 45.6302 7.042C46.1062 7.042 46.5309 7.12133 46.9042 7.28C47.2776 7.42933 47.5949 7.65333 47.8562 7.952C48.1269 8.24133 48.3276 8.596 48.4582 9.016C48.5982 9.436 48.6682 9.90733 48.6682 10.43C48.6682 10.5887 48.6216 10.71 48.5282 10.794C48.4349 10.8687 48.2949 10.906 48.1082 10.906H43.4042V10.038H47.7162L47.4782 10.234C47.4782 9.76733 47.4082 9.37067 47.2682 9.044C47.1376 8.71733 46.9369 8.47 46.6662 8.302C46.4049 8.12467 46.0782 8.036 45.6862 8.036C45.2476 8.036 44.8742 8.13867 44.5662 8.344C44.2676 8.54933 44.0389 8.834 43.8802 9.198C43.7216 9.562 43.6422 9.98667 43.6422 10.472V10.556C43.6422 11.3773 43.8336 11.998 44.2162 12.418C44.6082 12.8287 45.1729 13.034 45.9102 13.034C46.1902 13.034 46.4842 12.9967 46.7922 12.922C47.1096 12.8473 47.4082 12.7213 47.6882 12.544C47.8469 12.4507 47.9869 12.4087 48.1082 12.418C48.2389 12.4273 48.3416 12.4693 48.4162 12.544C48.5002 12.6187 48.5516 12.712 48.5702 12.824C48.5889 12.936 48.5702 13.0527 48.5142 13.174C48.4582 13.286 48.3602 13.3887 48.2202 13.482C47.9029 13.6967 47.5342 13.86 47.1142 13.972C46.6942 14.0747 46.2882 14.126 45.8962 14.126ZM50.9295 14.098C50.7055 14.098 50.5329 14.0373 50.4115 13.916C50.2902 13.7853 50.2295 13.608 50.2295 13.384V7.784C50.2295 7.55067 50.2902 7.37333 50.4115 7.252C50.5329 7.13067 50.7009 7.07 50.9155 7.07C51.1395 7.07 51.3075 7.13067 51.4195 7.252C51.5409 7.37333 51.6015 7.55067 51.6015 7.784V8.876L51.4475 8.624C51.6529 8.10133 51.9749 7.70933 52.4135 7.448C52.8522 7.17733 53.3562 7.042 53.9255 7.042C54.4669 7.042 54.9149 7.14467 55.2695 7.35C55.6335 7.546 55.9042 7.84933 56.0815 8.26C56.2589 8.66133 56.3475 9.17 56.3475 9.786V13.384C56.3475 13.608 56.2869 13.7853 56.1655 13.916C56.0442 14.0373 55.8715 14.098 55.6475 14.098C55.4142 14.098 55.2369 14.0373 55.1155 13.916C54.9942 13.7853 54.9335 13.608 54.9335 13.384V9.87C54.9335 9.282 54.8169 8.85267 54.5835 8.582C54.3595 8.31133 54.0049 8.176 53.5195 8.176C52.9502 8.176 52.4929 8.35333 52.1475 8.708C51.8115 9.06267 51.6435 9.53867 51.6435 10.136V13.384C51.6435 13.86 51.4055 14.098 50.9295 14.098ZM61.2277 14.126C60.6677 14.126 60.1964 14.028 59.8137 13.832C59.431 13.636 59.1464 13.3467 58.9597 12.964C58.773 12.5813 58.6797 12.1147 58.6797 11.564V8.26H57.8397C57.653 8.26 57.5084 8.21333 57.4057 8.12C57.303 8.01733 57.2517 7.882 57.2517 7.714C57.2517 7.53667 57.303 7.40133 57.4057 7.308C57.5084 7.21467 57.653 7.168 57.8397 7.168H58.6797V5.726C58.6797 5.49267 58.7404 5.31533 58.8617 5.194C58.9924 5.07267 59.1697 5.012 59.3937 5.012C59.6177 5.012 59.7904 5.07267 59.9117 5.194C60.033 5.31533 60.0937 5.49267 60.0937 5.726V7.168H61.7317C61.9184 7.168 62.063 7.21467 62.1657 7.308C62.2684 7.40133 62.3197 7.53667 62.3197 7.714C62.3197 7.882 62.2684 8.01733 62.1657 8.12C62.063 8.21333 61.9184 8.26 61.7317 8.26H60.0937V11.452C60.0937 11.9467 60.1964 12.32 60.4017 12.572C60.6164 12.824 60.9617 12.95 61.4377 12.95C61.6057 12.95 61.7504 12.936 61.8717 12.908C62.0024 12.8707 62.1097 12.8473 62.1937 12.838C62.2964 12.838 62.3804 12.8753 62.4457 12.95C62.511 13.0153 62.5437 13.146 62.5437 13.342C62.5437 13.482 62.5157 13.6127 62.4597 13.734C62.413 13.8553 62.3244 13.9347 62.1937 13.972C62.0817 14.0093 61.9277 14.042 61.7317 14.07C61.545 14.1073 61.377 14.126 61.2277 14.126ZM68.0559 14C67.8226 14 67.6406 13.9347 67.5099 13.804C67.3792 13.6733 67.3139 13.4913 67.3139 13.258V4.816C67.3139 4.57333 67.3746 4.39133 67.4959 4.27C67.6266 4.13933 67.8086 4.074 68.0419 4.074C68.2752 4.074 68.4526 4.13933 68.5739 4.27C68.7046 4.39133 68.7699 4.57333 68.7699 4.816V12.754H73.1099C73.3152 12.754 73.4739 12.81 73.5859 12.922C73.6979 13.0247 73.7539 13.174 73.7539 13.37C73.7539 13.566 73.6979 13.72 73.5859 13.832C73.4739 13.944 73.3152 14 73.1099 14H68.0559ZM78.0419 14.126C77.2952 14.126 76.6512 13.986 76.1099 13.706C75.5779 13.4167 75.1626 13.0107 74.8639 12.488C74.5746 11.956 74.4299 11.326 74.4299 10.598C74.4299 9.88867 74.5746 9.268 74.8639 8.736C75.1532 8.204 75.5499 7.78867 76.0539 7.49C76.5579 7.19133 77.1319 7.042 77.7759 7.042C78.2519 7.042 78.6766 7.12133 79.0499 7.28C79.4232 7.42933 79.7406 7.65333 80.0019 7.952C80.2726 8.24133 80.4732 8.596 80.6039 9.016C80.7439 9.436 80.8139 9.90733 80.8139 10.43C80.8139 10.5887 80.7672 10.71 80.6739 10.794C80.5806 10.8687 80.4406 10.906 80.2539 10.906H75.5499V10.038H79.8619L79.6239 10.234C79.6239 9.76733 79.5539 9.37067 79.4139 9.044C79.2832 8.71733 79.0826 8.47 78.8119 8.302C78.5506 8.12467 78.2239 8.036 77.8319 8.036C77.3932 8.036 77.0199 8.13867 76.7119 8.344C76.4132 8.54933 76.1846 8.834 76.0259 9.198C75.8672 9.562 75.7879 9.98667 75.7879 10.472V10.556C75.7879 11.3773 75.9792 11.998 76.3619 12.418C76.7539 12.8287 77.3186 13.034 78.0559 13.034C78.3359 13.034 78.6299 12.9967 78.9379 12.922C79.2552 12.8473 79.5539 12.7213 79.8339 12.544C79.9926 12.4507 80.1326 12.4087 80.2539 12.418C80.3846 12.4273 80.4872 12.4693 80.5619 12.544C80.6459 12.6187 80.6972 12.712 80.7159 12.824C80.7346 12.936 80.7159 13.0527 80.6599 13.174C80.6039 13.286 80.5059 13.3887 80.3659 13.482C80.0486 13.6967 79.6799 13.86 79.2599 13.972C78.8399 14.0747 78.4339 14.126 78.0419 14.126ZM84.9255 14.098C84.7295 14.098 84.5568 14.0467 84.4075 13.944C84.2675 13.8413 84.1508 13.6827 84.0575 13.468L81.7195 8.036C81.6448 7.868 81.6168 7.70933 81.6355 7.56C81.6542 7.41067 81.7242 7.294 81.8455 7.21C81.9668 7.11667 82.1302 7.07 82.3355 7.07C82.5128 7.07 82.6528 7.112 82.7555 7.196C82.8582 7.28 82.9515 7.42467 83.0355 7.63L85.1495 12.838H84.7575L86.9135 7.63C86.9975 7.42467 87.0908 7.28 87.1935 7.196C87.3055 7.112 87.4595 7.07 87.6555 7.07C87.8235 7.07 87.9542 7.11667 88.0475 7.21C88.1502 7.294 88.2108 7.41067 88.2295 7.56C88.2575 7.7 88.2342 7.854 88.1595 8.022L85.7935 13.468C85.7095 13.6827 85.5928 13.8413 85.4435 13.944C85.2942 14.0467 85.1215 14.098 84.9255 14.098ZM92.6556 14.126C91.909 14.126 91.265 13.986 90.7236 13.706C90.1916 13.4167 89.7763 13.0107 89.4776 12.488C89.1883 11.956 89.0436 11.326 89.0436 10.598C89.0436 9.88867 89.1883 9.268 89.4776 8.736C89.767 8.204 90.1636 7.78867 90.6676 7.49C91.1716 7.19133 91.7456 7.042 92.3896 7.042C92.8656 7.042 93.2903 7.12133 93.6636 7.28C94.037 7.42933 94.3543 7.65333 94.6156 7.952C94.8863 8.24133 95.087 8.596 95.2176 9.016C95.3576 9.436 95.4276 9.90733 95.4276 10.43C95.4276 10.5887 95.381 10.71 95.2876 10.794C95.1943 10.8687 95.0543 10.906 94.8676 10.906H90.1636V10.038H94.4756L94.2376 10.234C94.2376 9.76733 94.1676 9.37067 94.0276 9.044C93.897 8.71733 93.6963 8.47 93.4256 8.302C93.1643 8.12467 92.8376 8.036 92.4456 8.036C92.007 8.036 91.6336 8.13867 91.3256 8.344C91.027 8.54933 90.7983 8.834 90.6396 9.198C90.481 9.562 90.4016 9.98667 90.4016 10.472V10.556C90.4016 11.3773 90.593 11.998 90.9756 12.418C91.3676 12.8287 91.9323 13.034 92.6696 13.034C92.9496 13.034 93.2436 12.9967 93.5516 12.922C93.869 12.8473 94.1676 12.7213 94.4476 12.544C94.6063 12.4507 94.7463 12.4087 94.8676 12.418C94.9983 12.4273 95.101 12.4693 95.1756 12.544C95.2596 12.6187 95.311 12.712 95.3296 12.824C95.3483 12.936 95.3296 13.0527 95.2736 13.174C95.2176 13.286 95.1196 13.3887 94.9796 13.482C94.6623 13.6967 94.2936 13.86 93.8736 13.972C93.4536 14.0747 93.0476 14.126 92.6556 14.126ZM99.1869 14.126C98.4589 14.126 97.9083 13.916 97.5349 13.496C97.1709 13.0667 96.9889 12.4507 96.9889 11.648V4.746C96.9889 4.51267 97.0496 4.33533 97.1709 4.214C97.2923 4.09267 97.4649 4.032 97.6889 4.032C97.9129 4.032 98.0856 4.09267 98.2069 4.214C98.3376 4.33533 98.4029 4.51267 98.4029 4.746V11.564C98.4029 12.0307 98.4963 12.3807 98.6829 12.614C98.8789 12.838 99.1589 12.95 99.5229 12.95C99.6069 12.95 99.6816 12.95 99.7469 12.95C99.8123 12.9407 99.8776 12.9313 99.9429 12.922C100.055 12.9127 100.134 12.9453 100.181 13.02C100.228 13.0853 100.251 13.2253 100.251 13.44C100.251 13.636 100.209 13.79 100.125 13.902C100.041 14.0047 99.9056 14.07 99.7189 14.098C99.6349 14.1073 99.5463 14.112 99.4529 14.112C99.3596 14.1213 99.2709 14.126 99.1869 14.126Z" fill="#151414"/>
<g filter="url(#filter0_dd_243_3309)">
<path d="M14 59.4C14 47.8213 14 42.032 16.3247 37.6414C18.2007 34.0983 21.0983 31.2007 24.6414 29.3247C29.032 27 34.8213 27 46.4 27H309.6C321.179 27 326.968 27 331.359 29.3247C334.902 31.2007 337.799 34.0983 339.675 37.6414C342 42.032 342 47.8213 342 59.4V102.6C342 114.179 342 119.968 339.675 124.359C337.799 127.902 334.902 130.799 331.359 132.675C326.968 135 321.179 135 309.6 135H46.4C34.8213 135 29.032 135 24.6414 132.675C21.0983 130.799 18.2007 127.902 16.3247 124.359C14 119.968 14 114.179 14 102.6V59.4Z" fill="#FFFEFE"/>
<g opacity="0.2" filter="url(#filter1_b_243_3309)">
<path d="M33.8788 100.321C33.8788 92.1129 40.5329 85.4587 48.7412 85.4587H307.259C315.467 85.4587 322.121 92.1129 322.121 100.321C322.121 108.529 315.467 115.184 307.259 115.184H48.7412C40.5329 115.184 33.8788 108.529 33.8788 100.321Z" fill="url(#paint0_linear_243_3309)"/>
</g>
<path d="M36.8101 100.321C36.8101 93.7545 42.1333 88.4312 48.7 88.4312H241.835C248.401 88.4312 253.725 93.7545 253.725 100.321C253.725 106.888 248.401 112.211 241.835 112.211H48.7C42.1334 112.211 36.8101 106.888 36.8101 100.321Z" fill="url(#paint1_linear_243_3309)"/>
<path d="M59.7524 100.321C59.7524 106.208 54.9126 111.007 48.9088 111.007C42.9049 111.007 38.0651 106.208 38.0651 100.321C38.0651 94.4347 42.9049 89.6357 48.9088 89.6357C54.9126 89.6357 59.7524 94.4347 59.7524 100.321Z" fill="url(#paint2_linear_243_3309)" stroke="url(#paint3_linear_243_3309)" stroke-width="2.40905"/>
<g opacity="0.5">
<path d="M318.177 100.321C318.177 106.208 313.337 111.007 307.333 111.007C301.329 111.007 296.489 106.208 296.489 100.321C296.489 94.4347 301.329 89.6357 307.333 89.6357C313.337 89.6357 318.177 94.4347 318.177 100.321Z" fill="url(#paint4_linear_243_3309)" stroke="url(#paint5_linear_243_3309)" stroke-width="2.40905"/>
<path d="M307.428 105.413C306.815 105.413 306.269 105.308 305.792 105.098C305.318 104.888 304.943 104.595 304.667 104.22C304.392 103.845 304.245 103.412 304.228 102.92H305.83C305.845 103.156 305.923 103.362 306.065 103.538C306.207 103.712 306.396 103.847 306.632 103.943C306.867 104.04 307.132 104.088 307.424 104.088C307.737 104.088 308.014 104.034 308.255 103.926C308.497 103.815 308.686 103.662 308.822 103.466C308.958 103.27 309.025 103.044 309.022 102.788C309.025 102.524 308.957 102.291 308.818 102.09C308.678 101.888 308.477 101.73 308.213 101.617C307.951 101.503 307.636 101.446 307.267 101.446H306.495V100.227H307.267C307.571 100.227 307.836 100.175 308.063 100.07C308.294 99.9645 308.474 99.8168 308.605 99.6265C308.735 99.4333 308.799 99.2103 308.796 98.9574C308.799 98.7103 308.744 98.4958 308.63 98.314C308.519 98.1293 308.362 97.9858 308.157 97.8836C307.955 97.7813 307.718 97.7301 307.446 97.7301C307.178 97.7301 306.931 97.7784 306.704 97.875C306.477 97.9716 306.294 98.1094 306.154 98.2884C306.015 98.4645 305.941 98.6747 305.933 98.9191H304.411C304.423 98.4304 304.563 98.0015 304.833 97.6321C305.106 97.26 305.47 96.9702 305.924 96.7628C306.379 96.5526 306.889 96.4475 307.454 96.4475C308.036 96.4475 308.542 96.5569 308.971 96.7756C309.403 96.9915 309.737 97.2827 309.973 97.6492C310.208 98.0157 310.326 98.4205 310.326 98.8637C310.329 99.3551 310.184 99.7671 309.892 100.099C309.602 100.432 309.221 100.649 308.75 100.751V100.82C309.363 100.905 309.833 101.132 310.16 101.501C310.49 101.868 310.653 102.324 310.65 102.869C310.65 103.358 310.511 103.795 310.232 104.182C309.957 104.565 309.576 104.867 309.09 105.085C308.607 105.304 308.053 105.413 307.428 105.413Z" fill="#825C24"/>
</g>
<path d="M45.5877 104.395V103.252L48.6175 100.282C48.9073 99.9897 49.1488 99.7298 49.3419 99.5025C49.5351 99.2752 49.68 99.055 49.7766 98.842C49.8732 98.6289 49.9215 98.4016 49.9215 98.1602C49.9215 97.8846 49.859 97.6488 49.734 97.4528C49.609 97.2539 49.4371 97.1005 49.2184 96.9925C48.9996 96.8846 48.751 96.8306 48.4726 96.8306C48.1857 96.8306 47.9343 96.8903 47.7184 97.0096C47.5025 97.1261 47.3348 97.2923 47.2155 97.5082C47.0991 97.7241 47.0408 97.9812 47.0408 98.2795H45.5366C45.5366 97.7255 45.663 97.244 45.9158 96.8349C46.1687 96.4258 46.5167 96.109 46.9598 95.8846C47.4059 95.6602 47.9172 95.5479 48.4939 95.5479C49.0792 95.5479 49.5934 95.6573 50.0366 95.8761C50.4797 96.0948 50.8235 96.3945 51.0678 96.7752C51.315 97.1559 51.4385 97.5906 51.4385 98.0792C51.4385 98.4059 51.376 98.7269 51.251 99.0423C51.126 99.3576 50.9059 99.707 50.5905 100.091C50.278 100.474 49.8391 100.939 49.2738 101.484L47.7695 103.014V103.074H51.5706V104.395H45.5877Z" fill="#825C24"/>
<path d="M75.8498 58.8624V46.4987H78.0895V56.9849H83.5348V58.8624H75.8498ZM89.1872 59.0435C88.2575 59.0435 87.4546 58.8503 86.7785 58.4639C86.1063 58.0735 85.5892 57.5222 85.227 56.8098C84.8647 56.0934 84.6836 55.2503 84.6836 54.2803C84.6836 53.3265 84.8647 52.4894 85.227 51.769C85.5932 51.0445 86.1043 50.4811 86.7603 50.0786C87.4164 49.6721 88.1871 49.4689 89.0725 49.4689C89.644 49.4689 90.1833 49.5615 90.6904 49.7466C91.2015 49.9277 91.6523 50.2094 92.0427 50.5918C92.4371 50.9741 92.747 51.4611 92.9723 52.0527C93.1977 52.6403 93.3104 53.3406 93.3104 54.1536V54.8237H85.7099V53.3506H91.2156C91.2116 52.9321 91.121 52.5598 90.9439 52.2338C90.7669 51.9038 90.5193 51.6442 90.2014 51.4551C89.8875 51.2659 89.5212 51.1713 89.1027 51.1713C88.6559 51.1713 88.2635 51.28 87.9255 51.4973C87.5874 51.7106 87.3238 51.9923 87.1346 52.3425C86.9495 52.6886 86.8549 53.0689 86.8509 53.4835V54.7693C86.8509 55.3086 86.9495 55.7715 87.1467 56.1578C87.3439 56.5402 87.6196 56.834 87.9738 57.0392C88.3279 57.2404 88.7425 57.3411 89.2174 57.3411C89.5353 57.3411 89.8231 57.2968 90.0807 57.2082C90.3382 57.1157 90.5616 56.9809 90.7508 56.8038C90.9399 56.6267 91.0828 56.4073 91.1794 56.1457L93.2199 56.3751C93.0911 56.9144 92.8456 57.3853 92.4834 57.7878C92.1252 58.1862 91.6664 58.4961 91.1069 58.7175C90.5475 58.9348 89.9076 59.0435 89.1872 59.0435ZM102.876 49.5896L99.5741 58.8624H97.1593L93.8571 49.5896H96.1874L98.3184 56.4778H98.415L100.552 49.5896H102.876ZM107.878 59.0435C106.949 59.0435 106.146 58.8503 105.469 58.4639C104.797 58.0735 104.28 57.5222 103.918 56.8098C103.556 56.0934 103.375 55.2503 103.375 54.2803C103.375 53.3265 103.556 52.4894 103.918 51.769C104.284 51.0445 104.795 50.4811 105.451 50.0786C106.107 49.6721 106.878 49.4689 107.764 49.4689C108.335 49.4689 108.874 49.5615 109.381 49.7466C109.893 49.9277 110.343 50.2094 110.734 50.5918C111.128 50.9741 111.438 51.4611 111.663 52.0527C111.889 52.6403 112.001 53.3406 112.001 54.1536V54.8237H104.401V53.3506H109.907C109.903 52.9321 109.812 52.5598 109.635 52.2338C109.458 51.9038 109.21 51.6442 108.892 51.4551C108.578 51.2659 108.212 51.1713 107.794 51.1713C107.347 51.1713 106.955 51.28 106.616 51.4973C106.278 51.7106 106.015 51.9923 105.826 52.3425C105.641 52.6886 105.546 53.0689 105.542 53.4835V54.7693C105.542 55.3086 105.641 55.7715 105.838 56.1578C106.035 56.5402 106.311 56.834 106.665 57.0392C107.019 57.2404 107.433 57.3411 107.908 57.3411C108.226 57.3411 108.514 57.2968 108.772 57.2082C109.029 57.1157 109.253 56.9809 109.442 56.8038C109.631 56.6267 109.774 56.4073 109.87 56.1457L111.911 56.3751C111.782 56.9144 111.537 57.3853 111.174 57.7878C110.816 58.1862 110.357 58.4961 109.798 58.7175C109.239 58.9348 108.599 59.0435 107.878 59.0435ZM115.736 46.4987V58.8624H113.55V46.4987H115.736ZM121.576 58.8624V57.2445L125.868 53.0367C126.278 52.6222 126.62 52.2539 126.894 51.932C127.168 51.61 127.373 51.2981 127.51 50.9962C127.647 50.6944 127.715 50.3724 127.715 50.0303C127.715 49.6399 127.627 49.3059 127.449 49.0282C127.272 48.7465 127.029 48.5292 126.719 48.3762C126.409 48.2233 126.057 48.1468 125.663 48.1468C125.256 48.1468 124.9 48.2313 124.594 48.4004C124.288 48.5654 124.051 48.8008 123.882 49.1067C123.717 49.4126 123.634 49.7768 123.634 50.1994H121.503C121.503 49.4146 121.682 48.7324 122.04 48.1528C122.399 47.5733 122.892 47.1246 123.519 46.8066C124.151 46.4887 124.876 46.3297 125.693 46.3297C126.522 46.3297 127.25 46.4846 127.878 46.7945C128.506 47.1044 128.993 47.529 129.339 48.0683C129.689 48.6076 129.864 49.2234 129.864 49.9156C129.864 50.3785 129.776 50.8332 129.599 51.28C129.422 51.7267 129.11 52.2217 128.663 52.7651C128.22 53.3084 127.598 53.9664 126.797 54.7391L124.666 56.9064V56.9909H130.051V58.8624H121.576Z" fill="black"/>
<path d="M78.44 75.7798C77.8718 75.7798 77.3633 75.6733 76.9144 75.4602C76.4655 75.2443 76.109 74.9489 75.8448 74.5739C75.5834 74.1989 75.4442 73.7699 75.4272 73.2869H76.9613C76.9897 73.6449 77.1445 73.9375 77.4258 74.1648C77.707 74.3892 78.0451 74.5014 78.44 74.5014C78.7496 74.5014 79.0252 74.4304 79.2667 74.2884C79.5081 74.1463 79.6985 73.9489 79.8377 73.696C79.9769 73.4432 80.0451 73.1548 80.0422 72.831C80.0451 72.5014 79.9755 72.2088 79.8334 71.9531C79.6914 71.6975 79.4968 71.4972 79.2496 71.3523C79.0025 71.2046 78.7184 71.1307 78.3973 71.1307C78.136 71.1279 77.8789 71.1761 77.626 71.2756C77.3732 71.375 77.1729 71.5057 77.0252 71.6676L75.5976 71.4332L76.0536 66.9332H81.1161V68.2543H77.3618L77.1104 70.5682H77.1616C77.3235 70.3779 77.5522 70.2202 77.8476 70.0952C78.1431 69.9673 78.467 69.9034 78.8192 69.9034C79.3476 69.9034 79.8192 70.0284 80.234 70.2784C80.6488 70.5256 80.9755 70.8665 81.2141 71.3011C81.4527 71.7358 81.5721 72.233 81.5721 72.7926C81.5721 73.3693 81.4385 73.8835 81.1715 74.3352C80.9073 74.7841 80.5394 75.1378 80.0678 75.3963C79.5991 75.652 79.0564 75.7798 78.44 75.7798ZM86.2455 75.8267C85.5438 75.8267 84.9415 75.6492 84.4387 75.294C83.9387 74.9361 83.5537 74.4205 83.2838 73.7472C83.0168 73.071 82.8833 72.2571 82.8833 71.3054C82.8861 70.3537 83.021 69.544 83.2881 68.8764C83.558 68.206 83.9429 67.6946 84.4429 67.3423C84.9458 66.9901 85.5466 66.8139 86.2455 66.8139C86.9443 66.8139 87.5452 66.9901 88.048 67.3423C88.5509 67.6946 88.9358 68.206 89.2029 68.8764C89.4727 69.5469 89.6077 70.3565 89.6077 71.3054C89.6077 72.26 89.4727 73.0753 89.2029 73.7514C88.9358 74.4247 88.5509 74.9389 88.048 75.294C87.548 75.6492 86.9472 75.8267 86.2455 75.8267ZM86.2455 74.4929C86.7909 74.4929 87.2213 74.2244 87.5367 73.6875C87.8548 73.1477 88.0139 72.3537 88.0139 71.3054C88.0139 70.6122 87.9415 70.0298 87.7966 69.5582C87.6517 69.0867 87.4472 68.7315 87.183 68.4929C86.9188 68.2514 86.6063 68.1307 86.2455 68.1307C85.7029 68.1307 85.2739 68.4006 84.9585 68.9404C84.6432 69.4773 84.4841 70.2656 84.4813 71.3054C84.4784 72.0014 84.548 72.5867 84.6901 73.0611C84.835 73.5355 85.0395 73.8935 85.3037 74.135C85.5679 74.3736 85.8818 74.4929 86.2455 74.4929ZM94.2694 75.8267C93.5677 75.8267 92.9654 75.6492 92.4626 75.294C91.9626 74.9361 91.5776 74.4205 91.3077 73.7472C91.0407 73.071 90.9072 72.2571 90.9072 71.3054C90.91 70.3537 91.0449 69.544 91.312 68.8764C91.5819 68.206 91.9668 67.6946 92.4668 67.3423C92.9697 66.9901 93.5705 66.8139 94.2694 66.8139C94.9682 66.8139 95.5691 66.9901 96.0719 67.3423C96.5748 67.6946 96.9597 68.206 97.2268 68.8764C97.4967 69.5469 97.6316 70.3565 97.6316 71.3054C97.6316 72.26 97.4967 73.0753 97.2268 73.7514C96.9597 74.4247 96.5748 74.9389 96.0719 75.294C95.5719 75.6492 94.9711 75.8267 94.2694 75.8267ZM94.2694 74.4929C94.8148 74.4929 95.2452 74.2244 95.5606 73.6875C95.8788 73.1477 96.0378 72.3537 96.0378 71.3054C96.0378 70.6122 95.9654 70.0298 95.8205 69.5582C95.6756 69.0867 95.4711 68.7315 95.2069 68.4929C94.9427 68.2514 94.6302 68.1307 94.2694 68.1307C93.7268 68.1307 93.2978 68.4006 92.9824 68.9404C92.6671 69.4773 92.508 70.2656 92.5052 71.3054C92.5023 72.0014 92.5719 72.5867 92.714 73.0611C92.8589 73.5355 93.0634 73.8935 93.3276 74.135C93.5918 74.3736 93.9057 74.4929 94.2694 74.4929ZM102.149 75.6605V66.9332H105.422C106.092 66.9332 106.655 67.0582 107.109 67.3082C107.567 67.5582 107.912 67.902 108.145 68.3395C108.381 68.7742 108.499 69.2685 108.499 69.8225C108.499 70.3821 108.381 70.8793 108.145 71.3139C107.909 71.7486 107.561 72.0909 107.101 72.3409C106.641 72.5881 106.074 72.7117 105.401 72.7117H103.232V71.4119H105.188C105.58 71.4119 105.901 71.3438 106.151 71.2074C106.401 71.071 106.585 70.8835 106.705 70.6449C106.827 70.4063 106.888 70.1321 106.888 69.8225C106.888 69.5128 106.827 69.2401 106.705 69.0043C106.585 68.7685 106.399 68.5852 106.146 68.4546C105.896 68.321 105.574 68.2543 105.179 68.2543H103.73V75.6605H102.149ZM112.585 75.7884C111.946 75.7884 111.392 75.6477 110.923 75.3665C110.454 75.0852 110.091 74.6918 109.832 74.1861C109.577 73.6804 109.449 73.0895 109.449 72.4134C109.449 71.7372 109.577 71.1449 109.832 70.6364C110.091 70.1279 110.454 69.733 110.923 69.4517C111.392 69.1705 111.946 69.0298 112.585 69.0298C113.224 69.0298 113.778 69.1705 114.247 69.4517C114.716 69.733 115.078 70.1279 115.334 70.6364C115.592 71.1449 115.721 71.7372 115.721 72.4134C115.721 73.0895 115.592 73.6804 115.334 74.1861C115.078 74.6918 114.716 75.0852 114.247 75.3665C113.778 75.6477 113.224 75.7884 112.585 75.7884ZM112.594 74.5526C112.94 74.5526 113.23 74.4574 113.463 74.2671C113.696 74.0739 113.869 73.8154 113.983 73.4915C114.099 73.1676 114.158 72.8068 114.158 72.4091C114.158 72.0085 114.099 71.6463 113.983 71.3225C113.869 70.9957 113.696 70.7358 113.463 70.5426C113.23 70.3494 112.94 70.2529 112.594 70.2529C112.238 70.2529 111.943 70.3494 111.707 70.5426C111.474 70.7358 111.3 70.9957 111.183 71.3225C111.069 71.6463 111.013 72.0085 111.013 72.4091C111.013 72.8068 111.069 73.1676 111.183 73.4915C111.3 73.8154 111.474 74.0739 111.707 74.2671C111.943 74.4574 112.238 74.5526 112.594 74.5526ZM117.051 75.6605V69.1151H118.593V75.6605H117.051ZM117.826 68.1861C117.582 68.1861 117.372 68.1051 117.196 67.9432C117.019 67.7784 116.931 67.581 116.931 67.3509C116.931 67.1179 117.019 66.9205 117.196 66.7585C117.372 66.5938 117.582 66.5114 117.826 66.5114C118.073 66.5114 118.284 66.5938 118.457 66.7585C118.633 66.9205 118.721 67.1179 118.721 67.3509C118.721 67.581 118.633 67.7784 118.457 67.9432C118.284 68.1051 118.073 68.1861 117.826 68.1861ZM121.742 71.8253V75.6605H120.2V69.1151H121.674V70.2273H121.751C121.901 69.8608 122.141 69.5696 122.471 69.3537C122.803 69.1378 123.214 69.0298 123.702 69.0298C124.154 69.0298 124.548 69.1264 124.883 69.3196C125.221 69.5128 125.482 69.7926 125.667 70.1591C125.854 70.5256 125.947 70.9702 125.944 71.4929V75.6605H124.401V71.7315C124.401 71.294 124.288 70.9517 124.06 70.7046C123.836 70.4574 123.525 70.3338 123.127 70.3338C122.857 70.3338 122.617 70.3935 122.407 70.5128C122.2 70.6293 122.036 70.7983 121.917 71.0199C121.8 71.2415 121.742 71.51 121.742 71.8253ZM130.801 69.1151V70.3082H127.038V69.1151H130.801ZM127.967 67.5469H129.509V73.6918C129.509 73.8992 129.541 74.0582 129.603 74.169C129.668 74.277 129.754 74.3509 129.859 74.3906C129.964 74.4304 130.08 74.4503 130.208 74.4503C130.305 74.4503 130.393 74.4432 130.472 74.429C130.555 74.4148 130.617 74.402 130.66 74.3906L130.92 75.5966C130.838 75.625 130.72 75.6563 130.566 75.6904C130.416 75.7244 130.231 75.7443 130.012 75.75C129.626 75.7614 129.278 75.7031 128.968 75.5753C128.659 75.4446 128.413 75.2429 128.231 74.9702C128.052 74.6975 127.964 74.3565 127.967 73.9475V67.5469ZM137.19 70.8452L135.784 70.9986C135.744 70.8565 135.675 70.723 135.575 70.598C135.479 70.473 135.348 70.3722 135.183 70.2955C135.018 70.2188 134.817 70.1804 134.578 70.1804C134.257 70.1804 133.987 70.25 133.768 70.3892C133.552 70.5284 133.446 70.7088 133.449 70.9304C133.446 71.1207 133.516 71.2756 133.658 71.3949C133.802 71.5142 134.041 71.6122 134.374 71.6889L135.49 71.9276C136.109 72.0611 136.57 72.2727 136.871 72.5625C137.175 72.8523 137.328 73.2315 137.331 73.7003C137.328 74.1122 137.207 74.4759 136.969 74.7912C136.733 75.1037 136.405 75.348 135.984 75.5242C135.564 75.7003 135.081 75.7884 134.535 75.7884C133.734 75.7884 133.089 75.6207 132.601 75.2855C132.112 74.9475 131.821 74.4773 131.727 73.875L133.231 73.7301C133.3 74.0256 133.445 74.2486 133.666 74.3992C133.888 74.5497 134.176 74.625 134.531 74.625C134.898 74.625 135.192 74.5497 135.413 74.3992C135.638 74.2486 135.75 74.0625 135.75 73.8409C135.75 73.6534 135.677 73.4986 135.533 73.3764C135.391 73.2543 135.169 73.1605 134.868 73.0952L133.751 72.8608C133.124 72.7301 132.659 72.51 132.358 72.2003C132.057 71.8878 131.908 71.4929 131.91 71.0156C131.908 70.6122 132.017 70.2628 132.239 69.9673C132.463 69.669 132.774 69.4389 133.172 69.277C133.572 69.1122 134.034 69.0298 134.557 69.0298C135.324 69.0298 135.927 69.1932 136.368 69.5199C136.811 69.8466 137.085 70.2884 137.19 70.8452ZM144.888 69.1151V70.3082H141.125V69.1151H144.888ZM142.054 67.5469H143.597V73.6918C143.597 73.8992 143.628 74.0582 143.691 74.169C143.756 74.277 143.841 74.3509 143.946 74.3906C144.051 74.4304 144.168 74.4503 144.296 74.4503C144.392 74.4503 144.48 74.4432 144.56 74.429C144.642 74.4148 144.705 74.402 144.747 74.3906L145.007 75.5966C144.925 75.625 144.807 75.6563 144.654 75.6904C144.503 75.7244 144.318 75.7443 144.1 75.75C143.713 75.7614 143.365 75.7031 143.056 75.5753C142.746 75.4446 142.5 75.2429 142.318 74.9702C142.139 74.6975 142.051 74.3565 142.054 73.9475V67.5469ZM148.983 75.7884C148.344 75.7884 147.79 75.6477 147.321 75.3665C146.852 75.0852 146.489 74.6918 146.23 74.1861C145.974 73.6804 145.847 73.0895 145.847 72.4134C145.847 71.7372 145.974 71.1449 146.23 70.6364C146.489 70.1279 146.852 69.733 147.321 69.4517C147.79 69.1705 148.344 69.0298 148.983 69.0298C149.622 69.0298 150.176 69.1705 150.645 69.4517C151.114 69.733 151.476 70.1279 151.731 70.6364C151.99 71.1449 152.119 71.7372 152.119 72.4134C152.119 73.0895 151.99 73.6804 151.731 74.1861C151.476 74.6918 151.114 75.0852 150.645 75.3665C150.176 75.6477 149.622 75.7884 148.983 75.7884ZM148.991 74.5526C149.338 74.5526 149.628 74.4574 149.861 74.2671C150.094 74.0739 150.267 73.8154 150.381 73.4915C150.497 73.1676 150.555 72.8068 150.555 72.4091C150.555 72.0085 150.497 71.6463 150.381 71.3225C150.267 70.9957 150.094 70.7358 149.861 70.5426C149.628 70.3494 149.338 70.2529 148.991 70.2529C148.636 70.2529 148.341 70.3494 148.105 70.5426C147.872 70.7358 147.697 70.9957 147.581 71.3225C147.467 71.6463 147.41 72.0085 147.41 72.4091C147.41 72.8068 147.467 73.1676 147.581 73.4915C147.697 73.8154 147.872 74.0739 148.105 74.2671C148.341 74.4574 148.636 74.5526 148.991 74.5526ZM157.988 71.8253V75.6605H156.445V69.1151H157.92V70.2273H157.996C158.147 69.8608 158.387 69.5696 158.716 69.3537C159.049 69.1378 159.459 69.0298 159.948 69.0298C160.4 69.0298 160.793 69.1264 161.128 69.3196C161.466 69.5128 161.728 69.7926 161.912 70.1591C162.1 70.5256 162.192 70.9702 162.189 71.4929V75.6605H160.647V71.7315C160.647 71.294 160.533 70.9517 160.306 70.7046C160.081 70.4574 159.77 70.3338 159.373 70.3338C159.103 70.3338 158.863 70.3935 158.652 70.5128C158.445 70.6293 158.282 70.7983 158.162 71.0199C158.046 71.2415 157.988 71.51 157.988 71.8253ZM166.675 75.7884C166.019 75.7884 165.452 75.652 164.975 75.3793C164.501 75.1037 164.136 74.7145 163.88 74.2117C163.624 73.706 163.496 73.1108 163.496 72.4261C163.496 71.7529 163.624 71.1619 163.88 70.6534C164.138 70.1421 164.499 69.7443 164.962 69.4602C165.425 69.1733 165.969 69.0298 166.594 69.0298C166.998 69.0298 167.378 69.0952 167.736 69.2259C168.097 69.3537 168.415 69.5526 168.691 69.8225C168.969 70.0923 169.188 70.4361 169.347 70.8537C169.506 71.2685 169.586 71.7628 169.586 72.3367V72.8097H164.221V71.7699H168.107C168.104 71.4744 168.04 71.2117 167.915 70.9815C167.79 70.7486 167.616 70.5654 167.391 70.4318C167.17 70.2983 166.911 70.2315 166.616 70.2315C166.3 70.2315 166.023 70.3082 165.785 70.4617C165.546 70.6122 165.36 70.8111 165.226 71.0582C165.096 71.3026 165.029 71.571 165.026 71.8636V72.7713C165.026 73.152 165.096 73.4787 165.235 73.7514C165.374 74.0213 165.569 74.2287 165.819 74.3736C166.069 74.5156 166.361 74.5867 166.697 74.5867C166.921 74.5867 167.124 74.5554 167.306 74.4929C167.488 74.4276 167.646 74.3324 167.779 74.2074C167.913 74.0824 168.013 73.9276 168.082 73.7429L169.522 73.9048C169.431 74.2855 169.258 74.6179 169.002 74.902C168.749 75.1832 168.425 75.402 168.03 75.5582C167.636 75.7117 167.184 75.7884 166.675 75.7884ZM172.032 69.1151L173.353 71.5313L174.695 69.1151H176.327L174.354 72.3878L176.361 75.6605H174.738L173.353 73.304L171.98 75.6605H170.344L172.338 72.3878L170.395 69.1151H172.032ZM180.809 69.1151V70.3082H177.046V69.1151H180.809ZM177.975 67.5469H179.518V73.6918C179.518 73.8992 179.549 74.0582 179.611 74.169C179.677 74.277 179.762 74.3509 179.867 74.3906C179.972 74.4304 180.089 74.4503 180.216 74.4503C180.313 74.4503 180.401 74.4432 180.481 74.429C180.563 74.4148 180.625 74.402 180.668 74.3906L180.928 75.5966C180.846 75.625 180.728 75.6563 180.574 75.6904C180.424 75.7244 180.239 75.7443 180.02 75.75C179.634 75.7614 179.286 75.7031 178.976 75.5753C178.667 75.4446 178.421 75.2429 178.239 74.9702C178.06 74.6975 177.972 74.3565 177.975 73.9475V67.5469ZM186.658 66.9332V75.6605H185.115V66.9332H186.658ZM191.162 75.7884C190.506 75.7884 189.939 75.652 189.462 75.3793C188.987 75.1037 188.622 74.7145 188.367 74.2117C188.111 73.706 187.983 73.1108 187.983 72.4261C187.983 71.7529 188.111 71.1619 188.367 70.6534C188.625 70.1421 188.986 69.7443 189.449 69.4602C189.912 69.1733 190.456 69.0298 191.081 69.0298C191.484 69.0298 191.865 69.0952 192.223 69.2259C192.584 69.3537 192.902 69.5526 193.178 69.8225C193.456 70.0923 193.675 70.4361 193.834 70.8537C193.993 71.2685 194.073 71.7628 194.073 72.3367V72.8097H188.708V71.7699H192.594C192.591 71.4744 192.527 71.2117 192.402 70.9815C192.277 70.7486 192.102 70.5654 191.878 70.4318C191.656 70.2983 191.398 70.2315 191.102 70.2315C190.787 70.2315 190.51 70.3082 190.271 70.4617C190.033 70.6122 189.847 70.8111 189.713 71.0582C189.583 71.3026 189.516 71.571 189.513 71.8636V72.7713C189.513 73.152 189.583 73.4787 189.722 73.7514C189.861 74.0213 190.056 74.2287 190.306 74.3736C190.556 74.5156 190.848 74.5867 191.183 74.5867C191.408 74.5867 191.611 74.5554 191.793 74.4929C191.975 74.4276 192.132 74.3324 192.266 74.2074C192.399 74.0824 192.5 73.9276 192.568 73.7429L194.009 73.9048C193.918 74.2855 193.744 74.6179 193.489 74.902C193.236 75.1832 192.912 75.402 192.517 75.5582C192.122 75.7117 191.671 75.7884 191.162 75.7884ZM201.057 69.1151L198.726 75.6605H197.021L194.69 69.1151H196.335L197.839 73.9773H197.908L199.416 69.1151H201.057ZM204.819 75.7884C204.163 75.7884 203.596 75.652 203.119 75.3793C202.645 75.1037 202.279 74.7145 202.024 74.2117C201.768 73.706 201.64 73.1108 201.64 72.4261C201.64 71.7529 201.768 71.1619 202.024 70.6534C202.282 70.1421 202.643 69.7443 203.106 69.4602C203.569 69.1733 204.113 69.0298 204.738 69.0298C205.142 69.0298 205.522 69.0952 205.88 69.2259C206.241 69.3537 206.559 69.5526 206.835 69.8225C207.113 70.0923 207.332 70.4361 207.491 70.8537C207.65 71.2685 207.73 71.7628 207.73 72.3367V72.8097H202.365V71.7699H206.251C206.248 71.4744 206.184 71.2117 206.059 70.9815C205.934 70.7486 205.76 70.5654 205.535 70.4318C205.314 70.2983 205.055 70.2315 204.76 70.2315C204.444 70.2315 204.167 70.3082 203.929 70.4617C203.69 70.6122 203.504 70.8111 203.37 71.0582C203.24 71.3026 203.173 71.571 203.17 71.8636V72.7713C203.17 73.152 203.24 73.4787 203.379 73.7514C203.518 74.0213 203.713 74.2287 203.963 74.3736C204.213 74.5156 204.505 74.5867 204.841 74.5867C205.065 74.5867 205.268 74.5554 205.45 74.4929C205.632 74.4276 205.789 74.3324 205.923 74.2074C206.056 74.0824 206.157 73.9276 206.225 73.7429L207.666 73.9048C207.575 74.2855 207.402 74.6179 207.146 74.902C206.893 75.1832 206.569 75.402 206.174 75.5582C205.779 75.7117 205.328 75.7884 204.819 75.7884ZM210.597 66.9332V75.6605H209.055V66.9332H210.597Z" fill="black" fill-opacity="0.3"/>
<path d="M60.7091 60.6881C60.7091 67.7939 54.9297 73.5596 47.7939 73.5596C40.6581 73.5596 34.8788 67.7939 34.8788 60.6881C34.8788 53.5823 40.6581 47.8165 47.7939 47.8165C54.9297 47.8165 60.7091 53.5823 60.7091 60.6881Z" fill="#1A0F24" stroke="#3B4043" stroke-width="2"/>
<path d="M44.723 65.7706V64.4382L48.2578 60.973C48.5959 60.6317 48.8776 60.3284 49.103 60.0632C49.3284 59.7981 49.4974 59.5412 49.6101 59.2926C49.7228 59.0441 49.7791 58.7789 49.7791 58.4972C49.7791 58.1757 49.7062 57.9006 49.5604 57.6719C49.4145 57.4399 49.214 57.2609 48.9588 57.135C48.7036 57.009 48.4136 56.9461 48.0888 56.9461C47.754 56.9461 47.4607 57.0157 47.2088 57.1549C46.9569 57.2908 46.7614 57.4846 46.6222 57.7365C46.4863 57.9884 46.4183 58.2884 46.4183 58.6364H44.6633C44.6633 57.9901 44.8108 57.4283 45.1058 56.951C45.4008 56.4738 45.8068 56.1042 46.3239 55.8424C46.8442 55.5805 47.4408 55.4496 48.1136 55.4496C48.7964 55.4496 49.3963 55.5772 49.9133 55.8324C50.4304 56.0876 50.8314 56.4373 51.1165 56.8814C51.4048 57.3256 51.549 57.8327 51.549 58.4027C51.549 58.7839 51.4761 59.1584 51.3303 59.5263C51.1844 59.8942 50.9276 60.3019 50.5597 60.7493C50.1951 61.1968 49.683 61.7387 49.0234 62.375L47.2685 64.1598V64.2294H51.7031V65.7706H44.723Z" fill="url(#paint6_linear_243_3309)"/>
<g opacity="0.8">
<path d="M184.791 105.505C184.223 105.505 183.715 105.398 183.266 105.185C182.817 104.969 182.461 104.674 182.196 104.299C181.935 103.924 181.796 103.495 181.779 103.012H183.313C183.341 103.37 183.496 103.662 183.777 103.89C184.059 104.114 184.397 104.226 184.791 104.226C185.101 104.226 185.377 104.155 185.618 104.013C185.86 103.871 186.05 103.674 186.189 103.421C186.328 103.168 186.397 102.88 186.394 102.556C186.397 102.226 186.327 101.934 186.185 101.678C186.043 101.422 185.848 101.222 185.601 101.077C185.354 100.929 185.07 100.855 184.749 100.855C184.487 100.853 184.23 100.901 183.978 101C183.725 101.1 183.524 101.23 183.377 101.392L181.949 101.158L182.405 96.658H187.468V97.9791H183.713L183.462 100.293H183.513C183.675 100.103 183.904 99.945 184.199 99.82C184.495 99.6921 184.818 99.6282 185.171 99.6282C185.699 99.6282 186.171 99.7532 186.586 100.003C187 100.25 187.327 100.591 187.566 101.026C187.804 101.461 187.924 101.958 187.924 102.517C187.924 103.094 187.79 103.608 187.523 104.06C187.259 104.509 186.891 104.863 186.419 105.121C185.951 105.377 185.408 105.505 184.791 105.505ZM189.371 105.385V104.243L192.401 101.273C192.691 100.98 192.932 100.721 193.125 100.493C193.319 100.266 193.463 100.046 193.56 99.8328C193.657 99.6197 193.705 99.3924 193.705 99.1509C193.705 98.8754 193.642 98.6396 193.517 98.4436C193.392 98.2447 193.221 98.0913 193.002 97.9833C192.783 97.8754 192.534 97.8214 192.256 97.8214C191.969 97.8214 191.718 97.8811 191.502 98.0004C191.286 98.1168 191.118 98.283 190.999 98.499C190.882 98.7149 190.824 98.972 190.824 99.2703H189.32C189.32 98.7163 189.446 98.2347 189.699 97.8257C189.952 97.4166 190.3 97.0998 190.743 96.8754C191.189 96.6509 191.701 96.5387 192.277 96.5387C192.863 96.5387 193.377 96.6481 193.82 96.8668C194.263 97.0856 194.607 97.3853 194.851 97.766C195.098 98.1467 195.222 98.5813 195.222 99.07C195.222 99.3967 195.159 99.7177 195.034 100.033C194.909 100.348 194.689 100.698 194.374 101.081C194.061 101.465 193.623 101.929 193.057 102.475L191.553 104.005V104.064H195.354V105.385H189.371ZM200.07 105.552C199.368 105.552 198.766 105.374 198.263 105.019C197.763 104.661 197.378 104.145 197.108 103.472C196.841 102.796 196.708 101.982 196.708 101.03C196.711 100.078 196.846 99.2688 197.113 98.6012C197.383 97.9308 197.768 97.4194 198.268 97.0671C198.77 96.7149 199.371 96.5387 200.07 96.5387C200.769 96.5387 201.37 96.7149 201.873 97.0671C202.376 97.4194 202.76 97.9308 203.027 98.6012C203.297 99.2717 203.432 100.081 203.432 101.03C203.432 101.985 203.297 102.8 203.027 103.476C202.76 104.15 202.376 104.664 201.873 105.019C201.373 105.374 200.772 105.552 200.07 105.552ZM200.07 104.218C200.616 104.218 201.046 103.949 201.361 103.412C201.679 102.873 201.839 102.078 201.839 101.03C201.839 100.337 201.766 99.7546 201.621 99.283C201.476 98.8115 201.272 98.4563 201.008 98.2177C200.743 97.9762 200.431 97.8555 200.07 97.8555C199.527 97.8555 199.099 98.1254 198.783 98.6651C198.468 99.2021 198.309 99.9904 198.306 101.03C198.303 101.726 198.373 102.311 198.515 102.786C198.66 103.26 198.864 103.618 199.128 103.86C199.393 104.098 199.706 104.218 200.07 104.218ZM208.094 105.552C207.392 105.552 206.79 105.374 206.287 105.019C205.787 104.661 205.402 104.145 205.132 103.472C204.865 102.796 204.732 101.982 204.732 101.03C204.735 100.078 204.87 99.2688 205.137 98.6012C205.407 97.9308 205.791 97.4194 206.291 97.0671C206.794 96.7149 207.395 96.5387 208.094 96.5387C208.793 96.5387 209.394 96.7149 209.897 97.0671C210.399 97.4194 210.784 97.9308 211.051 98.6012C211.321 99.2717 211.456 100.081 211.456 101.03C211.456 101.985 211.321 102.8 211.051 103.476C210.784 104.15 210.399 104.664 209.897 105.019C209.397 105.374 208.796 105.552 208.094 105.552ZM208.094 104.218C208.639 104.218 209.07 103.949 209.385 103.412C209.703 102.873 209.862 102.078 209.862 101.03C209.862 100.337 209.79 99.7546 209.645 99.283C209.5 98.8115 209.296 98.4563 209.032 98.2177C208.767 97.9762 208.455 97.8555 208.094 97.8555C207.551 97.8555 207.122 98.1254 206.807 98.6651C206.492 99.2021 206.333 99.9904 206.33 101.03C206.327 101.726 206.397 102.311 206.539 102.786C206.684 103.26 206.888 103.618 207.152 103.86C207.416 104.098 207.73 104.218 208.094 104.218Z" fill="#685613"/>
<path d="M216.472 96.249L213.659 106.698H212.308L215.121 96.249H216.472ZM220.655 105.505C220.237 105.502 219.83 105.429 219.432 105.287C219.034 105.142 218.676 104.908 218.358 104.584C218.04 104.257 217.787 103.824 217.6 103.284C217.412 102.742 217.32 102.07 217.323 101.269C217.323 100.522 217.402 99.8555 217.561 99.2703C217.72 98.685 217.949 98.1907 218.247 97.7873C218.546 97.3811 218.905 97.0714 219.325 96.8583C219.749 96.6453 220.222 96.5387 220.744 96.5387C221.293 96.5387 221.779 96.6467 222.202 96.8626C222.628 97.0785 222.972 97.374 223.233 97.749C223.494 98.1211 223.656 98.5416 223.719 99.0103H222.163C222.084 98.6751 221.921 98.408 221.673 98.2092C221.429 98.0075 221.119 97.9066 220.744 97.9066C220.139 97.9066 219.673 98.1694 219.347 98.695C219.023 99.2205 218.86 99.9421 218.857 100.86H218.916C219.056 100.61 219.236 100.395 219.458 100.216C219.679 100.037 219.929 99.8995 220.208 99.8029C220.489 99.7035 220.786 99.6538 221.098 99.6538C221.61 99.6538 222.068 99.7759 222.475 100.02C222.884 100.265 223.208 100.601 223.446 101.03C223.685 101.456 223.803 101.945 223.8 102.496C223.803 103.07 223.672 103.586 223.408 104.043C223.144 104.498 222.776 104.855 222.304 105.117C221.833 105.378 221.283 105.507 220.655 105.505ZM220.646 104.226C220.956 104.226 221.233 104.151 221.477 104C221.722 103.85 221.915 103.647 222.057 103.391C222.199 103.135 222.269 102.848 222.266 102.53C222.269 102.218 222.2 101.935 222.061 101.682C221.925 101.429 221.736 101.229 221.494 101.081C221.253 100.934 220.977 100.86 220.668 100.86C220.438 100.86 220.223 100.904 220.024 100.992C219.825 101.08 219.652 101.202 219.504 101.358C219.357 101.512 219.24 101.691 219.155 101.895C219.073 102.097 219.03 102.313 219.027 102.543C219.03 102.847 219.101 103.127 219.24 103.382C219.379 103.638 219.571 103.843 219.815 103.996C220.06 104.15 220.337 104.226 220.646 104.226ZM228.486 105.552C227.784 105.552 227.182 105.374 226.679 105.019C226.179 104.661 225.794 104.145 225.524 103.472C225.257 102.796 225.124 101.982 225.124 101.03C225.127 100.078 225.262 99.2688 225.529 98.6012C225.799 97.9308 226.183 97.4194 226.683 97.0671C227.186 96.7149 227.787 96.5387 228.486 96.5387C229.185 96.5387 229.786 96.7149 230.289 97.0671C230.791 97.4194 231.176 97.9308 231.443 98.6012C231.713 99.2717 231.848 100.081 231.848 101.03C231.848 101.985 231.713 102.8 231.443 103.476C231.176 104.15 230.791 104.664 230.289 105.019C229.789 105.374 229.188 105.552 228.486 105.552ZM228.486 104.218C229.031 104.218 229.462 103.949 229.777 103.412C230.095 102.873 230.255 102.078 230.255 101.03C230.255 100.337 230.182 99.7546 230.037 99.283C229.892 98.8115 229.688 98.4563 229.424 98.2177C229.159 97.9762 228.847 97.8555 228.486 97.8555C227.943 97.8555 227.514 98.1254 227.199 98.6651C226.884 99.2021 226.725 99.9904 226.722 101.03C226.719 101.726 226.789 102.311 226.931 102.786C227.076 103.26 227.28 103.618 227.544 103.86C227.808 104.098 228.122 104.218 228.486 104.218ZM236.51 105.552C235.808 105.552 235.206 105.374 234.703 105.019C234.203 104.661 233.818 104.145 233.548 103.472C233.281 102.796 233.148 101.982 233.148 101.03C233.151 100.078 233.286 99.2688 233.553 98.6012C233.822 97.9308 234.207 97.4194 234.707 97.0671C235.21 96.7149 235.811 96.5387 236.51 96.5387C237.209 96.5387 237.81 96.7149 238.313 97.0671C238.815 97.4194 239.2 97.9308 239.467 98.6012C239.737 99.2717 239.872 100.081 239.872 101.03C239.872 101.985 239.737 102.8 239.467 103.476C239.2 104.15 238.815 104.664 238.313 105.019C237.813 105.374 237.212 105.552 236.51 105.552ZM236.51 104.218C237.055 104.218 237.486 103.949 237.801 103.412C238.119 102.873 238.278 102.078 238.278 101.03C238.278 100.337 238.206 99.7546 238.061 99.283C237.916 98.8115 237.712 98.4563 237.447 98.2177C237.183 97.9762 236.871 97.8555 236.51 97.8555C235.967 97.8555 235.538 98.1254 235.223 98.6651C234.908 99.2021 234.749 99.9904 234.746 101.03C234.743 101.726 234.813 102.311 234.955 102.786C235.099 103.26 235.304 103.618 235.568 103.86C235.832 104.098 236.146 104.218 236.51 104.218ZM244.534 105.552C243.832 105.552 243.23 105.374 242.727 105.019C242.227 104.661 241.842 104.145 241.572 103.472C241.305 102.796 241.172 101.982 241.172 101.03C241.174 100.078 241.309 99.2688 241.576 98.6012C241.846 97.9308 242.231 97.4194 242.731 97.0671C243.234 96.7149 243.835 96.5387 244.534 96.5387C245.233 96.5387 245.834 96.7149 246.336 97.0671C246.839 97.4194 247.224 97.9308 247.491 98.6012C247.761 99.2717 247.896 100.081 247.896 101.03C247.896 101.985 247.761 102.8 247.491 103.476C247.224 104.15 246.839 104.664 246.336 105.019C245.836 105.374 245.236 105.552 244.534 105.552ZM244.534 104.218C245.079 104.218 245.51 103.949 245.825 103.412C246.143 102.873 246.302 102.078 246.302 101.03C246.302 100.337 246.23 99.7546 246.085 99.283C245.94 98.8115 245.736 98.4563 245.471 98.2177C245.207 97.9762 244.895 97.8555 244.534 97.8555C243.991 97.8555 243.562 98.1254 243.247 98.6651C242.932 99.2021 242.772 99.9904 242.77 101.03C242.767 101.726 242.836 102.311 242.978 102.786C243.123 103.26 243.328 103.618 243.592 103.86C243.856 104.098 244.17 104.218 244.534 104.218Z" fill="#8D751C" fill-opacity="0.5"/>
</g>
<path opacity="0.6" d="M171.042 102.835L173.453 104.204C173.894 104.454 174.434 104.084 174.318 103.615L173.679 101.041L175.811 99.3075C176.2 98.9913 175.991 98.3915 175.48 98.3534L172.674 98.1298L171.577 95.6982C171.379 95.2565 170.706 95.2565 170.508 95.6982L169.41 98.1244L166.605 98.3479C166.094 98.3861 165.885 98.9858 166.274 99.302L168.406 101.036L167.767 103.609C167.651 104.078 168.191 104.449 168.632 104.198L171.042 102.835Z" fill="#FFFEFE"/>
</g>
<defs>
<filter id="filter0_dd_243_3309" x="0" y="13" width="359" height="139" filterUnits="userSpaceOnUse" color-interpolation-filters="sRGB">
<feFlood flood-opacity="0" result="BackgroundImageFix"/>
<feColorMatrix in="SourceAlpha" type="matrix" values="0 0 0 0 0 0 0 0 0 0 0 0 0 0 0 0 0 0 127 0" result="hardAlpha"/>
<feOffset dx="2" dy="2"/>
<feGaussianBlur stdDeviation="7.5"/>
<feColorMatrix type="matrix" values="0 0 0 0 0.6512 0 0 0 0 0.66896 0 0 0 0 0.74 0 0 0 0.5 0"/>
<feBlend mode="normal" in2="BackgroundImageFix" result="effect1_dropShadow_243_3309"/>
<feColorMatrix in="SourceAlpha" type="matrix" values="0 0 0 0 0 0 0 0 0 0 0 0 0 0 0 0 0 0 127 0" result="hardAlpha"/>
<feOffset dx="-1" dy="-1"/>
<feGaussianBlur stdDeviation="6.5"/>
<feColorMatrix type="matrix" values="0 0 0 0 0.979167 0 0 0 0 0.983333 0 0 0 0 1 0 0 0 1 0"/>
<feBlend mode="normal" in2="effect1_dropShadow_243_3309" result="effect2_dropShadow_243_3309"/>
<feBlend mode="normal" in="SourceGraphic" in2="effect2_dropShadow_243_3309" result="shape"/>
</filter>
<filter id="filter1_b_243_3309" x="-266.121" y="-214.541" width="888.242" height="629.725" filterUnits="userSpaceOnUse" color-interpolation-filters="sRGB">
<feFlood flood-opacity="0" result="BackgroundImageFix"/>
<feGaussianBlur in="BackgroundImageFix" stdDeviation="150"/>
<feComposite in2="SourceAlpha" operator="in" result="effect1_backgroundBlur_243_3309"/>
<feBlend mode="normal" in="SourceGraphic" in2="effect1_backgroundBlur_243_3309" result="shape"/>
</filter>
<linearGradient id="paint0_linear_243_3309" x1="219.474" y1="115.184" x2="218.387" y2="85.4606" gradientUnits="userSpaceOnUse">
<stop stop-color="#F3B14E"/>
<stop offset="1" stop-color="#FFCE51"/>
</linearGradient>
<linearGradient id="paint1_linear_243_3309" x1="247.888" y1="112.211" x2="43.7538" y2="117.456" gradientUnits="userSpaceOnUse">
<stop stop-color="#F3B14E"/>
<stop offset="1" stop-color="#FFCE51"/>
</linearGradient>
<linearGradient id="paint2_linear_243_3309" x1="52.3758" y1="112.211" x2="44.9528" y2="90.9985" gradientUnits="userSpaceOnUse">
<stop stop-color="#F3B14E"/>
<stop offset="1" stop-color="#FFCE51"/>
</linearGradient>
<linearGradient id="paint3_linear_243_3309" x1="60.3086" y1="112.211" x2="37.6172" y2="112.276" gradientUnits="userSpaceOnUse">
<stop stop-color="#F3B14E"/>
<stop offset="1" stop-color="#FFCE51"/>
</linearGradient>
<linearGradient id="paint4_linear_243_3309" x1="310.8" y1="112.211" x2="303.377" y2="90.9985" gradientUnits="userSpaceOnUse">
<stop stop-color="#F3B14E"/>
<stop offset="1" stop-color="#FFCE51"/>
</linearGradient>
<linearGradient id="paint5_linear_243_3309" x1="318.733" y1="112.211" x2="296.041" y2="112.276" gradientUnits="userSpaceOnUse">
<stop stop-color="#F3B14E"/>
<stop offset="1" stop-color="#FFCE51"/>
</linearGradient>
<linearGradient id="paint6_linear_243_3309" x1="48.3182" y1="51.7706" x2="48.3182" y2="69.7706" gradientUnits="userSpaceOnUse">
<stop offset="0.125" stop-color="#FDFDFD" stop-opacity="0.97"/>
<stop offset="1" stop-color="#FFDD64"/>
</linearGradient>
</defs>
</svg>
