<svg width="103" height="97" viewBox="0 0 103 97" fill="none" xmlns="http://www.w3.org/2000/svg">
<rect width="103" height="97" rx="16" fill="white"/>
<path d="M24.756 45.084C24.612 45.084 24.496 45.048 24.408 44.976C24.32 44.896 24.248 44.78 24.192 44.628L21.54 37.056C21.484 36.888 21.496 36.748 21.576 36.636C21.664 36.516 21.8 36.456 21.984 36.456C22.12 36.456 22.228 36.492 22.308 36.564C22.388 36.628 22.456 36.732 22.512 36.876L24.996 44.16H24.576L27.108 36.912C27.164 36.76 27.232 36.648 27.312 36.576C27.392 36.496 27.5 36.456 27.636 36.456C27.764 36.456 27.864 36.496 27.936 36.576C28.016 36.648 28.084 36.76 28.14 36.912L30.636 44.16H30.264L32.772 36.876C32.812 36.74 32.872 36.636 32.952 36.564C33.04 36.492 33.152 36.456 33.288 36.456C33.456 36.456 33.58 36.512 33.66 36.624C33.74 36.736 33.748 36.88 33.684 37.056L31.02 44.628C30.964 44.78 30.892 44.896 30.804 44.976C30.724 45.048 30.608 45.084 30.456 45.084C30.312 45.084 30.196 45.048 30.108 44.976C30.028 44.896 29.956 44.78 29.892 44.628L27.48 37.68H27.744L25.308 44.628C25.252 44.78 25.184 44.896 25.104 44.976C25.024 45.048 24.908 45.084 24.756 45.084ZM35.8803 45.084C35.7203 45.084 35.6003 45.04 35.5203 44.952C35.4403 44.864 35.4003 44.74 35.4003 44.58V36.948C35.4003 36.788 35.4403 36.668 35.5203 36.588C35.6003 36.5 35.7203 36.456 35.8803 36.456C36.0323 36.456 36.1523 36.5 36.2403 36.588C36.3283 36.668 36.3723 36.788 36.3723 36.948V40.464H36.2163C36.3843 40 36.6563 39.652 37.0323 39.42C37.4163 39.18 37.8563 39.06 38.3523 39.06C38.8163 39.06 39.2003 39.144 39.5043 39.312C39.8163 39.48 40.0483 39.736 40.2003 40.08C40.3523 40.416 40.4283 40.844 40.4283 41.364V44.58C40.4283 44.74 40.3843 44.864 40.2963 44.952C40.2163 45.04 40.1003 45.084 39.9483 45.084C39.7883 45.084 39.6643 45.04 39.5763 44.952C39.4963 44.864 39.4563 44.74 39.4563 44.58V41.424C39.4563 40.88 39.3483 40.484 39.1323 40.236C38.9243 39.98 38.5883 39.852 38.1243 39.852C37.5883 39.852 37.1603 40.02 36.8403 40.356C36.5283 40.684 36.3723 41.124 36.3723 41.676V44.58C36.3723 44.916 36.2083 45.084 35.8803 45.084ZM44.0566 45.108C43.6566 45.108 43.2966 45.032 42.9766 44.88C42.6646 44.72 42.4166 44.504 42.2326 44.232C42.0486 43.96 41.9566 43.656 41.9566 43.32C41.9566 42.888 42.0646 42.548 42.2806 42.3C42.5046 42.052 42.8686 41.876 43.3726 41.772C43.8846 41.668 44.5806 41.616 45.4606 41.616H46.0006V42.252H45.4726C44.8246 42.252 44.3126 42.284 43.9366 42.348C43.5686 42.404 43.3086 42.504 43.1566 42.648C43.0126 42.792 42.9406 42.996 42.9406 43.26C42.9406 43.588 43.0526 43.856 43.2766 44.064C43.5086 44.272 43.8206 44.376 44.2126 44.376C44.5326 44.376 44.8126 44.3 45.0526 44.148C45.3006 43.996 45.4926 43.788 45.6286 43.524C45.7726 43.26 45.8446 42.956 45.8446 42.612V41.244C45.8446 40.748 45.7446 40.392 45.5446 40.176C45.3446 39.952 45.0166 39.84 44.5606 39.84C44.2806 39.84 44.0006 39.876 43.7206 39.948C43.4406 40.02 43.1446 40.136 42.8326 40.296C42.7206 40.352 42.6246 40.372 42.5446 40.356C42.4646 40.332 42.4006 40.288 42.3526 40.224C42.3046 40.16 42.2766 40.088 42.2686 40.008C42.2606 39.92 42.2766 39.836 42.3166 39.756C42.3646 39.676 42.4366 39.612 42.5326 39.564C42.8846 39.388 43.2326 39.26 43.5766 39.18C43.9206 39.1 44.2486 39.06 44.5606 39.06C45.0646 39.06 45.4806 39.144 45.8086 39.312C46.1366 39.472 46.3806 39.72 46.5406 40.056C46.7006 40.384 46.7806 40.808 46.7806 41.328V44.58C46.7806 44.74 46.7406 44.864 46.6606 44.952C46.5886 45.04 46.4806 45.084 46.3366 45.084C46.1846 45.084 46.0686 45.04 45.9886 44.952C45.9086 44.864 45.8686 44.74 45.8686 44.58V43.644H45.9766C45.9126 43.948 45.7886 44.208 45.6046 44.424C45.4286 44.64 45.2086 44.808 44.9446 44.928C44.6806 45.048 44.3846 45.108 44.0566 45.108ZM50.9239 45.108C50.4679 45.108 50.0839 45.028 49.7719 44.868C49.4679 44.7 49.2399 44.46 49.0879 44.148C48.9359 43.828 48.8599 43.44 48.8599 42.984V39.924H48.0559C47.9199 39.924 47.8159 39.892 47.7439 39.828C47.6719 39.756 47.6359 39.66 47.6359 39.54C47.6359 39.42 47.6719 39.328 47.7439 39.264C47.8159 39.2 47.9199 39.168 48.0559 39.168H48.8599V37.788C48.8599 37.628 48.9039 37.508 48.9919 37.428C49.0799 37.34 49.1999 37.296 49.3519 37.296C49.5039 37.296 49.6199 37.34 49.6999 37.428C49.7879 37.508 49.8319 37.628 49.8319 37.788V39.168H51.3439C51.4799 39.168 51.5839 39.2 51.6559 39.264C51.7279 39.328 51.7639 39.42 51.7639 39.54C51.7639 39.66 51.7279 39.756 51.6559 39.828C51.5839 39.892 51.4799 39.924 51.3439 39.924H49.8319V42.888C49.8319 43.344 49.9279 43.692 50.1199 43.932C50.3119 44.164 50.6239 44.28 51.0559 44.28C51.2079 44.28 51.3359 44.264 51.4399 44.232C51.5519 44.2 51.6439 44.184 51.7159 44.184C51.7879 44.176 51.8479 44.2 51.8959 44.256C51.9439 44.312 51.9679 44.408 51.9679 44.544C51.9679 44.64 51.9479 44.728 51.9079 44.808C51.8759 44.888 51.8159 44.944 51.7279 44.976C51.6319 45.008 51.5039 45.036 51.3439 45.06C51.1919 45.092 51.0519 45.108 50.9239 45.108ZM53.2966 38.904C53.2166 39.008 53.1326 39.068 53.0446 39.084C52.9566 39.092 52.8806 39.076 52.8166 39.036C52.7526 38.988 52.7166 38.92 52.7086 38.832C52.7086 38.744 52.7486 38.648 52.8286 38.544C52.9566 38.376 53.0446 38.208 53.0926 38.04C53.1406 37.864 53.1646 37.708 53.1646 37.572L53.2126 37.812C53.0046 37.812 52.8366 37.752 52.7086 37.632C52.5886 37.504 52.5286 37.344 52.5286 37.152C52.5286 36.952 52.5846 36.792 52.6966 36.672C52.8166 36.552 52.9726 36.492 53.1646 36.492C53.3726 36.492 53.5366 36.564 53.6566 36.708C53.7766 36.844 53.8366 37.044 53.8366 37.308C53.8366 37.476 53.8206 37.652 53.7886 37.836C53.7566 38.012 53.7006 38.192 53.6206 38.376C53.5406 38.56 53.4326 38.736 53.2966 38.904ZM57.0675 45.108C56.7075 45.108 56.3435 45.064 55.9755 44.976C55.6155 44.888 55.2795 44.736 54.9675 44.52C54.8875 44.464 54.8315 44.4 54.7995 44.328C54.7675 44.248 54.7555 44.172 54.7635 44.1C54.7795 44.02 54.8115 43.952 54.8595 43.896C54.9155 43.84 54.9795 43.808 55.0515 43.8C55.1315 43.784 55.2195 43.8 55.3155 43.848C55.6275 44.04 55.9275 44.176 56.2155 44.256C56.5115 44.328 56.8035 44.364 57.0915 44.364C57.5475 44.364 57.8915 44.28 58.1235 44.112C58.3555 43.944 58.4715 43.716 58.4715 43.428C58.4715 43.204 58.3955 43.028 58.2435 42.9C58.0915 42.764 57.8515 42.66 57.5235 42.588L56.4315 42.348C55.9275 42.244 55.5515 42.064 55.3035 41.808C55.0635 41.552 54.9435 41.22 54.9435 40.812C54.9435 40.452 55.0355 40.144 55.2195 39.888C55.4115 39.624 55.6795 39.42 56.0235 39.276C56.3675 39.132 56.7675 39.06 57.2235 39.06C57.5755 39.06 57.9075 39.108 58.2195 39.204C58.5395 39.292 58.8275 39.436 59.0835 39.636C59.1635 39.692 59.2155 39.76 59.2395 39.84C59.2715 39.912 59.2755 39.988 59.2515 40.068C59.2355 40.14 59.1995 40.204 59.1435 40.26C59.0875 40.308 59.0195 40.336 58.9395 40.344C58.8595 40.352 58.7755 40.328 58.6875 40.272C58.4475 40.112 58.2035 39.996 57.9555 39.924C57.7075 39.844 57.4635 39.804 57.2235 39.804C56.7755 39.804 56.4355 39.892 56.2035 40.068C55.9715 40.244 55.8555 40.476 55.8555 40.764C55.8555 40.988 55.9275 41.172 56.0715 41.316C56.2155 41.46 56.4395 41.564 56.7435 41.628L57.8355 41.856C58.3555 41.968 58.7435 42.148 58.9995 42.396C59.2635 42.636 59.3955 42.964 59.3955 43.38C59.3955 43.908 59.1835 44.328 58.7595 44.64C58.3355 44.952 57.7715 45.108 57.0675 45.108ZM22.584 61C22.408 61 22.272 60.956 22.176 60.868C22.088 60.772 22.044 60.636 22.044 60.46V53.08C22.044 52.904 22.088 52.772 22.176 52.684C22.272 52.588 22.408 52.54 22.584 52.54H25.428C26.012 52.54 26.504 52.628 26.904 52.804C27.312 52.972 27.624 53.22 27.84 53.548C28.056 53.876 28.164 54.276 28.164 54.748C28.164 55.276 28.008 55.716 27.696 56.068C27.392 56.42 26.976 56.652 26.448 56.764V56.596C27.048 56.668 27.516 56.884 27.852 57.244C28.196 57.604 28.368 58.08 28.368 58.672C28.368 59.424 28.124 60 27.636 60.4C27.148 60.8 26.46 61 25.572 61H22.584ZM23.004 60.208H25.476C26.116 60.208 26.596 60.08 26.916 59.824C27.236 59.568 27.396 59.18 27.396 58.66C27.396 58.132 27.236 57.744 26.916 57.496C26.596 57.24 26.116 57.112 25.476 57.112H23.004V60.208ZM23.004 56.32H25.284C25.908 56.32 26.38 56.192 26.7 55.936C27.028 55.68 27.192 55.312 27.192 54.832C27.192 54.336 27.028 53.964 26.7 53.716C26.38 53.46 25.908 53.332 25.284 53.332H23.004V56.32ZM32.0854 61.108C31.6134 61.108 31.2214 61.024 30.9094 60.856C30.6054 60.68 30.3734 60.42 30.2134 60.076C30.0614 59.732 29.9854 59.304 29.9854 58.792V55.576C29.9854 55.408 30.0254 55.284 30.1054 55.204C30.1934 55.124 30.3134 55.084 30.4654 55.084C30.6254 55.084 30.7454 55.124 30.8254 55.204C30.9134 55.284 30.9574 55.408 30.9574 55.576V58.78C30.9574 59.292 31.0614 59.676 31.2694 59.932C31.4854 60.18 31.8214 60.304 32.2774 60.304C32.7734 60.304 33.1774 60.136 33.4894 59.8C33.8014 59.464 33.9574 59.024 33.9574 58.48V55.576C33.9574 55.408 33.9974 55.284 34.0774 55.204C34.1654 55.124 34.2894 55.084 34.4494 55.084C34.6014 55.084 34.7174 55.124 34.7974 55.204C34.8854 55.284 34.9294 55.408 34.9294 55.576V60.58C34.9294 60.916 34.7734 61.084 34.4614 61.084C34.3094 61.084 34.1894 61.04 34.1014 60.952C34.0214 60.864 33.9814 60.74 33.9814 60.58V59.488L34.1374 59.656C33.9774 60.128 33.7134 60.488 33.3454 60.736C32.9854 60.984 32.5654 61.108 32.0854 61.108ZM38.9679 61.108C38.4479 61.108 37.9919 60.984 37.5999 60.736C37.2159 60.488 36.9159 60.14 36.6999 59.692C36.4919 59.236 36.3879 58.7 36.3879 58.084C36.3879 57.46 36.4919 56.924 36.6999 56.476C36.9159 56.02 37.2159 55.672 37.5999 55.432C37.9919 55.184 38.4479 55.06 38.9679 55.06C39.4959 55.06 39.9479 55.192 40.3239 55.456C40.6999 55.72 40.9519 56.076 41.0799 56.524H40.9479V52.948C40.9479 52.788 40.9879 52.668 41.0679 52.588C41.1559 52.5 41.2799 52.456 41.4399 52.456C41.5919 52.456 41.7079 52.5 41.7879 52.588C41.8759 52.668 41.9199 52.788 41.9199 52.948V60.58C41.9199 60.74 41.8799 60.864 41.7999 60.952C41.7199 61.04 41.5999 61.084 41.4399 61.084C41.2879 61.084 41.1679 61.04 41.0799 60.952C40.9999 60.864 40.9599 60.74 40.9599 60.58V59.44L41.0919 59.608C40.9639 60.064 40.7079 60.428 40.3239 60.7C39.9479 60.972 39.4959 61.108 38.9679 61.108ZM39.1719 60.328C39.5319 60.328 39.8479 60.24 40.1199 60.064C40.3919 59.888 40.5999 59.632 40.7439 59.296C40.8959 58.96 40.9719 58.556 40.9719 58.084C40.9719 57.356 40.8079 56.8 40.4799 56.416C40.1599 56.032 39.7239 55.84 39.1719 55.84C38.8039 55.84 38.4839 55.928 38.2119 56.104C37.9479 56.272 37.7399 56.524 37.5879 56.86C37.4439 57.188 37.3719 57.596 37.3719 58.084C37.3719 58.804 37.5359 59.36 37.8639 59.752C38.1919 60.136 38.6279 60.328 39.1719 60.328ZM46.324 63.268C45.9 63.268 45.484 63.216 45.076 63.112C44.676 63.016 44.312 62.86 43.984 62.644C43.888 62.588 43.824 62.52 43.792 62.44C43.768 62.36 43.764 62.28 43.78 62.2C43.796 62.128 43.832 62.06 43.888 61.996C43.944 61.94 44.008 61.904 44.08 61.888C44.16 61.872 44.24 61.884 44.32 61.924C44.672 62.14 45.008 62.288 45.328 62.368C45.648 62.448 45.964 62.488 46.276 62.488C46.844 62.488 47.272 62.336 47.56 62.032C47.856 61.728 48.004 61.288 48.004 60.712V59.356H48.124C48.004 59.82 47.748 60.188 47.356 60.46C46.972 60.732 46.52 60.868 46 60.868C45.464 60.868 45 60.748 44.608 60.508C44.216 60.26 43.912 59.916 43.696 59.476C43.488 59.036 43.384 58.528 43.384 57.952C43.384 57.52 43.444 57.128 43.564 56.776C43.684 56.416 43.856 56.112 44.08 55.864C44.312 55.608 44.588 55.412 44.908 55.276C45.236 55.132 45.6 55.06 46 55.06C46.528 55.06 46.984 55.196 47.368 55.468C47.752 55.732 48 56.092 48.112 56.548L47.992 56.692V55.576C47.992 55.416 48.032 55.296 48.112 55.216C48.2 55.128 48.32 55.084 48.472 55.084C48.632 55.084 48.752 55.128 48.832 55.216C48.912 55.296 48.952 55.416 48.952 55.576V60.58C48.952 61.468 48.728 62.136 48.28 62.584C47.84 63.04 47.188 63.268 46.324 63.268ZM46.18 60.076C46.556 60.076 46.88 59.992 47.152 59.824C47.424 59.648 47.632 59.4 47.776 59.08C47.928 58.76 48.004 58.384 48.004 57.952C48.004 57.304 47.84 56.792 47.512 56.416C47.184 56.032 46.74 55.84 46.18 55.84C45.812 55.84 45.492 55.928 45.22 56.104C44.948 56.272 44.736 56.516 44.584 56.836C44.44 57.148 44.368 57.52 44.368 57.952C44.368 58.6 44.532 59.116 44.86 59.5C45.188 59.884 45.628 60.076 46.18 60.076ZM53.4033 61.108C52.7873 61.108 52.2553 60.988 51.8073 60.748C51.3673 60.5 51.0233 60.152 50.7753 59.704C50.5353 59.256 50.4153 58.72 50.4153 58.096C50.4153 57.488 50.5353 56.96 50.7753 56.512C51.0153 56.056 51.3433 55.7 51.7593 55.444C52.1833 55.188 52.6713 55.06 53.2233 55.06C53.6153 55.06 53.9673 55.128 54.2793 55.264C54.5913 55.392 54.8553 55.58 55.0713 55.828C55.2953 56.076 55.4633 56.376 55.5753 56.728C55.6953 57.08 55.7553 57.476 55.7553 57.916C55.7553 58.044 55.7193 58.14 55.6473 58.204C55.5753 58.26 55.4713 58.288 55.3353 58.288H51.1593V57.652H55.1073L54.9153 57.808C54.9153 57.376 54.8513 57.012 54.7233 56.716C54.5953 56.412 54.4073 56.18 54.1593 56.02C53.9193 55.86 53.6153 55.78 53.2473 55.78C52.8393 55.78 52.4913 55.876 52.2033 56.068C51.9233 56.252 51.7113 56.512 51.5673 56.848C51.4233 57.176 51.3513 57.56 51.3513 58V58.072C51.3513 58.808 51.5273 59.368 51.8793 59.752C52.2393 60.136 52.7473 60.328 53.4033 60.328C53.6753 60.328 53.9433 60.292 54.2073 60.22C54.4793 60.148 54.7433 60.028 54.9993 59.86C55.1113 59.788 55.2113 59.756 55.2993 59.764C55.3953 59.764 55.4713 59.792 55.5273 59.848C55.5833 59.896 55.6193 59.96 55.6353 60.04C55.6593 60.112 55.6513 60.192 55.6113 60.28C55.5793 60.368 55.5113 60.444 55.4073 60.508C55.1433 60.7 54.8313 60.848 54.4713 60.952C54.1113 61.056 53.7553 61.108 53.4033 61.108ZM59.502 61.108C59.046 61.108 58.662 61.028 58.35 60.868C58.046 60.7 57.818 60.46 57.666 60.148C57.514 59.828 57.438 59.44 57.438 58.984V55.924H56.634C56.498 55.924 56.394 55.892 56.322 55.828C56.25 55.756 56.214 55.66 56.214 55.54C56.214 55.42 56.25 55.328 56.322 55.264C56.394 55.2 56.498 55.168 56.634 55.168H57.438V53.788C57.438 53.628 57.482 53.508 57.57 53.428C57.658 53.34 57.778 53.296 57.93 53.296C58.082 53.296 58.198 53.34 58.278 53.428C58.366 53.508 58.41 53.628 58.41 53.788V55.168H59.922C60.058 55.168 60.162 55.2 60.234 55.264C60.306 55.328 60.342 55.42 60.342 55.54C60.342 55.66 60.306 55.756 60.234 55.828C60.162 55.892 60.058 55.924 59.922 55.924H58.41V58.888C58.41 59.344 58.506 59.692 58.698 59.932C58.89 60.164 59.202 60.28 59.634 60.28C59.786 60.28 59.914 60.264 60.018 60.232C60.13 60.2 60.222 60.184 60.294 60.184C60.366 60.176 60.426 60.2 60.474 60.256C60.522 60.312 60.546 60.408 60.546 60.544C60.546 60.64 60.526 60.728 60.486 60.808C60.454 60.888 60.394 60.944 60.306 60.976C60.21 61.008 60.082 61.036 59.922 61.06C59.77 61.092 59.63 61.108 59.502 61.108ZM61.9076 61.06C61.7476 61.06 61.6276 61.016 61.5476 60.928C61.4676 60.832 61.4276 60.7 61.4276 60.532V55.624C61.4276 55.456 61.4676 55.328 61.5476 55.24C61.6276 55.152 61.7476 55.108 61.9076 55.108C62.0596 55.108 62.1796 55.152 62.2676 55.24C62.3556 55.328 62.3996 55.456 62.3996 55.624V60.532C62.3996 60.7 62.3556 60.832 62.2676 60.928C62.1876 61.016 62.0676 61.06 61.9076 61.06ZM61.9076 53.764C61.7076 53.764 61.5516 53.712 61.4396 53.608C61.3276 53.496 61.2716 53.348 61.2716 53.164C61.2716 52.972 61.3276 52.828 61.4396 52.732C61.5516 52.628 61.7076 52.576 61.9076 52.576C62.1156 52.576 62.2716 52.628 62.3756 52.732C62.4876 52.828 62.5436 52.972 62.5436 53.164C62.5436 53.348 62.4876 53.496 62.3756 53.608C62.2716 53.712 62.1156 53.764 61.9076 53.764ZM64.6967 61.084C64.5367 61.084 64.4167 61.04 64.3367 60.952C64.2567 60.864 64.2167 60.74 64.2167 60.58V55.576C64.2167 55.416 64.2567 55.296 64.3367 55.216C64.4167 55.128 64.5327 55.084 64.6847 55.084C64.8367 55.084 64.9527 55.128 65.0327 55.216C65.1207 55.296 65.1647 55.416 65.1647 55.576V56.608L65.0327 56.464C65.2007 56 65.4727 55.652 65.8487 55.42C66.2327 55.18 66.6727 55.06 67.1687 55.06C67.6327 55.06 68.0167 55.144 68.3207 55.312C68.6327 55.48 68.8647 55.736 69.0167 56.08C69.1687 56.416 69.2447 56.844 69.2447 57.364V60.58C69.2447 60.74 69.2007 60.864 69.1127 60.952C69.0327 61.04 68.9167 61.084 68.7647 61.084C68.6047 61.084 68.4807 61.04 68.3927 60.952C68.3127 60.864 68.2727 60.74 68.2727 60.58V57.424C68.2727 56.88 68.1647 56.484 67.9487 56.236C67.7407 55.98 67.4047 55.852 66.9407 55.852C66.4047 55.852 65.9767 56.02 65.6567 56.356C65.3447 56.684 65.1887 57.124 65.1887 57.676V60.58C65.1887 60.916 65.0247 61.084 64.6967 61.084ZM73.617 63.268C73.193 63.268 72.777 63.216 72.369 63.112C71.969 63.016 71.605 62.86 71.277 62.644C71.181 62.588 71.117 62.52 71.085 62.44C71.061 62.36 71.057 62.28 71.073 62.2C71.089 62.128 71.125 62.06 71.181 61.996C71.237 61.94 71.301 61.904 71.373 61.888C71.453 61.872 71.533 61.884 71.613 61.924C71.965 62.14 72.301 62.288 72.621 62.368C72.941 62.448 73.257 62.488 73.569 62.488C74.137 62.488 74.565 62.336 74.853 62.032C75.149 61.728 75.297 61.288 75.297 60.712V59.356H75.417C75.297 59.82 75.041 60.188 74.649 60.46C74.265 60.732 73.813 60.868 73.293 60.868C72.757 60.868 72.293 60.748 71.901 60.508C71.509 60.26 71.205 59.916 70.989 59.476C70.781 59.036 70.677 58.528 70.677 57.952C70.677 57.52 70.737 57.128 70.857 56.776C70.977 56.416 71.149 56.112 71.373 55.864C71.605 55.608 71.881 55.412 72.201 55.276C72.529 55.132 72.893 55.06 73.293 55.06C73.821 55.06 74.277 55.196 74.661 55.468C75.045 55.732 75.293 56.092 75.405 56.548L75.285 56.692V55.576C75.285 55.416 75.325 55.296 75.405 55.216C75.493 55.128 75.613 55.084 75.765 55.084C75.925 55.084 76.045 55.128 76.125 55.216C76.205 55.296 76.245 55.416 76.245 55.576V60.58C76.245 61.468 76.021 62.136 75.573 62.584C75.133 63.04 74.481 63.268 73.617 63.268ZM73.473 60.076C73.849 60.076 74.173 59.992 74.445 59.824C74.717 59.648 74.925 59.4 75.069 59.08C75.221 58.76 75.297 58.384 75.297 57.952C75.297 57.304 75.133 56.792 74.805 56.416C74.477 56.032 74.033 55.84 73.473 55.84C73.105 55.84 72.785 55.928 72.513 56.104C72.241 56.272 72.029 56.516 71.877 56.836C71.733 57.148 71.661 57.52 71.661 57.952C71.661 58.6 71.825 59.116 72.153 59.5C72.481 59.884 72.921 60.076 73.473 60.076ZM79.5471 58.84C79.4431 58.84 79.3631 58.808 79.3071 58.744C79.2511 58.672 79.2231 58.576 79.2231 58.456C79.2231 58.176 79.2551 57.916 79.3191 57.676C79.3911 57.428 79.4991 57.176 79.6431 56.92C79.7951 56.664 79.9991 56.388 80.2551 56.092C80.4551 55.852 80.6151 55.64 80.7351 55.456C80.8551 55.272 80.9391 55.096 80.9871 54.928C81.0431 54.752 81.0711 54.576 81.0711 54.4C81.0711 54.064 80.9511 53.8 80.7111 53.608C80.4711 53.408 80.1391 53.308 79.7151 53.308C79.3471 53.308 79.0071 53.364 78.6951 53.476C78.3911 53.58 78.0951 53.74 77.8071 53.956C77.6871 54.036 77.5751 54.076 77.4711 54.076C77.3751 54.076 77.2951 54.048 77.2311 53.992C77.1671 53.936 77.1231 53.864 77.0991 53.776C77.0831 53.688 77.0951 53.596 77.1351 53.5C77.1831 53.404 77.2631 53.316 77.3751 53.236C77.6871 52.988 78.0551 52.792 78.4791 52.648C78.9031 52.504 79.3311 52.432 79.7631 52.432C80.2191 52.432 80.6191 52.512 80.9631 52.672C81.3151 52.824 81.5871 53.044 81.7791 53.332C81.9711 53.612 82.0671 53.944 82.0671 54.328C82.0671 54.576 82.0311 54.816 81.9591 55.048C81.8871 55.272 81.7711 55.5 81.6111 55.732C81.4591 55.964 81.2431 56.228 80.9631 56.524C80.7151 56.78 80.5151 57.02 80.3631 57.244C80.2111 57.46 80.0951 57.672 80.0151 57.88C79.9431 58.08 79.8951 58.292 79.8711 58.516C79.8631 58.612 79.8311 58.692 79.7751 58.756C79.7191 58.812 79.6431 58.84 79.5471 58.84ZM79.5351 61.048C79.3351 61.048 79.1711 60.988 79.0431 60.868C78.9231 60.74 78.8631 60.58 78.8631 60.388C78.8631 60.196 78.9231 60.04 79.0431 59.92C79.1711 59.792 79.3351 59.728 79.5351 59.728C79.7351 59.728 79.8911 59.792 80.0031 59.92C80.1231 60.04 80.1831 60.196 80.1831 60.388C80.1831 60.58 80.1231 60.74 80.0031 60.868C79.8911 60.988 79.7351 61.048 79.5351 61.048Z" fill="black"/>
</svg>
