<svg width="103" height="97" viewBox="0 0 103 97" fill="none" xmlns="http://www.w3.org/2000/svg">
<rect width="103" height="97" rx="16" fill="white"/>
<path d="M32.756 44.084C32.612 44.084 32.496 44.048 32.408 43.976C32.32 43.896 32.248 43.78 32.192 43.628L29.54 36.056C29.484 35.888 29.496 35.748 29.576 35.636C29.664 35.516 29.8 35.456 29.984 35.456C30.12 35.456 30.228 35.492 30.308 35.564C30.388 35.628 30.456 35.732 30.512 35.876L32.996 43.16H32.576L35.108 35.912C35.164 35.76 35.232 35.648 35.312 35.576C35.392 35.496 35.5 35.456 35.636 35.456C35.764 35.456 35.864 35.496 35.936 35.576C36.016 35.648 36.084 35.76 36.14 35.912L38.636 43.16H38.264L40.772 35.876C40.812 35.74 40.872 35.636 40.952 35.564C41.04 35.492 41.152 35.456 41.288 35.456C41.456 35.456 41.58 35.512 41.66 35.624C41.74 35.736 41.748 35.88 41.684 36.056L39.02 43.628C38.964 43.78 38.892 43.896 38.804 43.976C38.724 44.048 38.608 44.084 38.456 44.084C38.312 44.084 38.196 44.048 38.108 43.976C38.028 43.896 37.956 43.78 37.892 43.628L35.48 36.68H35.744L33.308 43.628C33.252 43.78 33.184 43.896 33.104 43.976C33.024 44.048 32.908 44.084 32.756 44.084ZM43.8803 44.084C43.7203 44.084 43.6003 44.04 43.5203 43.952C43.4403 43.864 43.4003 43.74 43.4003 43.58V35.948C43.4003 35.788 43.4403 35.668 43.5203 35.588C43.6003 35.5 43.7203 35.456 43.8803 35.456C44.0323 35.456 44.1523 35.5 44.2403 35.588C44.3283 35.668 44.3723 35.788 44.3723 35.948V39.464H44.2163C44.3843 39 44.6563 38.652 45.0323 38.42C45.4163 38.18 45.8563 38.06 46.3523 38.06C46.8163 38.06 47.2003 38.144 47.5043 38.312C47.8163 38.48 48.0483 38.736 48.2003 39.08C48.3523 39.416 48.4283 39.844 48.4283 40.364V43.58C48.4283 43.74 48.3843 43.864 48.2963 43.952C48.2163 44.04 48.1003 44.084 47.9483 44.084C47.7883 44.084 47.6643 44.04 47.5763 43.952C47.4963 43.864 47.4563 43.74 47.4563 43.58V40.424C47.4563 39.88 47.3483 39.484 47.1323 39.236C46.9243 38.98 46.5883 38.852 46.1243 38.852C45.5883 38.852 45.1603 39.02 44.8403 39.356C44.5283 39.684 44.3723 40.124 44.3723 40.676V43.58C44.3723 43.916 44.2083 44.084 43.8803 44.084ZM52.0566 44.108C51.6566 44.108 51.2966 44.032 50.9766 43.88C50.6646 43.72 50.4166 43.504 50.2326 43.232C50.0486 42.96 49.9566 42.656 49.9566 42.32C49.9566 41.888 50.0646 41.548 50.2806 41.3C50.5046 41.052 50.8686 40.876 51.3726 40.772C51.8846 40.668 52.5806 40.616 53.4606 40.616H54.0006V41.252H53.4726C52.8246 41.252 52.3126 41.284 51.9366 41.348C51.5686 41.404 51.3086 41.504 51.1566 41.648C51.0126 41.792 50.9406 41.996 50.9406 42.26C50.9406 42.588 51.0526 42.856 51.2766 43.064C51.5086 43.272 51.8206 43.376 52.2126 43.376C52.5326 43.376 52.8126 43.3 53.0526 43.148C53.3006 42.996 53.4926 42.788 53.6286 42.524C53.7726 42.26 53.8446 41.956 53.8446 41.612V40.244C53.8446 39.748 53.7446 39.392 53.5446 39.176C53.3446 38.952 53.0166 38.84 52.5606 38.84C52.2806 38.84 52.0006 38.876 51.7206 38.948C51.4406 39.02 51.1446 39.136 50.8326 39.296C50.7206 39.352 50.6246 39.372 50.5446 39.356C50.4646 39.332 50.4006 39.288 50.3526 39.224C50.3046 39.16 50.2766 39.088 50.2686 39.008C50.2606 38.92 50.2766 38.836 50.3166 38.756C50.3646 38.676 50.4366 38.612 50.5326 38.564C50.8846 38.388 51.2326 38.26 51.5766 38.18C51.9206 38.1 52.2486 38.06 52.5606 38.06C53.0646 38.06 53.4806 38.144 53.8086 38.312C54.1366 38.472 54.3806 38.72 54.5406 39.056C54.7006 39.384 54.7806 39.808 54.7806 40.328V43.58C54.7806 43.74 54.7406 43.864 54.6606 43.952C54.5886 44.04 54.4806 44.084 54.3366 44.084C54.1846 44.084 54.0686 44.04 53.9886 43.952C53.9086 43.864 53.8686 43.74 53.8686 43.58V42.644H53.9766C53.9126 42.948 53.7886 43.208 53.6046 43.424C53.4286 43.64 53.2086 43.808 52.9446 43.928C52.6806 44.048 52.3846 44.108 52.0566 44.108ZM58.9239 44.108C58.4679 44.108 58.0839 44.028 57.7719 43.868C57.4679 43.7 57.2399 43.46 57.0879 43.148C56.9359 42.828 56.8599 42.44 56.8599 41.984V38.924H56.0559C55.9199 38.924 55.8159 38.892 55.7439 38.828C55.6719 38.756 55.6359 38.66 55.6359 38.54C55.6359 38.42 55.6719 38.328 55.7439 38.264C55.8159 38.2 55.9199 38.168 56.0559 38.168H56.8599V36.788C56.8599 36.628 56.9039 36.508 56.9919 36.428C57.0799 36.34 57.1999 36.296 57.3519 36.296C57.5039 36.296 57.6199 36.34 57.6999 36.428C57.7879 36.508 57.8319 36.628 57.8319 36.788V38.168H59.3439C59.4799 38.168 59.5839 38.2 59.6559 38.264C59.7279 38.328 59.7639 38.42 59.7639 38.54C59.7639 38.66 59.7279 38.756 59.6559 38.828C59.5839 38.892 59.4799 38.924 59.3439 38.924H57.8319V41.888C57.8319 42.344 57.9279 42.692 58.1199 42.932C58.3119 43.164 58.6239 43.28 59.0559 43.28C59.2079 43.28 59.3359 43.264 59.4399 43.232C59.5519 43.2 59.6439 43.184 59.7159 43.184C59.7879 43.176 59.8479 43.2 59.8959 43.256C59.9439 43.312 59.9679 43.408 59.9679 43.544C59.9679 43.64 59.9479 43.728 59.9079 43.808C59.8759 43.888 59.8159 43.944 59.7279 43.976C59.6319 44.008 59.5039 44.036 59.3439 44.06C59.1919 44.092 59.0519 44.108 58.9239 44.108ZM61.2966 37.904C61.2166 38.008 61.1326 38.068 61.0446 38.084C60.9566 38.092 60.8806 38.076 60.8166 38.036C60.7526 37.988 60.7166 37.92 60.7086 37.832C60.7086 37.744 60.7486 37.648 60.8286 37.544C60.9566 37.376 61.0446 37.208 61.0926 37.04C61.1406 36.864 61.1646 36.708 61.1646 36.572L61.2126 36.812C61.0046 36.812 60.8366 36.752 60.7086 36.632C60.5886 36.504 60.5286 36.344 60.5286 36.152C60.5286 35.952 60.5846 35.792 60.6966 35.672C60.8166 35.552 60.9726 35.492 61.1646 35.492C61.3726 35.492 61.5366 35.564 61.6566 35.708C61.7766 35.844 61.8366 36.044 61.8366 36.308C61.8366 36.476 61.8206 36.652 61.7886 36.836C61.7566 37.012 61.7006 37.192 61.6206 37.376C61.5406 37.56 61.4326 37.736 61.2966 37.904ZM65.0675 44.108C64.7075 44.108 64.3435 44.064 63.9755 43.976C63.6155 43.888 63.2795 43.736 62.9675 43.52C62.8875 43.464 62.8315 43.4 62.7995 43.328C62.7675 43.248 62.7555 43.172 62.7635 43.1C62.7795 43.02 62.8115 42.952 62.8595 42.896C62.9155 42.84 62.9795 42.808 63.0515 42.8C63.1315 42.784 63.2195 42.8 63.3155 42.848C63.6275 43.04 63.9275 43.176 64.2155 43.256C64.5115 43.328 64.8035 43.364 65.0915 43.364C65.5475 43.364 65.8915 43.28 66.1235 43.112C66.3555 42.944 66.4715 42.716 66.4715 42.428C66.4715 42.204 66.3955 42.028 66.2435 41.9C66.0915 41.764 65.8515 41.66 65.5235 41.588L64.4315 41.348C63.9275 41.244 63.5515 41.064 63.3035 40.808C63.0635 40.552 62.9435 40.22 62.9435 39.812C62.9435 39.452 63.0355 39.144 63.2195 38.888C63.4115 38.624 63.6795 38.42 64.0235 38.276C64.3675 38.132 64.7675 38.06 65.2235 38.06C65.5755 38.06 65.9075 38.108 66.2195 38.204C66.5395 38.292 66.8275 38.436 67.0835 38.636C67.1635 38.692 67.2155 38.76 67.2395 38.84C67.2715 38.912 67.2755 38.988 67.2515 39.068C67.2355 39.14 67.1995 39.204 67.1435 39.26C67.0875 39.308 67.0195 39.336 66.9395 39.344C66.8595 39.352 66.7755 39.328 66.6875 39.272C66.4475 39.112 66.2035 38.996 65.9555 38.924C65.7075 38.844 65.4635 38.804 65.2235 38.804C64.7755 38.804 64.4355 38.892 64.2035 39.068C63.9715 39.244 63.8555 39.476 63.8555 39.764C63.8555 39.988 63.9275 40.172 64.0715 40.316C64.2155 40.46 64.4395 40.564 64.7435 40.628L65.8355 40.856C66.3555 40.968 66.7435 41.148 66.9995 41.396C67.2635 41.636 67.3955 41.964 67.3955 42.38C67.3955 42.908 67.1835 43.328 66.7595 43.64C66.3355 43.952 65.7715 44.108 65.0675 44.108ZM30.536 60.084C30.376 60.084 30.252 60.04 30.164 59.952C30.084 59.856 30.044 59.728 30.044 59.568V51.972C30.044 51.804 30.084 51.676 30.164 51.588C30.252 51.5 30.376 51.456 30.536 51.456C30.696 51.456 30.816 51.5 30.896 51.588C30.984 51.676 31.028 51.804 31.028 51.972V59.568C31.028 59.728 30.988 59.856 30.908 59.952C30.828 60.04 30.704 60.084 30.536 60.084ZM33.474 60.084C33.314 60.084 33.194 60.04 33.114 59.952C33.034 59.864 32.994 59.74 32.994 59.58V54.576C32.994 54.416 33.034 54.296 33.114 54.216C33.194 54.128 33.31 54.084 33.462 54.084C33.614 54.084 33.73 54.128 33.81 54.216C33.898 54.296 33.942 54.416 33.942 54.576V55.608L33.81 55.464C33.978 55 34.25 54.652 34.626 54.42C35.01 54.18 35.45 54.06 35.946 54.06C36.41 54.06 36.794 54.144 37.098 54.312C37.41 54.48 37.642 54.736 37.794 55.08C37.946 55.416 38.022 55.844 38.022 56.364V59.58C38.022 59.74 37.978 59.864 37.89 59.952C37.81 60.04 37.694 60.084 37.542 60.084C37.382 60.084 37.258 60.04 37.17 59.952C37.09 59.864 37.05 59.74 37.05 59.58V56.424C37.05 55.88 36.942 55.484 36.726 55.236C36.518 54.98 36.182 54.852 35.718 54.852C35.182 54.852 34.754 55.02 34.434 55.356C34.122 55.684 33.966 56.124 33.966 56.676V59.58C33.966 59.916 33.802 60.084 33.474 60.084ZM42.2863 60.108C41.7023 60.108 41.1983 59.98 40.7743 59.724C40.3503 59.468 40.0223 59.112 39.7903 58.656C39.5663 58.192 39.4543 57.656 39.4543 57.048C39.4543 56.584 39.5183 56.168 39.6463 55.8C39.7743 55.432 39.9623 55.12 40.2103 54.864C40.4583 54.6 40.7543 54.4 41.0983 54.264C41.4503 54.128 41.8463 54.06 42.2863 54.06C42.5743 54.06 42.8743 54.104 43.1863 54.192C43.4983 54.28 43.7823 54.432 44.0383 54.648C44.1183 54.704 44.1703 54.772 44.1943 54.852C44.2183 54.932 44.2183 55.012 44.1943 55.092C44.1703 55.164 44.1303 55.228 44.0743 55.284C44.0183 55.332 43.9463 55.36 43.8583 55.368C43.7783 55.376 43.6943 55.348 43.6063 55.284C43.3983 55.124 43.1863 55.012 42.9703 54.948C42.7543 54.884 42.5463 54.852 42.3463 54.852C42.0343 54.852 41.7623 54.904 41.5303 55.008C41.2983 55.104 41.1023 55.244 40.9423 55.428C40.7823 55.612 40.6583 55.84 40.5703 56.112C40.4903 56.384 40.4503 56.7 40.4503 57.06C40.4503 57.756 40.6143 58.308 40.9423 58.716C41.2703 59.116 41.7383 59.316 42.3463 59.316C42.5463 59.316 42.7503 59.284 42.9583 59.22C43.1743 59.156 43.3903 59.044 43.6063 58.884C43.6943 58.82 43.7783 58.792 43.8583 58.8C43.9383 58.808 44.0063 58.84 44.0623 58.896C44.1183 58.944 44.1543 59.008 44.1703 59.088C44.1943 59.168 44.1943 59.248 44.1703 59.328C44.1463 59.4 44.0943 59.464 44.0143 59.52C43.7583 59.728 43.4783 59.88 43.1743 59.976C42.8703 60.064 42.5743 60.108 42.2863 60.108ZM47.6758 60.108C47.1078 60.108 46.6158 59.984 46.1998 59.736C45.7838 59.488 45.4598 59.14 45.2278 58.692C45.0038 58.236 44.8918 57.7 44.8918 57.084C44.8918 56.62 44.9558 56.204 45.0838 55.836C45.2118 55.46 45.3998 55.14 45.6478 54.876C45.8958 54.612 46.1878 54.412 46.5238 54.276C46.8678 54.132 47.2518 54.06 47.6758 54.06C48.2438 54.06 48.7358 54.184 49.1518 54.432C49.5678 54.68 49.8878 55.032 50.1118 55.488C50.3438 55.936 50.4598 56.468 50.4598 57.084C50.4598 57.548 50.3958 57.964 50.2678 58.332C50.1398 58.7 49.9518 59.02 49.7038 59.292C49.4558 59.556 49.1598 59.76 48.8158 59.904C48.4798 60.04 48.0998 60.108 47.6758 60.108ZM47.6758 59.328C48.0358 59.328 48.3518 59.24 48.6238 59.064C48.8958 58.888 49.1038 58.632 49.2478 58.296C49.3998 57.96 49.4758 57.556 49.4758 57.084C49.4758 56.356 49.3118 55.8 48.9838 55.416C48.6638 55.032 48.2278 54.84 47.6758 54.84C47.3078 54.84 46.9878 54.928 46.7158 55.104C46.4518 55.272 46.2438 55.524 46.0918 55.86C45.9478 56.188 45.8758 56.596 45.8758 57.084C45.8758 57.804 46.0398 58.36 46.3678 58.752C46.6958 59.136 47.1318 59.328 47.6758 59.328ZM52.4238 60.084C52.2638 60.084 52.1438 60.04 52.0638 59.952C51.9838 59.864 51.9438 59.74 51.9438 59.58V54.576C51.9438 54.416 51.9838 54.296 52.0638 54.216C52.1438 54.128 52.2598 54.084 52.4118 54.084C52.5638 54.084 52.6798 54.128 52.7598 54.216C52.8478 54.296 52.8918 54.416 52.8918 54.576V55.632L52.7598 55.464C52.9118 55.016 53.1558 54.672 53.4918 54.432C53.8358 54.184 54.2438 54.06 54.7158 54.06C55.2118 54.06 55.6118 54.18 55.9158 54.42C56.2278 54.652 56.4358 55.016 56.5398 55.512H56.3598C56.5038 55.064 56.7598 54.712 57.1278 54.456C57.5038 54.192 57.9398 54.06 58.4358 54.06C58.8758 54.06 59.2358 54.144 59.5158 54.312C59.8038 54.48 60.0198 54.736 60.1638 55.08C60.3078 55.416 60.3798 55.844 60.3798 56.364V59.58C60.3798 59.74 60.3358 59.864 60.2478 59.952C60.1678 60.04 60.0478 60.084 59.8878 60.084C59.7358 60.084 59.6158 60.04 59.5278 59.952C59.4478 59.864 59.4078 59.74 59.4078 59.58V56.412C59.4078 55.876 59.3158 55.484 59.1318 55.236C58.9478 54.98 58.6358 54.852 58.1958 54.852C57.7158 54.852 57.3358 55.02 57.0558 55.356C56.7838 55.684 56.6478 56.132 56.6478 56.7V59.58C56.6478 59.74 56.6038 59.864 56.5158 59.952C56.4358 60.04 56.3158 60.084 56.1558 60.084C56.0038 60.084 55.8838 60.04 55.7958 59.952C55.7158 59.864 55.6758 59.74 55.6758 59.58V56.412C55.6758 55.876 55.5798 55.484 55.3878 55.236C55.2038 54.98 54.8958 54.852 54.4638 54.852C53.9838 54.852 53.6038 55.02 53.3238 55.356C53.0518 55.684 52.9158 56.132 52.9158 56.7V59.58C52.9158 59.916 52.7518 60.084 52.4238 60.084ZM64.8252 60.108C64.2092 60.108 63.6772 59.988 63.2292 59.748C62.7892 59.5 62.4452 59.152 62.1972 58.704C61.9572 58.256 61.8372 57.72 61.8372 57.096C61.8372 56.488 61.9572 55.96 62.1972 55.512C62.4372 55.056 62.7652 54.7 63.1812 54.444C63.6052 54.188 64.0932 54.06 64.6452 54.06C65.0372 54.06 65.3892 54.128 65.7012 54.264C66.0132 54.392 66.2772 54.58 66.4932 54.828C66.7172 55.076 66.8852 55.376 66.9972 55.728C67.1172 56.08 67.1772 56.476 67.1772 56.916C67.1772 57.044 67.1412 57.14 67.0692 57.204C66.9972 57.26 66.8932 57.288 66.7572 57.288H62.5812V56.652H66.5292L66.3372 56.808C66.3372 56.376 66.2732 56.012 66.1452 55.716C66.0172 55.412 65.8292 55.18 65.5812 55.02C65.3412 54.86 65.0372 54.78 64.6692 54.78C64.2612 54.78 63.9132 54.876 63.6252 55.068C63.3452 55.252 63.1332 55.512 62.9892 55.848C62.8452 56.176 62.7732 56.56 62.7732 57V57.072C62.7732 57.808 62.9492 58.368 63.3012 58.752C63.6612 59.136 64.1692 59.328 64.8252 59.328C65.0972 59.328 65.3652 59.292 65.6292 59.22C65.9012 59.148 66.1652 59.028 66.4212 58.86C66.5332 58.788 66.6332 58.756 66.7212 58.764C66.8172 58.764 66.8932 58.792 66.9492 58.848C67.0052 58.896 67.0412 58.96 67.0572 59.04C67.0812 59.112 67.0732 59.192 67.0332 59.28C67.0012 59.368 66.9332 59.444 66.8292 59.508C66.5652 59.7 66.2532 59.848 65.8932 59.952C65.5332 60.056 65.1772 60.108 64.8252 60.108ZM70.0627 57.84C69.9587 57.84 69.8787 57.808 69.8227 57.744C69.7667 57.672 69.7387 57.576 69.7387 57.456C69.7387 57.176 69.7707 56.916 69.8347 56.676C69.9067 56.428 70.0147 56.176 70.1587 55.92C70.3107 55.664 70.5147 55.388 70.7707 55.092C70.9707 54.852 71.1307 54.64 71.2507 54.456C71.3707 54.272 71.4547 54.096 71.5027 53.928C71.5587 53.752 71.5867 53.576 71.5867 53.4C71.5867 53.064 71.4667 52.8 71.2267 52.608C70.9867 52.408 70.6547 52.308 70.2307 52.308C69.8627 52.308 69.5227 52.364 69.2107 52.476C68.9067 52.58 68.6107 52.74 68.3227 52.956C68.2027 53.036 68.0907 53.076 67.9867 53.076C67.8907 53.076 67.8107 53.048 67.7467 52.992C67.6827 52.936 67.6387 52.864 67.6147 52.776C67.5987 52.688 67.6107 52.596 67.6507 52.5C67.6987 52.404 67.7787 52.316 67.8907 52.236C68.2027 51.988 68.5707 51.792 68.9947 51.648C69.4187 51.504 69.8467 51.432 70.2787 51.432C70.7347 51.432 71.1347 51.512 71.4787 51.672C71.8307 51.824 72.1027 52.044 72.2947 52.332C72.4867 52.612 72.5827 52.944 72.5827 53.328C72.5827 53.576 72.5467 53.816 72.4747 54.048C72.4027 54.272 72.2867 54.5 72.1267 54.732C71.9747 54.964 71.7587 55.228 71.4787 55.524C71.2307 55.78 71.0307 56.02 70.8787 56.244C70.7267 56.46 70.6107 56.672 70.5307 56.88C70.4587 57.08 70.4107 57.292 70.3867 57.516C70.3787 57.612 70.3467 57.692 70.2907 57.756C70.2347 57.812 70.1587 57.84 70.0627 57.84ZM70.0507 60.048C69.8507 60.048 69.6867 59.988 69.5587 59.868C69.4387 59.74 69.3787 59.58 69.3787 59.388C69.3787 59.196 69.4387 59.04 69.5587 58.92C69.6867 58.792 69.8507 58.728 70.0507 58.728C70.2507 58.728 70.4067 58.792 70.5187 58.92C70.6387 59.04 70.6987 59.196 70.6987 59.388C70.6987 59.58 70.6387 59.74 70.5187 59.868C70.4067 59.988 70.2507 60.048 70.0507 60.048Z" fill="black"/>
</svg>
