<svg enable-background="new 0 0 64 64" height="64" viewBox="0 0 64 64" width="64" xmlns="http://www.w3.org/2000/svg"><g fill="#394240"><path d="m61 29h-12c-1.657 0-3 1.344-3 3s1.343 3 3 3h12c1.657 0 3-1.344 3-3s-1.343-3-3-3zm0 4h-12c-.553 0-1-.447-1-1s.447-1 1-1h12c.553 0 1 .447 1 1s-.447 1-1 1z"/><path d="m59.312 44.57-11.275-4.104c-1.559-.566-3.279.236-3.846 1.793-.566 1.555.235 3.277 1.793 3.844l11.276 4.105c1.558.566 3.278-.238 3.845-1.793.567-1.556-.235-3.278-1.793-3.845zm-.085 3.162c-.189.52-.763.785-1.281.598l-11.277-4.105c-.52-.189-.786-.762-.598-1.281.189-.52.763-.787 1.282-.598l11.276 4.104c.519.189.787.763.598 1.282z"/><path d="m48.036 23.531 11.276-4.104c1.557-.566 2.359-2.289 1.793-3.844-.566-1.557-2.288-2.361-3.846-1.795l-11.275 4.105c-1.559.566-2.36 2.289-1.794 3.846.567 1.556 2.289 2.359 3.846 1.792zm-1.368-3.758 11.276-4.105c.519-.188 1.093.08 1.281.6.189.52-.078 1.092-.597 1.281l-11.277 4.104c-.52.189-1.093-.078-1.281-.598-.189-.52.078-1.092.598-1.282z"/><path d="m37.531.307c-1.492-.625-3.211-.277-4.359.867l-14.313 14.312s-.422.514-1.359.514c-1.207 0-13.5.002-13.5.002-2.211 0-4 1.789-4 4v23.998c0 2.211 1.789 4 4 4h13.344s1.107.107 1.671.67c.563.564 14.157 14.158 14.157 14.158.766.766 1.789 1.172 2.828 1.172.516 0 1.035-.098 1.531-.305 1.496-.617 2.469-2.078 2.469-3.695v-55.998c0-1.617-.973-3.078-2.469-3.695zm-31.531 45.693h-2c-1.104 0-2-.896-2-2v-24c0-1.105.896-2 2-2h2zm6 0h-4v-28h4zm26 14c0 2-2.188 2.812-4 1-1.109-1.109-14-14-14-14-.75-.75-1.437-1-2.499-1h-3.501v-28h3.501c1.062 0 1.499 0 2.499-1 0 0 12.766-12.766 14-14 1.781-1.782 4-.97 4 1z"/></g><path d="m8 18h4v28h-4z" fill="#45aab8"/><path d="m2 20v24c0 1.104.896 2 2 2h2v-28h-2c-1.104 0-2 .895-2 2z" fill="#f76d57"/><path d="m34 3c-1.234 1.233-14 14-14 14-1 1-1.437 1-2.499 1h-3.501v28h3.501c1.062 0 1.749.25 2.499 1 0 0 12.891 12.891 14 14 1.812 1.812 4 1 4-1 0-1.062 0-54.938 0-56 0-1.969-2.219-2.782-4-1z" fill="#f76d57"/><path d="m47.352 21.652 11.277-4.104c.519-.189.786-.762.597-1.281-.188-.52-.763-.787-1.281-.6l-11.276 4.105c-.52.189-.787.762-.598 1.281.188.521.761.789 1.281.599z" fill="#b4ccb9"/><path d="m61 31h-12c-.553 0-1 .447-1 1s.447 1 1 1h12c.553 0 1-.447 1-1s-.447-1-1-1z" fill="#b4ccb9"/><path d="m58.629 46.449-11.276-4.104c-.52-.189-1.093.078-1.282.598-.188.52.078 1.092.598 1.281l11.277 4.105c.519.188 1.092-.078 1.281-.598s-.079-1.092-.598-1.282z" fill="#b4ccb9"/><path d="m2 20v24c0 1.104.896 2 2 2h2v-28h-2c-1.104 0-2 .895-2 2z" opacity=".2"/></svg>