<svg width="124" height="52" viewBox="0 0 124 52" fill="none" xmlns="http://www.w3.org/2000/svg">
<path d="M14.7037 13.4172C15.3028 12.4165 16.6973 12.4165 17.2965 13.4172L20.8147 19.2938C21.0246 19.6443 21.3563 19.8962 21.7401 19.9966L28.174 21.6782C29.2697 21.9646 29.7006 23.3509 28.9752 24.2558L24.7157 29.5694C24.4616 29.8863 24.3349 30.2939 24.3622 30.7065L24.8204 37.6224C24.8984 38.8001 23.7702 39.6569 22.7228 39.2154L16.572 36.6228C16.2051 36.4682 15.7951 36.4682 15.4282 36.6228L9.27739 39.2154C8.22996 39.6569 7.10179 38.8001 7.1798 37.6224L7.63794 30.7065C7.66527 30.2939 7.53857 29.8863 7.28447 29.5694L3.02495 24.2558C2.29959 23.3509 2.73051 21.9646 3.82616 21.6782L10.2601 19.9966C10.6439 19.8962 10.9756 19.6443 11.1855 19.2938L14.7037 13.4172Z" fill="#FFE55A"/>
<path d="M59.8933 5.55298C60.8669 3.92679 63.133 3.92679 64.1065 5.55298L69.8237 15.1023C70.1647 15.672 70.7037 16.0814 71.3275 16.2444L81.7825 18.9771C83.563 19.4425 84.2632 21.6953 83.0845 23.1657L76.1628 31.8002C75.7499 32.3153 75.544 32.9776 75.5884 33.6481L76.3329 44.8864C76.4597 46.8002 74.6264 48.1925 72.9243 47.475L62.9293 43.2621C62.333 43.0108 61.6668 43.0108 61.0705 43.2621L51.0755 47.475C49.3735 48.1925 47.5402 46.8002 47.667 44.8864L48.4114 33.6481C48.4558 32.9776 48.25 32.3153 47.837 31.8002L40.9153 23.1657C39.7366 21.6953 40.4369 19.4425 42.2173 18.9771L52.6724 16.2444C53.2961 16.0814 53.8351 15.672 54.1762 15.1023L59.8933 5.55298Z" fill="#FFE55A"/>
<path d="M106.704 13.4172C107.303 12.4165 108.697 12.4165 109.296 13.4172L112.815 19.2938C113.025 19.6443 113.356 19.8962 113.74 19.9966L120.174 21.6782C121.27 21.9646 121.701 23.3509 120.975 24.2558L116.716 29.5694C116.462 29.8863 116.335 30.2939 116.362 30.7065L116.82 37.6224C116.898 38.8001 115.77 39.6569 114.723 39.2154L108.572 36.6228C108.205 36.4682 107.795 36.4682 107.428 36.6228L101.277 39.2154C100.23 39.6569 99.1018 38.8001 99.1798 37.6224L99.6379 30.7065C99.6653 30.2939 99.5386 29.8863 99.2845 29.5694L95.025 24.2558C94.2996 23.3509 94.7305 21.9646 95.8262 21.6782L102.26 19.9966C102.644 19.8962 102.976 19.6443 103.185 19.2938L106.704 13.4172Z" fill="#7646FE" fill-opacity="0.54"/>
</svg>
